<svg width="339" height="496" viewBox="0 0 339 496" fill="none" xmlns="http://www.w3.org/2000/svg">
<path fill-rule="evenodd" clip-rule="evenodd" d="M199 65.4222C192.45 80.9777 178.614 117.738 175.667 140.334C175.596 140.879 175.524 141.43 175.451 141.988C171.75 170.332 165.937 214.847 170.755 257C174.684 291.386 186.31 334.369 191.632 351.562H273.912C281.281 334.369 296.754 291.386 299.702 257C303.386 214.018 293.991 140.068 293.991 140.068C293.472 137.228 292.812 133.215 292.03 128.455C289.063 110.404 284.331 81.6189 278.824 65.4222L199 65.4222ZM249 308.352V290.324H244.996V308.352C244.996 309.732 244.736 310.975 244.215 312.082C243.694 313.176 242.984 314.107 242.086 314.875C241.175 315.63 240.113 316.216 238.902 316.633C237.678 317.036 236.376 317.238 234.996 317.238C233.616 317.238 232.32 317.036 231.109 316.633C229.899 316.216 228.844 315.63 227.945 314.875C227.034 314.107 226.318 313.176 225.797 312.082C225.263 310.975 224.996 309.732 224.996 308.352V290.324H220.992V308.352C220.992 310.292 221.363 312.056 222.106 313.645C222.835 315.233 223.837 316.594 225.113 317.727C226.376 318.846 227.861 319.712 229.566 320.324C231.259 320.936 233.069 321.242 234.996 321.242C236.936 321.242 238.759 320.936 240.465 320.324C242.171 319.712 243.655 318.846 244.918 317.727C246.181 316.594 247.177 315.233 247.906 313.645C248.635 312.056 249 310.292 249 308.352ZM249 285.461V258.703H244.996V281.457H220.992V285.461H249ZM249 227.082V223.078H220.992V241.438C220.992 242.727 221.162 243.964 221.5 245.148C221.826 246.333 222.294 247.447 222.906 248.488C223.518 249.517 224.254 250.461 225.113 251.32C225.96 252.167 226.904 252.896 227.945 253.508C228.974 254.107 230.087 254.576 231.285 254.914C232.47 255.24 233.707 255.402 234.996 255.402H249V251.398H234.996C233.616 251.398 232.32 251.138 231.109 250.617C229.899 250.083 228.844 249.367 227.945 248.469C227.034 247.57 226.318 246.516 225.797 245.305C225.263 244.094 224.996 242.805 224.996 241.438V227.082H237.008V249.426H240.992V227.082H249ZM244.137 186.066C243.16 185.65 242.112 185.441 240.992 185.441C239.899 185.441 238.87 185.65 237.906 186.066C236.93 186.483 236.083 187.056 235.367 187.785C234.638 188.501 234.065 189.348 233.649 190.324C233.219 191.288 233.004 192.323 233.004 193.43V209.758C233.004 210.305 232.9 210.826 232.691 211.32C232.483 211.802 232.197 212.225 231.832 212.59C231.468 212.954 231.044 213.241 230.563 213.449C230.068 213.658 229.547 213.762 229 213.762C228.453 213.762 227.939 213.658 227.457 213.449C226.962 213.241 226.533 212.954 226.168 212.59C225.803 212.225 225.517 211.802 225.309 211.32C225.1 210.826 224.996 210.305 224.996 209.758V187.434H220.992V209.758C220.992 210.852 221.207 211.887 221.637 212.863C222.053 213.84 222.626 214.693 223.356 215.422C224.072 216.138 224.918 216.711 225.895 217.141C226.871 217.557 227.906 217.766 229 217.766C230.107 217.766 231.149 217.557 232.125 217.141C233.102 216.711 233.954 216.138 234.684 215.422C235.4 214.693 235.966 213.84 236.383 212.863C236.8 211.887 237.008 210.852 237.008 209.758V193.43C237.008 192.87 237.112 192.349 237.32 191.867C237.529 191.385 237.815 190.969 238.18 190.617C238.544 190.253 238.968 189.966 239.449 189.758C239.931 189.549 240.445 189.445 240.992 189.445C241.539 189.445 242.06 189.549 242.555 189.758C243.037 189.966 243.46 190.253 243.824 190.617C244.189 190.969 244.475 191.385 244.684 191.867C244.892 192.349 244.996 192.87 244.996 193.43V217.766H249V193.43C249 192.323 248.792 191.288 248.375 190.324C247.958 189.348 247.392 188.501 246.676 187.785C245.947 187.056 245.1 186.483 244.137 186.066ZM244.137 150.441C243.16 150.025 242.112 149.816 240.992 149.816C239.899 149.816 238.87 150.025 237.906 150.441C236.93 150.858 236.083 151.431 235.367 152.16C234.638 152.876 234.065 153.723 233.649 154.699C233.219 155.663 233.004 156.698 233.004 157.805V174.133C233.004 174.68 232.9 175.201 232.691 175.695C232.483 176.177 232.197 176.6 231.832 176.965C231.468 177.329 231.044 177.616 230.563 177.824C230.068 178.033 229.547 178.137 229 178.137C228.453 178.137 227.939 178.033 227.457 177.824C226.962 177.616 226.533 177.329 226.168 176.965C225.803 176.6 225.517 176.177 225.309 175.695C225.1 175.201 224.996 174.68 224.996 174.133V151.809H220.992V174.133C220.992 175.227 221.207 176.262 221.637 177.238C222.053 178.215 222.626 179.068 223.356 179.797C224.072 180.513 224.918 181.086 225.895 181.516C226.871 181.932 227.906 182.141 229 182.141C230.107 182.141 231.149 181.932 232.125 181.516C233.102 181.086 233.954 180.513 234.684 179.797C235.4 179.068 235.966 178.215 236.383 177.238C236.8 176.262 237.008 175.227 237.008 174.133V157.805C237.008 157.245 237.112 156.724 237.32 156.242C237.529 155.76 237.815 155.344 238.18 154.992C238.544 154.628 238.968 154.341 239.449 154.133C239.931 153.924 240.445 153.82 240.992 153.82C241.539 153.82 242.06 153.924 242.555 154.133C243.037 154.341 243.46 154.628 243.824 154.992C244.189 155.344 244.475 155.76 244.684 156.242C244.892 156.724 244.996 157.245 244.996 157.805V182.141H249V157.805C249 156.698 248.792 155.663 248.375 154.699C247.958 153.723 247.392 152.876 246.676 152.16C245.947 151.431 245.1 150.858 244.137 150.441ZM249 145.109V141.105H220.992V145.109H249ZM249 123.078V105.051H244.996V123.078C244.996 124.458 244.736 125.702 244.215 126.809C243.694 127.902 242.984 128.833 242.086 129.602C241.175 130.357 240.113 130.943 238.902 131.359C237.678 131.763 236.376 131.965 234.996 131.965C233.616 131.965 232.32 131.763 231.109 131.359C229.899 130.943 228.844 130.357 227.945 129.602C227.034 128.833 226.318 127.902 225.797 126.809C225.263 125.702 224.996 124.458 224.996 123.078V105.051H220.992V123.078C220.992 125.018 221.363 126.783 222.106 128.371C222.835 129.96 223.837 131.32 225.113 132.453C226.376 133.573 227.861 134.439 229.566 135.051C231.259 135.663 233.069 135.969 234.996 135.969C236.936 135.969 238.759 135.663 240.465 135.051C242.171 134.439 243.655 133.573 244.918 132.453C246.181 131.32 247.177 129.96 247.906 128.371C248.635 126.783 249 125.018 249 123.078ZM247.164 95.5977C246.8 95.4284 246.409 95.3437 245.992 95.3437C245.589 95.3437 245.204 95.4284 244.84 95.5977C244.475 95.7539 244.156 95.9687 243.883 96.2422C243.609 96.5156 243.395 96.8346 243.238 97.1992C243.082 97.5638 243.004 97.9479 243.004 98.3516C243.004 98.7682 243.082 99.1589 243.238 99.5234C243.395 99.875 243.609 100.188 243.883 100.461C244.156 100.734 244.475 100.949 244.84 101.105C245.204 101.262 245.589 101.34 245.992 101.34C246.409 101.34 246.8 101.262 247.164 101.105C247.529 100.949 247.848 100.734 248.121 100.461C248.395 100.188 248.609 99.875 248.766 99.5234C248.922 99.1589 249 98.7682 249 98.3516C249 97.9479 248.922 97.5638 248.766 97.1992C248.609 96.8346 248.395 96.5156 248.121 96.2422C247.848 95.9687 247.529 95.7539 247.164 95.5977Z" fill="#261A2D"/>
<path d="M201.457 369.982C201.457 370.355 201.259 370.699 200.91 371.097C198.76 375.558 195.316 383.57 195.316 387.175C195.316 392.087 195.316 396.999 197.773 403.14C200.229 409.28 201.457 414.192 202.685 409.28C203.913 404.368 222.334 387.175 219.878 393.315C217.422 399.456 218.65 416.649 219.878 422.789C221.106 428.929 228.474 437.526 232.158 439.982C239.527 415.42 235.843 420.333 238.299 416.649C242.152 410.868 250.989 400.684 256.72 397C257.129 402.321 257.948 414.438 257.948 420.333C269 417.877 265.316 379.807 267.772 379.807C271.456 384.719 271.456 401.912 271.456 412.964C271.456 424.017 262.86 436.298 260.404 442.438C258.439 447.35 257.129 457.584 256.72 462.087C253.445 459.631 246.895 453.736 246.895 449.806L246.895 427.701C245.667 428.929 243.211 433.841 243.211 443.666V470.683C243.211 480.508 223.562 500.157 224.79 494.017C226.018 487.876 213.737 464.543 210.053 458.403C207.106 453.491 208.006 432.613 208.825 422.789C207.597 426.882 204.65 436.789 202.685 443.666C200.72 450.543 196.954 452.262 195.316 452.262C192.042 441.619 186.229 415.666 189.176 397C192.301 377.208 198.96 373.32 200.91 371.097C201.104 370.695 201.287 370.321 201.457 369.982Z" fill="#261A2D"/>
<path d="M319.351 414.193L286.193 346.649C289.14 343.702 302.977 289.749 309.526 263.141L339 286.474L319.351 414.193Z" fill="#261A2D"/>
<path d="M129 282.79L162.158 260.685C162.158 283.281 173.619 326.591 179.35 345.421L143.737 411.737L129 282.79Z" fill="#261A2D"/>
<path d="M273.912 56.491L202.684 56.491C213.327 37.6607 235.596 0 239.526 0C243.456 0 264.087 37.6607 273.912 56.491Z" fill="#261A2D"/>
<path d="M105 364.642V425.375H41.4296V416.287H95.9122V364.642H105ZM43.7348 345.347C44.6806 345.347 45.5672 345.525 46.3947 345.879C47.1926 346.234 47.9019 346.722 48.5226 347.342C49.1432 347.963 49.6308 348.687 49.9855 349.514C50.3401 350.342 50.5175 351.214 50.5175 352.13C50.5175 353.076 50.3401 353.962 49.9855 354.79C49.6308 355.617 49.1432 356.341 48.5226 356.962C47.9019 357.583 47.1926 358.07 46.3947 358.425C45.5672 358.78 44.6806 358.957 43.7348 358.957C42.8187 358.957 41.9468 358.78 41.1193 358.425C40.2918 358.07 39.5677 357.583 38.9471 356.962C38.3265 356.341 37.8388 355.617 37.4842 354.79C37.1 353.962 36.9079 353.076 36.9079 352.13C36.9079 351.214 37.1 350.342 37.4842 349.514C37.8388 348.687 38.3265 347.963 38.9471 347.342C39.5677 346.722 40.2918 346.234 41.1193 345.879C41.9468 345.525 42.8187 345.347 43.7348 345.347ZM105 347.608V356.696H55.0835V347.608H105ZM45.9957 284.116V309.251C46.0253 311.438 46.4686 313.492 47.3256 315.413C48.1531 317.305 49.291 318.96 50.7391 320.379C52.1577 321.797 53.8275 322.92 55.7485 323.748C57.6695 324.575 59.7087 324.989 61.8661 324.989H105V334.077H59.6053C56.4134 334.077 53.4433 333.397 50.6948 332.038C47.9167 330.648 45.5229 328.816 43.5132 326.54C41.474 324.235 39.8781 321.59 38.7255 318.605C37.5433 315.62 36.9375 312.502 36.9079 309.251V284.116H45.9957ZM68.6931 284.116L68.6931 320.423H59.6053V284.116H68.6931ZM105 258.083V267.171H64.127V280.78H55.0835V267.171H36.9079L36.9079 258.083H55.0835V226.298H64.127V258.083H105ZM73.2148 141.704C77.6183 141.704 81.7559 142.399 85.6274 143.788C89.499 145.177 92.8681 147.157 95.7349 149.728C98.6016 152.27 100.862 155.328 102.517 158.904C104.172 162.48 105 166.455 105 170.829V191.975C105 196.379 104.172 200.383 102.517 203.989C100.862 207.594 98.6016 210.683 95.7349 213.254C92.8681 215.796 89.499 217.761 85.6274 219.15C81.7559 220.539 77.6183 221.234 73.2148 221.234C68.8408 221.234 64.7329 220.539 60.8909 219.15C57.0193 217.761 53.6502 215.796 50.7834 213.254C47.8872 210.683 45.6115 207.594 43.9565 203.989C42.2719 200.383 41.4296 196.379 41.4296 191.975V170.829C41.4296 166.455 42.2719 162.48 43.9565 158.904C45.6115 155.328 47.8872 152.27 50.7834 149.728C53.6502 147.157 57.0193 145.177 60.8909 143.788C64.7329 142.399 68.8408 141.704 73.2148 141.704ZM73.2148 150.792C70.0821 150.792 67.1415 151.25 64.393 152.166C61.6445 153.082 59.2506 154.412 57.2114 156.156C55.1426 157.87 53.5172 159.968 52.335 162.451C51.1233 164.904 50.5175 167.697 50.5175 170.829V191.975C50.5175 195.108 51.1233 197.93 52.335 200.442C53.5172 202.925 55.1426 205.038 57.2114 206.782C59.2506 208.496 61.6445 209.826 64.393 210.772C67.1415 211.688 70.0821 212.146 73.2148 212.146C76.3475 212.146 79.3029 211.688 82.081 210.772C84.8295 209.826 87.2381 208.496 89.3069 206.782C91.3461 205.038 92.9568 202.925 94.139 200.442C95.3211 197.93 95.9122 195.108 95.9122 191.975V170.829C95.9122 167.697 95.3211 164.904 94.139 162.451C92.9568 159.968 91.3461 157.87 89.3069 156.156C87.2381 154.412 84.8295 153.082 82.081 152.166C79.3029 151.25 76.3475 150.792 73.2148 150.792ZM45.9957 80.783V105.919C46.0253 108.106 46.4686 110.16 47.3256 112.081C48.1531 113.972 49.291 115.627 50.7391 117.046C52.1577 118.464 53.8275 119.587 55.7485 120.415C57.6695 121.242 59.7087 121.656 61.8661 121.656H105V130.744H59.6053C56.4134 130.744 53.4433 130.064 50.6948 128.705C47.9167 127.316 45.5229 125.483 43.5132 123.208C41.474 120.902 39.8781 118.257 38.7255 115.272C37.5433 112.287 36.9375 109.169 36.9079 105.919V80.783H45.9957ZM68.6931 80.783L68.6931 117.09H59.6053V80.783H68.6931ZM45.9957 22.3443L45.9957 47.4799C46.0253 49.6669 46.4686 51.7209 47.3256 53.6419C48.1531 55.5333 49.291 57.1883 50.7391 58.6069C52.1577 60.0255 53.8275 61.1486 55.7485 61.9761C57.6695 62.8036 59.7087 63.2173 61.8661 63.2173H105V72.3052H59.6053C56.4134 72.3052 53.4433 71.6254 50.6948 70.2659C47.9167 68.8769 45.5229 67.0446 43.5132 64.7689C41.474 62.4637 39.8781 59.8186 38.7255 56.8337C37.5433 53.8488 36.9375 50.7308 36.9079 47.4799L36.9079 22.3443H45.9957ZM68.6931 22.3443V58.6513H59.6053L59.6053 22.3443H68.6931ZM105 6.19729V14.7088H96.4885V6.19729H105Z" fill="#261A2D"/>
</svg>
