<svg width="339" height="496" viewBox="0 0 339 496" fill="none" xmlns="http://www.w3.org/2000/svg">
<path fill-rule="evenodd" clip-rule="evenodd" d="M199 65.4222C192.45 80.9777 178.614 117.738 175.667 140.334C175.596 140.879 175.524 141.43 175.451 141.988C171.75 170.332 165.937 214.847 170.755 257C174.684 291.386 186.31 334.369 191.632 351.562H273.912C281.281 334.369 296.754 291.386 299.702 257C303.386 214.018 293.991 140.068 293.991 140.068C293.472 137.228 292.812 133.215 292.03 128.455C289.063 110.404 284.331 81.6189 278.824 65.4222L199 65.4222ZM228 285.506V272.887H225.197V285.506C225.197 286.472 225.015 287.342 224.65 288.117C224.286 288.883 223.789 289.535 223.16 290.072C222.522 290.601 221.779 291.011 220.932 291.303C220.075 291.585 219.163 291.727 218.197 291.727C217.231 291.727 216.324 291.585 215.477 291.303C214.629 291.011 213.891 290.601 213.262 290.072C212.624 289.535 212.122 288.883 211.758 288.117C211.384 287.342 211.197 286.472 211.197 285.506V272.887H208.395V285.506C208.395 286.864 208.654 288.099 209.174 289.211C209.684 290.323 210.386 291.275 211.279 292.068C212.163 292.852 213.202 293.458 214.396 293.887C215.581 294.315 216.848 294.529 218.197 294.529C219.555 294.529 220.831 294.315 222.025 293.887C223.219 293.458 224.258 292.852 225.143 292.068C226.027 291.275 226.724 290.323 227.234 289.211C227.745 288.099 228 286.864 228 285.506ZM222.025 246.965C220.831 246.536 219.555 246.322 218.197 246.322C216.848 246.322 215.581 246.536 214.396 246.965C213.202 247.393 212.163 248.004 211.279 248.797C210.386 249.581 209.684 250.524 209.174 251.627C208.654 252.73 208.395 253.956 208.395 255.305V261.826C208.395 263.184 208.654 264.419 209.174 265.531C209.684 266.643 210.386 267.596 211.279 268.389C212.163 269.173 213.202 269.779 214.396 270.207C215.581 270.635 216.848 270.85 218.197 270.85C219.555 270.85 220.831 270.635 222.025 270.207C223.219 269.779 224.258 269.173 225.143 268.389C226.027 267.596 226.724 266.643 227.234 265.531C227.745 264.419 228 263.184 228 261.826V255.305C228 253.956 227.745 252.73 227.234 251.627C226.724 250.524 226.027 249.581 225.143 248.797C224.258 248.004 223.219 247.393 222.025 246.965ZM215.477 249.549C216.324 249.266 217.231 249.125 218.197 249.125C219.163 249.125 220.075 249.266 220.932 249.549C221.779 249.831 222.522 250.242 223.16 250.779C223.789 251.308 224.286 251.955 224.65 252.721C225.015 253.477 225.197 254.339 225.197 255.305V261.826C225.197 262.792 225.015 263.663 224.65 264.438C224.286 265.203 223.789 265.855 223.16 266.393C222.522 266.921 221.779 267.331 220.932 267.623C220.075 267.906 219.163 268.047 218.197 268.047C217.231 268.047 216.324 267.906 215.477 267.623C214.629 267.331 213.891 266.921 213.262 266.393C212.624 265.855 212.122 265.203 211.758 264.438C211.384 263.663 211.197 262.792 211.197 261.826V255.305C211.197 254.339 211.384 253.477 211.758 252.721C212.122 251.955 212.624 251.308 213.262 250.779C213.891 250.242 214.629 249.831 215.477 249.549ZM228 234.838V222.219H225.197V234.838C225.197 235.804 225.015 236.674 224.65 237.449C224.286 238.215 223.789 238.867 223.16 239.404C222.522 239.933 221.779 240.343 220.932 240.635C220.075 240.917 219.163 241.059 218.197 241.059C217.231 241.059 216.324 240.917 215.477 240.635C214.629 240.343 213.891 239.933 213.262 239.404C212.624 238.867 212.122 238.215 211.758 237.449C211.384 236.674 211.197 235.804 211.197 234.838V222.219H208.395V234.838C208.395 236.196 208.654 237.431 209.174 238.543C209.684 239.655 210.386 240.607 211.279 241.4C212.163 242.184 213.202 242.79 214.396 243.219C215.581 243.647 216.848 243.861 218.197 243.861C219.555 243.861 220.831 243.647 222.025 243.219C223.219 242.79 224.258 242.184 225.143 241.4C226.027 240.607 226.724 239.655 227.234 238.543C227.745 237.431 228 236.196 228 234.838ZM222.025 196.297C220.831 195.868 219.555 195.654 218.197 195.654C216.848 195.654 215.581 195.868 214.396 196.297C213.202 196.725 212.163 197.336 211.279 198.129C210.386 198.913 209.684 199.856 209.174 200.959C208.654 202.062 208.395 203.288 208.395 204.637V211.158C208.395 212.516 208.654 213.751 209.174 214.863C209.684 215.975 210.386 216.928 211.279 217.721C212.163 218.505 213.202 219.111 214.396 219.539C215.581 219.967 216.848 220.182 218.197 220.182C219.555 220.182 220.831 219.967 222.025 219.539C223.219 219.111 224.258 218.505 225.143 217.721C226.027 216.928 226.724 215.975 227.234 214.863C227.745 213.751 228 212.516 228 211.158V204.637C228 203.288 227.745 202.062 227.234 200.959C226.724 199.856 226.027 198.913 225.143 198.129C224.258 197.336 223.219 196.725 222.025 196.297ZM215.477 198.881C216.324 198.598 217.231 198.457 218.197 198.457C219.163 198.457 220.075 198.598 220.932 198.881C221.779 199.163 222.522 199.574 223.16 200.111C223.789 200.64 224.286 201.287 224.65 202.053C225.015 202.809 225.197 203.671 225.197 204.637V211.158C225.197 212.124 225.015 212.995 224.65 213.77C224.286 214.535 223.789 215.187 223.16 215.725C222.522 216.253 221.779 216.663 220.932 216.955C220.075 217.238 219.163 217.379 218.197 217.379C217.231 217.379 216.324 217.238 215.477 216.955C214.629 216.663 213.891 216.253 213.262 215.725C212.624 215.187 212.122 214.535 211.758 213.77C211.384 212.995 211.197 212.124 211.197 211.158V204.637C211.197 203.671 211.384 202.809 211.758 202.053C212.122 201.287 212.624 200.64 213.262 200.111C213.891 199.574 214.629 199.163 215.477 198.881ZM228 192.072V189.27H211.307C211.471 188.212 211.799 187.082 212.291 185.879C212.774 184.676 213.394 183.482 214.15 182.297C214.907 181.103 215.786 179.959 216.789 178.865C217.783 177.771 218.872 176.805 220.057 175.967C221.242 175.128 222.504 174.458 223.844 173.957C225.174 173.456 226.56 173.205 228 173.205V170.402H208.395V173.205H219.182C218.115 173.898 217.113 174.682 216.174 175.557C215.226 176.432 214.351 177.366 213.549 178.359C212.747 179.353 212.031 180.383 211.402 181.449C210.764 182.507 210.222 183.568 209.775 184.635C209.329 185.701 208.987 186.749 208.75 187.779C208.513 188.8 208.395 189.766 208.395 190.678V192.072H228ZM218.197 144.713L208.395 144.686V144.713V147.516H218.197C219.163 147.516 220.075 147.698 220.932 148.063C221.779 148.427 222.522 148.924 223.16 149.553C223.789 150.182 224.286 150.92 224.65 151.768C225.015 152.615 225.197 153.522 225.197 154.488V156.553C225.197 157.51 225.015 158.412 224.65 159.26C224.286 160.107 223.789 160.85 223.16 161.488C222.522 162.117 221.779 162.614 220.932 162.979C220.075 163.343 219.163 163.525 218.197 163.525H208.395V166.328H218.197C219.1 166.328 219.97 166.214 220.809 165.986C221.638 165.749 222.417 165.421 223.146 165.002C223.867 164.574 224.527 164.063 225.129 163.471C225.721 162.878 226.232 162.222 226.66 161.502C227.089 160.773 227.421 159.993 227.658 159.164C227.886 158.326 228 157.455 228 156.553V154.488C228 153.586 227.886 152.72 227.658 151.891C227.421 151.061 227.093 150.286 226.674 149.566C226.245 148.837 225.735 148.176 225.143 147.584C224.541 146.982 223.88 146.472 223.16 146.053C222.431 145.624 221.652 145.296 220.822 145.068C219.984 144.831 219.109 144.713 218.197 144.713ZM228 132.805V130.002H211.197L211.197 120.09H208.395L208.395 142.717H211.197V132.805H228ZM262 250.684V231.953H259.197V247.881H242.395V250.684H262ZM262 229.301V226.498H242.395V229.301H262ZM262 210.475V207.672H252.197C251.231 207.672 250.324 207.49 249.477 207.125C248.629 206.751 247.891 206.25 247.262 205.621C246.624 204.983 246.122 204.24 245.758 203.393C245.384 202.545 245.197 201.638 245.197 200.672V199.154H262V196.352H242.395V200.672C242.395 201.565 242.513 202.426 242.75 203.256C242.978 204.076 243.301 204.846 243.721 205.566C244.14 206.286 244.641 206.943 245.225 207.535C245.808 208.128 246.455 208.638 247.166 209.066C246.455 209.504 245.808 210.019 245.225 210.611C244.641 211.204 244.14 211.86 243.721 212.58C243.301 213.3 242.978 214.075 242.75 214.904C242.513 215.725 242.395 216.581 242.395 217.475V221.781H262V218.979H245.197V217.475C245.197 216.508 245.384 215.602 245.758 214.754C246.122 213.897 246.624 213.154 247.262 212.525C247.891 211.887 248.629 211.386 249.477 211.021C250.324 210.657 251.231 210.475 252.197 210.475H262ZM262 191.648L262 171.373H259.197L259.197 188.846H245.197L245.197 171.373H242.395L242.395 191.648H262ZM253.605 187.451V173.752H250.803V187.451H253.605ZM260.715 164.674C260.46 164.555 260.186 164.496 259.895 164.496C259.612 164.496 259.343 164.555 259.088 164.674C258.833 164.783 258.609 164.934 258.418 165.125C258.227 165.316 258.076 165.54 257.967 165.795C257.857 166.05 257.803 166.319 257.803 166.602C257.803 166.893 257.857 167.167 257.967 167.422C258.076 167.668 258.227 167.887 258.418 168.078C258.609 168.27 258.833 168.42 259.088 168.529C259.343 168.639 259.612 168.693 259.895 168.693C260.186 168.693 260.46 168.639 260.715 168.529C260.97 168.42 261.193 168.27 261.385 168.078C261.576 167.887 261.727 167.668 261.836 167.422C261.945 167.167 262 166.893 262 166.602C262 166.319 261.945 166.05 261.836 165.795C261.727 165.54 261.576 165.316 261.385 165.125C261.193 164.934 260.97 164.783 260.715 164.674Z" fill="#98C35D"/>
<path d="M201.457 369.982C201.457 370.355 201.259 370.699 200.91 371.097C198.76 375.558 195.316 383.57 195.316 387.175C195.316 392.087 195.316 396.999 197.772 403.14C200.228 409.28 201.457 414.192 202.685 409.28C203.913 404.368 222.334 387.175 219.878 393.315C217.421 399.456 218.65 416.649 219.878 422.789C221.106 428.929 228.474 437.526 232.158 439.982C239.527 415.42 235.842 420.333 238.299 416.649C242.152 410.868 250.989 400.684 256.72 397C257.129 402.321 257.948 414.438 257.948 420.333C269 417.877 265.316 379.807 267.772 379.807C271.456 384.719 271.456 401.912 271.456 412.964C271.456 424.017 262.86 436.298 260.404 442.438C258.439 447.35 257.129 457.584 256.72 462.087C253.445 459.631 246.895 453.736 246.895 449.806L246.895 427.701C245.667 428.929 243.211 433.841 243.211 443.666V470.683C243.211 480.508 223.562 500.157 224.79 494.017C226.018 487.876 213.737 464.543 210.053 458.403C207.106 453.491 208.006 432.613 208.825 422.789C207.597 426.882 204.65 436.789 202.685 443.666C200.72 450.543 196.954 452.262 195.316 452.262C192.042 441.619 186.229 415.666 189.176 397C192.301 377.208 198.96 373.32 200.91 371.097C201.104 370.695 201.287 370.321 201.457 369.982Z" fill="#98C35D"/>
<path d="M319.351 414.193L286.193 346.649C289.14 343.702 302.977 289.749 309.526 263.141L339 286.474L319.351 414.193Z" fill="#98C35D"/>
<path d="M129 282.79L162.158 260.685C162.158 283.281 173.619 326.591 179.35 345.421L143.737 411.737L129 282.79Z" fill="#98C35D"/>
<path d="M273.912 56.491L202.684 56.491C213.327 37.6607 235.596 0 239.526 0C243.456 0 264.087 37.6607 273.912 56.491Z" fill="#98C35D"/>
<path d="M105 364.642V425.375H41.4296V416.287H95.9122V364.642H105ZM43.7348 345.347C44.6806 345.347 45.5672 345.525 46.3947 345.879C47.1926 346.234 47.9019 346.722 48.5226 347.342C49.1432 347.963 49.6308 348.687 49.9855 349.514C50.3401 350.342 50.5175 351.214 50.5175 352.13C50.5175 353.076 50.3401 353.962 49.9855 354.79C49.6308 355.617 49.1432 356.341 48.5226 356.962C47.9019 357.583 47.1926 358.07 46.3947 358.425C45.5672 358.78 44.6806 358.957 43.7348 358.957C42.8187 358.957 41.9468 358.78 41.1193 358.425C40.2918 358.07 39.5677 357.583 38.9471 356.962C38.3265 356.341 37.8388 355.617 37.4842 354.79C37.1 353.962 36.9079 353.076 36.9079 352.13C36.9079 351.214 37.1 350.342 37.4842 349.514C37.8388 348.687 38.3265 347.963 38.9471 347.342C39.5677 346.722 40.2918 346.234 41.1193 345.879C41.9468 345.525 42.8187 345.347 43.7348 345.347ZM105 347.608V356.696H55.0835V347.608H105ZM45.9957 284.116V309.251C46.0253 311.438 46.4686 313.492 47.3256 315.413C48.1531 317.305 49.291 318.96 50.7391 320.379C52.1577 321.797 53.8275 322.92 55.7485 323.748C57.6695 324.575 59.7087 324.989 61.8661 324.989H105V334.077H59.6053C56.4134 334.077 53.4433 333.397 50.6948 332.038C47.9167 330.648 45.5229 328.816 43.5132 326.54C41.474 324.235 39.8781 321.59 38.7255 318.605C37.5433 315.62 36.9375 312.502 36.9079 309.251V284.116H45.9957ZM68.6931 284.116L68.6931 320.423H59.6053V284.116H68.6931ZM105 258.083V267.171H64.127V280.78H55.0835V267.171H36.9079L36.9079 258.083H55.0835V226.298H64.127V258.083H105ZM73.2148 141.704C77.6183 141.704 81.7559 142.399 85.6274 143.788C89.499 145.177 92.8681 147.157 95.7349 149.728C98.6016 152.27 100.862 155.328 102.517 158.904C104.172 162.48 105 166.455 105 170.829V191.975C105 196.379 104.172 200.383 102.517 203.989C100.862 207.594 98.6016 210.683 95.7349 213.254C92.8681 215.796 89.499 217.761 85.6274 219.15C81.7559 220.539 77.6183 221.234 73.2148 221.234C68.8408 221.234 64.7329 220.539 60.8909 219.15C57.0193 217.761 53.6502 215.796 50.7834 213.254C47.8872 210.683 45.6115 207.594 43.9565 203.989C42.2719 200.383 41.4296 196.379 41.4296 191.975V170.829C41.4296 166.455 42.2719 162.48 43.9565 158.904C45.6115 155.328 47.8872 152.27 50.7834 149.728C53.6502 147.157 57.0193 145.177 60.8909 143.788C64.7329 142.399 68.8408 141.704 73.2148 141.704ZM73.2148 150.792C70.0821 150.792 67.1415 151.25 64.393 152.166C61.6445 153.082 59.2506 154.412 57.2114 156.156C55.1426 157.87 53.5172 159.968 52.335 162.451C51.1233 164.904 50.5175 167.697 50.5175 170.829V191.975C50.5175 195.108 51.1233 197.93 52.335 200.442C53.5172 202.925 55.1426 205.038 57.2114 206.782C59.2506 208.496 61.6445 209.826 64.393 210.772C67.1415 211.688 70.0821 212.146 73.2148 212.146C76.3475 212.146 79.3029 211.688 82.081 210.772C84.8295 209.826 87.2381 208.496 89.3069 206.782C91.3461 205.038 92.9568 202.925 94.139 200.442C95.3211 197.93 95.9122 195.108 95.9122 191.975V170.829C95.9122 167.697 95.3211 164.904 94.139 162.451C92.9568 159.968 91.3461 157.87 89.3069 156.156C87.2381 154.412 84.8295 153.082 82.081 152.166C79.3029 151.25 76.3475 150.792 73.2148 150.792ZM45.9957 80.783V105.919C46.0253 108.106 46.4686 110.16 47.3256 112.081C48.1531 113.972 49.291 115.627 50.7391 117.046C52.1577 118.464 53.8275 119.587 55.7485 120.415C57.6695 121.242 59.7087 121.656 61.8661 121.656H105V130.744H59.6053C56.4134 130.744 53.4433 130.064 50.6948 128.705C47.9167 127.316 45.5229 125.483 43.5132 123.208C41.474 120.902 39.8781 118.257 38.7255 115.272C37.5433 112.287 36.9375 109.169 36.9079 105.919V80.783H45.9957ZM68.6931 80.783L68.6931 117.09H59.6053V80.783H68.6931ZM45.9957 22.3443L45.9957 47.4799C46.0253 49.6669 46.4686 51.7209 47.3256 53.6419C48.1531 55.5333 49.291 57.1883 50.7391 58.6069C52.1577 60.0255 53.8275 61.1486 55.7485 61.9761C57.6695 62.8036 59.7087 63.2173 61.8661 63.2173H105V72.3052H59.6053C56.4134 72.3052 53.4433 71.6254 50.6948 70.2659C47.9167 68.8769 45.5229 67.0446 43.5132 64.7689C41.474 62.4637 39.8781 59.8186 38.7255 56.8337C37.5433 53.8488 36.9375 50.7308 36.9079 47.4799L36.9079 22.3443H45.9957ZM68.6931 22.3443V58.6513H59.6053L59.6053 22.3443H68.6931ZM105 6.19729V14.7088H96.4885V6.19729H105Z" fill="#98C35D"/>
</svg>
