<svg width="339" height="496" viewBox="0 0 339 496" fill="none" xmlns="http://www.w3.org/2000/svg">
<path fill-rule="evenodd" clip-rule="evenodd" d="M199 65.4222C192.45 80.9777 178.614 117.738 175.667 140.334C175.596 140.879 175.524 141.43 175.451 141.988C171.75 170.332 165.937 214.847 170.754 257C174.684 291.386 186.31 334.369 191.632 351.562H273.912C281.28 334.369 296.754 291.386 299.701 257C303.386 214.018 293.991 140.068 293.991 140.068C293.472 137.228 292.812 133.215 292.03 128.455C289.063 110.404 284.331 81.6189 278.824 65.4222L199 65.4222ZM245 316.965V304.346H233.803V319.016H236.605V307.148H242.197V316.965C242.197 317.931 242.015 318.801 241.65 319.576C241.286 320.342 240.789 320.993 240.16 321.531C239.522 322.06 238.779 322.47 237.932 322.762C237.075 323.044 236.163 323.186 235.197 323.186C234.231 323.186 233.324 323.044 232.477 322.762C231.629 322.47 230.891 322.06 230.262 321.531C229.624 320.993 229.122 320.342 228.758 319.576C228.384 318.801 228.197 317.931 228.197 316.965V304.346H225.395V316.965C225.395 318.323 225.654 319.558 226.174 320.67C226.684 321.782 227.386 322.734 228.279 323.527C229.163 324.311 230.202 324.917 231.396 325.346C232.581 325.774 233.848 325.988 235.197 325.988C236.555 325.988 237.831 325.774 239.025 325.346C240.219 324.917 241.258 324.311 242.143 323.527C243.027 322.734 243.724 321.782 244.234 320.67C244.745 319.558 245 318.323 245 316.965ZM245 281.336L245 277.549L239.313 283.428C239.176 282.598 238.907 281.828 238.506 281.117C238.096 280.397 237.585 279.773 236.975 279.244C236.355 278.716 235.658 278.301 234.883 278C234.099 277.699 233.27 277.549 232.395 277.549C231.428 277.549 230.521 277.736 229.674 278.109C228.826 278.474 228.088 278.975 227.459 279.613C226.821 280.242 226.32 280.98 225.955 281.828C225.581 282.676 225.395 283.583 225.395 284.549V300.176H245V297.373H228.197V284.549C228.197 283.965 228.307 283.419 228.525 282.908C228.744 282.398 229.045 281.956 229.428 281.582C229.801 281.199 230.243 280.898 230.754 280.68C231.264 280.461 231.811 280.352 232.395 280.352C232.978 280.352 233.529 280.461 234.049 280.68C234.559 280.898 235.006 281.199 235.389 281.582C235.771 281.956 236.077 282.398 236.305 282.908C236.523 283.419 236.633 283.965 236.633 284.549V295.801H239.395V287.215L245 281.336ZM245 254.471V251.668H225.395V264.52C225.395 265.422 225.513 266.288 225.75 267.117C225.978 267.947 226.306 268.726 226.734 269.455C227.163 270.175 227.678 270.836 228.279 271.438C228.872 272.03 229.533 272.54 230.262 272.969C230.982 273.388 231.761 273.716 232.6 273.953C233.429 274.181 234.295 274.295 235.197 274.295H245V271.492H235.197C234.231 271.492 233.324 271.31 232.477 270.945C231.629 270.572 230.891 270.07 230.262 269.441C229.624 268.813 229.122 268.074 228.758 267.227C228.384 266.379 228.197 265.477 228.197 264.52V254.471H236.605V270.111H239.395V254.471H245ZM237.357 226.402C236.719 225.764 235.977 225.263 235.129 224.898C234.272 224.525 233.361 224.338 232.395 224.338C231.428 224.338 230.521 224.525 229.674 224.898C228.826 225.263 228.088 225.764 227.459 226.402C226.821 227.031 226.32 227.77 225.955 228.617C225.581 229.465 225.395 230.372 225.395 231.338V246.965H245V244.162H228.197V231.338C228.197 230.755 228.307 230.208 228.525 229.697C228.744 229.187 229.045 228.745 229.428 228.371C229.801 227.988 230.243 227.688 230.754 227.469C231.264 227.25 231.811 227.141 232.395 227.141C232.978 227.141 233.529 227.25 234.049 227.469C234.559 227.688 235.006 227.988 235.389 228.371C235.771 228.745 236.077 229.187 236.305 229.697C236.523 230.208 236.633 230.755 236.633 231.338L236.633 242.59H239.395L239.395 231.338C239.395 230.372 239.212 229.465 238.848 228.617C238.483 227.77 237.986 227.031 237.357 226.402ZM245 221.289V201.014H242.197V218.486H228.197V201.014H225.395V221.289H245ZM236.605 217.092V203.393H233.803V217.092H236.605ZM228.197 194.725V177.225H225.395V197.527H245V194.725H228.197ZM236.605 193.33L236.605 179.631H233.803L233.803 193.33H236.605ZM245 155.555V151.768L239.313 157.646C239.176 156.817 238.907 156.047 238.506 155.336C238.096 154.616 237.585 153.992 236.975 153.463C236.355 152.934 235.658 152.52 234.883 152.219C234.099 151.918 233.27 151.768 232.395 151.768C231.428 151.768 230.521 151.954 229.674 152.328C228.826 152.693 228.088 153.194 227.459 153.832C226.821 154.461 226.32 155.199 225.955 156.047C225.581 156.895 225.395 157.801 225.395 158.768V174.395H245V171.592H228.197V158.768C228.197 158.184 228.307 157.637 228.525 157.127C228.744 156.617 229.045 156.174 229.428 155.801C229.801 155.418 230.243 155.117 230.754 154.898C231.264 154.68 231.811 154.57 232.395 154.57C232.978 154.57 233.529 154.68 234.049 154.898C234.559 155.117 235.006 155.418 235.389 155.801C235.771 156.174 236.077 156.617 236.305 157.127C236.523 157.637 236.633 158.184 236.633 158.768V170.02H239.395V161.434L245 155.555ZM235.197 127.199L225.395 127.172V127.199V130.002H235.197C236.163 130.002 237.075 130.184 237.932 130.549C238.779 130.913 239.522 131.41 240.16 132.039C240.789 132.668 241.286 133.406 241.65 134.254C242.015 135.102 242.197 136.008 242.197 136.975V139.039C242.197 139.996 242.015 140.898 241.65 141.746C241.286 142.594 240.789 143.337 240.16 143.975C239.522 144.604 238.779 145.1 237.932 145.465C237.075 145.829 236.163 146.012 235.197 146.012H225.395V148.814H235.197C236.1 148.814 236.97 148.701 237.809 148.473C238.638 148.236 239.417 147.908 240.146 147.488C240.867 147.06 241.527 146.549 242.129 145.957C242.721 145.365 243.232 144.708 243.66 143.988C244.089 143.259 244.421 142.48 244.658 141.65C244.886 140.812 245 139.941 245 139.039V136.975C245 136.072 244.886 135.206 244.658 134.377C244.421 133.548 244.093 132.773 243.674 132.053C243.245 131.324 242.735 130.663 242.143 130.07C241.541 129.469 240.88 128.958 240.16 128.539C239.431 128.111 238.652 127.783 237.822 127.555C236.984 127.318 236.109 127.199 235.197 127.199ZM245 123.125V120.322H225.395V123.125H245ZM245 107.771V104.969H228.197V95.0566H225.395V117.684H228.197V107.771H245ZM243.715 90.4902C243.46 90.3718 243.186 90.3125 242.895 90.3125C242.612 90.3125 242.343 90.3718 242.088 90.4902C241.833 90.5996 241.609 90.75 241.418 90.9414C241.227 91.1328 241.076 91.3561 240.967 91.6113C240.857 91.8665 240.803 92.1354 240.803 92.418C240.803 92.7096 240.857 92.9831 240.967 93.2383C241.076 93.4844 241.227 93.7031 241.418 93.8945C241.609 94.0859 241.833 94.2363 242.088 94.3457C242.343 94.4551 242.612 94.5098 242.895 94.5098C243.186 94.5098 243.46 94.4551 243.715 94.3457C243.97 94.2363 244.193 94.0859 244.385 93.8945C244.576 93.7031 244.727 93.4844 244.836 93.2383C244.945 92.9831 245 92.7096 245 92.418C245 92.1354 244.945 91.8665 244.836 91.6113C244.727 91.3561 244.576 91.1328 244.385 90.9414C244.193 90.75 243.97 90.5996 243.715 90.4902Z" fill="#E0475A"/>
<path d="M201.457 369.982C201.457 370.355 201.259 370.699 200.91 371.097C198.76 375.558 195.316 383.57 195.316 387.175C195.316 392.087 195.316 396.999 197.772 403.14C200.228 409.28 201.457 414.192 202.685 409.28C203.913 404.368 222.334 387.175 219.878 393.315C217.421 399.456 218.65 416.649 219.878 422.789C221.106 428.929 228.474 437.526 232.158 439.982C239.527 415.42 235.842 420.333 238.299 416.649C242.152 410.868 250.989 400.684 256.72 397C257.129 402.321 257.948 414.438 257.948 420.333C269 417.877 265.316 379.807 267.772 379.807C271.456 384.719 271.456 401.912 271.456 412.964C271.456 424.017 262.86 436.298 260.404 442.438C258.439 447.35 257.129 457.584 256.72 462.087C253.445 459.631 246.895 453.736 246.895 449.806L246.895 427.701C245.667 428.929 243.211 433.841 243.211 443.666V470.683C243.211 480.508 223.562 500.157 224.79 494.017C226.018 487.876 213.737 464.543 210.053 458.403C207.106 453.491 208.006 432.613 208.825 422.789C207.597 426.882 204.65 436.789 202.685 443.666C200.72 450.543 196.954 452.262 195.316 452.262C192.042 441.619 186.229 415.666 189.176 397C192.301 377.208 198.96 373.32 200.91 371.097C201.104 370.695 201.287 370.321 201.457 369.982Z" fill="#E0475A"/>
<path d="M319.351 414.193L286.193 346.649C289.14 343.702 302.976 289.749 309.526 263.141L339 286.474L319.351 414.193Z" fill="#E0475A"/>
<path d="M129 282.79L162.158 260.685C162.158 283.281 173.62 326.591 179.351 345.421L143.737 411.737L129 282.79Z" fill="#E0475A"/>
<path d="M273.912 56.491L202.684 56.491C213.327 37.6607 235.596 0 239.526 0C243.456 0 264.087 37.6607 273.912 56.491Z" fill="#E0475A"/>
<path d="M105 364.642V425.375H41.4296V416.287H95.9122V364.642H105ZM43.7348 345.347C44.6806 345.347 45.5672 345.525 46.3947 345.879C47.1926 346.234 47.9019 346.722 48.5226 347.342C49.1432 347.963 49.6308 348.687 49.9855 349.514C50.3401 350.342 50.5175 351.214 50.5175 352.13C50.5175 353.076 50.3401 353.962 49.9855 354.79C49.6308 355.617 49.1432 356.341 48.5226 356.962C47.9019 357.583 47.1926 358.07 46.3947 358.425C45.5672 358.78 44.6806 358.957 43.7348 358.957C42.8187 358.957 41.9468 358.78 41.1193 358.425C40.2918 358.07 39.5677 357.583 38.9471 356.962C38.3265 356.341 37.8388 355.617 37.4842 354.79C37.1 353.962 36.9079 353.076 36.9079 352.13C36.9079 351.214 37.1 350.342 37.4842 349.514C37.8388 348.687 38.3265 347.963 38.9471 347.342C39.5677 346.722 40.2918 346.234 41.1193 345.879C41.9468 345.525 42.8187 345.347 43.7348 345.347ZM105 347.608V356.696H55.0835V347.608H105ZM45.9957 284.116V309.251C46.0253 311.438 46.4686 313.492 47.3256 315.413C48.1531 317.305 49.291 318.96 50.7391 320.379C52.1577 321.797 53.8275 322.92 55.7485 323.748C57.6695 324.575 59.7087 324.989 61.8661 324.989H105V334.077H59.6053C56.4134 334.077 53.4433 333.397 50.6948 332.038C47.9167 330.648 45.5229 328.816 43.5132 326.54C41.474 324.235 39.8781 321.59 38.7255 318.605C37.5433 315.62 36.9375 312.502 36.9079 309.251V284.116H45.9957ZM68.6931 284.116L68.6931 320.423H59.6053V284.116H68.6931ZM105 258.083V267.171H64.127V280.78H55.0835V267.171H36.9079L36.9079 258.083H55.0835V226.298H64.127V258.083H105ZM73.2148 141.704C77.6183 141.704 81.7559 142.399 85.6274 143.788C89.499 145.177 92.8681 147.157 95.7349 149.728C98.6016 152.27 100.862 155.328 102.517 158.904C104.172 162.48 105 166.455 105 170.829V191.975C105 196.379 104.172 200.383 102.517 203.989C100.862 207.594 98.6016 210.683 95.7349 213.254C92.8681 215.796 89.499 217.761 85.6274 219.15C81.7559 220.539 77.6183 221.234 73.2148 221.234C68.8408 221.234 64.7329 220.539 60.8909 219.15C57.0193 217.761 53.6502 215.796 50.7834 213.254C47.8872 210.683 45.6115 207.594 43.9565 203.989C42.2719 200.383 41.4296 196.379 41.4296 191.975V170.829C41.4296 166.455 42.2719 162.48 43.9565 158.904C45.6115 155.328 47.8872 152.27 50.7834 149.728C53.6502 147.157 57.0193 145.177 60.8909 143.788C64.7329 142.399 68.8408 141.704 73.2148 141.704ZM73.2148 150.792C70.0821 150.792 67.1415 151.25 64.393 152.166C61.6445 153.082 59.2506 154.412 57.2114 156.156C55.1426 157.87 53.5172 159.968 52.335 162.451C51.1233 164.904 50.5175 167.697 50.5175 170.829V191.975C50.5175 195.108 51.1233 197.93 52.335 200.442C53.5172 202.925 55.1426 205.038 57.2114 206.782C59.2506 208.496 61.6445 209.826 64.393 210.772C67.1415 211.688 70.0821 212.146 73.2148 212.146C76.3475 212.146 79.3029 211.688 82.081 210.772C84.8295 209.826 87.2381 208.496 89.3069 206.782C91.3461 205.038 92.9568 202.925 94.139 200.442C95.3211 197.93 95.9122 195.108 95.9122 191.975V170.829C95.9122 167.697 95.3211 164.904 94.139 162.451C92.9568 159.968 91.3461 157.87 89.3069 156.156C87.2381 154.412 84.8295 153.082 82.081 152.166C79.3029 151.25 76.3475 150.792 73.2148 150.792ZM45.9957 80.783V105.919C46.0253 108.106 46.4686 110.16 47.3256 112.081C48.1531 113.972 49.291 115.627 50.7391 117.046C52.1577 118.464 53.8275 119.587 55.7485 120.415C57.6695 121.242 59.7087 121.656 61.8661 121.656H105V130.744H59.6053C56.4134 130.744 53.4433 130.064 50.6948 128.705C47.9167 127.316 45.5229 125.483 43.5132 123.208C41.474 120.902 39.8781 118.257 38.7255 115.272C37.5433 112.287 36.9375 109.169 36.9079 105.919V80.783H45.9957ZM68.6931 80.783L68.6931 117.09H59.6053V80.783H68.6931ZM45.9957 22.3443L45.9957 47.4799C46.0253 49.6669 46.4686 51.7209 47.3256 53.6419C48.1531 55.5333 49.291 57.1883 50.7391 58.6069C52.1577 60.0255 53.8275 61.1486 55.7485 61.9761C57.6695 62.8036 59.7087 63.2173 61.8661 63.2173H105V72.3052H59.6053C56.4134 72.3052 53.4433 71.6254 50.6948 70.2659C47.9167 68.8769 45.5229 67.0446 43.5132 64.7689C41.474 62.4637 39.8781 59.8186 38.7255 56.8337C37.5433 53.8488 36.9375 50.7308 36.9079 47.4799L36.9079 22.3443H45.9957ZM68.6931 22.3443V58.6513H59.6053L59.6053 22.3443H68.6931ZM105 6.19729V14.7088H96.4885V6.19729H105Z" fill="#E0475A"/>
</svg>
