<svg width="339" height="496" viewBox="0 0 339 496" fill="none" xmlns="http://www.w3.org/2000/svg">
<path fill-rule="evenodd" clip-rule="evenodd" d="M199 65.4222C192.45 80.9777 178.614 117.738 175.667 140.334C175.596 140.879 175.524 141.43 175.451 141.988C171.75 170.332 165.937 214.847 170.754 257C174.684 291.386 186.31 334.369 191.632 351.562H273.912C281.28 334.369 296.754 291.386 299.701 257C303.386 214.018 293.991 140.068 293.991 140.068C293.472 137.228 292.812 133.215 292.03 128.455C289.063 110.404 284.331 81.6189 278.824 65.4222L199 65.4222ZM248 297.044L248 271.624H244.196L244.196 293.24H221.393V297.044H248ZM248 268.024V240.508H244.196V264.221H225.196V240.508H221.393V268.024H248ZM236.607 262.328V243.736H232.804V262.328H236.607ZM248 220.432V216.628H234.696C233.385 216.628 232.154 216.381 231.004 215.886C229.854 215.379 228.852 214.698 227.998 213.845C227.132 212.979 226.452 211.971 225.957 210.82C225.45 209.67 225.196 208.439 225.196 207.128V205.068H248V201.265H221.393V207.128C221.393 208.34 221.553 209.509 221.875 210.635C222.184 211.748 222.623 212.793 223.192 213.771C223.761 214.748 224.442 215.638 225.233 216.442C226.025 217.246 226.903 217.939 227.868 218.521C226.903 219.114 226.025 219.813 225.233 220.617C224.442 221.421 223.761 222.312 223.192 223.289C222.623 224.266 222.184 225.318 221.875 226.443C221.553 227.557 221.393 228.719 221.393 229.932V235.776H248V231.973H225.196V229.932C225.196 228.62 225.45 227.39 225.957 226.239C226.452 225.077 227.132 224.068 227.998 223.215C228.852 222.349 229.854 221.669 231.004 221.174C232.154 220.679 233.385 220.432 234.696 220.432H248ZM239.892 163.988C238.271 163.407 236.539 163.116 234.696 163.116C232.866 163.116 231.146 163.407 229.538 163.988C227.918 164.57 226.507 165.398 225.308 166.475C224.095 167.538 223.143 168.819 222.45 170.315C221.745 171.812 221.393 173.476 221.393 175.307V184.157C221.393 186 221.745 187.676 222.45 189.186C223.143 190.695 224.095 191.987 225.308 193.063C226.507 194.127 227.918 194.95 229.538 195.531C231.146 196.113 232.866 196.403 234.696 196.403C236.539 196.403 238.271 196.113 239.892 195.531C241.512 194.95 242.922 194.127 244.122 193.063C245.322 191.987 246.268 190.695 246.961 189.186C247.654 187.676 248 186 248 184.157V175.307C248 173.476 247.654 171.812 246.961 170.315C246.268 168.819 245.322 167.538 244.122 166.475C242.922 165.398 241.512 164.57 239.892 163.988ZM231.004 167.495C232.154 167.112 233.385 166.92 234.696 166.92C236.007 166.92 237.244 167.112 238.407 167.495C239.558 167.879 240.566 168.435 241.432 169.165C242.285 169.882 242.959 170.761 243.454 171.8C243.949 172.827 244.196 173.995 244.196 175.307V184.157C244.196 185.468 243.949 186.65 243.454 187.701C242.959 188.74 242.285 189.625 241.432 190.354C240.566 191.072 239.558 191.629 238.407 192.024C237.244 192.408 236.007 192.6 234.696 192.6C233.385 192.6 232.154 192.408 231.004 192.024C229.854 191.629 228.852 191.072 227.998 190.354C227.132 189.625 226.452 188.74 225.957 187.701C225.45 186.65 225.196 185.468 225.196 184.157V175.307C225.196 173.995 225.45 172.827 225.957 171.8C226.452 170.761 227.132 169.882 227.998 169.165C228.852 168.435 229.854 167.879 231.004 167.495ZM248 158.255V154.451H225.345C225.567 153.016 226.013 151.482 226.681 149.85C227.336 148.217 228.177 146.596 229.204 144.988C230.231 143.368 231.424 141.815 232.785 140.331C234.133 138.847 235.612 137.535 237.22 136.397C238.828 135.259 240.541 134.35 242.359 133.67C244.165 132.99 246.046 132.649 248 132.649V128.846H221.393V132.649H236.032C234.585 133.59 233.224 134.653 231.95 135.841C230.664 137.028 229.476 138.296 228.388 139.645C227.299 140.993 226.328 142.391 225.475 143.838C224.609 145.273 223.873 146.714 223.267 148.161C222.66 149.608 222.197 151.031 221.875 152.429C221.553 153.814 221.393 155.125 221.393 156.362V158.255H248ZM246.256 118.084C245.91 117.923 245.538 117.843 245.143 117.843C244.759 117.843 244.394 117.923 244.048 118.084C243.702 118.232 243.398 118.437 243.139 118.696C242.879 118.956 242.675 119.259 242.526 119.605C242.378 119.952 242.304 120.317 242.304 120.7C242.304 121.096 242.378 121.467 242.526 121.813C242.675 122.147 242.879 122.444 243.139 122.704C243.398 122.964 243.702 123.168 244.048 123.316C244.394 123.465 244.759 123.539 245.143 123.539C245.538 123.539 245.91 123.465 246.256 123.316C246.602 123.168 246.905 122.964 247.165 122.704C247.425 122.444 247.629 122.147 247.777 121.813C247.926 121.467 248 121.096 248 120.7C248 120.317 247.926 119.952 247.777 119.605C247.629 119.259 247.425 118.956 247.165 118.696C246.905 118.437 246.602 118.232 246.256 118.084Z" fill="#EECB13"/>
<path d="M201.457 369.982C201.457 370.355 201.259 370.699 200.91 371.097C198.76 375.558 195.316 383.57 195.316 387.175C195.316 392.087 195.316 396.999 197.772 403.14C200.228 409.28 201.457 414.192 202.685 409.28C203.913 404.368 222.334 387.175 219.878 393.315C217.421 399.456 218.65 416.649 219.878 422.789C221.106 428.929 228.474 437.526 232.158 439.982C239.527 415.42 235.842 420.333 238.299 416.649C242.152 410.868 250.989 400.684 256.72 397C257.129 402.321 257.948 414.438 257.948 420.333C269 417.877 265.316 379.807 267.772 379.807C271.456 384.719 271.456 401.912 271.456 412.964C271.456 424.017 262.86 436.298 260.404 442.438C258.439 447.35 257.129 457.584 256.72 462.087C253.445 459.631 246.895 453.736 246.895 449.806L246.895 427.701C245.667 428.929 243.211 433.841 243.211 443.666V470.683C243.211 480.508 223.562 500.157 224.79 494.017C226.018 487.876 213.737 464.543 210.053 458.403C207.106 453.491 208.006 432.613 208.825 422.789C207.597 426.882 204.65 436.789 202.685 443.666C200.72 450.543 196.954 452.262 195.316 452.262C192.042 441.619 186.229 415.666 189.176 397C192.301 377.208 198.96 373.32 200.91 371.097C201.104 370.695 201.287 370.321 201.457 369.982Z" fill="#EECB13"/>
<path d="M319.351 414.193L286.193 346.649C289.14 343.702 302.976 289.749 309.526 263.141L339 286.474L319.351 414.193Z" fill="#EECB13"/>
<path d="M129 282.79L162.158 260.685C162.158 283.281 173.62 326.591 179.351 345.421L143.737 411.737L129 282.79Z" fill="#EECB13"/>
<path d="M273.912 56.491L202.684 56.491C213.327 37.6607 235.596 0 239.526 0C243.456 0 264.087 37.6607 273.912 56.491Z" fill="#EECB13"/>
<path d="M105 364.642V425.375H41.4296V416.287H95.9122V364.642H105ZM43.7348 345.347C44.6806 345.347 45.5672 345.525 46.3947 345.879C47.1926 346.234 47.9019 346.722 48.5226 347.342C49.1432 347.963 49.6308 348.687 49.9855 349.514C50.3401 350.342 50.5175 351.214 50.5175 352.13C50.5175 353.076 50.3401 353.962 49.9855 354.79C49.6308 355.617 49.1432 356.341 48.5226 356.962C47.9019 357.583 47.1926 358.07 46.3947 358.425C45.5672 358.78 44.6806 358.957 43.7348 358.957C42.8187 358.957 41.9468 358.78 41.1193 358.425C40.2918 358.07 39.5677 357.583 38.9471 356.962C38.3265 356.341 37.8388 355.617 37.4842 354.79C37.1 353.962 36.9079 353.076 36.9079 352.13C36.9079 351.214 37.1 350.342 37.4842 349.514C37.8388 348.687 38.3265 347.963 38.9471 347.342C39.5677 346.722 40.2918 346.234 41.1193 345.879C41.9468 345.525 42.8187 345.347 43.7348 345.347ZM105 347.608V356.696H55.0835V347.608H105ZM45.9957 284.116V309.251C46.0253 311.438 46.4686 313.492 47.3256 315.413C48.1531 317.305 49.291 318.96 50.7391 320.379C52.1577 321.797 53.8275 322.92 55.7485 323.748C57.6695 324.575 59.7087 324.989 61.8661 324.989H105V334.077H59.6053C56.4134 334.077 53.4433 333.397 50.6948 332.038C47.9167 330.648 45.5229 328.816 43.5132 326.54C41.474 324.235 39.8781 321.59 38.7255 318.605C37.5433 315.62 36.9375 312.502 36.9079 309.251V284.116H45.9957ZM68.6931 284.116L68.6931 320.423H59.6053V284.116H68.6931ZM105 258.083V267.171H64.127V280.78H55.0835V267.171H36.9079L36.9079 258.083H55.0835V226.298H64.127V258.083H105ZM73.2148 141.704C77.6183 141.704 81.7559 142.399 85.6274 143.788C89.499 145.177 92.8681 147.157 95.7349 149.728C98.6016 152.27 100.862 155.328 102.517 158.904C104.172 162.48 105 166.455 105 170.829V191.975C105 196.379 104.172 200.383 102.517 203.989C100.862 207.594 98.6016 210.683 95.7349 213.254C92.8681 215.796 89.499 217.761 85.6274 219.15C81.7559 220.539 77.6183 221.234 73.2148 221.234C68.8408 221.234 64.7329 220.539 60.8909 219.15C57.0193 217.761 53.6502 215.796 50.7834 213.254C47.8872 210.683 45.6115 207.594 43.9565 203.989C42.2719 200.383 41.4296 196.379 41.4296 191.975V170.829C41.4296 166.455 42.2719 162.48 43.9565 158.904C45.6115 155.328 47.8872 152.27 50.7834 149.728C53.6502 147.157 57.0193 145.177 60.8909 143.788C64.7329 142.399 68.8408 141.704 73.2148 141.704ZM73.2148 150.792C70.0821 150.792 67.1415 151.25 64.393 152.166C61.6445 153.082 59.2506 154.412 57.2114 156.156C55.1426 157.87 53.5172 159.968 52.335 162.451C51.1233 164.904 50.5175 167.697 50.5175 170.829V191.975C50.5175 195.108 51.1233 197.93 52.335 200.442C53.5172 202.925 55.1426 205.038 57.2114 206.782C59.2506 208.496 61.6445 209.826 64.393 210.772C67.1415 211.688 70.0821 212.146 73.2148 212.146C76.3475 212.146 79.3029 211.688 82.081 210.772C84.8295 209.826 87.2381 208.496 89.3069 206.782C91.3461 205.038 92.9568 202.925 94.139 200.442C95.3211 197.93 95.9122 195.108 95.9122 191.975V170.829C95.9122 167.697 95.3211 164.904 94.139 162.451C92.9568 159.968 91.3461 157.87 89.3069 156.156C87.2381 154.412 84.8295 153.082 82.081 152.166C79.3029 151.25 76.3475 150.792 73.2148 150.792ZM45.9957 80.783V105.919C46.0253 108.106 46.4686 110.16 47.3256 112.081C48.1531 113.972 49.291 115.627 50.7391 117.046C52.1577 118.464 53.8275 119.587 55.7485 120.415C57.6695 121.242 59.7087 121.656 61.8661 121.656H105V130.744H59.6053C56.4134 130.744 53.4433 130.064 50.6948 128.705C47.9167 127.316 45.5229 125.483 43.5132 123.208C41.474 120.902 39.8781 118.257 38.7255 115.272C37.5433 112.287 36.9375 109.169 36.9079 105.919V80.783H45.9957ZM68.6931 80.783L68.6931 117.09H59.6053V80.783H68.6931ZM45.9957 22.3443L45.9957 47.4799C46.0253 49.6669 46.4686 51.7209 47.3256 53.6419C48.1531 55.5333 49.291 57.1883 50.7391 58.6069C52.1577 60.0255 53.8275 61.1486 55.7485 61.9761C57.6695 62.8036 59.7087 63.2173 61.8661 63.2173H105V72.3052H59.6053C56.4134 72.3052 53.4433 71.6254 50.6948 70.2659C47.9167 68.8769 45.5229 67.0446 43.5132 64.7689C41.474 62.4637 39.8781 59.8186 38.7255 56.8337C37.5433 53.8488 36.9375 50.7308 36.9079 47.4799L36.9079 22.3443H45.9957ZM68.6931 22.3443V58.6513H59.6053L59.6053 22.3443H68.6931ZM105 6.19729V14.7088H96.4885V6.19729H105Z" fill="#EECB13"/>
</svg>
