<svg width="339" height="496" viewBox="0 0 339 496" fill="none" xmlns="http://www.w3.org/2000/svg">
<path fill-rule="evenodd" clip-rule="evenodd" d="M199 65.4222C192.45 80.9777 178.614 117.738 175.667 140.334C175.596 140.879 175.524 141.43 175.451 141.988C171.75 170.332 165.937 214.847 170.754 257C174.684 291.386 186.31 334.369 191.632 351.562H273.912C281.28 334.369 296.754 291.386 299.701 257C303.386 214.018 293.991 140.068 293.991 140.068C293.472 137.228 292.812 133.215 292.03 128.455C289.063 110.404 284.331 81.6189 278.824 65.4222L199 65.4222ZM246 273.703V270.5H234.797C233.693 270.5 232.656 270.292 231.688 269.875C230.719 269.448 229.875 268.875 229.156 268.156C228.427 267.427 227.854 266.578 227.438 265.609C227.01 264.641 226.797 263.604 226.797 262.5V260.766H246V257.563H223.594V262.5C223.594 263.521 223.729 264.505 224 265.453C224.26 266.391 224.63 267.271 225.109 268.094C225.589 268.917 226.161 269.667 226.828 270.344C227.495 271.021 228.234 271.604 229.047 272.094C228.234 272.594 227.495 273.182 226.828 273.859C226.161 274.536 225.589 275.286 225.109 276.109C224.63 276.932 224.26 277.818 224 278.766C223.729 279.703 223.594 280.682 223.594 281.703V286.625H246V283.422H226.797V281.703C226.797 280.599 227.01 279.563 227.438 278.594C227.854 277.615 228.427 276.766 229.156 276.047C229.875 275.318 230.719 274.745 231.688 274.328C232.656 273.911 233.693 273.703 234.797 273.703H246ZM246 229.922V226.719H223.594V241.406C223.594 242.438 223.729 243.427 224 244.375C224.26 245.323 224.635 246.214 225.125 247.047C225.615 247.87 226.203 248.625 226.891 249.313C227.568 249.99 228.323 250.573 229.156 251.063C229.979 251.542 230.87 251.917 231.828 252.188C232.776 252.448 233.766 252.578 234.797 252.578H246V249.375H234.797C233.693 249.375 232.656 249.167 231.688 248.75C230.719 248.323 229.875 247.75 229.156 247.031C228.427 246.313 227.854 245.469 227.438 244.5C227.01 243.531 226.797 242.5 226.797 241.406V229.922H236.406L236.406 247.797H239.594L239.594 229.922H246ZM246 221.344V218.141H226.922C227.109 216.932 227.484 215.641 228.047 214.266C228.599 212.891 229.307 211.526 230.172 210.172C231.036 208.807 232.042 207.5 233.188 206.25C234.323 205 235.568 203.896 236.922 202.938C238.276 201.979 239.719 201.214 241.25 200.641C242.771 200.068 244.354 199.781 246 199.781V196.578H223.594V199.781H235.922C234.703 200.573 233.557 201.469 232.484 202.469C231.401 203.469 230.401 204.536 229.484 205.672C228.568 206.807 227.75 207.984 227.031 209.203C226.302 210.411 225.682 211.625 225.172 212.844C224.661 214.063 224.271 215.26 224 216.438C223.729 217.604 223.594 218.708 223.594 219.75V221.344H246ZM246 182.156V167.734H233.203V184.5H236.406V170.938H242.797V182.156C242.797 183.26 242.589 184.255 242.172 185.141C241.755 186.016 241.188 186.76 240.469 187.375C239.74 187.979 238.891 188.448 237.922 188.781C236.943 189.104 235.901 189.266 234.797 189.266C233.693 189.266 232.656 189.104 231.688 188.781C230.719 188.448 229.875 187.979 229.156 187.375C228.427 186.76 227.854 186.016 227.438 185.141C227.01 184.255 226.797 183.26 226.797 182.156V167.734H223.594V182.156C223.594 183.708 223.891 185.12 224.484 186.391C225.068 187.661 225.87 188.75 226.891 189.656C227.901 190.552 229.089 191.245 230.453 191.734C231.807 192.224 233.255 192.469 234.797 192.469C236.349 192.469 237.807 192.224 239.172 191.734C240.536 191.245 241.724 190.552 242.734 189.656C243.745 188.75 244.542 187.661 245.125 186.391C245.708 185.12 246 183.708 246 182.156ZM239.172 136.953C237.807 136.464 236.349 136.219 234.797 136.219C233.255 136.219 231.807 136.464 230.453 136.953C229.089 137.443 227.901 138.141 226.891 139.047C225.87 139.943 225.068 141.021 224.484 142.281C223.891 143.542 223.594 144.943 223.594 146.484L223.594 153.938C223.594 155.49 223.891 156.901 224.484 158.172C225.068 159.443 225.87 160.531 226.891 161.438C227.901 162.333 229.089 163.026 230.453 163.516C231.807 164.005 233.255 164.25 234.797 164.25C236.349 164.25 237.807 164.005 239.172 163.516C240.536 163.026 241.724 162.333 242.734 161.438C243.745 160.531 244.542 159.443 245.125 158.172C245.708 156.901 246 155.49 246 153.938V146.484C246 144.943 245.708 143.542 245.125 142.281C244.542 141.021 243.745 139.943 242.734 139.047C241.724 138.141 240.536 137.443 239.172 136.953ZM231.688 139.906C232.656 139.583 233.693 139.422 234.797 139.422C235.901 139.422 236.943 139.583 237.922 139.906C238.891 140.229 239.74 140.698 240.469 141.313C241.188 141.917 241.755 142.656 242.172 143.531C242.589 144.396 242.797 145.38 242.797 146.484V153.938C242.797 155.042 242.589 156.036 242.172 156.922C241.755 157.797 241.188 158.542 240.469 159.156C239.74 159.76 238.891 160.229 237.922 160.563C236.943 160.885 235.901 161.047 234.797 161.047C233.693 161.047 232.656 160.885 231.688 160.563C230.719 160.229 229.875 159.76 229.156 159.156C228.427 158.542 227.854 157.797 227.438 156.922C227.01 156.036 226.797 155.042 226.797 153.938L226.797 146.484C226.797 145.38 227.01 144.396 227.438 143.531C227.854 142.656 228.427 141.917 229.156 141.313C229.875 140.698 230.719 140.229 231.688 139.906ZM244.531 128.641C244.24 128.505 243.927 128.438 243.594 128.438C243.271 128.438 242.964 128.505 242.672 128.641C242.38 128.766 242.125 128.938 241.906 129.156C241.688 129.375 241.516 129.63 241.391 129.922C241.266 130.214 241.203 130.521 241.203 130.844C241.203 131.177 241.266 131.49 241.391 131.781C241.516 132.063 241.688 132.313 241.906 132.531C242.125 132.75 242.38 132.922 242.672 133.047C242.964 133.172 243.271 133.234 243.594 133.234C243.927 133.234 244.24 133.172 244.531 133.047C244.823 132.922 245.078 132.75 245.297 132.531C245.516 132.313 245.688 132.063 245.813 131.781C245.938 131.49 246 131.177 246 130.844C246 130.521 245.938 130.214 245.813 129.922C245.688 129.63 245.516 129.375 245.297 129.156C245.078 128.938 244.823 128.766 244.531 128.641Z" fill="#E75A6B"/>
<path d="M201.457 369.982C201.457 370.355 201.259 370.699 200.91 371.097C198.76 375.558 195.316 383.57 195.316 387.175C195.316 392.087 195.316 396.999 197.772 403.14C200.228 409.28 201.457 414.192 202.685 409.28C203.913 404.368 222.334 387.175 219.878 393.315C217.421 399.456 218.65 416.649 219.878 422.789C221.106 428.929 228.474 437.526 232.158 439.982C239.527 415.42 235.842 420.333 238.299 416.649C242.152 410.868 250.989 400.684 256.72 397C257.129 402.321 257.948 414.438 257.948 420.333C269 417.877 265.316 379.807 267.772 379.807C271.456 384.719 271.456 401.912 271.456 412.964C271.456 424.017 262.86 436.298 260.404 442.438C258.439 447.35 257.129 457.584 256.72 462.087C253.445 459.631 246.895 453.736 246.895 449.806L246.895 427.701C245.667 428.929 243.211 433.841 243.211 443.666V470.683C243.211 480.508 223.562 500.157 224.79 494.017C226.018 487.876 213.737 464.543 210.053 458.403C207.106 453.491 208.006 432.613 208.825 422.789C207.597 426.882 204.65 436.789 202.685 443.666C200.72 450.543 196.954 452.262 195.316 452.262C192.042 441.619 186.229 415.666 189.176 397C192.301 377.208 198.96 373.32 200.91 371.097C201.104 370.695 201.287 370.321 201.457 369.982Z" fill="#E75A6B"/>
<path d="M319.351 414.193L286.193 346.649C289.14 343.702 302.976 289.749 309.526 263.141L339 286.474L319.351 414.193Z" fill="#E75A6B"/>
<path d="M129 282.79L162.158 260.685C162.158 283.281 173.62 326.591 179.351 345.421L143.737 411.737L129 282.79Z" fill="#E75A6B"/>
<path d="M273.912 56.491L202.684 56.491C213.327 37.6607 235.596 0 239.526 0C243.456 0 264.087 37.6607 273.912 56.491Z" fill="#E75A6B"/>
<path d="M105 364.642V425.375H41.4296V416.287H95.9122V364.642H105ZM43.7348 345.347C44.6806 345.347 45.5672 345.525 46.3947 345.879C47.1926 346.234 47.9019 346.722 48.5226 347.342C49.1432 347.963 49.6308 348.687 49.9855 349.514C50.3401 350.342 50.5175 351.214 50.5175 352.13C50.5175 353.076 50.3401 353.962 49.9855 354.79C49.6308 355.617 49.1432 356.341 48.5226 356.962C47.9019 357.583 47.1926 358.07 46.3947 358.425C45.5672 358.78 44.6806 358.957 43.7348 358.957C42.8187 358.957 41.9468 358.78 41.1193 358.425C40.2918 358.07 39.5677 357.583 38.9471 356.962C38.3265 356.341 37.8388 355.617 37.4842 354.79C37.1 353.962 36.9079 353.076 36.9079 352.13C36.9079 351.214 37.1 350.342 37.4842 349.514C37.8388 348.687 38.3265 347.963 38.9471 347.342C39.5677 346.722 40.2918 346.234 41.1193 345.879C41.9468 345.525 42.8187 345.347 43.7348 345.347ZM105 347.608V356.696H55.0835V347.608H105ZM45.9957 284.116V309.251C46.0253 311.438 46.4686 313.492 47.3256 315.413C48.1531 317.305 49.291 318.96 50.7391 320.379C52.1577 321.797 53.8275 322.92 55.7485 323.748C57.6695 324.575 59.7087 324.989 61.8661 324.989H105V334.077H59.6053C56.4134 334.077 53.4433 333.397 50.6948 332.038C47.9167 330.648 45.5229 328.816 43.5132 326.54C41.474 324.235 39.8781 321.59 38.7255 318.605C37.5433 315.62 36.9375 312.502 36.9079 309.251V284.116H45.9957ZM68.6931 284.116L68.6931 320.423H59.6053V284.116H68.6931ZM105 258.083V267.171H64.127V280.78H55.0835V267.171H36.9079L36.9079 258.083H55.0835V226.298H64.127V258.083H105ZM73.2148 141.704C77.6183 141.704 81.7559 142.399 85.6274 143.788C89.499 145.177 92.8681 147.157 95.7349 149.728C98.6016 152.27 100.862 155.328 102.517 158.904C104.172 162.48 105 166.455 105 170.829V191.975C105 196.379 104.172 200.383 102.517 203.989C100.862 207.594 98.6016 210.683 95.7349 213.254C92.8681 215.796 89.499 217.761 85.6274 219.15C81.7559 220.539 77.6183 221.234 73.2148 221.234C68.8408 221.234 64.7329 220.539 60.8909 219.15C57.0193 217.761 53.6502 215.796 50.7834 213.254C47.8872 210.683 45.6115 207.594 43.9565 203.989C42.2719 200.383 41.4296 196.379 41.4296 191.975V170.829C41.4296 166.455 42.2719 162.48 43.9565 158.904C45.6115 155.328 47.8872 152.27 50.7834 149.728C53.6502 147.157 57.0193 145.177 60.8909 143.788C64.7329 142.399 68.8408 141.704 73.2148 141.704ZM73.2148 150.792C70.0821 150.792 67.1415 151.25 64.393 152.166C61.6445 153.082 59.2506 154.412 57.2114 156.156C55.1426 157.87 53.5172 159.968 52.335 162.451C51.1233 164.904 50.5175 167.697 50.5175 170.829V191.975C50.5175 195.108 51.1233 197.93 52.335 200.442C53.5172 202.925 55.1426 205.038 57.2114 206.782C59.2506 208.496 61.6445 209.826 64.393 210.772C67.1415 211.688 70.0821 212.146 73.2148 212.146C76.3475 212.146 79.3029 211.688 82.081 210.772C84.8295 209.826 87.2381 208.496 89.3069 206.782C91.3461 205.038 92.9568 202.925 94.139 200.442C95.3211 197.93 95.9122 195.108 95.9122 191.975V170.829C95.9122 167.697 95.3211 164.904 94.139 162.451C92.9568 159.968 91.3461 157.87 89.3069 156.156C87.2381 154.412 84.8295 153.082 82.081 152.166C79.3029 151.25 76.3475 150.792 73.2148 150.792ZM45.9957 80.783V105.919C46.0253 108.106 46.4686 110.16 47.3256 112.081C48.1531 113.972 49.291 115.627 50.7391 117.046C52.1577 118.464 53.8275 119.587 55.7485 120.415C57.6695 121.242 59.7087 121.656 61.8661 121.656H105V130.744H59.6053C56.4134 130.744 53.4433 130.064 50.6948 128.705C47.9167 127.316 45.5229 125.483 43.5132 123.208C41.474 120.902 39.8781 118.257 38.7255 115.272C37.5433 112.287 36.9375 109.169 36.9079 105.919V80.783H45.9957ZM68.6931 80.783L68.6931 117.09H59.6053V80.783H68.6931ZM45.9957 22.3443L45.9957 47.4799C46.0253 49.6669 46.4686 51.7209 47.3256 53.6419C48.1531 55.5333 49.291 57.1883 50.7391 58.6069C52.1577 60.0255 53.8275 61.1486 55.7485 61.9761C57.6695 62.8036 59.7087 63.2173 61.8661 63.2173H105V72.3052H59.6053C56.4134 72.3052 53.4433 71.6254 50.6948 70.2659C47.9167 68.8769 45.5229 67.0446 43.5132 64.7689C41.474 62.4637 39.8781 59.8186 38.7255 56.8337C37.5433 53.8488 36.9375 50.7308 36.9079 47.4799L36.9079 22.3443H45.9957ZM68.6931 22.3443V58.6513H59.6053L59.6053 22.3443H68.6931ZM105 6.19729V14.7088H96.4885V6.19729H105Z" fill="#E75A6B"/>
</svg>
