<svg width="339" height="496" viewBox="0 0 339 496" fill="none" xmlns="http://www.w3.org/2000/svg">
<path fill-rule="evenodd" clip-rule="evenodd" d="M199 65.4222C192.45 80.9777 178.614 117.738 175.667 140.334C175.596 140.879 175.524 141.43 175.451 141.988C171.75 170.332 165.937 214.847 170.755 257C174.684 291.386 186.31 334.369 191.632 351.562L273.912 351.562C281.281 334.369 296.754 291.386 299.702 257C303.386 214.018 293.991 140.068 293.991 140.068C293.472 137.228 292.812 133.215 292.03 128.455C289.063 110.404 284.331 81.6189 278.824 65.4222L199 65.4222ZM228 292.998V290.195L218.197 290.195C217.231 290.195 216.324 290.013 215.477 289.648C214.629 289.275 213.891 288.773 213.262 288.145C212.624 287.507 212.122 286.764 211.758 285.916C211.384 285.068 211.197 284.161 211.197 283.195V281.678L228 281.678V278.875L208.395 278.875V283.195C208.395 284.089 208.513 284.95 208.75 285.779C208.978 286.6 209.301 287.37 209.721 288.09C210.14 288.81 210.641 289.466 211.225 290.059C211.808 290.651 212.455 291.161 213.166 291.59C212.455 292.027 211.808 292.542 211.225 293.135C210.641 293.727 210.14 294.383 209.721 295.104C209.301 295.824 208.978 296.598 208.75 297.428C208.513 298.248 208.395 299.105 208.395 299.998V304.305L228 304.305V301.502L211.197 301.502V299.998C211.197 299.032 211.384 298.125 211.758 297.277C212.122 296.421 212.624 295.678 213.262 295.049C213.891 294.411 214.629 293.91 215.477 293.545C216.324 293.18 217.231 292.998 218.197 292.998L228 292.998ZM228 254.689V251.887L208.395 251.887V264.738C208.395 265.641 208.513 266.507 208.75 267.336C208.978 268.165 209.306 268.945 209.734 269.674C210.163 270.394 210.678 271.055 211.279 271.656C211.872 272.249 212.533 272.759 213.262 273.188C213.982 273.607 214.761 273.935 215.6 274.172C216.429 274.4 217.295 274.514 218.197 274.514L228 274.514V271.711L218.197 271.711C217.231 271.711 216.324 271.529 215.477 271.164C214.629 270.79 213.891 270.289 213.262 269.66C212.624 269.031 212.122 268.293 211.758 267.445C211.384 266.598 211.197 265.695 211.197 264.738V254.689L219.605 254.689V270.33H222.395V254.689H228ZM228 247.184V244.381L211.307 244.381C211.471 243.324 211.799 242.193 212.291 240.99C212.774 239.787 213.394 238.593 214.15 237.408C214.907 236.214 215.786 235.07 216.789 233.977C217.783 232.883 218.872 231.917 220.057 231.078C221.242 230.24 222.504 229.57 223.844 229.068C225.174 228.567 226.56 228.316 228 228.316V225.514L208.395 225.514V228.316L219.182 228.316C218.115 229.009 217.113 229.793 216.174 230.668C215.226 231.543 214.351 232.477 213.549 233.471C212.747 234.464 212.031 235.494 211.402 236.561C210.764 237.618 210.222 238.68 209.775 239.746C209.329 240.813 208.987 241.861 208.75 242.891C208.513 243.911 208.395 244.878 208.395 245.789V247.184L228 247.184ZM222.025 198.348C220.831 197.91 219.555 197.691 218.197 197.691C216.848 197.691 215.581 197.91 214.396 198.348C213.202 198.776 212.163 199.387 211.279 200.18C210.386 200.973 209.684 201.925 209.174 203.037C208.654 204.14 208.395 205.366 208.395 206.715V220.797L228 220.797V217.994L211.197 217.994V206.715C211.197 205.749 211.384 204.883 211.758 204.117C212.122 203.342 212.624 202.691 213.262 202.162C213.891 201.624 214.629 201.214 215.477 200.932C216.324 200.64 217.231 200.494 218.197 200.494C219.163 200.494 220.075 200.64 220.932 200.932C221.779 201.214 222.522 201.624 223.16 202.162C223.789 202.691 224.286 203.342 224.65 204.117C225.015 204.883 225.197 205.749 225.197 206.715V216.6H228V206.715C228 205.366 227.745 204.14 227.234 203.037C226.724 201.925 226.027 200.973 225.143 200.18C224.258 199.387 223.219 198.776 222.025 198.348ZM228 174.627V171.824L208.395 171.824V184.676C208.395 185.578 208.513 186.444 208.75 187.273C208.978 188.103 209.306 188.882 209.734 189.611C210.163 190.331 210.678 190.992 211.279 191.594C211.872 192.186 212.533 192.697 213.262 193.125C213.982 193.544 214.761 193.872 215.6 194.109C216.429 194.337 217.295 194.451 218.197 194.451L228 194.451V191.648L218.197 191.648C217.231 191.648 216.324 191.466 215.477 191.102C214.629 190.728 213.891 190.227 213.262 189.598C212.624 188.969 212.122 188.23 211.758 187.383C211.384 186.535 211.197 185.633 211.197 184.676V174.627L219.605 174.627V190.268H222.395V174.627H228ZM228 148.281V144.494L222.312 150.373C222.176 149.544 221.907 148.773 221.506 148.063C221.096 147.342 220.585 146.718 219.975 146.189C219.355 145.661 218.658 145.246 217.883 144.945C217.099 144.645 216.27 144.494 215.395 144.494C214.428 144.494 213.521 144.681 212.674 145.055C211.826 145.419 211.088 145.921 210.459 146.559C209.821 147.188 209.32 147.926 208.955 148.773C208.581 149.621 208.395 150.528 208.395 151.494V167.121L228 167.121V164.318L211.197 164.318V151.494C211.197 150.911 211.307 150.364 211.525 149.854C211.744 149.343 212.045 148.901 212.428 148.527C212.801 148.145 213.243 147.844 213.754 147.625C214.264 147.406 214.811 147.297 215.395 147.297C215.978 147.297 216.529 147.406 217.049 147.625C217.559 147.844 218.006 148.145 218.389 148.527C218.771 148.901 219.077 149.343 219.305 149.854C219.523 150.364 219.633 150.911 219.633 151.494V162.746H222.395V154.16L228 148.281ZM228 140.898V138.096L208.395 138.096V140.898L228 140.898ZM228 133.379V130.576L211.307 130.576C211.471 129.519 211.799 128.389 212.291 127.186C212.774 125.982 213.394 124.788 214.15 123.604C214.907 122.41 215.786 121.266 216.789 120.172C217.783 119.078 218.872 118.112 220.057 117.273C221.242 116.435 222.504 115.765 223.844 115.264C225.174 114.762 226.56 114.512 228 114.512V111.709L208.395 111.709V114.512L219.182 114.512C218.115 115.204 217.113 115.988 216.174 116.863C215.226 117.738 214.351 118.673 213.549 119.666C212.747 120.66 212.031 121.689 211.402 122.756C210.764 123.813 210.222 124.875 209.775 125.941C209.329 127.008 208.987 128.056 208.75 129.086C208.513 130.107 208.395 131.073 208.395 131.984V133.379L228 133.379ZM256.025 264.041C254.831 263.613 253.555 263.398 252.197 263.398C250.848 263.398 249.581 263.613 248.396 264.041C247.202 264.469 246.163 265.08 245.279 265.873C244.386 266.657 243.684 267.6 243.174 268.703C242.654 269.806 242.395 271.032 242.395 272.381V278.902C242.395 280.26 242.654 281.495 243.174 282.607C243.684 283.719 244.386 284.672 245.279 285.465C246.163 286.249 247.202 286.855 248.396 287.283C249.581 287.712 250.848 287.926 252.197 287.926C253.555 287.926 254.831 287.712 256.025 287.283C257.219 286.855 258.258 286.249 259.143 285.465C260.027 284.672 260.724 283.719 261.234 282.607C261.745 281.495 262 280.26 262 278.902V272.381C262 271.032 261.745 269.806 261.234 268.703C260.724 267.6 260.027 266.657 259.143 265.873C258.258 265.08 257.219 264.469 256.025 264.041ZM249.477 266.625C250.324 266.342 251.231 266.201 252.197 266.201C253.163 266.201 254.075 266.342 254.932 266.625C255.779 266.908 256.522 267.318 257.16 267.855C257.789 268.384 258.286 269.031 258.65 269.797C259.015 270.553 259.197 271.415 259.197 272.381V278.902C259.197 279.868 259.015 280.739 258.65 281.514C258.286 282.279 257.789 282.931 257.16 283.469C256.522 283.997 255.779 284.408 254.932 284.699C254.075 284.982 253.163 285.123 252.197 285.123C251.231 285.123 250.324 284.982 249.477 284.699C248.629 284.408 247.891 283.997 247.262 283.469C246.624 282.931 246.122 282.279 245.758 281.514C245.384 280.739 245.197 279.868 245.197 278.902V272.381C245.197 271.415 245.384 270.553 245.758 269.797C246.122 269.031 246.624 268.384 247.262 267.855C247.891 267.318 248.629 266.908 249.477 266.625ZM262 240.977V237.189L256.313 243.068C256.176 242.239 255.907 241.469 255.506 240.758C255.096 240.038 254.585 239.413 253.975 238.885C253.355 238.356 252.658 237.941 251.883 237.641C251.099 237.34 250.27 237.189 249.395 237.189C248.428 237.189 247.521 237.376 246.674 237.75C245.826 238.115 245.088 238.616 244.459 239.254C243.821 239.883 243.32 240.621 242.955 241.469C242.581 242.316 242.395 243.223 242.395 244.189V259.816H262V257.014H245.197V244.189C245.197 243.606 245.307 243.059 245.525 242.549C245.744 242.038 246.045 241.596 246.428 241.223C246.801 240.84 247.243 240.539 247.754 240.32C248.264 240.102 248.811 239.992 249.395 239.992C249.978 239.992 250.529 240.102 251.049 240.32C251.559 240.539 252.006 240.84 252.389 241.223C252.771 241.596 253.077 242.038 253.305 242.549C253.523 243.059 253.633 243.606 253.633 244.189V255.441H256.395V246.855L262 240.977ZM262 214.111V211.309H242.395V224.16C242.395 225.063 242.513 225.928 242.75 226.758C242.978 227.587 243.306 228.367 243.734 229.096C244.163 229.816 244.678 230.477 245.279 231.078C245.872 231.671 246.533 232.181 247.262 232.609C247.982 233.029 248.761 233.357 249.6 233.594C250.429 233.822 251.295 233.936 252.197 233.936H262V231.133H252.197C251.231 231.133 250.324 230.951 249.477 230.586C248.629 230.212 247.891 229.711 247.262 229.082C246.624 228.453 246.122 227.715 245.758 226.867C245.384 226.02 245.197 225.117 245.197 224.16V214.111H253.605V229.752H256.395V214.111H262ZM262 206.605V203.803H245.307C245.471 202.745 245.799 201.615 246.291 200.412C246.774 199.209 247.394 198.015 248.15 196.83C248.907 195.636 249.786 194.492 250.789 193.398C251.783 192.305 252.872 191.339 254.057 190.5C255.242 189.661 256.504 188.992 257.844 188.49C259.174 187.989 260.56 187.738 262 187.738V184.936H242.395V187.738H253.182C252.115 188.431 251.113 189.215 250.174 190.09C249.226 190.965 248.351 191.899 247.549 192.893C246.747 193.886 246.031 194.916 245.402 195.982C244.764 197.04 244.222 198.102 243.775 199.168C243.329 200.234 242.987 201.283 242.75 202.313C242.513 203.333 242.395 204.299 242.395 205.211V206.605H262ZM262 172.316V159.697H250.803V174.367H253.605V162.5H259.197V172.316C259.197 173.283 259.015 174.153 258.65 174.928C258.286 175.693 257.789 176.345 257.16 176.883C256.522 177.411 255.779 177.822 254.932 178.113C254.075 178.396 253.163 178.537 252.197 178.537C251.231 178.537 250.324 178.396 249.477 178.113C248.629 177.822 247.891 177.411 247.262 176.883C246.624 176.345 246.122 175.693 245.758 174.928C245.384 174.153 245.197 173.283 245.197 172.316V159.697H242.395V172.316C242.395 173.674 242.654 174.91 243.174 176.021C243.684 177.133 244.386 178.086 245.279 178.879C246.163 179.663 247.202 180.269 248.396 180.697C249.581 181.126 250.848 181.34 252.197 181.34C253.555 181.34 254.831 181.126 256.025 180.697C257.219 180.269 258.258 179.663 259.143 178.879C260.027 178.086 260.724 177.133 261.234 176.021C261.745 174.91 262 173.674 262 172.316ZM262 155.527V135.252H259.197V152.725H245.197L245.197 135.252H242.395L242.395 155.527H262ZM253.605 151.33L253.605 137.631H250.803L250.803 151.33H253.605ZM260.715 128.553C260.46 128.434 260.186 128.375 259.895 128.375C259.612 128.375 259.343 128.434 259.088 128.553C258.833 128.662 258.609 128.813 258.418 129.004C258.227 129.195 258.076 129.419 257.967 129.674C257.857 129.929 257.803 130.198 257.803 130.48C257.803 130.772 257.857 131.046 257.967 131.301C258.076 131.547 258.227 131.766 258.418 131.957C258.609 132.148 258.833 132.299 259.088 132.408C259.343 132.518 259.612 132.572 259.895 132.572C260.186 132.572 260.46 132.518 260.715 132.408C260.97 132.299 261.193 132.148 261.385 131.957C261.576 131.766 261.727 131.547 261.836 131.301C261.945 131.046 262 130.772 262 130.48C262 130.198 261.945 129.929 261.836 129.674C261.727 129.419 261.576 129.195 261.385 129.004C261.193 128.813 260.97 128.662 260.715 128.553Z" fill="#261A2D"/>
<path d="M201.457 369.982C201.457 370.355 201.259 370.699 200.91 371.097C198.76 375.558 195.316 383.57 195.316 387.175C195.316 392.087 195.316 396.999 197.772 403.14C200.228 409.28 201.457 414.192 202.685 409.28C203.913 404.368 222.334 387.175 219.878 393.315C217.421 399.456 218.65 416.649 219.878 422.789C221.106 428.929 228.474 437.526 232.158 439.982C239.527 415.42 235.842 420.333 238.299 416.649C242.152 410.868 250.989 400.684 256.72 397C257.129 402.321 257.948 414.438 257.948 420.333C269 417.877 265.316 379.807 267.772 379.807C271.456 384.719 271.456 401.912 271.456 412.964C271.456 424.017 262.86 436.298 260.404 442.438C258.439 447.35 257.129 457.584 256.72 462.087C253.445 459.631 246.895 453.736 246.895 449.806L246.895 427.701C245.667 428.929 243.211 433.841 243.211 443.666V470.683C243.211 480.508 223.562 500.157 224.79 494.017C226.018 487.876 213.737 464.543 210.053 458.403C207.106 453.491 208.006 432.613 208.825 422.789C207.597 426.882 204.65 436.789 202.685 443.666C200.72 450.543 196.954 452.262 195.316 452.262C192.042 441.619 186.229 415.666 189.176 397C192.301 377.208 198.96 373.32 200.91 371.097C201.104 370.695 201.287 370.321 201.457 369.982Z" fill="#261A2D"/>
<path d="M319.351 414.193L286.193 346.649C289.14 343.702 302.977 289.749 309.526 263.141L339 286.474L319.351 414.193Z" fill="#261A2D"/>
<path d="M129 282.79L162.158 260.685C162.158 283.281 173.619 326.591 179.35 345.421L143.737 411.737L129 282.79Z" fill="#261A2D"/>
<path d="M273.912 56.491L202.684 56.491C213.327 37.6607 235.596 0 239.526 0C243.456 0 264.087 37.6607 273.912 56.491Z" fill="#261A2D"/>
<path d="M105 364.642V425.375H41.4296V416.287H95.9122V364.642H105ZM43.7348 345.347C44.6806 345.347 45.5672 345.525 46.3947 345.879C47.1926 346.234 47.9019 346.722 48.5226 347.342C49.1432 347.963 49.6308 348.687 49.9855 349.514C50.3401 350.342 50.5175 351.214 50.5175 352.13C50.5175 353.076 50.3401 353.962 49.9855 354.79C49.6308 355.617 49.1432 356.341 48.5226 356.962C47.9019 357.583 47.1926 358.07 46.3947 358.425C45.5672 358.78 44.6806 358.957 43.7348 358.957C42.8187 358.957 41.9468 358.78 41.1193 358.425C40.2918 358.07 39.5677 357.583 38.9471 356.962C38.3265 356.341 37.8388 355.617 37.4842 354.79C37.1 353.962 36.9079 353.076 36.9079 352.13C36.9079 351.214 37.1 350.342 37.4842 349.514C37.8388 348.687 38.3265 347.963 38.9471 347.342C39.5677 346.722 40.2918 346.234 41.1193 345.879C41.9468 345.525 42.8187 345.347 43.7348 345.347ZM105 347.608V356.696H55.0835V347.608H105ZM45.9957 284.116V309.251C46.0253 311.438 46.4686 313.492 47.3256 315.413C48.1531 317.305 49.291 318.96 50.7391 320.379C52.1577 321.797 53.8275 322.92 55.7485 323.748C57.6695 324.575 59.7087 324.989 61.8661 324.989H105V334.077H59.6053C56.4134 334.077 53.4433 333.397 50.6948 332.038C47.9167 330.648 45.5229 328.816 43.5132 326.54C41.474 324.235 39.8781 321.59 38.7255 318.605C37.5433 315.62 36.9375 312.502 36.9079 309.251V284.116H45.9957ZM68.6931 284.116L68.6931 320.423H59.6053V284.116H68.6931ZM105 258.083V267.171H64.127V280.78H55.0835V267.171H36.9079L36.9079 258.083H55.0835V226.298H64.127V258.083H105ZM73.2148 141.704C77.6183 141.704 81.7559 142.399 85.6274 143.788C89.499 145.177 92.8681 147.157 95.7349 149.728C98.6016 152.27 100.862 155.328 102.517 158.904C104.172 162.48 105 166.455 105 170.829V191.975C105 196.379 104.172 200.383 102.517 203.989C100.862 207.594 98.6016 210.683 95.7349 213.254C92.8681 215.796 89.499 217.761 85.6274 219.15C81.7559 220.539 77.6183 221.234 73.2148 221.234C68.8408 221.234 64.7329 220.539 60.8909 219.15C57.0193 217.761 53.6502 215.796 50.7834 213.254C47.8872 210.683 45.6115 207.594 43.9565 203.989C42.2719 200.383 41.4296 196.379 41.4296 191.975V170.829C41.4296 166.455 42.2719 162.48 43.9565 158.904C45.6115 155.328 47.8872 152.27 50.7834 149.728C53.6502 147.157 57.0193 145.177 60.8909 143.788C64.7329 142.399 68.8408 141.704 73.2148 141.704ZM73.2148 150.792C70.0821 150.792 67.1415 151.25 64.393 152.166C61.6445 153.082 59.2506 154.412 57.2114 156.156C55.1426 157.87 53.5172 159.968 52.335 162.451C51.1233 164.904 50.5175 167.697 50.5175 170.829V191.975C50.5175 195.108 51.1233 197.93 52.335 200.442C53.5172 202.925 55.1426 205.038 57.2114 206.782C59.2506 208.496 61.6445 209.826 64.393 210.772C67.1415 211.688 70.0821 212.146 73.2148 212.146C76.3475 212.146 79.3029 211.688 82.081 210.772C84.8295 209.826 87.2381 208.496 89.3069 206.782C91.3461 205.038 92.9568 202.925 94.139 200.442C95.3211 197.93 95.9122 195.108 95.9122 191.975V170.829C95.9122 167.697 95.3211 164.904 94.139 162.451C92.9568 159.968 91.3461 157.87 89.3069 156.156C87.2381 154.412 84.8295 153.082 82.081 152.166C79.3029 151.25 76.3475 150.792 73.2148 150.792ZM45.9957 80.783V105.919C46.0253 108.106 46.4686 110.16 47.3256 112.081C48.1531 113.972 49.291 115.627 50.7391 117.046C52.1577 118.464 53.8275 119.587 55.7485 120.415C57.6695 121.242 59.7087 121.656 61.8661 121.656H105V130.744H59.6053C56.4134 130.744 53.4433 130.064 50.6948 128.705C47.9167 127.316 45.5229 125.483 43.5132 123.208C41.474 120.902 39.8781 118.257 38.7255 115.272C37.5433 112.287 36.9375 109.169 36.9079 105.919V80.783H45.9957ZM68.6931 80.783L68.6931 117.09H59.6053V80.783H68.6931ZM45.9957 22.3443L45.9957 47.4799C46.0253 49.6669 46.4686 51.7209 47.3256 53.6419C48.1531 55.5333 49.291 57.1883 50.7391 58.6069C52.1577 60.0255 53.8275 61.1486 55.7485 61.9761C57.6695 62.8036 59.7087 63.2173 61.8661 63.2173H105V72.3052H59.6053C56.4134 72.3052 53.4433 71.6254 50.6948 70.2659C47.9167 68.8769 45.5229 67.0446 43.5132 64.7689C41.474 62.4637 39.8781 59.8186 38.7255 56.8337C37.5433 53.8488 36.9375 50.7308 36.9079 47.4799L36.9079 22.3443H45.9957ZM68.6931 22.3443V58.6513H59.6053L59.6053 22.3443H68.6931ZM105 6.19729V14.7088H96.4885V6.19729H105Z" fill="#261A2D"/>
</svg>
