<svg width="339" height="496" viewBox="0 0 339 496" fill="none" xmlns="http://www.w3.org/2000/svg">
<path fill-rule="evenodd" clip-rule="evenodd" d="M199 65.4222C192.45 80.9777 178.614 117.738 175.667 140.334C175.596 140.879 175.524 141.43 175.451 141.988C171.75 170.332 165.937 214.847 170.754 257C174.684 291.386 186.31 334.369 191.632 351.562H273.912C281.28 334.369 296.754 291.386 299.701 257C303.386 214.018 293.991 140.068 293.991 140.068C293.472 137.228 292.812 133.215 292.03 128.455C289.063 110.404 284.331 81.6189 278.824 65.4222L199 65.4222ZM248 231.323V226.202L232.229 242.011L221.393 226.926V232.474L236.218 253.329H221.393V257.133H248V253.329H240.393L234.325 244.905L248 231.323ZM248 223.178V219.374H221.393V223.178H248ZM242.155 179.463C240.993 178.956 239.749 178.702 238.426 178.702H221.393V182.487H238.426C239.23 182.487 239.984 182.642 240.689 182.951C241.382 183.248 241.988 183.662 242.508 184.194C243.027 184.714 243.442 185.326 243.751 186.031C244.048 186.736 244.196 187.485 244.196 188.276C244.196 189.08 244.048 189.835 243.751 190.54C243.442 191.233 243.027 191.839 242.508 192.358C241.988 192.878 241.382 193.292 240.689 193.602C239.984 193.898 239.23 194.047 238.426 194.047H221.393V197.888H238.426H238.686C239.452 197.925 240.176 198.104 240.856 198.426C241.524 198.735 242.106 199.149 242.601 199.669C243.095 200.176 243.485 200.776 243.77 201.469C244.054 202.149 244.196 202.879 244.196 203.658C244.196 204.462 244.048 205.217 243.751 205.922C243.442 206.615 243.027 207.227 242.508 207.759C241.988 208.278 241.382 208.693 240.689 209.002C239.984 209.299 239.23 209.447 238.426 209.447H221.393V213.232H238.426C239.749 213.232 240.993 212.985 242.155 212.49C243.318 211.983 244.332 211.297 245.198 210.431C246.064 209.565 246.751 208.55 247.258 207.388C247.753 206.225 248 204.982 248 203.658C248 202.075 247.66 200.621 246.979 199.298C246.287 197.974 245.359 196.873 244.196 195.995C244.778 195.55 245.303 195.049 245.773 194.492C246.243 193.923 246.646 193.311 246.979 192.655C247.301 192 247.555 191.307 247.74 190.577C247.913 189.835 248 189.068 248 188.276C248 186.953 247.753 185.71 247.258 184.547C246.751 183.384 246.064 182.37 245.198 181.504C244.332 180.638 243.318 179.958 242.155 179.463ZM248 172.561V168.757H221.393V172.561H248ZM246.256 157.995C245.91 157.834 245.538 157.754 245.143 157.754C244.759 157.754 244.394 157.834 244.048 157.995C243.702 158.144 243.398 158.348 243.139 158.607C242.879 158.867 242.675 159.17 242.526 159.517C242.378 159.863 242.304 160.228 242.304 160.611C242.304 161.007 242.378 161.378 242.526 161.725C242.675 162.059 242.879 162.355 243.139 162.615C243.398 162.875 243.702 163.079 244.048 163.228C244.394 163.376 244.759 163.45 245.143 163.45C245.538 163.45 245.91 163.376 246.256 163.228C246.602 163.079 246.905 162.875 247.165 162.615C247.425 162.355 247.629 162.059 247.777 161.725C247.926 161.378 248 161.007 248 160.611C248 160.228 247.926 159.863 247.777 159.517C247.629 159.17 247.425 158.867 247.165 158.607C246.905 158.348 246.602 158.144 246.256 157.995Z" fill="#A2A7BC"/>
<path d="M201.457 369.982C201.457 370.355 201.259 370.699 200.91 371.097C198.76 375.558 195.316 383.57 195.316 387.175C195.316 392.087 195.316 396.999 197.772 403.14C200.228 409.28 201.457 414.192 202.685 409.28C203.913 404.368 222.334 387.175 219.878 393.315C217.421 399.456 218.65 416.649 219.878 422.789C221.106 428.929 228.474 437.526 232.158 439.982C239.527 415.42 235.842 420.333 238.299 416.649C242.152 410.868 250.989 400.684 256.72 397C257.129 402.321 257.948 414.438 257.948 420.333C269 417.877 265.316 379.807 267.772 379.807C271.456 384.719 271.456 401.912 271.456 412.964C271.456 424.017 262.86 436.298 260.404 442.438C258.439 447.35 257.129 457.584 256.72 462.087C253.445 459.631 246.895 453.736 246.895 449.806L246.895 427.701C245.667 428.929 243.211 433.841 243.211 443.666V470.683C243.211 480.508 223.562 500.157 224.79 494.017C226.018 487.876 213.737 464.543 210.053 458.403C207.106 453.491 208.006 432.613 208.825 422.789C207.597 426.882 204.65 436.789 202.685 443.666C200.72 450.543 196.954 452.262 195.316 452.262C192.042 441.619 186.229 415.666 189.176 397C192.301 377.208 198.96 373.32 200.91 371.097C201.104 370.695 201.287 370.321 201.457 369.982Z" fill="#A2A7BC"/>
<path d="M319.351 414.193L286.193 346.649C289.14 343.702 302.976 289.749 309.526 263.141L339 286.474L319.351 414.193Z" fill="#A2A7BC"/>
<path d="M129 282.79L162.158 260.685C162.158 283.281 173.62 326.591 179.351 345.421L143.737 411.737L129 282.79Z" fill="#A2A7BC"/>
<path d="M273.912 56.491L202.684 56.491C213.327 37.6607 235.596 0 239.526 0C243.456 0 264.087 37.6607 273.912 56.491Z" fill="#A2A7BC"/>
<path d="M105 364.642V425.375H41.4296V416.287H95.9122V364.642H105ZM43.7348 345.347C44.6806 345.347 45.5672 345.525 46.3947 345.879C47.1926 346.234 47.9019 346.722 48.5226 347.342C49.1432 347.963 49.6308 348.687 49.9855 349.514C50.3401 350.342 50.5175 351.214 50.5175 352.13C50.5175 353.076 50.3401 353.962 49.9855 354.79C49.6308 355.617 49.1432 356.341 48.5226 356.962C47.9019 357.583 47.1926 358.07 46.3947 358.425C45.5672 358.78 44.6806 358.957 43.7348 358.957C42.8187 358.957 41.9468 358.78 41.1193 358.425C40.2918 358.07 39.5677 357.583 38.9471 356.962C38.3265 356.341 37.8388 355.617 37.4842 354.79C37.1 353.962 36.9079 353.076 36.9079 352.13C36.9079 351.214 37.1 350.342 37.4842 349.514C37.8388 348.687 38.3265 347.963 38.9471 347.342C39.5677 346.722 40.2918 346.234 41.1193 345.879C41.9468 345.525 42.8187 345.347 43.7348 345.347ZM105 347.608V356.696H55.0835V347.608H105ZM45.9957 284.116V309.251C46.0253 311.438 46.4686 313.492 47.3256 315.413C48.1531 317.305 49.291 318.96 50.7391 320.379C52.1577 321.797 53.8275 322.92 55.7485 323.748C57.6695 324.575 59.7087 324.989 61.8661 324.989H105V334.077H59.6053C56.4134 334.077 53.4433 333.397 50.6948 332.038C47.9167 330.648 45.5229 328.816 43.5132 326.54C41.474 324.235 39.8781 321.59 38.7255 318.605C37.5433 315.62 36.9375 312.502 36.9079 309.251V284.116H45.9957ZM68.6931 284.116L68.6931 320.423H59.6053V284.116H68.6931ZM105 258.083V267.171H64.127V280.78H55.0835V267.171H36.9079L36.9079 258.083H55.0835V226.298H64.127V258.083H105ZM73.2148 141.704C77.6183 141.704 81.7559 142.399 85.6274 143.788C89.499 145.177 92.8681 147.157 95.7349 149.728C98.6016 152.27 100.862 155.328 102.517 158.904C104.172 162.48 105 166.455 105 170.829V191.975C105 196.379 104.172 200.383 102.517 203.989C100.862 207.594 98.6016 210.683 95.7349 213.254C92.8681 215.796 89.499 217.761 85.6274 219.15C81.7559 220.539 77.6183 221.234 73.2148 221.234C68.8408 221.234 64.7329 220.539 60.8909 219.15C57.0193 217.761 53.6502 215.796 50.7834 213.254C47.8872 210.683 45.6115 207.594 43.9565 203.989C42.2719 200.383 41.4296 196.379 41.4296 191.975V170.829C41.4296 166.455 42.2719 162.48 43.9565 158.904C45.6115 155.328 47.8872 152.27 50.7834 149.728C53.6502 147.157 57.0193 145.177 60.8909 143.788C64.7329 142.399 68.8408 141.704 73.2148 141.704ZM73.2148 150.792C70.0821 150.792 67.1415 151.25 64.393 152.166C61.6445 153.082 59.2506 154.412 57.2114 156.156C55.1426 157.87 53.5172 159.968 52.335 162.451C51.1233 164.904 50.5175 167.697 50.5175 170.829V191.975C50.5175 195.108 51.1233 197.93 52.335 200.442C53.5172 202.925 55.1426 205.038 57.2114 206.782C59.2506 208.496 61.6445 209.826 64.393 210.772C67.1415 211.688 70.0821 212.146 73.2148 212.146C76.3475 212.146 79.3029 211.688 82.081 210.772C84.8295 209.826 87.2381 208.496 89.3069 206.782C91.3461 205.038 92.9568 202.925 94.139 200.442C95.3211 197.93 95.9122 195.108 95.9122 191.975V170.829C95.9122 167.697 95.3211 164.904 94.139 162.451C92.9568 159.968 91.3461 157.87 89.3069 156.156C87.2381 154.412 84.8295 153.082 82.081 152.166C79.3029 151.25 76.3475 150.792 73.2148 150.792ZM45.9957 80.783V105.919C46.0253 108.106 46.4686 110.16 47.3256 112.081C48.1531 113.972 49.291 115.627 50.7391 117.046C52.1577 118.464 53.8275 119.587 55.7485 120.415C57.6695 121.242 59.7087 121.656 61.8661 121.656H105V130.744H59.6053C56.4134 130.744 53.4433 130.064 50.6948 128.705C47.9167 127.316 45.5229 125.483 43.5132 123.208C41.474 120.902 39.8781 118.257 38.7255 115.272C37.5433 112.287 36.9375 109.169 36.9079 105.919V80.783H45.9957ZM68.6931 80.783L68.6931 117.09H59.6053V80.783H68.6931ZM45.9957 22.3443L45.9957 47.4799C46.0253 49.6669 46.4686 51.7209 47.3256 53.6419C48.1531 55.5333 49.291 57.1883 50.7391 58.6069C52.1577 60.0255 53.8275 61.1486 55.7485 61.9761C57.6695 62.8036 59.7087 63.2173 61.8661 63.2173H105V72.3052H59.6053C56.4134 72.3052 53.4433 71.6254 50.6948 70.2659C47.9167 68.8769 45.5229 67.0446 43.5132 64.7689C41.474 62.4637 39.8781 59.8186 38.7255 56.8337C37.5433 53.8488 36.9375 50.7308 36.9079 47.4799L36.9079 22.3443H45.9957ZM68.6931 22.3443V58.6513H59.6053L59.6053 22.3443H68.6931ZM105 6.19729V14.7088H96.4885V6.19729H105Z" fill="#A2A7BC"/>
</svg>
