<svg width="496" height="339" viewBox="0 0 496 339" fill="none" xmlns="http://www.w3.org/2000/svg">
<path fill-rule="evenodd" clip-rule="evenodd" d="M429.76 199C414.205 192.45 377.444 178.614 354.848 175.667C354.303 175.596 353.752 175.524 353.194 175.451C324.85 171.75 280.335 165.937 238.182 170.755C203.796 174.684 160.814 186.31 143.621 191.632V273.912C160.814 281.281 203.796 296.754 238.182 299.702C281.164 303.386 355.114 293.991 355.114 293.991C357.954 293.472 361.967 292.812 366.728 292.03C384.779 289.063 413.563 284.331 429.76 278.824V199ZM192.359 249L221.324 249V244.996L196.363 244.996V224.996H221.324V220.992H192.359V249ZM198.355 237.008L217.926 237.008V233.004H198.355V237.008ZM248.238 244.742C248.603 243.883 248.785 242.971 248.785 242.008C248.785 241.031 248.603 240.12 248.238 239.273C247.874 238.427 247.372 237.685 246.734 237.047C246.109 236.409 245.367 235.908 244.508 235.543C243.661 235.178 242.757 234.996 241.793 234.996H230.777C230.217 234.996 229.742 234.807 229.352 234.43C228.974 234.039 228.785 233.564 228.785 233.004C228.785 232.431 228.974 231.956 229.352 231.578C229.742 231.188 230.217 230.992 230.777 230.992H246.793V227.008H230.777C229.944 227.008 229.163 227.164 228.434 227.477C227.704 227.789 227.066 228.219 226.52 228.766C225.986 229.299 225.563 229.931 225.25 230.66C224.938 231.389 224.781 232.171 224.781 233.004C224.781 233.837 224.938 234.618 225.25 235.348C225.563 236.077 225.986 236.715 226.52 237.262C227.066 237.796 227.704 238.219 228.434 238.531C229.163 238.844 229.944 239 230.777 239H241.793C242.197 239 242.581 239.085 242.945 239.254C243.31 239.41 243.629 239.625 243.902 239.898C244.176 240.172 244.391 240.491 244.547 240.855C244.703 241.22 244.781 241.604 244.781 242.008C244.781 242.424 244.703 242.815 244.547 243.18C244.391 243.531 244.176 243.844 243.902 244.117C243.629 244.391 243.31 244.605 242.945 244.762C242.581 244.918 242.197 244.996 241.793 244.996H224.781V249H241.793C242.757 249 243.661 248.818 244.508 248.453C245.367 248.089 246.109 247.594 246.734 246.969C247.372 246.331 247.874 245.589 248.238 244.742ZM256.539 249H260.543V230.992H274.547V227.008H260.543V219L256.539 219V227.008H250.543V230.992H256.539V249ZM280.973 247.164C281.142 246.799 281.227 246.409 281.227 245.992C281.227 245.589 281.142 245.204 280.973 244.84C280.816 244.475 280.602 244.156 280.328 243.883C280.055 243.609 279.736 243.395 279.371 243.238C279.007 243.082 278.622 243.004 278.219 243.004C277.802 243.004 277.411 243.082 277.047 243.238C276.695 243.395 276.383 243.609 276.109 243.883C275.836 244.156 275.621 244.475 275.465 244.84C275.309 245.204 275.23 245.589 275.23 245.992C275.23 246.409 275.309 246.799 275.465 247.164C275.621 247.529 275.836 247.848 276.109 248.121C276.383 248.395 276.695 248.609 277.047 248.766C277.411 248.922 277.802 249 278.219 249C278.622 249 279.007 248.922 279.371 248.766C279.736 248.609 280.055 248.395 280.328 248.121C280.602 247.848 280.816 247.529 280.973 247.164ZM300.211 249H326.207V244.996H304.176V240.992C304.176 240.445 304.28 239.931 304.488 239.449C304.71 238.967 305.003 238.544 305.367 238.18C305.732 237.815 306.161 237.529 306.656 237.32C307.151 237.112 307.672 237.008 308.219 237.008H318.219C319.313 237.008 320.341 236.799 321.305 236.383C322.281 235.953 323.128 235.38 323.844 234.664C324.573 233.935 325.146 233.082 325.563 232.105C325.992 231.129 326.207 230.094 326.207 229C326.207 227.906 325.992 226.871 325.563 225.895C325.146 224.918 324.573 224.072 323.844 223.355C323.128 222.626 322.281 222.053 321.305 221.637C320.341 221.207 319.313 220.992 318.219 220.992H302.223V224.996H318.219C318.766 224.996 319.28 225.1 319.762 225.309C320.257 225.517 320.68 225.803 321.031 226.168C321.396 226.533 321.682 226.962 321.891 227.457C322.112 227.939 322.223 228.453 322.223 229C322.223 229.547 322.112 230.068 321.891 230.563C321.682 231.044 321.396 231.467 321.031 231.832C320.68 232.197 320.257 232.483 319.762 232.691C319.28 232.9 318.766 233.004 318.219 233.004H308.219C307.112 233.004 306.07 233.219 305.094 233.648C304.13 234.065 303.284 234.638 302.555 235.367C301.839 236.083 301.266 236.93 300.836 237.906C300.419 238.87 300.211 239.898 300.211 240.992V249ZM333.453 249L337.457 249V220.992H329.449V224.996H333.453V249ZM342.633 249H368.629V244.996H346.598V240.992C346.598 240.445 346.702 239.931 346.91 239.449C347.132 238.967 347.424 238.544 347.789 238.18C348.154 237.815 348.583 237.529 349.078 237.32C349.573 237.112 350.094 237.008 350.641 237.008H360.641C361.734 237.008 362.763 236.799 363.727 236.383C364.703 235.953 365.549 235.38 366.266 234.664C366.995 233.935 367.568 233.082 367.984 232.105C368.414 231.129 368.629 230.094 368.629 229C368.629 227.906 368.414 226.871 367.984 225.895C367.568 224.918 366.995 224.072 366.266 223.355C365.549 222.626 364.703 222.053 363.727 221.637C362.763 221.207 361.734 220.992 360.641 220.992L344.645 220.992V224.996L360.641 224.996C361.187 224.996 361.702 225.1 362.184 225.309C362.678 225.517 363.102 225.803 363.453 226.168C363.818 226.533 364.104 226.962 364.312 227.457C364.534 227.939 364.645 228.453 364.645 229C364.645 229.547 364.534 230.068 364.312 230.563C364.104 231.044 363.818 231.467 363.453 231.832C363.102 232.197 362.678 232.483 362.184 232.691C361.702 232.9 361.187 233.004 360.641 233.004H350.641C349.534 233.004 348.492 233.219 347.516 233.648C346.552 234.065 345.706 234.638 344.977 235.367C344.26 236.083 343.688 236.93 343.258 237.906C342.841 238.87 342.633 239.898 342.633 240.992V249ZM375.875 249H379.879V220.992H371.871V224.996H375.875V249Z" fill="#732222"/>
<path d="M125.2 201.457C124.827 201.457 124.483 201.259 124.085 200.91C119.624 198.76 111.612 195.316 108.007 195.316C103.095 195.316 98.1828 195.316 92.0424 197.772C85.9021 200.229 80.9898 201.457 85.9021 202.685C90.8144 203.913 108.007 222.334 101.867 219.878C95.7266 217.422 78.5337 218.65 72.3934 219.878C66.253 221.106 57.6566 228.474 55.2005 232.158C79.7618 239.527 74.8495 235.843 78.5337 238.299C84.3139 242.152 94.4986 250.989 98.1827 256.72C92.8611 257.129 80.7442 257.948 74.8495 257.948C77.3056 269 115.376 265.316 115.376 267.772C110.463 271.456 93.2705 271.456 82.2179 271.456C71.1653 271.456 58.8847 262.86 52.7443 260.404C47.8321 258.439 37.5982 257.129 33.0953 256.72C35.5514 253.445 41.4461 246.895 45.3759 246.895L67.4811 246.895C66.253 245.667 61.3408 243.211 51.5163 243.211L24.4988 243.211C14.6743 243.211 -4.97476 223.562 1.16556 224.79C7.30589 226.018 30.6391 213.737 36.7795 210.053C41.6917 207.106 62.5688 208.006 72.3934 208.825C68.2998 207.597 58.3934 204.65 51.5163 202.685C44.6391 200.72 42.9198 196.954 42.9198 195.316C53.563 192.042 79.5161 186.229 98.1827 189.176C117.974 192.301 121.862 198.96 124.085 200.91C124.488 201.104 124.861 201.287 125.2 201.457Z" fill="#D98236"/>
<path d="M80.9894 319.351L148.533 286.193C151.48 289.14 205.433 302.977 232.042 309.526L208.708 339L80.9894 319.351Z" fill="#D98236"/>
<path d="M212.392 129L234.497 162.158C211.901 162.158 168.591 173.62 149.761 179.351L83.4452 143.737L212.392 129Z" fill="#D98236"/>
<path d="M438.691 273.912V202.684C457.521 213.327 495.182 235.596 495.182 239.526C495.182 243.456 457.521 264.087 438.691 273.912Z" fill="#732222"/>
<path d="M130.358 105H69.6249V41.4296H78.7127V95.9122H130.358V105ZM149.653 43.7348C149.653 44.6806 149.475 45.5672 149.121 46.3947C148.766 47.1926 148.278 47.9019 147.658 48.5226C147.037 49.1432 146.313 49.6308 145.486 49.9855C144.658 50.3401 143.786 50.5175 142.87 50.5175C141.924 50.5175 141.038 50.3401 140.21 49.9855C139.383 49.6308 138.659 49.1432 138.038 48.5226C137.417 47.9019 136.93 47.1926 136.575 46.3947C136.22 45.5672 136.043 44.6806 136.043 43.7348C136.043 42.8187 136.22 41.9468 136.575 41.1193C136.93 40.2918 137.417 39.5677 138.038 38.9471C138.659 38.3265 139.383 37.8388 140.21 37.4842C141.038 37.1 141.924 36.9079 142.87 36.9079C143.786 36.9079 144.658 37.1 145.486 37.4842C146.313 37.8388 147.037 38.3265 147.658 38.9471C148.278 39.5677 148.766 40.2918 149.121 41.1193C149.475 41.9468 149.653 42.8187 149.653 43.7348ZM147.392 105H138.304V55.0835H147.392V105ZM210.884 45.9957H185.749C183.562 46.0253 181.508 46.4686 179.587 47.3256C177.695 48.1531 176.04 49.291 174.621 50.7391C173.203 52.1577 172.08 53.8275 171.252 55.7485C170.425 57.6695 170.011 59.7087 170.011 61.8661V105H160.923V59.6053C160.923 56.4134 161.603 53.4433 162.962 50.6948C164.352 47.9167 166.184 45.5229 168.46 43.5132C170.765 41.474 173.41 39.8781 176.395 38.7255C179.38 37.5433 182.498 36.9375 185.749 36.9079H210.884V45.9957ZM210.884 68.6931H174.577V59.6053H210.884V68.6931ZM236.917 105H227.829V64.127H214.22V55.0835H227.829V36.9079H236.917V55.0835H268.702V64.127H236.917V105ZM353.296 73.2148C353.296 77.6183 352.601 81.7559 351.212 85.6274C349.823 89.499 347.843 92.8681 345.272 95.7349C342.73 98.6016 339.672 100.862 336.096 102.517C332.52 104.172 328.545 105 324.171 105H303.025C298.621 105 294.617 104.172 291.011 102.517C287.406 100.862 284.317 98.6016 281.746 95.7349C279.204 92.8681 277.239 89.499 275.85 85.6274C274.461 81.7559 273.766 77.6183 273.766 73.2148C273.766 68.8408 274.461 64.7329 275.85 60.8909C277.239 57.0193 279.204 53.6502 281.746 50.7834C284.317 47.8872 287.406 45.6115 291.011 43.9565C294.617 42.2719 298.621 41.4296 303.025 41.4296H324.171C328.545 41.4296 332.52 42.2719 336.096 43.9565C339.672 45.6115 342.73 47.8872 345.272 50.7834C347.843 53.6502 349.823 57.0193 351.212 60.8909C352.601 64.7329 353.296 68.8408 353.296 73.2148ZM344.208 73.2148C344.208 70.0821 343.75 67.1415 342.834 64.393C341.918 61.6445 340.588 59.2506 338.844 57.2114C337.13 55.1426 335.032 53.5172 332.549 52.335C330.096 51.1233 327.303 50.5175 324.171 50.5175H303.025C299.892 50.5175 297.07 51.1233 294.558 52.335C292.075 53.5172 289.962 55.1426 288.218 57.2114C286.504 59.2506 285.174 61.6445 284.228 64.393C283.312 67.1415 282.854 70.0821 282.854 73.2148C282.854 76.3475 283.312 79.3029 284.228 82.081C285.174 84.8295 286.504 87.2381 288.218 89.3069C289.962 91.3461 292.075 92.9568 294.558 94.139C297.07 95.3211 299.892 95.9122 303.025 95.9122H324.171C327.303 95.9122 330.096 95.3211 332.549 94.139C335.032 92.9568 337.13 91.3461 338.844 89.3069C340.588 87.2381 341.918 84.8295 342.834 82.081C343.75 79.3029 344.208 76.3475 344.208 73.2148ZM414.217 45.9957H389.081C386.894 46.0253 384.84 46.4686 382.919 47.3256C381.028 48.1531 379.373 49.291 377.954 50.7391C376.536 52.1577 375.413 53.8275 374.585 55.7485C373.758 57.6695 373.344 59.7087 373.344 61.8661V105H364.256V59.6053C364.256 56.4134 364.936 53.4433 366.295 50.6948C367.684 47.9167 369.517 45.5229 371.792 43.5132C374.098 41.474 376.743 39.8781 379.728 38.7255C382.713 37.5433 385.831 36.9375 389.081 36.9079H414.217V45.9957ZM414.217 68.6931H377.91V59.6053H414.217V68.6931ZM472.656 45.9957H447.52C445.333 46.0253 443.279 46.4686 441.358 47.3256C439.467 48.1531 437.812 49.291 436.393 50.7391C434.974 52.1577 433.851 53.8275 433.024 55.7485C432.196 57.6695 431.783 59.7087 431.783 61.8661V105H422.695V59.6053C422.695 56.4134 423.375 53.4433 424.734 50.6948C426.123 47.9167 427.955 45.5229 430.231 43.5132C432.536 41.474 435.181 39.8781 438.166 38.7255C441.151 37.5433 444.269 36.9375 447.52 36.9079H472.656V45.9957ZM472.656 68.6931H436.349V59.6053H472.656V68.6931ZM488.803 105H480.291V96.4885H488.803V105Z" fill="#D98236"/>
<path d="M130.358 105V105.567H130.926V105H130.358ZM69.6249 105H69.0575V105.567H69.6249V105ZM69.6249 41.4296V40.8622H69.0575V41.4296H69.6249ZM78.7127 41.4296H79.2801V40.8622H78.7127V41.4296ZM78.7127 95.9122H78.1453V96.4796H78.7127V95.9122ZM130.358 95.9122H130.926V95.3448H130.358V95.9122ZM130.358 104.433H69.6249V105.567H130.358V104.433ZM70.1923 105V41.4296H69.0575V105H70.1923ZM69.6249 41.9971H78.7127V40.8622H69.6249V41.9971ZM78.1453 41.4296V95.9122H79.2801V41.4296H78.1453ZM78.7127 96.4796H130.358V95.3448H78.7127V96.4796ZM129.791 95.9122V105H130.926V95.9122H129.791ZM149.121 46.3947L149.639 46.6252L149.642 46.6182L149.121 46.3947ZM136.575 46.3947L136.053 46.6182L136.057 46.6251L136.575 46.3947ZM140.21 37.4842L140.434 38.0058L140.441 38.0024L140.449 37.9989L140.21 37.4842ZM145.486 37.4842L145.247 37.9989L145.254 38.0024L145.262 38.0058L145.486 37.4842ZM147.392 105V105.567H147.959V105H147.392ZM138.304 105H137.737V105.567H138.304V105ZM138.304 55.0835V54.5161H137.737V55.0835H138.304ZM147.392 55.0835H147.959V54.5161H147.392V55.0835ZM149.085 43.7348C149.085 44.6077 148.922 45.4178 148.599 46.1712L149.642 46.6182C150.029 45.7165 150.22 44.7535 150.22 43.7348H149.085ZM148.602 46.1642C148.276 46.8982 147.828 47.5497 147.256 48.1213L148.059 48.9238C148.729 48.2542 149.256 47.4871 149.639 46.6251L148.602 46.1642ZM147.256 48.1213C146.688 48.6896 146.025 49.137 145.262 49.4639L145.709 50.507C146.601 50.1247 147.386 49.5968 148.059 48.9238L147.256 48.1213ZM145.262 49.4639C144.506 49.7878 143.711 49.95 142.87 49.95V51.0849C143.862 51.0849 144.81 50.8925 145.709 50.507L145.262 49.4639ZM142.87 49.95C141.997 49.95 141.187 49.7868 140.434 49.4639L139.987 50.507C140.888 50.8935 141.851 51.0849 142.87 51.0849V49.95ZM140.434 49.4639C139.671 49.137 139.007 48.6896 138.439 48.1213L137.637 48.9238C138.31 49.5968 139.095 50.1247 139.987 50.507L140.434 49.4639ZM138.439 48.1213C137.868 47.5497 137.42 46.8982 137.094 46.1642L136.057 46.6251C136.44 47.4871 136.967 48.2542 137.637 48.9238L138.439 48.1213ZM137.097 46.1712C136.774 45.4178 136.61 44.6077 136.61 43.7348H135.476C135.476 44.7535 135.667 45.7165 136.053 46.6182L137.097 46.1712ZM136.61 43.7348C136.61 42.8941 136.773 42.0985 137.097 41.3428L136.053 40.8958C135.668 41.7952 135.476 42.7432 135.476 43.7348H136.61ZM137.097 41.3428C137.424 40.5799 137.871 39.9166 138.439 39.3484L137.637 38.5459C136.964 39.2189 136.436 40.0037 136.053 40.8958L137.097 41.3428ZM138.439 39.3484C139.007 38.7801 139.671 38.3327 140.434 38.0058L139.987 36.9626C139.095 37.345 138.31 37.8729 137.637 38.5459L138.439 39.3484ZM140.449 37.9989C141.199 37.6507 142.004 37.4753 142.87 37.4753V36.3405C141.845 36.3405 140.876 36.5493 139.971 36.9695L140.449 37.9989ZM142.87 37.4753C143.704 37.4753 144.494 37.6496 145.247 37.9989L145.724 36.9695C144.822 36.5504 143.868 36.3405 142.87 36.3405V37.4753ZM145.262 38.0058C146.025 38.3327 146.688 38.7801 147.256 39.3484L148.059 38.5459C147.386 37.8729 146.601 37.345 145.709 36.9626L145.262 38.0058ZM147.256 39.3484C147.825 39.9166 148.272 40.5799 148.599 41.3428L149.642 40.8958C149.26 40.0037 148.732 39.2189 148.059 38.5459L147.256 39.3484ZM148.599 41.3428C148.923 42.0985 149.085 42.8941 149.085 43.7348H150.22C150.22 42.7432 150.028 41.7952 149.642 40.8958L148.599 41.3428ZM147.392 104.433H138.304V105.567H147.392V104.433ZM138.871 105V55.0835H137.737V105H138.871ZM138.304 55.651H147.392V54.5161H138.304V55.651ZM146.824 55.0835V105H147.959V55.0835H146.824ZM210.884 45.9957V46.5631H211.452V45.9957H210.884ZM185.749 45.9957V45.4282L185.741 45.4283L185.749 45.9957ZM179.587 47.3256L179.814 47.8455L179.818 47.8438L179.587 47.3256ZM174.621 50.7391L175.023 51.1404L175.027 51.1362L174.621 50.7391ZM170.011 105V105.567H170.579V105H170.011ZM160.923 105H160.356V105.567H160.923V105ZM162.962 50.6948L162.455 50.441L162.454 50.4432L162.962 50.6948ZM168.46 43.5132L168.835 43.9385L168.835 43.9382L168.46 43.5132ZM176.395 38.7255L176.599 39.2548L176.604 39.253L176.395 38.7255ZM185.749 36.9079V36.3404L185.743 36.3405L185.749 36.9079ZM210.884 36.9079H211.452V36.3405H210.884V36.9079ZM210.884 68.6931V69.2605H211.452V68.6931H210.884ZM174.577 68.6931H174.01V69.2605H174.577V68.6931ZM174.577 59.6053V59.0378H174.01V59.6053H174.577ZM210.884 59.6053H211.452V59.0378H210.884V59.6053ZM210.884 45.4283H185.749V46.5631H210.884V45.4283ZM185.741 45.4283C183.48 45.4589 181.35 45.9177 179.355 46.8074L179.818 47.8438C181.666 47.0194 183.643 46.5916 185.756 46.5631L185.741 45.4283ZM179.359 46.8058C177.402 47.6619 175.687 48.841 174.216 50.342L175.027 51.1362C176.394 49.741 177.988 48.6444 179.814 47.8455L179.359 46.8058ZM174.22 50.3379C172.749 51.8094 171.586 53.5399 170.731 55.524L171.773 55.973C172.574 54.1151 173.657 52.506 175.023 51.1403L174.22 50.3379ZM170.731 55.524C169.872 57.5181 169.444 59.634 169.444 61.8661H170.579C170.579 59.7834 170.977 57.8208 171.773 55.973L170.731 55.524ZM169.444 61.8661V105H170.579V61.8661H169.444ZM170.011 104.433H160.923V105.567H170.011V104.433ZM161.491 105V59.6053H160.356V105H161.491ZM161.491 59.6053C161.491 56.497 162.152 53.6134 163.471 50.9464L162.454 50.4432C161.054 53.2732 160.356 56.3299 160.356 59.6053H161.491ZM163.47 50.9485C164.827 48.2341 166.615 45.8989 168.835 43.9385L168.084 43.0879C165.752 45.1468 163.876 47.5994 162.455 50.441L163.47 50.9485ZM168.835 43.9382C171.088 41.9454 173.675 40.3841 176.599 39.2548L176.19 38.1961C173.145 39.372 170.441 41.0025 168.084 43.0882L168.835 43.9382ZM176.604 39.253C179.523 38.0969 182.572 37.5042 185.754 37.4753L185.743 36.3405C182.424 36.3707 179.236 36.9897 176.186 38.1979L176.604 39.253ZM185.749 37.4753H210.884V36.3405H185.749V37.4753ZM210.317 36.9079V45.9957H211.452V36.9079H210.317ZM210.884 68.1256H174.577V69.2605H210.884V68.1256ZM175.145 68.6931V59.6053H174.01V68.6931H175.145ZM174.577 60.1727H210.884V59.0378H174.577V60.1727ZM210.317 59.6053V68.6931H211.452V59.6053H210.317ZM236.917 105V105.567H237.484V105H236.917ZM227.829 105H227.262V105.567H227.829V105ZM227.829 64.127H228.397V63.5596H227.829V64.127ZM214.22 64.127H213.652V64.6944H214.22V64.127ZM214.22 55.0835V54.5161H213.652V55.0835H214.22ZM227.829 55.0835V55.651H228.397V55.0835H227.829ZM227.829 36.9079V36.3405H227.262V36.9079H227.829ZM236.917 36.9079H237.484V36.3405H236.917V36.9079ZM236.917 55.0835H236.349V55.651H236.917V55.0835ZM268.702 55.0835H269.27V54.5161H268.702V55.0835ZM268.702 64.127V64.6944H269.27V64.127H268.702ZM236.917 64.127V63.5596H236.349V64.127H236.917ZM236.917 104.433H227.829V105.567H236.917V104.433ZM228.397 105V64.127H227.262V105H228.397ZM227.829 63.5596H214.22V64.6944H227.829V63.5596ZM214.787 64.127V55.0835H213.652V64.127H214.787ZM214.22 55.651H227.829V54.5161H214.22V55.651ZM228.397 55.0835V36.9079H227.262V55.0835H228.397ZM227.829 37.4753H236.917V36.3405H227.829V37.4753ZM236.349 36.9079V55.0835H237.484V36.9079H236.349ZM236.917 55.651H268.702V54.5161H236.917V55.651ZM268.135 55.0835V64.127H269.27V55.0835H268.135ZM268.702 63.5596H236.917V64.6944H268.702V63.5596ZM236.349 64.127V105H237.484V64.127H236.349ZM345.272 95.7349L344.85 95.356L344.847 95.3584L345.272 95.7349ZM291.011 102.517L290.774 103.033L291.011 102.517ZM281.746 95.7349L281.321 96.1113L281.324 96.1137L281.746 95.7349ZM275.85 85.6274L275.316 85.8191L275.85 85.6274ZM275.85 60.8909L276.384 61.0838L276.384 61.0825L275.85 60.8909ZM281.746 50.7834L281.322 50.4067L281.321 50.407L281.746 50.7834ZM291.011 43.9565L291.248 44.4722L291.251 44.4706L291.011 43.9565ZM336.096 43.9565L335.854 44.4698L335.857 44.4715L336.096 43.9565ZM345.272 50.7834L344.845 51.1577L344.85 51.1623L345.272 50.7834ZM351.212 60.8909L350.678 61.0825L350.679 61.0838L351.212 60.8909ZM338.844 57.2114L338.407 57.5735L338.413 57.5802L338.844 57.2114ZM332.549 52.335L332.298 52.8438L332.305 52.8473L332.549 52.335ZM294.558 52.335L294.802 52.8473L294.804 52.8461L294.558 52.335ZM288.218 57.2114L287.784 56.8457L287.784 56.8463L288.218 57.2114ZM284.228 64.393L283.692 64.2084L283.69 64.2136L284.228 64.393ZM284.228 82.081L283.69 82.2587L283.692 82.2656L284.228 82.081ZM288.218 89.3069L287.781 89.669L287.787 89.6757L288.218 89.3069ZM294.558 94.139L294.314 94.6513L294.316 94.6524L294.558 94.139ZM332.549 94.139L332.305 93.6266L332.303 93.6278L332.549 94.139ZM338.844 89.3069L338.41 88.9412L338.41 88.9418L338.844 89.3069ZM342.834 82.081L343.372 82.2604L343.373 82.2587L342.834 82.081ZM352.728 73.2148C352.728 77.5577 352.044 81.63 350.678 85.4358L351.746 85.8191C353.159 81.8818 353.863 77.679 353.863 73.2148H352.728ZM350.678 85.4358C349.312 89.2431 347.369 92.5475 344.85 95.356L345.694 96.1137C348.318 93.1888 350.334 89.7549 351.746 85.8191L350.678 85.4358ZM344.847 95.3584C342.359 98.1649 339.364 100.379 335.857 102.003L336.334 103.032C339.979 101.346 343.102 99.0382 345.697 96.1113L344.847 95.3584ZM335.857 102.003C332.364 103.619 328.471 104.433 324.171 104.433V105.567C328.618 105.567 332.675 104.726 336.334 103.032L335.857 102.003ZM324.171 104.433H303.025V105.567H324.171V104.433ZM303.025 104.433C298.694 104.433 294.771 103.619 291.248 102.002L290.774 103.033C294.462 104.726 298.549 105.567 303.025 105.567V104.433ZM291.248 102.002C287.711 100.378 284.686 98.1631 282.168 95.356L281.324 96.1137C283.948 99.0401 287.1 101.347 290.774 103.033L291.248 102.002ZM282.171 95.3584C279.68 92.5496 277.751 89.2444 276.384 85.4358L275.316 85.8191C276.727 89.7536 278.728 93.1866 281.321 96.1113L282.171 95.3584ZM276.384 85.4358C275.019 81.63 274.334 77.5577 274.334 73.2148H273.199C273.199 77.679 273.903 81.8818 275.316 85.8191L276.384 85.4358ZM274.334 73.2148C274.334 68.902 275.018 64.8597 276.384 61.0838L275.316 60.6979C273.903 64.606 273.199 68.7797 273.199 73.2148H274.334ZM276.384 61.0825C277.751 57.2739 279.68 53.9687 282.171 51.1599L281.321 50.407C278.728 53.3317 276.727 56.7647 275.316 60.6992L276.384 61.0825ZM282.17 51.1602C284.688 48.3242 287.712 46.0952 291.248 44.4722L290.774 43.4408C287.099 45.1278 283.946 47.4502 281.322 50.4067L282.17 51.1602ZM291.251 44.4706C294.774 42.8247 298.695 41.9971 303.025 41.9971V40.8622C298.547 40.8622 294.459 41.7191 290.771 43.4424L291.251 44.4706ZM303.025 41.9971H324.171V40.8622H303.025V41.9971ZM324.171 41.9971C328.47 41.9971 332.361 42.8245 335.854 44.4698L336.337 43.4432C332.678 41.7193 328.619 40.8622 324.171 40.8622V41.9971ZM335.857 44.4715C339.363 46.094 342.357 48.3223 344.846 51.1577L345.698 50.4092C343.103 47.452 339.98 45.129 336.334 43.4415L335.857 44.4715ZM344.85 51.1623C347.369 53.9708 349.312 57.2752 350.678 61.0825L351.746 60.6992C350.334 56.7634 348.318 53.3295 345.694 50.4046L344.85 51.1623ZM350.679 61.0838C352.044 64.8597 352.728 68.902 352.728 73.2148H353.863C353.863 68.7797 353.159 64.606 351.746 60.6979L350.679 61.0838ZM344.775 73.2148C344.775 70.0261 344.309 67.0244 343.372 64.2136L342.295 64.5724C343.191 67.2586 343.641 70.1381 343.641 73.2148H344.775ZM343.372 64.2136C342.435 61.4012 341.07 58.9418 339.275 56.8426L338.413 57.5802C340.105 59.5595 341.401 61.8878 342.295 64.5724L343.372 64.2136ZM339.281 56.8494C337.513 54.7156 335.348 53.0395 332.793 51.8227L332.305 52.8473C334.715 53.9949 336.747 55.5697 338.407 57.5734L339.281 56.8494ZM332.8 51.8263C330.259 50.5707 327.378 49.95 324.171 49.95V51.0849C327.229 51.0849 329.934 51.6759 332.298 52.8438L332.8 51.8263ZM324.171 49.95H303.025V51.0849H324.171V49.95ZM303.025 49.95C299.817 49.95 296.909 50.5708 294.311 51.8239L294.804 52.8461C297.23 51.6758 299.967 51.0849 303.025 51.0849V49.95ZM294.314 51.8227C291.759 53.0391 289.581 54.7141 287.784 56.8457L288.652 57.5771C290.343 55.5712 292.391 53.9953 294.802 52.8473L294.314 51.8227ZM287.784 56.8463C286.021 58.9435 284.658 61.3999 283.692 64.2084L284.765 64.5776C285.69 61.889 286.987 59.5577 288.653 57.5765L287.784 56.8463ZM283.69 64.2136C282.753 67.0244 282.287 70.0261 282.287 73.2148H283.422C283.422 70.1381 283.871 67.2586 284.767 64.5724L283.69 64.2136ZM282.287 73.2148C282.287 76.4036 282.753 79.4194 283.69 82.2587L284.767 81.9033C283.871 79.1865 283.422 76.2914 283.422 73.2148H282.287ZM283.692 82.2656C284.658 85.0735 286.02 87.5433 287.781 89.6689L288.655 88.9449C286.988 86.9329 285.69 84.5855 284.765 81.8964L283.692 82.2656ZM287.787 89.6757C289.584 91.7769 291.761 93.4358 294.314 94.6513L294.802 93.6266C292.389 92.4778 290.34 90.9154 288.65 88.9381L287.787 89.6757ZM294.316 94.6524C296.913 95.8744 299.819 96.4796 303.025 96.4796V95.3448C299.965 95.3448 297.227 94.7678 294.799 93.6255L294.316 94.6524ZM303.025 96.4796H324.171V95.3448H303.025V96.4796ZM324.171 96.4796C327.376 96.4796 330.255 95.8745 332.795 94.6501L332.303 93.6278C329.937 94.7677 327.231 95.3448 324.171 95.3448V96.4796ZM332.793 94.6513C335.346 93.4354 337.51 91.7754 339.278 89.672L338.41 88.9418C336.749 90.9169 334.717 92.4782 332.305 93.6266L332.793 94.6513ZM339.278 89.6726C341.071 87.5451 342.435 85.0722 343.372 82.2604L342.295 81.9015C341.4 84.5868 340.104 86.9311 338.41 88.9412L339.278 89.6726ZM343.373 82.2587C344.309 79.4194 344.775 76.4036 344.775 73.2148H343.641C343.641 76.2914 343.191 79.1865 342.295 81.9033L343.373 82.2587ZM414.217 45.9957V46.5631H414.784V45.9957H414.217ZM389.081 45.9957V45.4282L389.074 45.4283L389.081 45.9957ZM382.919 47.3256L383.147 47.8455L383.151 47.8438L382.919 47.3256ZM377.954 50.7391L378.356 51.1404L378.36 51.1362L377.954 50.7391ZM373.344 105V105.567H373.911V105H373.344ZM364.256 105H363.689V105.567H364.256V105ZM366.295 50.6948L365.788 50.441L365.787 50.4432L366.295 50.6948ZM371.792 43.5132L372.168 43.9385L372.168 43.9382L371.792 43.5132ZM379.728 38.7255L379.932 39.2548L379.937 39.253L379.728 38.7255ZM389.081 36.9079V36.3404L389.076 36.3405L389.081 36.9079ZM414.217 36.9079H414.784V36.3405H414.217V36.9079ZM414.217 68.6931V69.2605H414.784V68.6931H414.217ZM377.91 68.6931H377.343V69.2605H377.91V68.6931ZM377.91 59.6053V59.0378H377.343V59.6053H377.91ZM414.217 59.6053H414.784V59.0378H414.217V59.6053ZM414.217 45.4283H389.081V46.5631H414.217V45.4283ZM389.074 45.4283C386.813 45.4589 384.682 45.9177 382.688 46.8074L383.151 47.8438C384.998 47.0194 386.976 46.5916 389.089 46.5631L389.074 45.4283ZM382.692 46.8058C380.735 47.6619 379.02 48.841 377.549 50.342L378.36 51.1362C379.727 49.741 381.321 48.6444 383.147 47.8455L382.692 46.8058ZM377.553 50.3379C376.082 51.8094 374.919 53.5399 374.064 55.524L375.106 55.973C375.907 54.1151 376.99 52.506 378.356 51.1403L377.553 50.3379ZM374.064 55.524C373.205 57.5181 372.777 59.634 372.777 61.8661H373.911C373.911 59.7834 374.31 57.8208 375.106 55.973L374.064 55.524ZM372.777 61.8661V105H373.911V61.8661H372.777ZM373.344 104.433H364.256V105.567H373.344V104.433ZM364.824 105V59.6053H363.689V105H364.824ZM364.824 59.6053C364.824 56.497 365.485 53.6134 366.804 50.9464L365.787 50.4432C364.387 53.2732 363.689 56.3299 363.689 59.6053H364.824ZM366.803 50.9485C368.16 48.2341 369.948 45.8989 372.168 43.9385L371.417 43.0879C369.085 45.1468 367.209 47.5994 365.788 50.441L366.803 50.9485ZM372.168 43.9382C374.421 41.9454 377.008 40.3841 379.932 39.2548L379.523 38.1961C376.478 39.372 373.774 41.0025 371.416 43.0882L372.168 43.9382ZM379.937 39.253C382.856 38.0969 385.905 37.5042 389.087 37.4753L389.076 36.3405C385.756 36.3707 382.569 36.9897 379.519 38.1979L379.937 39.253ZM389.081 37.4753H414.217V36.3405H389.081V37.4753ZM413.65 36.9079V45.9957H414.784V36.9079H413.65ZM414.217 68.1256H377.91V69.2605H414.217V68.1256ZM378.478 68.6931V59.6053H377.343V68.6931H378.478ZM377.91 60.1727H414.217V59.0378H377.91V60.1727ZM413.65 59.6053V68.6931H414.784V59.6053H413.65ZM472.656 45.9957V46.5631H473.223V45.9957H472.656ZM447.52 45.9957V45.4282L447.512 45.4283L447.52 45.9957ZM441.358 47.3256L441.586 47.8455L441.589 47.8438L441.358 47.3256ZM436.393 50.7391L436.794 51.1404L436.798 51.1362L436.393 50.7391ZM431.783 105V105.567H432.35V105H431.783ZM422.695 105H422.127V105.567H422.695V105ZM424.734 50.6948L424.227 50.441L424.225 50.4432L424.734 50.6948ZM430.231 43.5132L430.607 43.9385L430.607 43.9382L430.231 43.5132ZM438.166 38.7255L438.371 39.2548L438.375 39.253L438.166 38.7255ZM447.52 36.9079V36.3404L447.515 36.3405L447.52 36.9079ZM472.656 36.9079H473.223V36.3405H472.656V36.9079ZM472.656 68.6931V69.2605H473.223V68.6931H472.656ZM436.349 68.6931H435.781V69.2605H436.349V68.6931ZM436.349 59.6053V59.0378H435.781V59.6053H436.349ZM472.656 59.6053H473.223V59.0378H472.656V59.6053ZM472.656 45.4283H447.52V46.5631H472.656V45.4283ZM447.512 45.4283C445.251 45.4589 443.121 45.9177 441.127 46.8074L441.589 47.8438C443.437 47.0194 445.415 46.5916 447.528 46.5631L447.512 45.4283ZM441.131 46.8058C439.174 47.6619 437.458 48.841 435.988 50.342L436.798 51.1362C438.165 49.741 439.759 48.6444 441.586 47.8455L441.131 46.8058ZM435.992 50.3379C434.52 51.8094 433.357 53.5399 432.503 55.524L433.545 55.973C434.345 54.1151 435.429 52.506 436.794 51.1403L435.992 50.3379ZM432.503 55.524C431.644 57.5181 431.215 59.634 431.215 61.8661H432.35C432.35 59.7834 432.749 57.8208 433.545 55.973L432.503 55.524ZM431.215 61.8661V105H432.35V61.8661H431.215ZM431.783 104.433H422.695V105.567H431.783V104.433ZM423.262 105V59.6053H422.127V105H423.262ZM423.262 59.6053C423.262 56.497 423.923 53.6134 425.243 50.9464L424.225 50.4432C422.826 53.2732 422.127 56.3299 422.127 59.6053H423.262ZM425.242 50.9485C426.599 48.2341 428.387 45.8989 430.607 43.9385L429.855 43.0879C427.524 45.1468 425.647 47.5994 424.227 50.441L425.242 50.9485ZM430.607 43.9382C432.86 41.9454 435.446 40.3841 438.371 39.2548L437.962 38.1961C434.917 39.372 432.213 41.0025 429.855 43.0882L430.607 43.9382ZM438.375 39.253C441.294 38.0969 444.343 37.5042 447.525 37.4753L447.515 36.3405C444.195 36.3707 441.008 36.9897 437.957 38.1979L438.375 39.253ZM447.52 37.4753H472.656V36.3405H447.52V37.4753ZM472.088 36.9079V45.9957H473.223V36.9079H472.088ZM472.656 68.1256H436.349V69.2605H472.656V68.1256ZM436.916 68.6931V59.6053H435.781V68.6931H436.916ZM436.349 60.1727H472.656V59.0378H436.349V60.1727ZM472.088 59.6053V68.6931H473.223V59.6053H472.088ZM488.803 105V105.567H489.37V105H488.803ZM480.291 105H479.724V105.567H480.291V105ZM480.291 96.4885V95.9211H479.724V96.4885H480.291ZM488.803 96.4885H489.37V95.9211H488.803V96.4885ZM488.803 104.433H480.291V105.567H488.803V104.433ZM480.859 105V96.4885H479.724V105H480.859ZM480.291 97.0559H488.803V95.9211H480.291V97.0559ZM488.235 96.4885V105H489.37V96.4885H488.235Z" fill="#F2D7B6"/>
</svg>
