<svg width="339" height="496" viewBox="0 0 339 496" fill="none" xmlns="http://www.w3.org/2000/svg">
<path fill-rule="evenodd" clip-rule="evenodd" d="M199 65.4222C192.451 80.9777 178.615 117.738 175.667 140.334C175.596 140.879 175.524 141.43 175.451 141.988C171.75 170.332 165.937 214.847 170.755 257C174.685 291.386 186.31 334.369 191.632 351.562H273.912C281.281 334.369 296.754 291.386 299.702 257C303.386 214.018 293.991 140.068 293.991 140.068C293.472 137.228 292.813 133.215 292.03 128.455C289.063 110.404 284.332 81.6189 278.825 65.4222L199 65.4222ZM232 307.455V303.938L226.719 309.397C226.592 308.627 226.342 307.912 225.97 307.252C225.589 306.583 225.115 306.004 224.548 305.513C223.972 305.022 223.325 304.637 222.605 304.357C221.878 304.078 221.107 303.938 220.295 303.938C219.398 303.938 218.556 304.112 217.769 304.459C216.981 304.798 216.296 305.263 215.712 305.855C215.119 306.439 214.654 307.125 214.315 307.912C213.968 308.699 213.795 309.541 213.795 310.438V324.949H232V322.347H216.397V310.438C216.397 309.897 216.499 309.389 216.702 308.915C216.905 308.441 217.185 308.031 217.54 307.684C217.887 307.328 218.298 307.049 218.771 306.846C219.245 306.643 219.753 306.541 220.295 306.541C220.837 306.541 221.349 306.643 221.831 306.846C222.305 307.049 222.72 307.328 223.075 307.684C223.431 308.031 223.714 308.441 223.926 308.915C224.129 309.389 224.23 309.897 224.23 310.438V320.887H226.795V312.914L232 307.455ZM232 300.6L232 281.772H229.397L229.397 297.997H216.397L216.397 281.772H213.795L213.795 300.6H232ZM224.205 296.702V283.981H221.603V296.702H224.205ZM232 260.444V257.842H213.795V269.775C213.795 270.613 213.905 271.417 214.125 272.188C214.337 272.958 214.641 273.681 215.039 274.358C215.437 275.027 215.915 275.641 216.474 276.199C217.024 276.749 217.637 277.223 218.314 277.621C218.983 278.01 219.707 278.315 220.485 278.535C221.256 278.747 222.06 278.853 222.897 278.853H232V276.25H222.897C222 276.25 221.158 276.081 220.371 275.742C219.584 275.395 218.898 274.93 218.314 274.346C217.722 273.762 217.257 273.076 216.918 272.289C216.571 271.502 216.397 270.664 216.397 269.775V260.444H224.205V274.968H226.795V260.444H232ZM228.839 233.784C228.204 233.513 227.523 233.378 226.795 233.378C226.084 233.378 225.415 233.513 224.789 233.784C224.154 234.055 223.604 234.427 223.139 234.901C222.665 235.367 222.292 235.917 222.021 236.552C221.742 237.178 221.603 237.851 221.603 238.57V249.184C221.603 249.539 221.535 249.878 221.399 250.199C221.264 250.512 221.078 250.787 220.841 251.024C220.604 251.261 220.329 251.448 220.016 251.583C219.694 251.718 219.355 251.786 219 251.786C218.645 251.786 218.31 251.718 217.997 251.583C217.675 251.448 217.396 251.261 217.159 251.024C216.922 250.787 216.736 250.512 216.601 250.199C216.465 249.878 216.397 249.539 216.397 249.184V234.673H213.795V249.184C213.795 249.895 213.935 250.567 214.214 251.202C214.485 251.837 214.857 252.391 215.331 252.865C215.797 253.331 216.347 253.703 216.981 253.982C217.616 254.253 218.289 254.389 219 254.389C219.719 254.389 220.396 254.253 221.031 253.982C221.666 253.703 222.22 253.331 222.694 252.865C223.16 252.391 223.528 251.837 223.799 251.202C224.07 250.567 224.205 249.895 224.205 249.184V238.57C224.205 238.206 224.273 237.868 224.408 237.555C224.544 237.242 224.73 236.971 224.967 236.742C225.204 236.505 225.479 236.319 225.792 236.184C226.105 236.048 226.439 235.98 226.795 235.98C227.15 235.98 227.489 236.048 227.811 236.184C228.124 236.319 228.399 236.505 228.636 236.742C228.873 236.971 229.059 237.242 229.194 237.555C229.33 237.868 229.397 238.206 229.397 238.57V254.389H232V238.57C232 237.851 231.865 237.178 231.594 236.552C231.323 235.917 230.955 235.367 230.489 234.901C230.015 234.427 229.465 234.055 228.839 233.784ZM222.834 209.828C222.038 209.481 221.192 209.308 220.295 209.308C219.398 209.308 218.556 209.481 217.769 209.828C216.981 210.167 216.296 210.632 215.712 211.225C215.119 211.809 214.654 212.494 214.315 213.281C213.968 214.068 213.795 214.91 213.795 215.808V230.318H232V227.716H216.397V215.808C216.397 215.266 216.499 214.758 216.702 214.284C216.905 213.81 217.185 213.4 217.54 213.053C217.887 212.697 218.298 212.418 218.771 212.215C219.245 212.012 219.753 211.91 220.295 211.91C220.837 211.91 221.349 212.012 221.831 212.215C222.305 212.418 222.72 212.697 223.075 213.053C223.431 213.4 223.714 213.81 223.926 214.284C224.129 214.758 224.23 215.266 224.23 215.808V226.256H226.795V215.808C226.795 214.91 226.626 214.068 226.287 213.281C225.949 212.494 225.487 211.809 224.903 211.225C224.311 210.632 223.621 210.167 222.834 209.828ZM228.839 185.466C228.204 185.187 227.523 185.047 226.795 185.047C226.228 185.047 225.69 185.136 225.183 185.313C224.666 185.483 224.197 185.724 223.773 186.037C223.35 186.342 222.978 186.71 222.656 187.142C222.335 187.565 222.085 188.03 221.907 188.538C221.493 188.267 221.044 188.051 220.562 187.891C220.071 187.73 219.55 187.649 219 187.649C218.289 187.649 217.616 187.789 216.981 188.068C216.347 188.339 215.797 188.712 215.331 189.186C214.857 189.651 214.485 190.201 214.214 190.836C213.935 191.471 213.795 192.144 213.795 192.854V206.477H232V203.874H216.397V192.854C216.397 192.499 216.465 192.165 216.601 191.852C216.736 191.53 216.922 191.251 217.159 191.014C217.396 190.777 217.675 190.59 217.997 190.455C218.31 190.32 218.645 190.252 219 190.252C219.355 190.252 219.694 190.32 220.016 190.455C220.329 190.59 220.604 190.777 220.841 191.014C221.078 191.251 221.264 191.53 221.399 191.852C221.535 192.165 221.603 192.499 221.603 192.854V202.579H224.205V190.252C224.205 189.896 224.273 189.562 224.408 189.249C224.544 188.927 224.73 188.648 224.967 188.411C225.204 188.174 225.479 187.988 225.792 187.853C226.105 187.717 226.439 187.649 226.795 187.649C227.15 187.649 227.489 187.717 227.811 187.853C228.124 187.988 228.399 188.174 228.636 188.411C228.873 188.648 229.059 188.927 229.194 189.249C229.33 189.562 229.397 189.896 229.397 190.252V202.579H232V190.252C232 189.541 231.865 188.868 231.594 188.233C231.323 187.599 230.955 187.049 230.489 186.583C230.015 186.109 229.465 185.737 228.839 185.466ZM232 182L232 163.173H229.397L229.397 179.397H216.397L216.397 163.173H213.795L213.795 182H232ZM224.205 178.103L224.205 165.382H221.603L221.603 178.103H224.205ZM232 142.441V138.925L226.719 144.384C226.592 143.614 226.342 142.898 225.97 142.238C225.589 141.57 225.115 140.99 224.548 140.499C223.972 140.008 223.325 139.623 222.605 139.344C221.878 139.064 221.107 138.925 220.295 138.925C219.398 138.925 218.556 139.098 217.769 139.445C216.981 139.784 216.296 140.249 215.712 140.842C215.119 141.426 214.654 142.111 214.315 142.898C213.968 143.686 213.795 144.528 213.795 145.425V159.936H232V157.333H216.397V145.425C216.397 144.883 216.499 144.375 216.702 143.901C216.905 143.427 217.185 143.017 217.54 142.67C217.887 142.314 218.298 142.035 218.771 141.832C219.245 141.629 219.753 141.527 220.295 141.527C220.837 141.527 221.349 141.629 221.831 141.832C222.305 142.035 222.72 142.314 223.075 142.67C223.431 143.017 223.714 143.427 223.926 143.901C224.129 144.375 224.23 144.883 224.23 145.425V155.873H226.795V147.9L232 142.441ZM232 118.092V114.575L226.719 120.034C226.592 119.264 226.342 118.549 225.97 117.889C225.589 117.22 225.115 116.64 224.548 116.149C223.972 115.659 223.325 115.273 222.605 114.994C221.878 114.715 221.107 114.575 220.295 114.575C219.398 114.575 218.556 114.749 217.769 115.096C216.981 115.434 216.296 115.9 215.712 116.492C215.119 117.076 214.654 117.762 214.315 118.549C213.968 119.336 213.795 120.178 213.795 121.075V135.586H232V132.983H216.397V121.075C216.397 120.534 216.499 120.026 216.702 119.552C216.905 119.078 217.185 118.667 217.54 118.32C217.887 117.965 218.298 117.686 218.771 117.482C219.245 117.279 219.753 117.178 220.295 117.178C220.837 117.178 221.349 117.279 221.831 117.482C222.305 117.686 222.72 117.965 223.075 118.32C223.431 118.667 223.714 119.078 223.926 119.552C224.129 120.026 224.23 120.534 224.23 121.075V131.523H226.795V123.551L232 118.092ZM228.839 91.419C228.204 91.0719 227.523 90.8984 226.795 90.8984H213.795V93.501H222.897L222.897 105.435C222.897 105.976 222.796 106.484 222.593 106.958C222.39 107.432 222.115 107.847 221.768 108.202C221.412 108.549 220.997 108.824 220.523 109.027C220.049 109.23 219.542 109.332 219 109.332H213.795V111.935H219C219.897 111.935 220.743 111.765 221.539 111.427C222.326 111.088 223.016 110.627 223.608 110.043C224.192 109.451 224.654 108.761 224.992 107.974C225.331 107.178 225.5 106.332 225.5 105.435L225.5 93.501H226.795C227.15 93.501 227.489 93.6068 227.811 93.8184C228.124 94.0215 228.399 94.3008 228.636 94.6563C228.873 95.0033 229.059 95.4137 229.194 95.8877C229.33 96.3617 229.397 96.8652 229.397 97.3984L229.397 111.935H232L232 97.3984C232 96.5013 231.865 95.6592 231.594 94.8721C231.323 94.085 230.955 93.3994 230.489 92.8154C230.015 92.223 229.465 91.7575 228.839 91.419ZM263 247.635V230.242H260.397V245.032H244.795V247.635H263ZM263 227.779V225.177H244.795V227.779H263ZM263 210.298V207.695H253.897C253 207.695 252.158 207.526 251.371 207.188C250.584 206.841 249.898 206.375 249.314 205.791C248.722 205.199 248.257 204.509 247.918 203.722C247.571 202.935 247.397 202.092 247.397 201.195V199.786H263V197.184H244.795V201.195C244.795 202.025 244.905 202.825 245.125 203.595C245.337 204.356 245.637 205.072 246.026 205.74C246.416 206.409 246.881 207.018 247.423 207.568C247.965 208.119 248.565 208.592 249.226 208.99C248.565 209.396 247.965 209.875 247.423 210.425C246.881 210.975 246.416 211.584 246.026 212.253C245.637 212.922 245.337 213.641 245.125 214.411C244.905 215.173 244.795 215.968 244.795 216.798V220.797H263V218.194H247.397V216.798C247.397 215.901 247.571 215.059 247.918 214.271C248.257 213.476 248.722 212.786 249.314 212.202C249.898 211.61 250.584 211.144 251.371 210.806C252.158 210.467 253 210.298 253.897 210.298H263ZM263 192.816V173.989H260.397V190.214H247.397L247.397 173.989H244.795L244.795 192.816H263ZM255.205 188.919L255.205 176.198H252.603L252.603 188.919H255.205ZM261.807 167.769C261.57 167.659 261.316 167.604 261.045 167.604C260.783 167.604 260.533 167.659 260.296 167.769C260.059 167.87 259.852 168.01 259.674 168.188C259.496 168.365 259.356 168.573 259.255 168.81C259.153 169.047 259.103 169.296 259.103 169.559C259.103 169.829 259.153 170.083 259.255 170.32C259.356 170.549 259.496 170.752 259.674 170.93C259.852 171.107 260.059 171.247 260.296 171.349C260.533 171.45 260.783 171.501 261.045 171.501C261.316 171.501 261.57 171.45 261.807 171.349C262.044 171.247 262.251 171.107 262.429 170.93C262.606 170.752 262.746 170.549 262.848 170.32C262.949 170.083 263 169.829 263 169.559C263 169.296 262.949 169.047 262.848 168.81C262.746 168.573 262.606 168.365 262.429 168.188C262.251 168.01 262.044 167.87 261.807 167.769Z" fill="#732222"/>
<path d="M201.457 369.982C201.457 370.355 201.259 370.699 200.91 371.097C198.76 375.558 195.316 383.57 195.316 387.175C195.316 392.087 195.316 396.999 197.772 403.14C200.228 409.28 201.457 414.192 202.685 409.28C203.913 404.368 222.334 387.175 219.878 393.315C217.421 399.456 218.65 416.649 219.878 422.789C221.106 428.929 228.474 437.526 232.158 439.982C239.527 415.42 235.842 420.333 238.299 416.649C242.152 410.868 250.989 400.684 256.72 397C257.129 402.321 257.948 414.438 257.948 420.333C269 417.877 265.316 379.807 267.772 379.807C271.456 384.719 271.456 401.912 271.456 412.964C271.456 424.017 262.86 436.298 260.404 442.438C258.439 447.35 257.129 457.584 256.72 462.087C253.445 459.631 246.895 453.736 246.895 449.806L246.895 427.701C245.667 428.929 243.211 433.841 243.211 443.666V470.683C243.211 480.508 223.562 500.157 224.79 494.017C226.018 487.876 213.737 464.543 210.053 458.403C207.106 453.491 208.006 432.613 208.825 422.789C207.597 426.882 204.65 436.789 202.685 443.666C200.72 450.543 196.954 452.262 195.316 452.262C192.042 441.619 186.229 415.666 189.176 397C192.301 377.208 198.96 373.32 200.91 371.097C201.104 370.695 201.287 370.321 201.457 369.982Z" fill="#732222"/>
<path d="M319.351 414.193L286.193 346.649C289.141 343.702 302.977 289.749 309.527 263.141L339 286.474L319.351 414.193Z" fill="#732222"/>
<path d="M129 282.79L162.158 260.685C162.158 283.281 173.62 326.591 179.351 345.421L143.737 411.737L129 282.79Z" fill="#732222"/>
<path d="M273.912 56.491L202.685 56.491C213.328 37.6607 235.597 0 239.527 0C243.456 0 264.088 37.6607 273.912 56.491Z" fill="#732222"/>
<path d="M105 364.642V425.375H41.4296V416.287H95.9122V364.642H105ZM43.7348 345.347C44.6806 345.347 45.5672 345.525 46.3947 345.879C47.1926 346.234 47.9019 346.722 48.5226 347.342C49.1432 347.963 49.6308 348.687 49.9855 349.514C50.3401 350.342 50.5175 351.214 50.5175 352.13C50.5175 353.076 50.3401 353.962 49.9855 354.79C49.6308 355.617 49.1432 356.341 48.5226 356.962C47.9019 357.583 47.1926 358.07 46.3947 358.425C45.5672 358.78 44.6806 358.957 43.7348 358.957C42.8187 358.957 41.9468 358.78 41.1193 358.425C40.2918 358.07 39.5677 357.583 38.9471 356.962C38.3265 356.341 37.8388 355.617 37.4842 354.79C37.1 353.962 36.9079 353.076 36.9079 352.13C36.9079 351.214 37.1 350.342 37.4842 349.514C37.8388 348.687 38.3265 347.963 38.9471 347.342C39.5677 346.722 40.2918 346.234 41.1193 345.879C41.9468 345.525 42.8187 345.347 43.7348 345.347ZM105 347.608V356.696H55.0835V347.608H105ZM45.9957 284.116V309.251C46.0253 311.438 46.4686 313.492 47.3256 315.413C48.1531 317.305 49.291 318.96 50.7391 320.379C52.1577 321.797 53.8275 322.92 55.7485 323.748C57.6695 324.575 59.7087 324.989 61.8661 324.989H105V334.077H59.6053C56.4134 334.077 53.4433 333.397 50.6948 332.038C47.9167 330.648 45.5229 328.816 43.5132 326.54C41.474 324.235 39.8781 321.59 38.7255 318.605C37.5433 315.62 36.9375 312.502 36.9079 309.251V284.116H45.9957ZM68.6931 284.116L68.6931 320.423H59.6053V284.116H68.6931ZM105 258.083V267.171H64.127V280.78H55.0835V267.171H36.9079L36.9079 258.083H55.0835V226.298H64.127V258.083H105ZM73.2148 141.704C77.6183 141.704 81.7559 142.399 85.6274 143.788C89.499 145.177 92.8681 147.157 95.7349 149.728C98.6016 152.27 100.862 155.328 102.517 158.904C104.172 162.48 105 166.455 105 170.829V191.975C105 196.379 104.172 200.383 102.517 203.989C100.862 207.594 98.6016 210.683 95.7349 213.254C92.8681 215.796 89.499 217.761 85.6274 219.15C81.7559 220.539 77.6183 221.234 73.2148 221.234C68.8408 221.234 64.7329 220.539 60.8909 219.15C57.0193 217.761 53.6502 215.796 50.7834 213.254C47.8872 210.683 45.6115 207.594 43.9565 203.989C42.2719 200.383 41.4296 196.379 41.4296 191.975V170.829C41.4296 166.455 42.2719 162.48 43.9565 158.904C45.6115 155.328 47.8872 152.27 50.7834 149.728C53.6502 147.157 57.0193 145.177 60.8909 143.788C64.7329 142.399 68.8408 141.704 73.2148 141.704ZM73.2148 150.792C70.0821 150.792 67.1415 151.25 64.393 152.166C61.6445 153.082 59.2506 154.412 57.2114 156.156C55.1426 157.87 53.5172 159.968 52.335 162.451C51.1233 164.904 50.5175 167.697 50.5175 170.829V191.975C50.5175 195.108 51.1233 197.93 52.335 200.442C53.5172 202.925 55.1426 205.038 57.2114 206.782C59.2506 208.496 61.6445 209.826 64.393 210.772C67.1415 211.688 70.0821 212.146 73.2148 212.146C76.3475 212.146 79.3029 211.688 82.081 210.772C84.8295 209.826 87.2381 208.496 89.3069 206.782C91.3461 205.038 92.9568 202.925 94.139 200.442C95.3211 197.93 95.9122 195.108 95.9122 191.975V170.829C95.9122 167.697 95.3211 164.904 94.139 162.451C92.9568 159.968 91.3461 157.87 89.3069 156.156C87.2381 154.412 84.8295 153.082 82.081 152.166C79.3029 151.25 76.3475 150.792 73.2148 150.792ZM45.9957 80.783V105.919C46.0253 108.106 46.4686 110.16 47.3256 112.081C48.1531 113.972 49.291 115.627 50.7391 117.046C52.1577 118.464 53.8275 119.587 55.7485 120.415C57.6695 121.242 59.7087 121.656 61.8661 121.656H105V130.744H59.6053C56.4134 130.744 53.4433 130.064 50.6948 128.705C47.9167 127.316 45.5229 125.483 43.5132 123.208C41.474 120.902 39.8781 118.257 38.7255 115.272C37.5433 112.287 36.9375 109.169 36.9079 105.919V80.783H45.9957ZM68.6931 80.783L68.6931 117.09H59.6053V80.783H68.6931ZM45.9957 22.3443L45.9957 47.4799C46.0253 49.6669 46.4686 51.7209 47.3256 53.6419C48.1531 55.5333 49.291 57.1883 50.7391 58.6069C52.1577 60.0255 53.8275 61.1486 55.7485 61.9761C57.6695 62.8036 59.7087 63.2173 61.8661 63.2173H105V72.3052H59.6053C56.4134 72.3052 53.4433 71.6254 50.6948 70.2659C47.9167 68.8769 45.5229 67.0446 43.5132 64.7689C41.474 62.4637 39.8781 59.8186 38.7255 56.8337C37.5433 53.8488 36.9375 50.7308 36.9079 47.4799L36.9079 22.3443H45.9957ZM68.6931 22.3443V58.6513H59.6053L59.6053 22.3443H68.6931ZM105 6.19729V14.7088H96.4885V6.19729H105Z" fill="#732222"/>
</svg>
