<svg width="626" height="42" viewBox="0 0 626 42" fill="none" xmlns="http://www.w3.org/2000/svg">
<g filter="url(#filter0_ddd_101_19)">
<path d="M19.8438 30H16.6406V10.7969H5.3125V7.59375H31.1719V10.7969H19.8438V30ZM57.1069 30H53.9037V21.2031C53.9037 20.4323 53.7579 19.7083 53.4662 19.0312C53.1746 18.3542 52.7787 17.7656 52.2787 17.2656C51.7787 16.7552 51.1902 16.3542 50.5131 16.0625C49.8465 15.7604 49.1277 15.6042 48.3569 15.5938H39.56V30H36.3569V6H39.56V12.4062H48.3569C49.5652 12.4062 50.7006 12.6406 51.7631 13.1094C52.8256 13.5677 53.7527 14.1979 54.5444 15C55.336 15.7917 55.961 16.724 56.4194 17.7969C56.8777 18.8594 57.1069 19.9948 57.1069 21.2031V30ZM84.4637 18C84.4637 18.7812 84.3179 19.5104 84.0262 20.1875C83.7346 20.8646 83.3335 21.4583 82.8231 21.9688C82.3231 22.4688 81.7294 22.8646 81.0419 23.1562C80.3648 23.4479 79.6408 23.5938 78.87 23.5938H66.6044C66.8335 24.0625 67.12 24.4948 67.4637 24.8906C67.8075 25.2865 68.1929 25.625 68.62 25.9062C69.0471 26.1875 69.5106 26.4062 70.0106 26.5625C70.521 26.7188 71.0523 26.7969 71.6044 26.7969H82.0731V30H71.6044C70.396 29.9896 69.2606 29.7552 68.1981 29.2969C67.1356 28.8281 66.2085 28.1979 65.4169 27.4062C64.6356 26.6042 64.0158 25.6719 63.5575 24.6094C63.0992 23.5469 62.87 22.4115 62.87 21.2031C62.87 19.9948 63.0992 18.8594 63.5575 17.7969C64.0158 16.7344 64.6356 15.8073 65.4169 15.0156C66.2085 14.2135 67.1356 13.5833 68.1981 13.125C69.2606 12.6562 70.396 12.4167 71.6044 12.4062H78.87C79.6408 12.4062 80.3648 12.5521 81.0419 12.8438C81.7294 13.1354 82.3231 13.5365 82.8231 14.0469C83.3335 14.5469 83.7346 15.1354 84.0262 15.8125C84.3179 16.4896 84.4637 17.2188 84.4637 18ZM78.87 20.4062C79.1929 20.4062 79.5002 20.3438 79.7919 20.2188C80.0835 20.0938 80.3387 19.9219 80.5575 19.7031C80.7762 19.4844 80.9481 19.2292 81.0731 18.9375C81.1981 18.6458 81.2606 18.3333 81.2606 18C81.2606 17.6771 81.1981 17.3698 81.0731 17.0781C80.9481 16.7865 80.7762 16.5312 80.5575 16.3125C80.3387 16.0938 80.0835 15.9219 79.7919 15.7969C79.5002 15.6615 79.1929 15.5938 78.87 15.5938H71.6044C70.896 15.5938 70.2294 15.7188 69.6044 15.9688C68.9898 16.2188 68.4377 16.5625 67.9481 17C67.469 17.4271 67.0679 17.9375 66.745 18.5312C66.4325 19.1146 66.2294 19.7396 66.1356 20.4062H78.87ZM131.49 23.5938C131.49 24.4896 131.318 25.3281 130.974 26.1094C130.641 26.8802 130.183 27.5573 129.599 28.1406C129.026 28.7135 128.349 29.1667 127.568 29.5C126.787 29.8333 125.959 30 125.084 30H109.912V26.7969H125.084C125.521 26.7969 125.933 26.7135 126.318 26.5469C126.714 26.3802 127.058 26.151 127.349 25.8594C127.641 25.5677 127.87 25.2292 128.037 24.8438C128.204 24.4479 128.287 24.0312 128.287 23.5938C128.287 23.1562 128.204 22.7448 128.037 22.3594C127.87 21.974 127.641 21.6354 127.349 21.3438C127.058 21.0521 126.714 20.8229 126.318 20.6562C125.933 20.4896 125.521 20.4062 125.084 20.4062H109.912V17.2031H121.881C122.318 17.2031 122.73 17.1198 123.115 16.9531C123.511 16.7865 123.855 16.5573 124.146 16.2656C124.438 15.974 124.667 15.6354 124.834 15.25C125 14.8542 125.084 14.4375 125.084 14C125.084 13.5625 125 13.151 124.834 12.7656C124.667 12.3698 124.438 12.026 124.146 11.7344C123.855 11.4427 123.511 11.2135 123.115 11.0469C122.73 10.8802 122.318 10.7969 121.881 10.7969H108.318V30H105.115V7.59375H121.881C122.756 7.59375 123.584 7.76562 124.365 8.10938C125.146 8.44271 125.823 8.90104 126.396 9.48438C126.98 10.0573 127.438 10.7344 127.771 11.5156C128.115 12.2969 128.287 13.125 128.287 14C128.287 14.6771 128.188 15.3177 127.99 15.9219C127.792 16.5156 127.526 17.0677 127.193 17.5781C127.818 17.7969 128.391 18.1042 128.912 18.5C129.443 18.8958 129.896 19.3542 130.271 19.875C130.657 20.3958 130.954 20.974 131.162 21.6094C131.381 22.2344 131.49 22.8958 131.49 23.5938ZM157.894 18C157.894 18.7812 157.748 19.5104 157.456 20.1875C157.165 20.8646 156.764 21.4583 156.253 21.9688C155.753 22.4688 155.159 22.8646 154.472 23.1562C153.795 23.4479 153.071 23.5938 152.3 23.5938H140.034C140.264 24.0625 140.55 24.4948 140.894 24.8906C141.238 25.2865 141.623 25.625 142.05 25.9062C142.477 26.1875 142.941 26.4062 143.441 26.5625C143.951 26.7188 144.482 26.7969 145.034 26.7969H155.503V30H145.034C143.826 29.9896 142.691 29.7552 141.628 29.2969C140.566 28.8281 139.639 28.1979 138.847 27.4062C138.066 26.6042 137.446 25.6719 136.988 24.6094C136.529 23.5469 136.3 22.4115 136.3 21.2031C136.3 19.9948 136.529 18.8594 136.988 17.7969C137.446 16.7344 138.066 15.8073 138.847 15.0156C139.639 14.2135 140.566 13.5833 141.628 13.125C142.691 12.6562 143.826 12.4167 145.034 12.4062H152.3C153.071 12.4062 153.795 12.5521 154.472 12.8438C155.159 13.1354 155.753 13.5365 156.253 14.0469C156.764 14.5469 157.165 15.1354 157.456 15.8125C157.748 16.4896 157.894 17.2188 157.894 18ZM152.3 20.4062C152.623 20.4062 152.93 20.3438 153.222 20.2188C153.514 20.0938 153.769 19.9219 153.988 19.7031C154.206 19.4844 154.378 19.2292 154.503 18.9375C154.628 18.6458 154.691 18.3333 154.691 18C154.691 17.6771 154.628 17.3698 154.503 17.0781C154.378 16.7865 154.206 16.5312 153.988 16.3125C153.769 16.0938 153.514 15.9219 153.222 15.7969C152.93 15.6615 152.623 15.5938 152.3 15.5938H145.034C144.326 15.5938 143.659 15.7188 143.034 15.9688C142.42 16.2188 141.868 16.5625 141.378 17C140.899 17.4271 140.498 17.9375 140.175 18.5312C139.863 19.1146 139.659 19.7396 139.566 20.4062H152.3ZM184.438 12.4062L174.719 30H171.063L161.407 12.4062H165.141L172.891 26.6719L180.704 12.4062H184.438ZM209.639 18C209.639 18.7812 209.493 19.5104 209.201 20.1875C208.91 20.8646 208.509 21.4583 207.998 21.9688C207.498 22.4688 206.904 22.8646 206.217 23.1562C205.54 23.4479 204.816 23.5938 204.045 23.5938H191.779C192.009 24.0625 192.295 24.4948 192.639 24.8906C192.982 25.2865 193.368 25.625 193.795 25.9062C194.222 26.1875 194.686 26.4062 195.186 26.5625C195.696 26.7188 196.227 26.7969 196.779 26.7969H207.248V30H196.779C195.571 29.9896 194.436 29.7552 193.373 29.2969C192.311 28.8281 191.384 28.1979 190.592 27.4062C189.811 26.6042 189.191 25.6719 188.732 24.6094C188.274 23.5469 188.045 22.4115 188.045 21.2031C188.045 19.9948 188.274 18.8594 188.732 17.7969C189.191 16.7344 189.811 15.8073 190.592 15.0156C191.384 14.2135 192.311 13.5833 193.373 13.125C194.436 12.6562 195.571 12.4167 196.779 12.4062H204.045C204.816 12.4062 205.54 12.5521 206.217 12.8438C206.904 13.1354 207.498 13.5365 207.998 14.0469C208.509 14.5469 208.91 15.1354 209.201 15.8125C209.493 16.4896 209.639 17.2188 209.639 18ZM204.045 20.4062C204.368 20.4062 204.675 20.3438 204.967 20.2188C205.259 20.0938 205.514 19.9219 205.732 19.7031C205.951 19.4844 206.123 19.2292 206.248 18.9375C206.373 18.6458 206.436 18.3333 206.436 18C206.436 17.6771 206.373 17.3698 206.248 17.0781C206.123 16.7865 205.951 16.5312 205.732 16.3125C205.514 16.0938 205.259 15.9219 204.967 15.7969C204.675 15.6615 204.368 15.5938 204.045 15.5938H196.779C196.071 15.5938 195.404 15.7188 194.779 15.9688C194.165 16.2188 193.613 16.5625 193.123 17C192.644 17.4271 192.243 17.9375 191.92 18.5312C191.607 19.1146 191.404 19.7396 191.311 20.4062H204.045ZM232.824 15.5938H220.824C220.49 15.5938 220.178 15.6615 219.886 15.7969C219.595 15.9219 219.339 16.0938 219.121 16.3125C218.902 16.5312 218.73 16.7865 218.605 17.0781C218.48 17.3698 218.417 17.6771 218.417 18V30H215.214V18C215.214 17.2188 215.36 16.4896 215.652 15.8125C215.944 15.1354 216.345 14.5469 216.855 14.0469C217.365 13.5365 217.959 13.1354 218.636 12.8438C219.313 12.5521 220.042 12.4062 220.824 12.4062H232.824V15.5938ZM257.477 30H241.477C240.696 30 239.967 29.8542 239.29 29.5625C238.613 29.2708 238.019 28.875 237.509 28.375C236.998 27.8646 236.597 27.2708 236.306 26.5938C236.014 25.9062 235.868 25.1771 235.868 24.4062C235.868 23.625 236.014 22.8958 236.306 22.2188C236.597 21.5417 236.998 20.9479 237.509 20.4375C238.019 19.9271 238.613 19.526 239.29 19.2344C239.967 18.9427 240.696 18.7969 241.477 18.7969H252.665V22H241.477C241.144 22 240.832 22.0677 240.54 22.2031C240.248 22.3281 239.993 22.5 239.774 22.7188C239.556 22.9375 239.384 23.1927 239.259 23.4844C239.134 23.776 239.071 24.0833 239.071 24.4062C239.071 24.7396 239.134 25.0521 239.259 25.3438C239.384 25.625 239.556 25.875 239.774 26.0938C239.993 26.3125 240.248 26.4844 240.54 26.6094C240.832 26.7344 241.144 26.7969 241.477 26.7969H254.274V18C254.274 17.6771 254.207 17.3698 254.071 17.0781C253.946 16.7865 253.774 16.5312 253.556 16.3125C253.337 16.0938 253.082 15.9219 252.79 15.7969C252.498 15.6615 252.191 15.5938 251.868 15.5938H239.071V12.4062H251.868C252.649 12.4062 253.379 12.5521 254.056 12.8438C254.733 13.1354 255.326 13.5365 255.837 14.0469C256.347 14.5469 256.748 15.1354 257.04 15.8125C257.332 16.4896 257.477 17.2188 257.477 18V30ZM284.147 30.7969C284.147 31.5781 283.996 32.3073 283.694 32.9844C283.402 33.6615 283.001 34.2552 282.491 34.7656C281.991 35.276 281.397 35.6771 280.709 35.9688C280.032 36.2604 279.308 36.4062 278.538 36.4062H265.741V33.2031H278.538C278.86 33.2031 279.168 33.1406 279.459 33.0156C279.751 32.8906 280.006 32.7188 280.225 32.5C280.444 32.2812 280.616 32.026 280.741 31.7344C280.876 31.4427 280.944 31.1302 280.944 30.7969V15.5938H272.147C271.376 15.6042 270.652 15.7604 269.975 16.0625C269.308 16.3542 268.725 16.7552 268.225 17.2656C267.725 17.7656 267.329 18.3542 267.038 19.0312C266.756 19.7083 266.616 20.4323 266.616 21.2031C266.616 21.974 266.756 22.6979 267.038 23.375C267.329 24.0417 267.725 24.6302 268.225 25.1406C268.725 25.6406 269.308 26.0417 269.975 26.3438C270.652 26.6354 271.376 26.7865 272.147 26.7969H279.35V30H272.147C270.939 29.9896 269.803 29.7552 268.741 29.2969C267.678 28.8281 266.751 28.1979 265.959 27.4062C265.178 26.6042 264.558 25.6719 264.1 24.6094C263.642 23.5469 263.413 22.4115 263.413 21.2031C263.413 19.9948 263.642 18.8594 264.1 17.7969C264.558 16.7344 265.178 15.8073 265.959 15.0156C266.751 14.2135 267.678 13.5833 268.741 13.125C269.803 12.6562 270.939 12.4167 272.147 12.4062H284.147V30.7969ZM311.785 18C311.785 18.7812 311.639 19.5104 311.348 20.1875C311.056 20.8646 310.655 21.4583 310.144 21.9688C309.644 22.4688 309.051 22.8646 308.363 23.1562C307.686 23.4479 306.962 23.5938 306.191 23.5938H293.926C294.155 24.0625 294.441 24.4948 294.785 24.8906C295.129 25.2865 295.514 25.625 295.941 25.9062C296.368 26.1875 296.832 26.4062 297.332 26.5625C297.842 26.7188 298.374 26.7969 298.926 26.7969H309.394V30H298.926C297.717 29.9896 296.582 29.7552 295.519 29.2969C294.457 28.8281 293.53 28.1979 292.738 27.4062C291.957 26.6042 291.337 25.6719 290.879 24.6094C290.42 23.5469 290.191 22.4115 290.191 21.2031C290.191 19.9948 290.42 18.8594 290.879 17.7969C291.337 16.7344 291.957 15.8073 292.738 15.0156C293.53 14.2135 294.457 13.5833 295.519 13.125C296.582 12.6562 297.717 12.4167 298.926 12.4062H306.191C306.962 12.4062 307.686 12.5521 308.363 12.8438C309.051 13.1354 309.644 13.5365 310.144 14.0469C310.655 14.5469 311.056 15.1354 311.348 15.8125C311.639 16.4896 311.785 17.2188 311.785 18ZM306.191 20.4062C306.514 20.4062 306.821 20.3438 307.113 20.2188C307.405 20.0938 307.66 19.9219 307.879 19.7031C308.098 19.4844 308.269 19.2292 308.394 18.9375C308.519 18.6458 308.582 18.3333 308.582 18C308.582 17.6771 308.519 17.3698 308.394 17.0781C308.269 16.7865 308.098 16.5312 307.879 16.3125C307.66 16.0938 307.405 15.9219 307.113 15.7969C306.821 15.6615 306.514 15.5938 306.191 15.5938H298.926C298.217 15.5938 297.551 15.7188 296.926 15.9688C296.311 16.2188 295.759 16.5625 295.269 17C294.79 17.4271 294.389 17.9375 294.066 18.5312C293.754 19.1146 293.551 19.7396 293.457 20.4062H306.191ZM353.327 21.2031C353.327 22.4115 353.098 23.5469 352.639 24.6094C352.181 25.6719 351.556 26.6042 350.764 27.4062C349.983 28.1979 349.061 28.8281 347.999 29.2969C346.936 29.7552 345.801 29.9896 344.592 30H339.671C338.462 29.9896 337.327 29.7552 336.264 29.2969C335.202 28.8281 334.275 28.1979 333.483 27.4062C332.702 26.6042 332.082 25.6719 331.624 24.6094C331.165 23.5469 330.936 22.4115 330.936 21.2031C330.936 19.9948 331.165 18.8594 331.624 17.7969C332.082 16.724 332.702 15.7917 333.483 15C334.275 14.1979 335.202 13.5677 336.264 13.1094C337.327 12.6406 338.462 12.4062 339.671 12.4062H344.592C345.395 12.4062 346.171 12.5104 346.921 12.7188C347.671 12.9271 348.369 13.224 349.014 13.6094C349.66 13.9948 350.249 14.4583 350.78 15C351.311 15.5312 351.764 16.125 352.139 16.7812C352.514 17.4271 352.806 18.125 353.014 18.875C353.223 19.625 353.327 20.401 353.327 21.2031ZM350.139 21.2031C350.139 20.4323 349.994 19.7083 349.702 19.0312C349.41 18.3542 349.014 17.7656 348.514 17.2656C348.014 16.7552 347.426 16.3542 346.749 16.0625C346.082 15.7604 345.363 15.6042 344.592 15.5938H339.671C338.9 15.6042 338.176 15.7604 337.499 16.0625C336.832 16.3542 336.249 16.7552 335.749 17.2656C335.249 17.7656 334.853 18.3542 334.561 19.0312C334.28 19.7083 334.139 20.4323 334.139 21.2031C334.139 21.974 334.28 22.6979 334.561 23.375C334.853 24.0521 335.249 24.6458 335.749 25.1562C336.249 25.6562 336.832 26.0573 337.499 26.3594C338.176 26.651 338.9 26.7969 339.671 26.7969H344.592C345.363 26.7969 346.082 26.651 346.749 26.3594C347.426 26.0573 348.014 25.6562 348.514 25.1562C349.014 24.6458 349.41 24.0521 349.702 23.375C349.994 22.6979 350.139 21.974 350.139 21.2031ZM376.996 9.20312H368.137C367.366 9.21354 366.642 9.36979 365.965 9.67188C365.298 9.96354 364.715 10.3646 364.215 10.875C363.715 11.375 363.319 11.9635 363.027 12.6406C362.736 13.3177 362.59 14.0365 362.59 14.7969V30H359.387V14C359.387 12.875 359.626 11.8281 360.106 10.8594C360.595 9.88021 361.241 9.03646 362.043 8.32812C362.856 7.60938 363.788 7.04688 364.84 6.64062C365.892 6.22396 366.991 6.01042 368.137 6H376.996V9.20312ZM376.996 17.2031H364.199V14H376.996V17.2031ZM408.616 30H405.413V10.7969H394.085V7.59375H419.944V10.7969H408.616V30ZM444.567 21.2031C444.567 22.4115 444.338 23.5469 443.879 24.6094C443.421 25.6719 442.796 26.6042 442.004 27.4062C441.223 28.1979 440.301 28.8281 439.239 29.2969C438.176 29.7552 437.041 29.9896 435.832 30H430.911C429.702 29.9896 428.567 29.7552 427.504 29.2969C426.442 28.8281 425.515 28.1979 424.723 27.4062C423.942 26.6042 423.322 25.6719 422.864 24.6094C422.405 23.5469 422.176 22.4115 422.176 21.2031C422.176 19.9948 422.405 18.8594 422.864 17.7969C423.322 16.724 423.942 15.7917 424.723 15C425.515 14.1979 426.442 13.5677 427.504 13.1094C428.567 12.6406 429.702 12.4062 430.911 12.4062H435.832C436.635 12.4062 437.411 12.5104 438.161 12.7188C438.911 12.9271 439.609 13.224 440.254 13.6094C440.9 13.9948 441.489 14.4583 442.02 15C442.551 15.5312 443.004 16.125 443.379 16.7812C443.754 17.4271 444.046 18.125 444.254 18.875C444.463 19.625 444.567 20.401 444.567 21.2031ZM441.379 21.2031C441.379 20.4323 441.234 19.7083 440.942 19.0312C440.65 18.3542 440.254 17.7656 439.754 17.2656C439.254 16.7552 438.666 16.3542 437.989 16.0625C437.322 15.7604 436.603 15.6042 435.832 15.5938H430.911C430.14 15.6042 429.416 15.7604 428.739 16.0625C428.072 16.3542 427.489 16.7552 426.989 17.2656C426.489 17.7656 426.093 18.3542 425.801 19.0312C425.52 19.7083 425.379 20.4323 425.379 21.2031C425.379 21.974 425.52 22.6979 425.801 23.375C426.093 24.0521 426.489 24.6458 426.989 25.1562C427.489 25.6562 428.072 26.0573 428.739 26.3594C429.416 26.651 430.14 26.7969 430.911 26.7969H435.832C436.603 26.7969 437.322 26.651 437.989 26.3594C438.666 26.0573 439.254 25.6562 439.754 25.1562C440.254 24.6458 440.65 24.0521 440.942 23.375C441.234 22.6979 441.379 21.974 441.379 21.2031ZM453.83 30H450.627V12.4062H467.502C468.71 12.4062 469.846 12.6406 470.908 13.1094C471.971 13.5677 472.892 14.1979 473.674 15C474.465 15.7917 475.09 16.724 475.549 17.7969C476.007 18.8594 476.236 19.9948 476.236 21.2031V30H473.033V21.2031C473.033 20.4323 472.887 19.7083 472.596 19.0312C472.304 18.3542 471.908 17.7656 471.408 17.2656C470.908 16.7552 470.32 16.3542 469.642 16.0625C468.976 15.7604 468.262 15.6042 467.502 15.5938H465.033V30H461.83V15.5938H453.83V30ZM504.406 21.2031C504.406 22.4115 504.176 23.5469 503.718 24.6094C503.26 25.6719 502.635 26.6042 501.843 27.4062C501.062 28.1979 500.14 28.8281 499.077 29.2969C498.015 29.7552 496.88 29.9896 495.671 30H490.749C489.541 29.9896 488.406 29.7552 487.343 29.2969C486.281 28.8281 485.354 28.1979 484.562 27.4062C483.781 26.6042 483.161 25.6719 482.702 24.6094C482.244 23.5469 482.015 22.4115 482.015 21.2031C482.015 19.9948 482.244 18.8594 482.702 17.7969C483.161 16.724 483.781 15.7917 484.562 15C485.354 14.1979 486.281 13.5677 487.343 13.1094C488.406 12.6406 489.541 12.4062 490.749 12.4062H495.671C496.473 12.4062 497.249 12.5104 497.999 12.7188C498.749 12.9271 499.447 13.224 500.093 13.6094C500.739 13.9948 501.327 14.4583 501.859 15C502.39 15.5312 502.843 16.125 503.218 16.7812C503.593 17.4271 503.885 18.125 504.093 18.875C504.301 19.625 504.406 20.401 504.406 21.2031ZM501.218 21.2031C501.218 20.4323 501.072 19.7083 500.781 19.0312C500.489 18.3542 500.093 17.7656 499.593 17.2656C499.093 16.7552 498.505 16.3542 497.827 16.0625C497.161 15.7604 496.442 15.6042 495.671 15.5938H490.749C489.979 15.6042 489.255 15.7604 488.577 16.0625C487.911 16.3542 487.327 16.7552 486.827 17.2656C486.327 17.7656 485.932 18.3542 485.64 19.0312C485.359 19.7083 485.218 20.4323 485.218 21.2031C485.218 21.974 485.359 22.6979 485.64 23.375C485.932 24.0521 486.327 24.6458 486.827 25.1562C487.327 25.6562 487.911 26.0573 488.577 26.3594C489.255 26.651 489.979 26.7969 490.749 26.7969H495.671C496.442 26.7969 497.161 26.651 497.827 26.3594C498.505 26.0573 499.093 25.6562 499.593 25.1562C500.093 24.6458 500.489 24.0521 500.781 23.375C501.072 22.6979 501.218 21.974 501.218 21.2031ZM527.95 15.5938H515.95C515.617 15.5938 515.304 15.6615 515.013 15.7969C514.721 15.9219 514.466 16.0938 514.247 16.3125C514.028 16.5312 513.856 16.7865 513.731 17.0781C513.606 17.3698 513.544 17.6771 513.544 18V30H510.341V18C510.341 17.2188 510.486 16.4896 510.778 15.8125C511.07 15.1354 511.471 14.5469 511.981 14.0469C512.492 13.5365 513.085 13.1354 513.763 12.8438C514.44 12.5521 515.169 12.4062 515.95 12.4062H527.95V15.5938ZM550.479 15.5938H538.479C538.145 15.5938 537.833 15.6615 537.541 15.7969C537.25 15.9219 536.994 16.0938 536.776 16.3125C536.557 16.5312 536.385 16.7865 536.26 17.0781C536.135 17.3698 536.073 17.6771 536.073 18V30H532.869V18C532.869 17.2188 533.015 16.4896 533.307 15.8125C533.599 15.1354 534 14.5469 534.51 14.0469C535.02 13.5365 535.614 13.1354 536.291 12.8438C536.968 12.5521 537.698 12.4062 538.479 12.4062H550.479V15.5938ZM576.679 21.2031C576.679 22.4115 576.45 23.5469 575.992 24.6094C575.534 25.6719 574.909 26.6042 574.117 27.4062C573.336 28.1979 572.414 28.8281 571.351 29.2969C570.289 29.7552 569.153 29.9896 567.945 30H563.023C561.815 29.9896 560.679 29.7552 559.617 29.2969C558.554 28.8281 557.627 28.1979 556.836 27.4062C556.054 26.6042 555.435 25.6719 554.976 24.6094C554.518 23.5469 554.289 22.4115 554.289 21.2031C554.289 19.9948 554.518 18.8594 554.976 17.7969C555.435 16.724 556.054 15.7917 556.836 15C557.627 14.1979 558.554 13.5677 559.617 13.1094C560.679 12.6406 561.815 12.4062 563.023 12.4062H567.945C568.747 12.4062 569.523 12.5104 570.273 12.7188C571.023 12.9271 571.721 13.224 572.367 13.6094C573.013 13.9948 573.601 14.4583 574.133 15C574.664 15.5312 575.117 16.125 575.492 16.7812C575.867 17.4271 576.159 18.125 576.367 18.875C576.575 19.625 576.679 20.401 576.679 21.2031ZM573.492 21.2031C573.492 20.4323 573.346 19.7083 573.054 19.0312C572.763 18.3542 572.367 17.7656 571.867 17.2656C571.367 16.7552 570.778 16.3542 570.101 16.0625C569.435 15.7604 568.716 15.6042 567.945 15.5938H563.023C562.252 15.6042 561.528 15.7604 560.851 16.0625C560.185 16.3542 559.601 16.7552 559.101 17.2656C558.601 17.7656 558.205 18.3542 557.914 19.0312C557.633 19.7083 557.492 20.4323 557.492 21.2031C557.492 21.974 557.633 22.6979 557.914 23.375C558.205 24.0521 558.601 24.6458 559.101 25.1562C559.601 25.6562 560.185 26.0573 560.851 26.3594C561.528 26.651 562.252 26.7969 563.023 26.7969H567.945C568.716 26.7969 569.435 26.651 570.101 26.3594C570.778 26.0573 571.367 25.6562 571.867 25.1562C572.367 24.6458 572.763 24.0521 573.054 23.375C573.346 22.6979 573.492 21.974 573.492 21.2031ZM608.802 21.2031C608.802 22.4115 608.573 23.5521 608.114 24.625C607.656 25.6875 607.031 26.6198 606.239 27.4219C605.448 28.2135 604.521 28.8438 603.458 29.3125C602.396 29.7708 601.26 30 600.052 30H591.193C589.984 30 588.849 29.7708 587.786 29.3125C586.724 28.8438 585.797 28.2135 585.005 27.4219C584.224 26.6198 583.604 25.6875 583.146 24.625C582.687 23.5521 582.458 22.4115 582.458 21.2031V12.4062H585.661V21.2031C585.661 21.974 585.802 22.6979 586.083 23.375C586.375 24.0417 586.771 24.6302 587.271 25.1406C587.771 25.6406 588.354 26.0417 589.021 26.3438C589.698 26.6354 590.422 26.7865 591.193 26.7969H594.036V12.4062H597.208V26.7969H600.052C600.823 26.7865 601.541 26.6354 602.208 26.3438C602.885 26.0417 603.474 25.6406 603.974 25.1406C604.474 24.6302 604.87 24.0417 605.161 23.375C605.453 22.6979 605.599 21.974 605.599 21.2031V12.4062H608.802V21.2031ZM619.94 27.5938C619.94 27.9271 619.872 28.2396 619.737 28.5312C619.612 28.8229 619.44 29.0781 619.221 29.2969C619.003 29.5156 618.747 29.6875 618.456 29.8125C618.164 29.9375 617.857 30 617.534 30C617.2 30 616.888 29.9375 616.596 29.8125C616.315 29.6875 616.065 29.5156 615.846 29.2969C615.628 29.0781 615.456 28.8229 615.331 28.5312C615.206 28.2396 615.143 27.9271 615.143 27.5938C615.143 27.2708 615.206 26.9635 615.331 26.6719C615.456 26.3802 615.628 26.125 615.846 25.9062C616.065 25.6875 616.315 25.5156 616.596 25.3906C616.888 25.2656 617.2 25.2031 617.534 25.2031C617.857 25.2031 618.164 25.2656 618.456 25.3906C618.747 25.5156 619.003 25.6875 619.221 25.9062C619.44 26.125 619.612 26.3802 619.737 26.6719C619.872 26.9635 619.94 27.2708 619.94 27.5938Z" fill="#F2D7B6"/>
</g>
<defs>
<filter id="filter0_ddd_101_19" x="0.0599456" y="0.747446" width="625.133" height="40.9114" filterUnits="userSpaceOnUse" color-interpolation-filters="sRGB">
<feFlood flood-opacity="0" result="BackgroundImageFix"/>
<feColorMatrix in="SourceAlpha" type="matrix" values="0 0 0 0 0 0 0 0 0 0 0 0 0 0 0 0 0 0 127 0" result="hardAlpha"/>
<feOffset/>
<feGaussianBlur stdDeviation="0.187591"/>
<feColorMatrix type="matrix" values="0 0 0 0 0.94902 0 0 0 0 0.843137 0 0 0 0 0.713726 0 0 0 1 0"/>
<feBlend mode="normal" in2="BackgroundImageFix" result="effect1_dropShadow_101_19"/>
<feColorMatrix in="SourceAlpha" type="matrix" values="0 0 0 0 0 0 0 0 0 0 0 0 0 0 0 0 0 0 127 0" result="hardAlpha"/>
<feOffset/>
<feGaussianBlur stdDeviation="0.375182"/>
<feColorMatrix type="matrix" values="0 0 0 0 0.94902 0 0 0 0 0.843137 0 0 0 0 0.713726 0 0 0 1 0"/>
<feBlend mode="normal" in2="effect1_dropShadow_101_19" result="effect2_dropShadow_101_19"/>
<feColorMatrix in="SourceAlpha" type="matrix" values="0 0 0 0 0 0 0 0 0 0 0 0 0 0 0 0 0 0 127 0" result="hardAlpha"/>
<feOffset/>
<feGaussianBlur stdDeviation="2.62628"/>
<feColorMatrix type="matrix" values="0 0 0 0 0.94902 0 0 0 0 0.843137 0 0 0 0 0.713726 0 0 0 1 0"/>
<feBlend mode="normal" in2="effect2_dropShadow_101_19" result="effect3_dropShadow_101_19"/>
<feBlend mode="normal" in="SourceGraphic" in2="effect3_dropShadow_101_19" result="shape"/>
</filter>
</defs>
</svg>
