<svg width="64" height="40" viewBox="0 0 64 40" fill="none" xmlns="http://www.w3.org/2000/svg">
<path d="M26.5359 30.0506C25.2331 30.0516 23.9828 30.5637 23.0536 31.4766L9.95351 25.6396C9.95351 25.4407 9.95351 25.2748 9.95351 25.0758C9.95351 24.8769 9.95351 24.711 9.95351 24.5286L23.0536 18.6751C23.8741 19.4793 24.9477 19.9748 26.0921 20.0773C27.2365 20.1798 28.381 19.883 29.3314 19.2373C30.2818 18.5916 30.9794 17.6369 31.3057 16.5353C31.632 15.4336 31.5669 14.253 31.1215 13.1939C30.6761 12.1348 29.8778 11.2625 28.8622 10.7252C27.8466 10.1879 26.6764 10.0187 25.5502 10.2463C24.424 10.474 23.4113 11.0845 22.6842 11.974C21.957 12.8636 21.5602 13.9775 21.5611 15.1264V15.6902L8.4611 21.5272C7.76192 20.8403 6.8754 20.3752 5.91283 20.1904C4.95026 20.0056 3.95454 20.1092 3.05066 20.4883C2.14678 20.8674 1.37503 21.505 0.832287 22.3212C0.289545 23.1374 0 24.0957 0 25.0758C0 26.056 0.289545 27.0143 0.832287 27.8305C1.37503 28.6467 2.14678 29.2843 3.05066 29.6634C3.95454 30.0425 4.95026 30.1461 5.91283 29.9613C6.8754 29.7765 7.76192 29.3114 8.4611 28.6245L21.5611 34.478V35.0253C21.5611 36.0092 21.8529 36.971 22.3995 37.789C22.9462 38.6071 23.7231 39.2448 24.6321 39.6213C25.5411 39.9978 26.5414 40.0963 27.5064 39.9044C28.4714 39.7124 29.3578 39.2386 30.0535 38.5429C30.7492 37.8472 31.223 36.9608 31.415 35.9958C31.6069 35.0308 31.5084 34.0305 31.1319 33.1215C30.7554 32.2125 30.1177 31.4356 29.2996 30.8889C28.4816 30.3423 27.5198 30.0506 26.5359 30.0506ZM26.5359 13.4682C26.8638 13.4682 27.1844 13.5655 27.4571 13.7477C27.7298 13.9299 27.9423 14.1889 28.0679 14.4919C28.1934 14.7949 28.2262 15.1283 28.1622 15.4499C28.0982 15.7716 27.9403 16.0671 27.7084 16.299C27.4765 16.5309 27.181 16.6888 26.8594 16.7528C26.5377 16.8168 26.2043 16.784 25.9013 16.6585C25.5983 16.5329 25.3393 16.3204 25.1571 16.0477C24.9749 15.775 24.8776 15.4544 24.8776 15.1264C24.8776 14.6867 25.0523 14.2649 25.3633 13.9539C25.6743 13.6429 26.0961 13.4682 26.5359 13.4682ZM4.97881 26.7341C4.65084 26.7341 4.33024 26.6368 4.05754 26.4546C3.78485 26.2724 3.57231 26.0134 3.4468 25.7104C3.32129 25.4074 3.28845 25.074 3.35243 24.7523C3.41642 24.4307 3.57435 24.1352 3.80626 23.9033C4.03817 23.6714 4.33363 23.5135 4.6553 23.4495C4.97697 23.3855 5.31038 23.4183 5.61338 23.5438C5.91639 23.6693 6.17537 23.8819 6.35758 24.1546C6.53979 24.4273 6.63704 24.7479 6.63704 25.0758C6.63704 25.5156 6.46233 25.9374 6.15135 26.2484C5.84038 26.5594 5.4186 26.7341 4.97881 26.7341ZM26.5359 36.6835C26.2079 36.6835 25.8873 36.5862 25.6146 36.404C25.3419 36.2218 25.1293 35.9628 25.0038 35.6598C24.8783 35.3568 24.8455 35.0234 24.9095 34.7017C24.9735 34.3801 25.1314 34.0846 25.3633 33.8527C25.5952 33.6208 25.8907 33.4629 26.2123 33.3989C26.534 33.3349 26.8674 33.3677 27.1704 33.4932C27.4734 33.6188 27.7324 33.8313 27.9146 34.104C28.0968 34.3767 28.1941 34.6973 28.1941 35.0253C28.1941 35.465 28.0194 35.8868 27.7084 36.1978C27.3974 36.5088 26.9756 36.6835 26.5359 36.6835Z" fill="#D98236"/>
</svg>
