<svg width="200" height="28" viewBox="0 0 200 28" fill="none" xmlns="http://www.w3.org/2000/svg">
<rect width="200" height="28" rx="14" fill="#732222"/>
<path d="M32.0901 20.6667H23.5809C22.6652 20.6667 21.8324 20.4946 21.0826 20.1504C20.3328 19.8062 19.6905 19.336 19.1558 18.7399C18.6272 18.1437 18.2185 17.4431 17.9297 16.6379C17.6408 15.8328 17.4964 14.9724 17.4964 14.0566C17.4964 13.147 17.6408 12.2927 17.9297 11.4937C18.2185 10.6886 18.6272 9.98794 19.1558 9.39178C19.6905 8.78947 20.3328 8.31623 21.0826 7.97205C21.8324 7.62173 22.6652 7.44656 23.5809 7.44656H32.0901V9.33647H23.5809C22.9295 9.33647 22.3425 9.46246 21.8201 9.71445C21.3038 9.96029 20.8644 10.2983 20.5018 10.7285C20.1453 11.1526 19.8687 11.6504 19.6721 12.222C19.4815 12.7936 19.3863 13.4051 19.3863 14.0566C19.3863 14.7081 19.4815 15.3227 19.6721 15.9004C19.8687 16.472 20.1453 16.9729 20.5018 17.4031C20.8644 17.8272 21.3038 18.1622 21.8201 18.408C22.3425 18.6538 22.9295 18.7768 23.5809 18.7768H32.0901V20.6667ZM50.9467 14.0566C50.9467 14.9724 50.8023 15.8328 50.5134 16.6379C50.2245 17.4431 49.8128 18.1437 49.2781 18.7399C48.7495 19.336 48.1134 19.8062 47.3697 20.1504C46.6261 20.4946 45.7994 20.6667 44.8898 20.6667H40.4923C39.5766 20.6667 38.7438 20.4946 37.994 20.1504C37.2442 19.8062 36.6019 19.336 36.0672 18.7399C35.5386 18.1437 35.1299 17.4431 34.8411 16.6379C34.5522 15.8328 34.4078 14.9724 34.4078 14.0566C34.4078 13.147 34.5522 12.2927 34.8411 11.4937C35.1299 10.6886 35.5386 9.98794 36.0672 9.39178C36.6019 8.78947 37.2442 8.31623 37.994 7.97205C38.7438 7.62173 39.5766 7.44656 40.4923 7.44656H44.8898C45.7994 7.44656 46.6261 7.62173 47.3697 7.97205C48.1134 8.31623 48.7495 8.78947 49.2781 9.39178C49.8128 9.98794 50.2245 10.6886 50.5134 11.4937C50.8023 12.2927 50.9467 13.147 50.9467 14.0566ZM49.0568 14.0566C49.0568 13.4051 48.9615 12.7936 48.771 12.222C48.5805 11.6504 48.3039 11.1526 47.9413 10.7285C47.5848 10.2983 47.1485 9.96029 46.6322 9.71445C46.1221 9.46246 45.5413 9.33647 44.8898 9.33647H40.4923C39.8408 9.33647 39.2539 9.46246 38.7315 9.71445C38.2152 9.96029 37.7758 10.2983 37.4132 10.7285C37.0567 11.1526 36.7801 11.6504 36.5835 12.222C36.3929 12.7936 36.2977 13.4051 36.2977 14.0566C36.2977 14.7081 36.3929 15.3227 36.5835 15.9004C36.7801 16.472 37.0567 16.9729 37.4132 17.4031C37.7758 17.8272 38.2152 18.1622 38.7315 18.408C39.2539 18.6538 39.8408 18.7768 40.4923 18.7768H44.8898C45.5413 18.7768 46.1221 18.6538 46.6322 18.408C47.1485 18.1622 47.5848 17.8272 47.9413 17.4031C48.3039 16.9729 48.5805 16.472 48.771 15.9004C48.9615 15.3227 49.0568 14.7081 49.0568 14.0566ZM56.196 20.6667H54.3061V7.44656H55.2465C55.8611 7.44656 56.5125 7.52646 57.2009 7.68626C57.8954 7.84606 58.6022 8.07653 59.3213 8.37769C60.0404 8.67884 60.7564 9.04453 61.4693 9.47475C62.1884 9.89883 62.8829 10.3813 63.5528 10.9221C64.2227 11.463 64.8527 12.053 65.4427 12.6922C66.0327 13.3252 66.5613 14.0013 67.0284 14.7204V7.44656H68.9183V20.6667H67.0284C67.0284 19.6956 66.8594 18.7614 66.5213 17.8641C66.1833 16.9606 65.7316 16.1094 65.1661 15.3104C64.6007 14.5114 63.9492 13.777 63.2117 13.1071C62.4742 12.431 61.7029 11.8379 60.8977 11.3278C60.0987 10.8177 59.2936 10.3997 58.4823 10.074C57.6711 9.7421 56.909 9.52085 56.196 9.41022V20.6667ZM80.2153 20.6667H78.3254V9.33647H71.6416V7.44656H86.8991V9.33647H80.2153V20.6667ZM104.262 20.6667H102.372V16.8869H91.8257V15.0062H102.372V9.33647H95.5963C94.951 9.33647 94.3425 9.46246 93.771 9.71445C93.1994 9.96029 92.7015 10.2983 92.2775 10.7285C91.8534 11.1526 91.5154 11.6504 91.2634 12.222C91.0175 12.7936 90.8946 13.4051 90.8946 14.0566V20.6667H89.0047V14.0566C89.0047 13.4482 89.0815 12.8643 89.2352 12.305C89.395 11.7396 89.6162 11.2141 89.899 10.7285C90.1878 10.2369 90.532 9.79127 90.9315 9.39178C91.3371 8.98614 91.7827 8.63889 92.2682 8.35003C92.7599 8.06117 93.2854 7.83991 93.8447 7.68626C94.404 7.52646 94.9879 7.44656 95.5963 7.44656H104.262V20.6667ZM122.215 20.6667H113.706C112.79 20.6667 111.958 20.4946 111.208 20.1504C110.458 19.8062 109.816 19.336 109.281 18.7399C108.752 18.1437 108.344 17.4431 108.055 16.6379C107.766 15.8328 107.622 14.9724 107.622 14.0566C107.622 13.147 107.766 12.2927 108.055 11.4937C108.344 10.6886 108.752 9.98794 109.281 9.39178C109.816 8.78947 110.458 8.31623 111.208 7.97205C111.958 7.62173 112.79 7.44656 113.706 7.44656H122.215V9.33647H113.706C113.055 9.33647 112.468 9.46246 111.945 9.71445C111.429 9.96029 110.99 10.2983 110.627 10.7285C110.271 11.1526 109.994 11.6504 109.797 12.222C109.607 12.7936 109.512 13.4051 109.512 14.0566C109.512 14.7081 109.607 15.3227 109.797 15.9004C109.994 16.472 110.271 16.9729 110.627 17.4031C110.99 17.8272 111.429 18.1622 111.945 18.408C112.468 18.6538 113.055 18.7768 113.706 18.7768H122.215V20.6667ZM132.627 20.6667H130.737V9.33647H124.054V7.44656H139.311V9.33647H132.627V20.6667ZM163.924 7.44656L163.906 14.0566C163.906 14.6712 163.826 15.2612 163.666 15.8267C163.512 16.386 163.291 16.9114 163.002 17.4031C162.719 17.8887 162.375 18.3342 161.97 18.7399C161.57 19.1394 161.125 19.4835 160.633 19.7724C160.147 20.0551 159.625 20.2764 159.066 20.4362C158.506 20.5898 157.923 20.6667 157.314 20.6667H155.922C155.314 20.6667 154.727 20.5898 154.161 20.4362C153.602 20.2764 153.076 20.0521 152.585 19.7632C152.099 19.4743 151.657 19.1302 151.257 18.7307C150.858 18.325 150.513 17.8794 150.225 17.3939C149.942 16.9022 149.721 16.3767 149.561 15.8174C149.407 15.252 149.33 14.6651 149.33 14.0566V7.44656H151.22V14.0566C151.22 14.7081 151.343 15.3227 151.589 15.9004C151.835 16.472 152.17 16.9729 152.594 17.4031C153.024 17.8272 153.525 18.1622 154.097 18.408C154.668 18.6538 155.277 18.7768 155.922 18.7768H157.314C157.966 18.7768 158.577 18.6538 159.149 18.408C159.72 18.1622 160.218 17.8272 160.642 17.4031C161.066 16.9729 161.401 16.472 161.647 15.9004C161.893 15.3227 162.016 14.7081 162.016 14.0566V7.44656H163.906H163.924ZM182.191 16.8869C182.191 17.4154 182.092 17.9102 181.896 18.3711C181.699 18.8259 181.429 19.2254 181.084 19.5696C180.746 19.9076 180.347 20.175 179.886 20.3716C179.431 20.5683 178.943 20.6667 178.42 20.6667H166.933V18.7768H178.42C178.684 18.7768 178.93 18.7276 179.158 18.6293C179.385 18.5309 179.582 18.3957 179.748 18.2236C179.92 18.0515 180.055 17.8518 180.153 17.6244C180.252 17.3908 180.301 17.145 180.301 16.8869C180.301 16.6287 180.252 16.386 180.153 16.1585C180.055 15.9311 179.92 15.7314 179.748 15.5593C179.582 15.3872 179.385 15.252 179.158 15.1537C178.93 15.0553 178.684 15.0062 178.42 15.0062H170.713C170.197 15.0062 169.708 14.9078 169.247 14.7112C168.786 14.5145 168.384 14.2471 168.039 13.9091C167.701 13.5649 167.431 13.1624 167.228 12.7014C167.032 12.2405 166.933 11.7488 166.933 11.2264C166.933 10.7101 167.032 10.2215 167.228 9.76054C167.431 9.29959 167.701 8.9001 168.039 8.56207C168.384 8.21789 168.786 7.94747 169.247 7.75079C169.708 7.54797 170.197 7.44656 170.713 7.44656H181.25V9.33647H170.713C170.455 9.33647 170.209 9.38563 169.975 9.48397C169.748 9.58231 169.548 9.71752 169.376 9.88961C169.204 10.0617 169.069 10.2645 168.971 10.4981C168.872 10.7255 168.823 10.9682 168.823 11.2264C168.823 11.4845 168.872 11.7303 168.971 11.9639C169.069 12.1913 169.204 12.391 169.376 12.5631C169.548 12.7352 169.748 12.8704 169.975 12.9688C170.209 13.0671 170.455 13.1163 170.713 13.1163H178.42C178.943 13.1163 179.431 13.2177 179.886 13.4205C180.347 13.6172 180.746 13.8876 181.084 14.2318C181.429 14.5698 181.699 14.9693 181.896 15.4302C182.092 15.8851 182.191 16.3706 182.191 16.8869Z" fill="#F2D7B6"/>
</svg>
