<svg width="1484" height="84" viewBox="0 0 1484 84" fill="none" xmlns="http://www.w3.org/2000/svg">
<g filter="url(#filter0_dd_141_137)">
<rect x="22" y="22" width="1440" height="40" fill="#8B8F8C"/>
<rect x="22" y="22" width="1440" height="40" fill="url(#paint0_linear_141_137)" fill-opacity="0.8"/>
</g>
<path d="M569.929 43.0855C569.862 43.4964 569.735 43.8685 569.546 44.2017C569.368 44.5238 569.14 44.8014 568.863 45.0346C568.596 45.2568 568.291 45.4289 567.947 45.5511C567.613 45.6621 567.263 45.7177 566.897 45.7177C566.353 45.7177 565.859 45.6233 565.414 45.4345C564.981 45.2457 564.609 44.9847 564.298 44.6515C563.987 44.3183 563.743 43.9296 563.565 43.4853C563.399 43.03 563.315 42.5413 563.315 42.0193C563.315 41.4862 563.393 40.992 563.548 40.5366C563.715 40.0813 563.948 39.687 564.248 39.3538C564.559 39.0206 564.931 38.7596 565.364 38.5708C565.809 38.382 566.308 38.2876 566.864 38.2876C567.252 38.2876 567.613 38.3431 567.947 38.4542C568.291 38.5653 568.596 38.7319 568.863 38.954C569.129 39.165 569.351 39.4315 569.529 39.7536C569.707 40.0757 569.823 40.4478 569.879 40.8698H568.58C568.491 40.4811 568.291 40.1757 567.98 39.9535C567.669 39.7314 567.297 39.6204 566.864 39.6204C566.231 39.6204 565.747 39.8425 565.414 40.2867C565.081 40.7199 564.915 41.2863 564.915 41.986C564.915 42.3081 564.959 42.619 565.048 42.9189C565.148 43.2077 565.281 43.4631 565.448 43.6852C565.625 43.8963 565.836 44.0684 566.081 44.2017C566.325 44.3238 566.597 44.3849 566.897 44.3849C567.363 44.3849 567.747 44.2683 568.046 44.0351C568.346 43.8018 568.524 43.4853 568.58 43.0855H569.929ZM561.966 42.0526C561.966 42.7634 562.088 43.4187 562.332 44.0184C562.577 44.6182 562.91 45.1346 563.332 45.5677C563.754 46.0009 564.248 46.3396 564.815 46.584C565.392 46.8283 566.008 46.9505 566.664 46.9505C567.308 46.9505 567.913 46.8283 568.48 46.584C569.057 46.3396 569.557 46.0009 569.979 45.5677C570.401 45.1346 570.734 44.6182 570.979 44.0184C571.234 43.4187 571.362 42.7634 571.362 42.0526C571.362 41.3418 571.234 40.6866 570.979 40.0868C570.734 39.4871 570.401 38.9706 569.979 38.5375C569.557 38.1044 569.057 37.7656 568.48 37.5213C567.913 37.2769 567.308 37.1548 566.664 37.1548C566.008 37.1548 565.392 37.2769 564.815 37.5213C564.248 37.7656 563.754 38.1044 563.332 38.5375C562.91 38.9706 562.577 39.4871 562.332 40.0868C562.088 40.6866 561.966 41.3418 561.966 42.0526ZM560.267 42.0526C560.267 41.0975 560.439 40.2368 560.783 39.4704C561.138 38.7041 561.61 38.0544 562.199 37.5213C562.788 36.9771 563.465 36.5606 564.231 36.2718C565.009 35.972 565.82 35.822 566.664 35.822C567.508 35.822 568.313 35.972 569.079 36.2718C569.857 36.5606 570.54 36.9771 571.128 37.5213C571.717 38.0544 572.184 38.7041 572.528 39.4704C572.883 40.2368 573.061 41.0975 573.061 42.0526C573.061 42.9966 572.883 43.8518 572.528 44.6182C572.184 45.3845 571.717 46.0398 571.128 46.584C570.54 47.1282 569.857 47.5446 569.079 47.8334C568.313 48.1222 567.508 48.2665 566.664 48.2665C565.82 48.2665 565.009 48.1222 564.231 47.8334C563.465 47.5446 562.788 47.1282 562.199 46.584C561.61 46.0398 561.138 45.3845 560.783 44.6182C560.439 43.8518 560.267 42.9966 560.267 42.0526ZM580.776 36.1052H583.392V45.801H589.189V48H580.776V36.1052ZM593.667 38.0544H591.301V36.1052H593.667V38.0544ZM591.301 39.3871H593.667V48H591.301V39.3871ZM596.879 40.9698H595.463V39.3871H596.879V38.7208C596.879 37.9544 597.118 37.3269 597.595 36.8382C598.073 36.3496 598.795 36.1052 599.761 36.1052C599.972 36.1052 600.183 36.1163 600.394 36.1386C600.605 36.1497 600.811 36.1608 601.01 36.1719V37.9378C600.733 37.9044 600.444 37.8878 600.144 37.8878C599.822 37.8878 599.589 37.9655 599.444 38.121C599.311 38.2654 599.245 38.5153 599.245 38.8707V39.3871H600.877V40.9698H599.245V48H596.879V40.9698ZM605.742 39.3871H607.474V40.9698H605.742V45.2346C605.742 45.6344 605.808 45.9009 605.942 46.0342C606.075 46.1675 606.342 46.2341 606.741 46.2341C606.875 46.2341 607.002 46.2286 607.125 46.2175C607.247 46.2063 607.363 46.1897 607.474 46.1675V48C607.275 48.0333 607.052 48.0555 606.808 48.0666C606.564 48.0777 606.325 48.0833 606.092 48.0833C605.725 48.0833 605.375 48.0555 605.042 48C604.72 47.9556 604.431 47.8612 604.176 47.7168C603.932 47.5724 603.737 47.3669 603.593 47.1004C603.448 46.8338 603.376 46.484 603.376 46.0509V40.9698H601.944V39.3871H603.376V36.8049H605.742V39.3871ZM611.782 42.1026C611.782 42.6024 611.837 43.091 611.948 43.5686C612.071 44.0351 612.259 44.4571 612.515 44.8347C612.77 45.2123 613.104 45.5178 613.514 45.751C613.925 45.9731 614.425 46.0842 615.014 46.0842C615.602 46.0842 616.102 45.9731 616.513 45.751C616.924 45.5178 617.257 45.2123 617.513 44.8347C617.768 44.4571 617.951 44.0351 618.062 43.5686C618.185 43.091 618.246 42.6024 618.246 42.1026C618.246 41.5806 618.185 41.0753 618.062 40.5866C617.951 40.0979 617.768 39.6648 617.513 39.2872C617.257 38.8985 616.924 38.593 616.513 38.3709C616.102 38.1377 615.602 38.0211 615.014 38.0211C614.425 38.0211 613.925 38.1377 613.514 38.3709C613.104 38.593 612.77 38.8985 612.515 39.2872C612.259 39.6648 612.071 40.0979 611.948 40.5866C611.837 41.0753 611.782 41.5806 611.782 42.1026ZM609.166 42.1026C609.166 41.2141 609.3 40.3922 609.566 39.637C609.833 38.8707 610.216 38.2043 610.716 37.6379C611.215 37.0715 611.826 36.6272 612.548 36.3051C613.281 35.9831 614.103 35.822 615.014 35.822C615.936 35.822 616.757 35.9831 617.479 36.3051C618.201 36.6272 618.812 37.0715 619.312 37.6379C619.812 38.2043 620.195 38.8707 620.461 39.637C620.728 40.3922 620.861 41.2141 620.861 42.1026C620.861 42.9689 620.728 43.7796 620.461 44.5349C620.195 45.279 619.812 45.9287 619.312 46.484C618.812 47.0393 618.201 47.478 617.479 47.8001C616.757 48.1111 615.936 48.2665 615.014 48.2665C614.103 48.2665 613.281 48.1111 612.548 47.8001C611.826 47.478 611.215 47.0393 610.716 46.484C610.216 45.9287 609.833 45.279 609.566 44.5349C609.3 43.7796 609.166 42.9689 609.166 42.1026ZM628.796 40.9698H626.114V48H623.749V40.9698H622.333V39.3871H623.749V38.7208C623.749 37.9544 623.987 37.3269 624.465 36.8382C624.943 36.3496 625.664 36.1052 626.631 36.1052C626.842 36.1052 627.053 36.1163 627.264 36.1386C627.475 36.1497 627.68 36.1608 627.88 36.1719V37.9378C627.591 37.9044 627.303 37.8878 627.014 37.8878C626.692 37.8878 626.459 37.9655 626.314 38.121C626.181 38.2654 626.114 38.5153 626.114 38.8707V39.3871H628.796V38.7208C628.796 37.9544 629.035 37.3269 629.513 36.8382C629.99 36.3496 630.712 36.1052 631.678 36.1052C631.889 36.1052 632.101 36.1163 632.312 36.1386C632.523 36.1497 632.728 36.1608 632.928 36.1719V37.9378C632.639 37.9044 632.35 37.8878 632.062 37.8878C631.74 37.8878 631.506 37.9655 631.362 38.121C631.229 38.2654 631.162 38.5153 631.162 38.8707V39.3871H632.795V40.9698H631.162V48H628.796V40.9698ZM634.756 45.4345H637.372V48H634.756V45.4345ZM648.461 40.9198H651.11C651.576 40.9198 651.959 40.8087 652.259 40.5866C652.559 40.3645 652.709 40.0035 652.709 39.5037C652.709 39.2261 652.659 38.9984 652.559 38.8207C652.459 38.643 652.326 38.5042 652.159 38.4042C651.993 38.3043 651.798 38.2376 651.576 38.2043C651.365 38.1599 651.143 38.1377 650.91 38.1377H648.461V40.9198ZM645.845 36.1052H651.443C652.009 36.1052 652.526 36.1552 652.992 36.2552C653.459 36.3551 653.858 36.5217 654.192 36.755C654.525 36.9771 654.78 37.2769 654.958 37.6546C655.147 38.0322 655.241 38.4986 655.241 39.0539C655.241 39.6537 655.102 40.1535 654.825 40.5533C654.558 40.9531 654.158 41.2807 653.625 41.5362C654.358 41.7472 654.902 42.1193 655.258 42.6524C655.624 43.1743 655.808 43.8074 655.808 44.5515C655.808 45.1513 655.691 45.6732 655.458 46.1175C655.224 46.5506 654.908 46.906 654.508 47.1837C654.119 47.4613 653.67 47.6668 653.159 47.8001C652.659 47.9334 652.143 48 651.609 48H645.845V36.1052ZM648.461 45.9676H651.26C651.515 45.9676 651.759 45.9453 651.993 45.9009C652.226 45.8454 652.431 45.7621 652.609 45.651C652.787 45.5289 652.925 45.3678 653.025 45.1679C653.137 44.968 653.192 44.7126 653.192 44.4016C653.192 43.7907 653.02 43.3576 652.676 43.1022C652.331 42.8356 651.876 42.7023 651.31 42.7023H648.461V45.9676ZM663.956 42.769C663.845 42.1692 663.645 41.7139 663.356 41.4029C663.078 41.0919 662.651 40.9364 662.073 40.9364C661.696 40.9364 661.379 41.0031 661.124 41.1364C660.879 41.2585 660.679 41.414 660.524 41.6028C660.379 41.7916 660.274 41.9915 660.207 42.2026C660.152 42.4136 660.118 42.6024 660.107 42.769H663.956ZM660.107 44.2683C660.141 45.0346 660.335 45.5899 660.69 45.9342C661.046 46.2785 661.557 46.4507 662.223 46.4507C662.701 46.4507 663.112 46.3341 663.456 46.1008C663.8 45.8565 664.011 45.6011 664.089 45.3345H666.171C665.838 46.3674 665.327 47.1059 664.639 47.5502C663.95 47.9944 663.117 48.2166 662.14 48.2166C661.462 48.2166 660.851 48.1111 660.307 47.9C659.763 47.6779 659.302 47.3669 658.925 46.9671C658.547 46.5673 658.253 46.0897 658.042 45.5344C657.842 44.9791 657.742 44.3683 657.742 43.7019C657.742 43.0577 657.847 42.458 658.058 41.9027C658.269 41.3474 658.569 40.8698 658.958 40.47C659.347 40.0591 659.807 39.737 660.341 39.5037C660.885 39.2705 661.485 39.1539 662.14 39.1539C662.873 39.1539 663.511 39.2983 664.056 39.587C664.6 39.8647 665.044 40.2423 665.388 40.7199C665.744 41.1974 665.999 41.7416 666.155 42.3525C666.31 42.9633 666.366 43.6019 666.321 44.2683H660.107ZM673.322 48H670.69L667.741 39.3871H670.223L672.039 45.2679H672.072L673.888 39.3871H676.237L673.322 48ZM683.843 42.769C683.732 42.1692 683.532 41.7139 683.243 41.4029C682.965 41.0919 682.538 40.9364 681.96 40.9364C681.583 40.9364 681.266 41.0031 681.011 41.1364C680.766 41.2585 680.566 41.414 680.411 41.6028C680.267 41.7916 680.161 41.9915 680.094 42.2026C680.039 42.4136 680.006 42.6024 679.994 42.769H683.843ZM679.994 44.2683C680.028 45.0346 680.222 45.5899 680.578 45.9342C680.933 46.2785 681.444 46.4507 682.11 46.4507C682.588 46.4507 682.999 46.3341 683.343 46.1008C683.687 45.8565 683.898 45.6011 683.976 45.3345H686.058C685.725 46.3674 685.214 47.1059 684.526 47.5502C683.837 47.9944 683.004 48.2166 682.027 48.2166C681.349 48.2166 680.739 48.1111 680.194 47.9C679.65 47.6779 679.189 47.3669 678.812 46.9671C678.434 46.5673 678.14 46.0897 677.929 45.5344C677.729 44.9791 677.629 44.3683 677.629 43.7019C677.629 43.0577 677.734 42.458 677.945 41.9027C678.156 41.3474 678.456 40.8698 678.845 40.47C679.234 40.0591 679.695 39.737 680.228 39.5037C680.772 39.2705 681.372 39.1539 682.027 39.1539C682.76 39.1539 683.398 39.2983 683.943 39.587C684.487 39.8647 684.931 40.2423 685.275 40.7199C685.631 41.1974 685.886 41.7416 686.042 42.3525C686.197 42.9633 686.253 43.6019 686.208 44.2683H679.994ZM688.444 39.3871H690.693V40.9864H690.727C690.838 40.7199 690.988 40.4755 691.176 40.2534C691.365 40.0202 691.582 39.8258 691.826 39.6703C692.071 39.5037 692.332 39.376 692.609 39.2872C692.887 39.1983 693.176 39.1539 693.475 39.1539C693.631 39.1539 693.803 39.1817 693.992 39.2372V41.4362C693.881 41.414 693.748 41.3974 693.592 41.3862C693.437 41.364 693.287 41.3529 693.142 41.3529C692.709 41.3529 692.343 41.4251 692.043 41.5695C691.743 41.7139 691.499 41.9138 691.31 42.1692C691.132 42.4136 691.004 42.7023 690.927 43.0355C690.849 43.3687 690.81 43.7297 690.81 44.1184V48H688.444V39.3871ZM695.652 42.036C695.686 41.4806 695.825 41.0197 696.069 40.6532C696.313 40.2867 696.624 39.9924 697.002 39.7703C697.379 39.5482 697.801 39.3927 698.268 39.3038C698.745 39.2039 699.223 39.1539 699.701 39.1539C700.134 39.1539 700.572 39.1872 701.017 39.2538C701.461 39.3094 701.866 39.426 702.233 39.6037C702.599 39.7814 702.899 40.0313 703.132 40.3534C703.366 40.6643 703.482 41.0808 703.482 41.6028V46.0842C703.482 46.4729 703.504 46.845 703.549 47.2004C703.593 47.5558 703.671 47.8223 703.782 48H701.383C701.339 47.8667 701.3 47.7335 701.267 47.6002C701.244 47.4558 701.228 47.3114 701.217 47.167C700.839 47.5558 700.395 47.8279 699.884 47.9833C699.373 48.1388 698.851 48.2166 698.318 48.2166C697.907 48.2166 697.524 48.1666 697.168 48.0666C696.813 47.9667 696.502 47.8112 696.235 47.6002C695.969 47.3892 695.758 47.1226 695.602 46.8005C695.458 46.4784 695.386 46.0953 695.386 45.651C695.386 45.1624 695.469 44.7625 695.636 44.4516C695.813 44.1295 696.036 43.874 696.302 43.6852C696.58 43.4964 696.891 43.3576 697.235 43.2687C697.59 43.1688 697.946 43.091 698.301 43.0355C698.657 42.98 699.006 42.9356 699.351 42.9022C699.695 42.8689 700 42.8189 700.267 42.7523C700.534 42.6857 700.745 42.5913 700.9 42.4691C701.056 42.3358 701.128 42.147 701.117 41.9027C701.117 41.6472 701.072 41.4473 700.983 41.3029C700.906 41.1475 700.795 41.0308 700.65 40.9531C700.517 40.8643 700.356 40.8087 700.167 40.7865C699.989 40.7532 699.795 40.7365 699.584 40.7365C699.118 40.7365 698.751 40.8365 698.484 41.0364C698.218 41.2363 698.062 41.5695 698.018 42.036H695.652ZM701.117 43.7852C701.017 43.874 700.889 43.9462 700.733 44.0018C700.589 44.0462 700.428 44.0851 700.25 44.1184C700.084 44.1517 699.906 44.1795 699.717 44.2017C699.528 44.2239 699.34 44.2517 699.151 44.285C698.973 44.3183 698.795 44.3627 698.618 44.4182C698.451 44.4738 698.301 44.5515 698.168 44.6515C698.046 44.7403 697.946 44.8569 697.868 45.0013C697.79 45.1457 697.751 45.329 697.751 45.5511C697.751 45.7621 697.79 45.9398 697.868 46.0842C697.946 46.2286 698.051 46.3452 698.185 46.434C698.318 46.5118 698.473 46.5673 698.651 46.6006C698.829 46.6339 699.012 46.6506 699.201 46.6506C699.667 46.6506 700.028 46.5729 700.284 46.4174C700.539 46.2619 700.728 46.0786 700.85 45.8676C700.972 45.6455 701.044 45.4234 701.067 45.2012C701.1 44.9791 701.117 44.8014 701.117 44.6681V43.7852ZM710.166 45.9676C710.499 45.9676 710.794 45.9009 711.049 45.7676C711.305 45.6344 711.516 45.4567 711.682 45.2346C711.849 45.0124 711.971 44.7625 712.049 44.4849C712.138 44.1961 712.182 43.8963 712.182 43.5853C712.182 43.2299 712.149 42.8967 712.082 42.5857C712.015 42.2636 711.904 41.9804 711.749 41.7361C711.593 41.4918 711.388 41.2974 711.133 41.153C710.877 41.0086 710.555 40.9364 710.166 40.9364C709.833 40.9364 709.544 41.0031 709.3 41.1364C709.067 41.2696 708.867 41.4529 708.7 41.6861C708.545 41.9082 708.428 42.1692 708.35 42.4691C708.284 42.7579 708.25 43.0633 708.25 43.3854C708.25 43.6963 708.278 44.0073 708.334 44.3183C708.4 44.6182 708.506 44.8903 708.65 45.1346C708.806 45.3789 709.006 45.5788 709.25 45.7343C709.494 45.8898 709.8 45.9676 710.166 45.9676ZM714.431 47.4502C714.431 47.7945 714.381 48.1888 714.281 48.6331C714.192 49.0773 713.992 49.4882 713.681 49.8658C713.37 50.2546 712.921 50.5822 712.332 50.8487C711.743 51.1153 710.955 51.2486 709.966 51.2486C709.544 51.2486 709.111 51.193 708.667 51.082C708.234 50.982 707.834 50.821 707.467 50.5989C707.112 50.3767 706.812 50.088 706.568 49.7326C706.335 49.3883 706.201 48.9718 706.168 48.4831H708.517C708.628 48.9274 708.845 49.2328 709.167 49.3994C709.489 49.5771 709.861 49.6659 710.283 49.6659C710.949 49.6659 711.432 49.466 711.732 49.0662C712.043 48.6664 712.193 48.161 712.182 47.5502V46.4174H712.149C711.893 46.8727 711.527 47.2115 711.049 47.4336C710.583 47.6446 710.089 47.7501 709.567 47.7501C708.922 47.7501 708.367 47.639 707.901 47.4169C707.434 47.1837 707.051 46.8727 706.751 46.484C706.451 46.0842 706.229 45.6233 706.085 45.1013C705.951 44.5682 705.885 44.0073 705.885 43.4187C705.885 42.8634 705.963 42.3303 706.118 41.8194C706.285 41.2974 706.523 40.842 706.834 40.4533C707.145 40.0535 707.529 39.737 707.984 39.5037C708.45 39.2705 708.983 39.1539 709.583 39.1539C710.15 39.1539 710.644 39.2594 711.066 39.4704C711.499 39.6814 711.86 40.0368 712.149 40.5366H712.182V39.3871H714.431V47.4502ZM722.966 42.769C722.855 42.1692 722.655 41.7139 722.366 41.4029C722.089 41.0919 721.661 40.9364 721.084 40.9364C720.706 40.9364 720.389 41.0031 720.134 41.1364C719.89 41.2585 719.69 41.414 719.534 41.6028C719.39 41.7916 719.284 41.9915 719.218 42.2026C719.162 42.4136 719.129 42.6024 719.118 42.769H722.966ZM719.118 44.2683C719.151 45.0346 719.346 45.5899 719.701 45.9342C720.056 46.2785 720.567 46.4507 721.234 46.4507C721.711 46.4507 722.122 46.3341 722.466 46.1008C722.811 45.8565 723.022 45.6011 723.099 45.3345H725.182C724.849 46.3674 724.338 47.1059 723.649 47.5502C722.961 47.9944 722.128 48.2166 721.15 48.2166C720.473 48.2166 719.862 48.1111 719.318 47.9C718.774 47.6779 718.313 47.3669 717.935 46.9671C717.557 46.5673 717.263 46.0897 717.052 45.5344C716.852 44.9791 716.752 44.3683 716.752 43.7019C716.752 43.0577 716.858 42.458 717.069 41.9027C717.28 41.3474 717.58 40.8698 717.968 40.47C718.357 40.0591 718.818 39.737 719.351 39.5037C719.895 39.2705 720.495 39.1539 721.15 39.1539C721.883 39.1539 722.522 39.2983 723.066 39.587C723.61 39.8647 724.055 40.2423 724.399 40.7199C724.754 41.1974 725.01 41.7416 725.165 42.3525C725.321 42.9633 725.376 43.6019 725.332 44.2683H719.118ZM741.217 40.1035C741.173 39.8036 741.073 39.5315 740.917 39.2872C740.762 39.0317 740.567 38.8096 740.334 38.6208C740.101 38.432 739.834 38.2876 739.535 38.1877C739.246 38.0766 738.94 38.0211 738.618 38.0211C738.03 38.0211 737.53 38.1377 737.119 38.3709C736.708 38.593 736.375 38.8985 736.119 39.2872C735.864 39.6648 735.675 40.0979 735.553 40.5866C735.442 41.0753 735.386 41.5806 735.386 42.1026C735.386 42.6024 735.442 43.091 735.553 43.5686C735.675 44.0351 735.864 44.4571 736.119 44.8347C736.375 45.2123 736.708 45.5178 737.119 45.751C737.53 45.9731 738.03 46.0842 738.618 46.0842C739.418 46.0842 740.04 45.8398 740.484 45.3512C740.939 44.8625 741.217 44.2183 741.317 43.4187H743.849C743.783 44.1628 743.61 44.8347 743.333 45.4345C743.055 46.0342 742.689 46.5451 742.233 46.9671C741.778 47.3892 741.245 47.7112 740.634 47.9334C740.023 48.1555 739.351 48.2665 738.618 48.2665C737.708 48.2665 736.886 48.1111 736.153 47.8001C735.431 47.478 734.82 47.0393 734.32 46.484C733.82 45.9287 733.437 45.279 733.171 44.5349C732.904 43.7796 732.771 42.9689 732.771 42.1026C732.771 41.2141 732.904 40.3922 733.171 39.637C733.437 38.8707 733.82 38.2043 734.32 37.6379C734.82 37.0715 735.431 36.6272 736.153 36.3051C736.886 35.9831 737.708 35.822 738.618 35.822C739.274 35.822 739.89 35.9164 740.467 36.1052C741.056 36.294 741.578 36.5717 742.033 36.9382C742.5 37.2936 742.883 37.7379 743.183 38.2709C743.483 38.804 743.672 39.4149 743.749 40.1035H741.217ZM748.317 43.7019C748.317 44.0462 748.351 44.3849 748.417 44.7181C748.484 45.0402 748.595 45.3345 748.751 45.6011C748.917 45.8565 749.134 46.062 749.4 46.2175C749.667 46.3729 750 46.4507 750.4 46.4507C750.8 46.4507 751.133 46.3729 751.399 46.2175C751.677 46.062 751.894 45.8565 752.049 45.6011C752.216 45.3345 752.332 45.0402 752.399 44.7181C752.466 44.3849 752.499 44.0462 752.499 43.7019C752.499 43.3576 752.466 43.0189 752.399 42.6857C752.332 42.3525 752.216 42.0582 752.049 41.8027C751.894 41.5473 751.677 41.3418 751.399 41.1863C751.133 41.0197 750.8 40.9364 750.4 40.9364C750 40.9364 749.667 41.0197 749.4 41.1863C749.134 41.3418 748.917 41.5473 748.751 41.8027C748.595 42.0582 748.484 42.3525 748.417 42.6857C748.351 43.0189 748.317 43.3576 748.317 43.7019ZM745.952 43.7019C745.952 43.0133 746.057 42.3914 746.268 41.836C746.479 41.2696 746.779 40.7921 747.168 40.4033C747.557 40.0035 748.023 39.6981 748.567 39.4871C749.112 39.265 749.722 39.1539 750.4 39.1539C751.077 39.1539 751.688 39.265 752.232 39.4871C752.788 39.6981 753.26 40.0035 753.648 40.4033C754.037 40.7921 754.337 41.2696 754.548 41.836C754.759 42.3914 754.865 43.0133 754.865 43.7019C754.865 44.3905 754.759 45.0124 754.548 45.5677C754.337 46.123 754.037 46.6006 753.648 47.0004C753.26 47.3892 752.788 47.689 752.232 47.9C751.688 48.1111 751.077 48.2166 750.4 48.2166C749.722 48.2166 749.112 48.1111 748.567 47.9C748.023 47.689 747.557 47.3892 747.168 47.0004C746.779 46.6006 746.479 46.123 746.268 45.5677C746.057 45.0124 745.952 44.3905 745.952 43.7019ZM757.336 45.4345H759.951V48H757.336V45.4345ZM771.423 43.402H774.505L773.006 39.0373H772.973L771.423 43.402ZM771.673 36.1052H774.356L778.804 48H776.088L775.188 45.3512H770.74L769.808 48H767.175L771.673 36.1052ZM780.479 36.1052H782.845V48H780.479V36.1052ZM785.607 36.1052H787.973V48H785.607V36.1052ZM799.003 41.4862H801.869C802.468 41.4862 802.918 41.3529 803.218 41.0864C803.518 40.8198 803.668 40.3867 803.668 39.7869C803.668 39.2094 803.518 38.7929 803.218 38.5375C802.918 38.2709 802.468 38.1377 801.869 38.1377H799.003V41.4862ZM796.388 36.1052H802.802C803.335 36.1052 803.812 36.1941 804.234 36.3718C804.667 36.5384 805.034 36.7716 805.334 37.0715C805.645 37.3713 805.878 37.7212 806.033 38.121C806.2 38.5097 806.283 38.9318 806.283 39.3871C806.283 40.0868 806.133 40.6921 805.834 41.203C805.545 41.7139 805.067 42.1026 804.401 42.3691V42.4025C804.723 42.4913 804.989 42.6301 805.201 42.8189C805.412 42.9966 805.584 43.2132 805.717 43.4687C805.85 43.713 805.945 43.9851 806 44.285C806.067 44.5848 806.111 44.8847 806.133 45.1846C806.145 45.3734 806.156 45.5955 806.167 45.8509C806.178 46.1064 806.195 46.3674 806.217 46.6339C806.25 46.9005 806.294 47.1559 806.35 47.4003C806.417 47.6335 806.511 47.8334 806.633 48H804.018C803.873 47.6224 803.784 47.1726 803.751 46.6506C803.718 46.1286 803.668 45.6288 803.601 45.1513C803.512 44.5293 803.324 44.074 803.035 43.7852C802.746 43.4964 802.274 43.352 801.619 43.352H799.003V48H796.388V36.1052ZM811.426 38.0544H809.06V36.1052H811.426V38.0544ZM809.06 39.3871H811.426V48H809.06V39.3871ZM818.136 45.9676C818.47 45.9676 818.764 45.9009 819.019 45.7676C819.275 45.6344 819.486 45.4567 819.652 45.2346C819.819 45.0124 819.941 44.7625 820.019 44.4849C820.108 44.1961 820.152 43.8963 820.152 43.5853C820.152 43.2299 820.119 42.8967 820.052 42.5857C819.986 42.2636 819.874 41.9804 819.719 41.7361C819.564 41.4918 819.358 41.2974 819.103 41.153C818.847 41.0086 818.525 40.9364 818.136 40.9364C817.803 40.9364 817.514 41.0031 817.27 41.1364C817.037 41.2696 816.837 41.4529 816.67 41.6861C816.515 41.9082 816.398 42.1692 816.32 42.4691C816.254 42.7579 816.221 43.0633 816.221 43.3854C816.221 43.6963 816.248 44.0073 816.304 44.3183C816.37 44.6182 816.476 44.8903 816.62 45.1346C816.776 45.3789 816.976 45.5788 817.22 45.7343C817.464 45.8898 817.77 45.9676 818.136 45.9676ZM822.401 47.4502C822.401 47.7945 822.351 48.1888 822.251 48.6331C822.162 49.0773 821.962 49.4882 821.651 49.8658C821.34 50.2546 820.891 50.5822 820.302 50.8487C819.713 51.1153 818.925 51.2486 817.936 51.2486C817.514 51.2486 817.081 51.193 816.637 51.082C816.204 50.982 815.804 50.821 815.438 50.5989C815.082 50.3767 814.782 50.088 814.538 49.7326C814.305 49.3883 814.171 48.9718 814.138 48.4831H816.487C816.598 48.9274 816.815 49.2328 817.137 49.3994C817.459 49.5771 817.831 49.6659 818.253 49.6659C818.919 49.6659 819.402 49.466 819.702 49.0662C820.013 48.6664 820.163 48.161 820.152 47.5502V46.4174H820.119C819.863 46.8727 819.497 47.2115 819.019 47.4336C818.553 47.6446 818.059 47.7501 817.537 47.7501C816.892 47.7501 816.337 47.639 815.871 47.4169C815.404 47.1837 815.021 46.8727 814.721 46.484C814.421 46.0842 814.199 45.6233 814.055 45.1013C813.922 44.5682 813.855 44.0073 813.855 43.4187C813.855 42.8634 813.933 42.3303 814.088 41.8194C814.255 41.2974 814.494 40.842 814.804 40.4533C815.115 40.0535 815.499 39.737 815.954 39.5037C816.42 39.2705 816.954 39.1539 817.553 39.1539C818.12 39.1539 818.614 39.2594 819.036 39.4704C819.469 39.6814 819.83 40.0368 820.119 40.5366H820.152V39.3871H822.401V47.4502ZM825.139 36.1052H827.504V40.5866H827.554C827.854 40.0868 828.237 39.7259 828.704 39.5037C829.17 39.2705 829.626 39.1539 830.07 39.1539C830.703 39.1539 831.219 39.2427 831.619 39.4204C832.03 39.587 832.352 39.8258 832.585 40.1368C832.819 40.4367 832.98 40.8087 833.069 41.253C833.169 41.6861 833.219 42.1692 833.219 42.7023V48H830.853V43.1355C830.853 42.4247 830.742 41.8971 830.52 41.5528C830.298 41.1974 829.903 41.0197 829.337 41.0197C828.693 41.0197 828.226 41.2141 827.938 41.6028C827.649 41.9804 827.504 42.6079 827.504 43.4853V48H825.139V36.1052ZM838.846 39.3871H840.578V40.9698H838.846V45.2346C838.846 45.6344 838.912 45.9009 839.046 46.0342C839.179 46.1675 839.445 46.2341 839.845 46.2341C839.978 46.2341 840.106 46.2286 840.228 46.2175C840.351 46.2063 840.467 46.1897 840.578 46.1675V48C840.378 48.0333 840.156 48.0555 839.912 48.0666C839.667 48.0777 839.429 48.0833 839.195 48.0833C838.829 48.0833 838.479 48.0555 838.146 48C837.824 47.9556 837.535 47.8612 837.28 47.7168C837.035 47.5724 836.841 47.3669 836.697 47.1004C836.552 46.8338 836.48 46.484 836.48 46.0509V40.9698H835.047V39.3871H836.48V36.8049H838.846V39.3871ZM844.369 45.2012C844.369 45.4567 844.419 45.6788 844.519 45.8676C844.63 46.0453 844.769 46.1952 844.936 46.3174C845.102 46.4285 845.291 46.5118 845.502 46.5673C845.724 46.6228 845.952 46.6506 846.185 46.6506C846.352 46.6506 846.524 46.6339 846.702 46.6006C846.89 46.5562 847.057 46.4951 847.201 46.4174C847.357 46.3285 847.485 46.2175 847.584 46.0842C847.684 45.9398 847.734 45.7621 847.734 45.5511C847.734 45.1957 847.496 44.9291 847.018 44.7514C846.552 44.5737 845.896 44.396 845.052 44.2183C844.708 44.1406 844.369 44.0517 844.036 43.9518C843.714 43.8407 843.425 43.7019 843.17 43.5353C842.914 43.3576 842.709 43.141 842.553 42.8856C842.398 42.619 842.32 42.297 842.32 41.9193C842.32 41.364 842.426 40.9087 842.637 40.5533C842.859 40.1979 843.148 39.9202 843.503 39.7203C843.858 39.5093 844.258 39.3649 844.702 39.2872C845.147 39.1983 845.602 39.1539 846.068 39.1539C846.535 39.1539 846.985 39.1983 847.418 39.2872C847.862 39.376 848.256 39.526 848.601 39.737C848.945 39.948 849.228 40.2312 849.45 40.5866C849.684 40.9309 849.822 41.3696 849.867 41.9027H847.618C847.584 41.4473 847.412 41.1419 847.101 40.9864C846.79 40.8198 846.424 40.7365 846.002 40.7365C845.869 40.7365 845.724 40.7476 845.569 40.7698C845.413 40.781 845.269 40.8143 845.136 40.8698C845.013 40.9253 844.908 41.0086 844.819 41.1197C844.73 41.2197 844.686 41.3585 844.686 41.5362C844.686 41.7472 844.763 41.9193 844.919 42.0526C845.074 42.1859 845.274 42.297 845.519 42.3858C845.774 42.4635 846.063 42.5357 846.385 42.6024C846.707 42.669 847.035 42.7412 847.368 42.8189C847.712 42.8967 848.045 42.9911 848.367 43.1022C848.701 43.2132 848.995 43.3632 849.25 43.552C849.506 43.7297 849.711 43.9573 849.867 44.235C850.022 44.5015 850.1 44.8347 850.1 45.2346C850.1 45.801 849.983 46.2785 849.75 46.6673C849.528 47.0449 849.234 47.3503 848.867 47.5835C848.501 47.8167 848.079 47.9778 847.601 48.0666C847.135 48.1666 846.657 48.2166 846.168 48.2166C845.669 48.2166 845.18 48.1666 844.702 48.0666C844.225 47.9667 843.797 47.8001 843.42 47.5669C843.053 47.3336 842.748 47.0282 842.503 46.6506C842.27 46.2619 842.142 45.7788 842.12 45.2012H844.369ZM860.653 41.4862H863.518C864.118 41.4862 864.567 41.3529 864.867 41.0864C865.167 40.8198 865.317 40.3867 865.317 39.7869C865.317 39.2094 865.167 38.7929 864.867 38.5375C864.567 38.2709 864.118 38.1377 863.518 38.1377H860.653V41.4862ZM858.037 36.1052H864.451C864.984 36.1052 865.462 36.1941 865.884 36.3718C866.317 36.5384 866.683 36.7716 866.983 37.0715C867.294 37.3713 867.527 37.7212 867.683 38.121C867.849 38.5097 867.933 38.9318 867.933 39.3871C867.933 40.0868 867.783 40.6921 867.483 41.203C867.194 41.7139 866.717 42.1026 866.05 42.3691V42.4025C866.372 42.4913 866.639 42.6301 866.85 42.8189C867.061 42.9966 867.233 43.2132 867.366 43.4687C867.5 43.713 867.594 43.9851 867.649 44.285C867.716 44.5848 867.761 44.8847 867.783 45.1846C867.794 45.3734 867.805 45.5955 867.816 45.8509C867.827 46.1064 867.844 46.3674 867.866 46.6339C867.899 46.9005 867.944 47.1559 867.999 47.4003C868.066 47.6335 868.16 47.8334 868.282 48H865.667C865.523 47.6224 865.434 47.1726 865.4 46.6506C865.367 46.1286 865.317 45.6288 865.25 45.1513C865.162 44.5293 864.973 44.074 864.684 43.7852C864.395 43.4964 863.923 43.352 863.268 43.352H860.653V48H858.037V36.1052ZM876.44 42.769C876.329 42.1692 876.129 41.7139 875.841 41.4029C875.563 41.0919 875.135 40.9364 874.558 40.9364C874.18 40.9364 873.864 41.0031 873.608 41.1364C873.364 41.2585 873.164 41.414 873.008 41.6028C872.864 41.7916 872.759 41.9915 872.692 42.2026C872.636 42.4136 872.603 42.6024 872.592 42.769H876.44ZM872.592 44.2683C872.625 45.0346 872.82 45.5899 873.175 45.9342C873.53 46.2785 874.041 46.4507 874.708 46.4507C875.185 46.4507 875.596 46.3341 875.94 46.1008C876.285 45.8565 876.496 45.6011 876.574 45.3345H878.656C878.323 46.3674 877.812 47.1059 877.123 47.5502C876.435 47.9944 875.602 48.2166 874.624 48.2166C873.947 48.2166 873.336 48.1111 872.792 47.9C872.248 47.6779 871.787 47.3669 871.409 46.9671C871.032 46.5673 870.737 46.0897 870.526 45.5344C870.326 44.9791 870.226 44.3683 870.226 43.7019C870.226 43.0577 870.332 42.458 870.543 41.9027C870.754 41.3474 871.054 40.8698 871.442 40.47C871.831 40.0591 872.292 39.737 872.825 39.5037C873.369 39.2705 873.969 39.1539 874.624 39.1539C875.357 39.1539 875.996 39.2983 876.54 39.587C877.084 39.8647 877.529 40.2423 877.873 40.7199C878.228 41.1974 878.484 41.7416 878.639 42.3525C878.795 42.9633 878.85 43.6019 878.806 44.2683H872.592ZM882.874 45.2012C882.874 45.4567 882.924 45.6788 883.024 45.8676C883.135 46.0453 883.274 46.1952 883.441 46.3174C883.607 46.4285 883.796 46.5118 884.007 46.5673C884.229 46.6228 884.457 46.6506 884.69 46.6506C884.857 46.6506 885.029 46.6339 885.207 46.6006C885.396 46.5562 885.562 46.4951 885.706 46.4174C885.862 46.3285 885.99 46.2175 886.09 46.0842C886.19 45.9398 886.24 45.7621 886.24 45.5511C886.24 45.1957 886.001 44.9291 885.523 44.7514C885.057 44.5737 884.402 44.396 883.557 44.2183C883.213 44.1406 882.874 44.0517 882.541 43.9518C882.219 43.8407 881.93 43.7019 881.675 43.5353C881.419 43.3576 881.214 43.141 881.059 42.8856C880.903 42.619 880.825 42.297 880.825 41.9193C880.825 41.364 880.931 40.9087 881.142 40.5533C881.364 40.1979 881.653 39.9202 882.008 39.7203C882.364 39.5093 882.763 39.3649 883.208 39.2872C883.652 39.1983 884.107 39.1539 884.574 39.1539C885.04 39.1539 885.49 39.1983 885.923 39.2872C886.367 39.376 886.762 39.526 887.106 39.737C887.45 39.948 887.733 40.2312 887.955 40.5866C888.189 40.9309 888.328 41.3696 888.372 41.9027H886.123C886.09 41.4473 885.918 41.1419 885.607 40.9864C885.296 40.8198 884.929 40.7365 884.507 40.7365C884.374 40.7365 884.229 40.7476 884.074 40.7698C883.918 40.781 883.774 40.8143 883.641 40.8698C883.519 40.9253 883.413 41.0086 883.324 41.1197C883.235 41.2197 883.191 41.3585 883.191 41.5362C883.191 41.7472 883.269 41.9193 883.424 42.0526C883.58 42.1859 883.78 42.297 884.024 42.3858C884.279 42.4635 884.568 42.5357 884.89 42.6024C885.212 42.669 885.54 42.7412 885.873 42.8189C886.217 42.8967 886.551 42.9911 886.873 43.1022C887.206 43.2132 887.5 43.3632 887.756 43.552C888.011 43.7297 888.216 43.9573 888.372 44.235C888.527 44.5015 888.605 44.8347 888.605 45.2346C888.605 45.801 888.489 46.2785 888.255 46.6673C888.033 47.0449 887.739 47.3503 887.372 47.5835C887.006 47.8167 886.584 47.9778 886.106 48.0666C885.64 48.1666 885.162 48.2166 884.674 48.2166C884.174 48.2166 883.685 48.1666 883.208 48.0666C882.73 47.9667 882.302 47.8001 881.925 47.5669C881.558 47.3336 881.253 47.0282 881.009 46.6506C880.775 46.2619 880.648 45.7788 880.625 45.2012H882.874ZM896.62 42.769C896.509 42.1692 896.309 41.7139 896.02 41.4029C895.743 41.0919 895.315 40.9364 894.738 40.9364C894.36 40.9364 894.044 41.0031 893.788 41.1364C893.544 41.2585 893.344 41.414 893.188 41.6028C893.044 41.7916 892.938 41.9915 892.872 42.2026C892.816 42.4136 892.783 42.6024 892.772 42.769H896.62ZM892.772 44.2683C892.805 45.0346 893 45.5899 893.355 45.9342C893.71 46.2785 894.221 46.4507 894.888 46.4507C895.365 46.4507 895.776 46.3341 896.12 46.1008C896.465 45.8565 896.676 45.6011 896.753 45.3345H898.836C898.503 46.3674 897.992 47.1059 897.303 47.5502C896.615 47.9944 895.782 48.2166 894.804 48.2166C894.127 48.2166 893.516 48.1111 892.972 47.9C892.428 47.6779 891.967 47.3669 891.589 46.9671C891.211 46.5673 890.917 46.0897 890.706 45.5344C890.506 44.9791 890.406 44.3683 890.406 43.7019C890.406 43.0577 890.512 42.458 890.723 41.9027C890.934 41.3474 891.234 40.8698 891.622 40.47C892.011 40.0591 892.472 39.737 893.005 39.5037C893.549 39.2705 894.149 39.1539 894.804 39.1539C895.537 39.1539 896.176 39.2983 896.72 39.587C897.264 39.8647 897.709 40.2423 898.053 40.7199C898.408 41.1974 898.664 41.7416 898.819 42.3525C898.975 42.9633 899.03 43.6019 898.986 44.2683H892.772ZM901.222 39.3871H903.471V40.9864H903.504C903.615 40.7199 903.765 40.4755 903.954 40.2534C904.143 40.0202 904.359 39.8258 904.604 39.6703C904.848 39.5037 905.109 39.376 905.387 39.2872C905.664 39.1983 905.953 39.1539 906.253 39.1539C906.408 39.1539 906.581 39.1817 906.769 39.2372V41.4362C906.658 41.414 906.525 41.3974 906.37 41.3862C906.214 41.364 906.064 41.3529 905.92 41.3529C905.487 41.3529 905.12 41.4251 904.82 41.5695C904.52 41.7139 904.276 41.9138 904.087 42.1692C903.909 42.4136 903.782 42.7023 903.704 43.0355C903.626 43.3687 903.587 43.7297 903.587 44.1184V48H901.222V39.3871ZM913.294 48H910.662L907.713 39.3871H910.196L912.012 45.2679H912.045L913.861 39.3871H916.21L913.294 48ZM923.815 42.769C923.704 42.1692 923.504 41.7139 923.215 41.4029C922.938 41.0919 922.51 40.9364 921.933 40.9364C921.555 40.9364 921.239 41.0031 920.983 41.1364C920.739 41.2585 920.539 41.414 920.383 41.6028C920.239 41.7916 920.134 41.9915 920.067 42.2026C920.011 42.4136 919.978 42.6024 919.967 42.769H923.815ZM919.967 44.2683C920 45.0346 920.195 45.5899 920.55 45.9342C920.905 46.2785 921.416 46.4507 922.083 46.4507C922.56 46.4507 922.971 46.3341 923.315 46.1008C923.66 45.8565 923.871 45.6011 923.948 45.3345H926.031C925.698 46.3674 925.187 47.1059 924.498 47.5502C923.81 47.9944 922.977 48.2166 921.999 48.2166C921.322 48.2166 920.711 48.1111 920.167 47.9C919.623 47.6779 919.162 47.3669 918.784 46.9671C918.406 46.5673 918.112 46.0897 917.901 45.5344C917.701 44.9791 917.601 44.3683 917.601 43.7019C917.601 43.0577 917.707 42.458 917.918 41.9027C918.129 41.3474 918.429 40.8698 918.817 40.47C919.206 40.0591 919.667 39.737 920.2 39.5037C920.744 39.2705 921.344 39.1539 921.999 39.1539C922.732 39.1539 923.371 39.2983 923.915 39.587C924.459 39.8647 924.904 40.2423 925.248 40.7199C925.603 41.1974 925.859 41.7416 926.014 42.3525C926.17 42.9633 926.225 43.6019 926.181 44.2683H919.967ZM934.531 43.6686C934.531 43.3132 934.498 42.9744 934.431 42.6524C934.364 42.3192 934.248 42.0304 934.081 41.7861C933.926 41.5306 933.72 41.3252 933.465 41.1697C933.209 41.0142 932.887 40.9364 932.498 40.9364C932.11 40.9364 931.782 41.0142 931.515 41.1697C931.249 41.3252 931.032 41.5306 930.866 41.7861C930.71 42.0415 930.594 42.3358 930.516 42.669C930.449 42.9911 930.416 43.3298 930.416 43.6852C930.416 44.0184 930.455 44.3516 930.533 44.6848C930.61 45.018 930.732 45.3178 930.899 45.5844C931.077 45.8398 931.293 46.0509 931.549 46.2175C931.815 46.3729 932.132 46.4507 932.498 46.4507C932.887 46.4507 933.209 46.3729 933.465 46.2175C933.731 46.062 933.942 45.8565 934.098 45.6011C934.253 45.3345 934.364 45.0346 934.431 44.7015C934.498 44.3683 934.531 44.024 934.531 43.6686ZM934.564 46.9005H934.531C934.253 47.3669 933.887 47.7057 933.431 47.9167C932.987 48.1166 932.482 48.2166 931.915 48.2166C931.271 48.2166 930.705 48.0944 930.216 47.8501C929.727 47.5946 929.322 47.2559 929 46.8338C928.689 46.4007 928.45 45.9065 928.284 45.3512C928.128 44.7959 928.05 44.2183 928.05 43.6186C928.05 43.0411 928.128 42.4858 928.284 41.9527C928.45 41.4085 928.689 40.9309 929 40.52C929.322 40.109 929.722 39.7814 930.199 39.5371C930.677 39.2816 931.232 39.1539 931.865 39.1539C932.376 39.1539 932.859 39.265 933.315 39.4871C933.781 39.6981 934.148 40.0146 934.414 40.4367H934.448V36.1052H936.813V48H934.564V46.9005ZM939.534 45.4345H942.15V48H939.534V45.4345Z" fill="#732222"/>
<defs>
<filter id="filter0_dd_141_137" x="0.263441" y="0.263441" width="1483.47" height="83.4731" filterUnits="userSpaceOnUse" color-interpolation-filters="sRGB">
<feFlood flood-opacity="0" result="BackgroundImageFix"/>
<feColorMatrix in="SourceAlpha" type="matrix" values="0 0 0 0 0 0 0 0 0 0 0 0 0 0 0 0 0 0 127 0" result="hardAlpha"/>
<feOffset/>
<feGaussianBlur stdDeviation="5.43414"/>
<feColorMatrix type="matrix" values="0 0 0 0 0.45098 0 0 0 0 0.133333 0 0 0 0 0.133333 0 0 0 1 0"/>
<feBlend mode="normal" in2="BackgroundImageFix" result="effect1_dropShadow_141_137"/>
<feColorMatrix in="SourceAlpha" type="matrix" values="0 0 0 0 0 0 0 0 0 0 0 0 0 0 0 0 0 0 127 0" result="hardAlpha"/>
<feOffset/>
<feGaussianBlur stdDeviation="10.8683"/>
<feColorMatrix type="matrix" values="0 0 0 0 0.45098 0 0 0 0 0.133333 0 0 0 0 0.133333 0 0 0 1 0"/>
<feBlend mode="normal" in2="effect1_dropShadow_141_137" result="effect2_dropShadow_141_137"/>
<feBlend mode="normal" in="SourceGraphic" in2="effect2_dropShadow_141_137" result="shape"/>
</filter>
<linearGradient id="paint0_linear_141_137" x1="283.181" y1="62" x2="283.181" y2="22" gradientUnits="userSpaceOnUse">
<stop offset="0.0208333" stop-color="#4F534F" stop-opacity="0.8"/>
<stop offset="0.265625" stop-color="#4F534F" stop-opacity="0.4"/>
<stop offset="0.53409" stop-color="#A8AEAA" stop-opacity="0.5"/>
<stop offset="0.78125" stop-color="#4F534F" stop-opacity="0.4"/>
<stop offset="1" stop-color="#4F534F" stop-opacity="0.8"/>
</linearGradient>
</defs>
</svg>
