<svg width="48" height="48" viewBox="0 0 48 48" fill="none" xmlns="http://www.w3.org/2000/svg">
<g filter="url(#filter0_d_187_21)">
<path d="M34.0119 0C35.3819 0 36.6722 0.262843 37.8829 0.78853C39.0936 1.31422 40.1529 2.03106 41.0609 2.93907C41.9689 3.84707 42.6858 4.90641 43.2115 6.11708C43.7372 7.32776 44 8.61808 44 9.98805V29.9642C44 31.3341 43.7372 32.6324 43.2115 33.859C42.6858 35.0856 41.9689 36.1529 41.0609 37.0609C40.1529 37.9689 39.0936 38.6858 37.8829 39.2115C36.6722 39.7372 35.3819 40 34.0119 40H13.9881C12.6181 40 11.3278 39.7372 10.1171 39.2115C8.90641 38.6858 7.84707 37.9689 6.93907 37.0609C6.03106 36.1529 5.31422 35.0856 4.78853 33.859C4.26284 32.6324 4 31.3341 4 29.9642V9.98805C4 8.61808 4.26284 7.32776 4.78853 6.11708C5.31422 4.90641 6.03106 3.84707 6.93907 2.93907C7.84707 2.03106 8.90641 1.31422 10.1171 0.78853C11.3278 0.262843 12.6181 0 13.9881 0H34.0119ZM31.4791 8.74552H27.2736C26.4452 8.74552 25.6806 8.88889 24.9797 9.17563C24.2788 9.46237 23.6734 9.83672 23.1637 10.2987C22.6539 10.7607 22.2477 11.2943 21.945 11.8996C21.6424 12.505 21.491 13.1103 21.491 13.7157V16.2485H17.7634V21.2186H21.491V31.2545H26.509V21.2186H30.2366V16.2485H26.509V15.006C26.509 14.5918 26.6603 14.2732 26.963 14.0502C27.2656 13.8272 27.5285 13.7157 27.7515 13.7157H31.4791V8.74552Z" fill="#D98236"/>
</g>
<defs>
<filter id="filter0_d_187_21" x="0" y="0" width="48" height="48" filterUnits="userSpaceOnUse" color-interpolation-filters="sRGB">
<feFlood flood-opacity="0" result="BackgroundImageFix"/>
<feColorMatrix in="SourceAlpha" type="matrix" values="0 0 0 0 0 0 0 0 0 0 0 0 0 0 0 0 0 0 127 0" result="hardAlpha"/>
<feOffset dy="4"/>
<feGaussianBlur stdDeviation="2"/>
<feComposite in2="hardAlpha" operator="out"/>
<feColorMatrix type="matrix" values="0 0 0 0 0 0 0 0 0 0 0 0 0 0 0 0 0 0 0.25 0"/>
<feBlend mode="normal" in2="BackgroundImageFix" result="effect1_dropShadow_187_21"/>
<feBlend mode="normal" in="SourceGraphic" in2="effect1_dropShadow_187_21" result="shape"/>
</filter>
</defs>
</svg>
