<svg width="40" height="41" viewBox="0 0 40 41" fill="none" xmlns="http://www.w3.org/2000/svg">
<path d="M35.3684 17.0105H31.9158C32.1965 18.0211 32.3368 19.0316 32.3368 20.0421C32.3368 21.7263 32.014 23.3263 31.3684 24.8421C30.7228 26.3579 29.8386 27.6772 28.7158 28.8C27.593 29.9228 26.2737 30.807 24.7579 31.4526C23.2421 32.0982 21.6421 32.4211 19.9579 32.4211C18.2737 32.4211 16.6877 32.0982 15.2 31.4526C13.7123 30.807 12.407 29.9228 11.2842 28.8C10.1614 27.6772 9.27719 26.3579 8.63158 24.8421C7.98597 23.3263 7.66316 21.7263 7.66316 20.0421C7.66316 19.0316 7.80351 18.0211 8.08421 17.0105H4.54737V33.9368C4.54737 34.386 4.70175 34.7509 5.01053 35.0316C5.3193 35.3123 5.69825 35.4526 6.14737 35.4526H33.8526C34.3018 35.4526 34.6667 35.3123 34.9474 35.0316C35.2281 34.7509 35.3684 34.386 35.3684 33.9368V17.0105ZM35.3684 6.23158C35.3684 5.78246 35.2281 5.40351 34.9474 5.09474C34.6667 4.78596 34.3018 4.63158 33.8526 4.63158H29.2211C28.7719 4.63158 28.407 4.78596 28.1263 5.09474C27.8456 5.40351 27.7053 5.78246 27.7053 6.23158V10.7789C27.7053 11.2281 27.8456 11.607 28.1263 11.9158C28.407 12.2246 28.7719 12.3789 29.2211 12.3789H33.8526C34.3018 12.3789 34.6667 12.2246 34.9474 11.9158C35.2281 11.607 35.3684 11.2281 35.3684 10.7789V6.23158ZM19.9579 12.3789C17.8246 12.3789 16.014 13.1228 14.5263 14.6105C13.0386 16.0982 12.2947 17.9088 12.2947 20.0421C12.2947 21.1088 12.4912 22.1193 12.8842 23.0737C13.2772 24.0281 13.8246 24.8561 14.5263 25.5579C15.2281 26.2596 16.0421 26.807 16.9684 27.2C17.8947 27.593 18.8912 27.7895 19.9579 27.7895C21.0246 27.7895 22.0351 27.593 22.9895 27.2C23.9439 26.807 24.7719 26.2596 25.4737 25.5579C26.1754 24.8561 26.7228 24.0281 27.1158 23.0737C27.5088 22.1193 27.7053 21.1088 27.7053 20.0421C27.7053 18.9754 27.5088 17.9789 27.1158 17.0526C26.7228 16.1263 26.1754 15.3123 25.4737 14.6105C24.7719 13.9088 23.9439 13.3614 22.9895 12.9684C22.0351 12.5754 21.0246 12.3789 19.9579 12.3789ZM4.54737 40.0842C3.25614 40.0842 2.17544 39.6351 1.30526 38.7368C0.435088 37.8386 0 36.7439 0 35.4526V4.63158C0 3.34035 0.435088 2.24561 1.30526 1.34737C2.17544 0.449123 3.25614 0 4.54737 0H35.3684C36.6597 0 37.7544 0.449123 38.6526 1.34737C39.5509 2.24561 40 3.34035 40 4.63158V35.4526C40 36.7439 39.5509 37.8386 38.6526 38.7368C37.7544 39.6351 36.6597 40.0842 35.3684 40.0842H4.54737Z" fill="#D98236"/>
</svg>
