<svg width="310" height="208" viewBox="0 0 310 208" fill="none" xmlns="http://www.w3.org/2000/svg">
<g filter="url(#filter0_dddddd_114_43)">
<mask id="path-1-outside-1_114_43" maskUnits="userSpaceOnUse" x="83" y="83" width="144" height="42" fill="black">
<rect fill="white" x="83" y="83" width="144" height="42"/>
<path fill-rule="evenodd" clip-rule="evenodd" d="M104 85C93.5066 85 85 93.5066 85 104C85 114.493 93.5066 123 104 123H206C216.493 123 225 114.493 225 104C225 93.5066 216.493 85 206 85H104ZM124.576 110.304C124.892 109.562 125.051 108.765 125.051 107.914C125.051 107.083 124.892 106.301 124.576 105.569C124.259 104.827 123.824 104.183 123.27 103.639C122.725 103.085 122.082 102.649 121.34 102.333C120.608 102.006 119.821 101.843 118.98 101.843H106.57C106.155 101.843 105.759 101.764 105.383 101.605C105.017 101.447 104.695 101.229 104.418 100.952C104.141 100.675 103.923 100.354 103.765 99.9875C103.607 99.6115 103.527 99.2156 103.527 98.8C103.527 98.3844 103.607 97.9935 103.765 97.6273C103.923 97.2513 104.141 96.9247 104.418 96.6477C104.695 96.3706 105.017 96.1529 105.383 95.9945C105.759 95.8362 106.155 95.757 106.57 95.757H123.537V92.7141H106.57C105.739 92.7141 104.952 92.8773 104.21 93.2039C103.468 93.5206 102.82 93.956 102.266 94.5102C101.721 95.0544 101.286 95.6977 100.959 96.4398C100.643 97.182 100.484 97.9687 100.484 98.8C100.484 99.6411 100.643 100.433 100.959 101.175C101.286 101.917 101.721 102.565 102.266 103.12C102.82 103.664 103.468 104.094 104.21 104.411C104.952 104.728 105.739 104.886 106.57 104.886H118.98C119.405 104.886 119.801 104.965 120.167 105.123C120.533 105.282 120.85 105.499 121.117 105.777C121.394 106.054 121.612 106.375 121.77 106.741C121.929 107.108 122.008 107.498 122.008 107.914C122.008 108.33 121.929 108.726 121.77 109.102C121.612 109.468 121.394 109.789 121.117 110.066C120.85 110.343 120.533 110.561 120.167 110.72C119.801 110.878 119.405 110.957 118.98 110.957H100.484V114H118.98C119.821 114 120.608 113.842 121.34 113.525C122.082 113.208 122.725 112.778 123.27 112.234C123.824 111.679 124.259 111.036 124.576 110.304ZM148.059 114H151.102V92.7141H148.059V101.843H133.185V104.886H148.059V114ZM128.628 114H131.671V92.7141H128.628V114ZM180.923 107.513C181.388 106.217 181.62 104.832 181.62 103.357C181.62 101.892 181.388 100.517 180.923 99.2305C180.458 97.9341 179.795 96.806 178.934 95.8461C178.083 94.8763 177.058 94.1143 175.861 93.5602C174.664 92.9961 173.333 92.7141 171.868 92.7141H164.788C163.313 92.7141 161.972 92.9961 160.765 93.5602C159.558 94.1143 158.523 94.8763 157.663 95.8461C156.811 96.806 156.153 97.9341 155.688 99.2305C155.223 100.517 154.991 101.892 154.991 103.357C154.991 104.832 155.223 106.217 155.688 107.513C156.153 108.81 156.811 109.938 157.663 110.898C158.523 111.858 159.558 112.615 160.765 113.169C161.972 113.723 163.313 114 164.788 114H171.868C173.333 114 174.664 113.723 175.861 113.169C177.058 112.615 178.083 111.858 178.934 110.898C179.795 109.938 180.458 108.81 180.923 107.513ZM178.117 100.403C178.424 101.323 178.577 102.308 178.577 103.357C178.577 104.406 178.424 105.396 178.117 106.326C177.81 107.246 177.365 108.053 176.781 108.745C176.207 109.428 175.505 109.967 174.673 110.363C173.852 110.759 172.917 110.957 171.868 110.957H164.788C163.739 110.957 162.793 110.759 161.952 110.363C161.121 109.967 160.414 109.428 159.83 108.745C159.256 108.053 158.81 107.246 158.494 106.326C158.187 105.396 158.034 104.406 158.034 103.357C158.034 102.308 158.187 101.323 158.494 100.403C158.81 99.4828 159.256 98.6812 159.83 97.9984C160.414 97.3057 161.121 96.7615 161.952 96.3656C162.793 95.9599 163.739 95.757 164.788 95.757H171.868C172.917 95.757 173.852 95.9599 174.673 96.3656C175.505 96.7615 176.207 97.3057 176.781 97.9984C177.365 98.6812 177.81 99.4828 178.117 100.403ZM207.834 105.702C208.527 105.01 209.071 104.203 209.467 103.283C209.873 102.353 210.076 101.363 210.076 100.314C210.076 99.2651 209.873 98.2805 209.467 97.3602C209.071 96.4398 208.527 95.6383 207.834 94.9555C207.152 94.2628 206.35 93.7185 205.43 93.3227C204.509 92.9169 203.525 92.7141 202.476 92.7141H185.509V114H188.552V95.757H202.476C203.109 95.757 203.703 95.8758 204.257 96.1133C204.811 96.3508 205.291 96.6773 205.697 97.093C206.113 97.4987 206.439 97.9786 206.677 98.5328C206.914 99.087 207.033 99.6807 207.033 100.314C207.033 100.947 206.914 101.546 206.677 102.11C206.439 102.664 206.113 103.149 205.697 103.565C205.291 103.98 204.811 104.312 204.257 104.559C203.703 104.797 203.109 104.916 202.476 104.916H190.259V107.914H202.476C203.525 107.914 204.509 107.716 205.43 107.32C206.35 106.924 207.152 106.385 207.834 105.702Z"/>
</mask>
<path d="M124.576 110.304L126.412 111.098L126.415 111.089L124.576 110.304ZM124.576 105.569L122.736 106.354L122.74 106.363L124.576 105.569ZM123.27 103.639L121.843 105.04L121.855 105.053L121.868 105.066L123.27 103.639ZM121.34 102.333L120.525 104.159L120.54 104.166L120.555 104.172L121.34 102.333ZM105.383 101.605L104.589 103.441L104.598 103.445L104.607 103.449L105.383 101.605ZM104.418 100.952L103.004 102.367L103.004 102.367L104.418 100.952ZM103.765 99.9875L101.922 100.764L101.925 100.772L101.929 100.781L103.765 99.9875ZM103.765 97.6273L105.601 98.4212L105.604 98.4123L105.608 98.4035L103.765 97.6273ZM104.418 96.6477L103.004 95.2334L103.004 95.2334L104.418 96.6477ZM105.383 95.9945L104.607 94.1513L104.598 94.155L104.589 94.1588L105.383 95.9945ZM123.537 95.757V97.757H125.537V95.757H123.537ZM123.537 92.7141H125.537V90.7141H123.537V92.7141ZM104.21 93.2039L104.995 95.0435L105.005 95.0391L105.016 95.0345L104.21 93.2039ZM102.266 94.5102L103.68 95.9244L103.68 95.9244L102.266 94.5102ZM100.959 96.4398L99.1287 95.6344L99.1242 95.6446L99.1198 95.655L100.959 96.4398ZM100.959 101.175L99.1198 101.96L99.1242 101.97L99.1287 101.98L100.959 101.175ZM102.266 103.12L100.839 104.521L100.851 104.534L100.864 104.546L102.266 103.12ZM104.21 104.411L104.995 102.571L104.995 102.571L104.21 104.411ZM120.167 105.123L119.373 106.959L119.373 106.959L120.167 105.123ZM121.117 105.777L119.677 107.165L119.69 107.178L119.703 107.191L121.117 105.777ZM121.77 109.102L123.606 109.895L123.61 109.887L123.614 109.878L121.77 109.102ZM121.117 110.066L119.703 108.652L119.69 108.665L119.677 108.678L121.117 110.066ZM120.167 110.72L120.961 112.555L120.961 112.555L120.167 110.72ZM100.484 110.957V108.957H98.4844V110.957H100.484ZM100.484 114H98.4844V116H100.484V114ZM121.34 113.525L120.555 111.685L120.546 111.689L121.34 113.525ZM123.27 112.234L121.855 110.819L121.855 110.819L123.27 112.234ZM151.102 114V116H153.102V114H151.102ZM148.059 114H146.059V116H148.059V114ZM151.102 92.7141H153.102V90.7141H151.102V92.7141ZM148.059 92.7141V90.7141H146.059V92.7141H148.059ZM148.059 101.843V103.843H150.059V101.843H148.059ZM133.185 101.843V99.843H131.185V101.843H133.185ZM133.185 104.886H131.185V106.886H133.185V104.886ZM148.059 104.886H150.059V102.886H148.059V104.886ZM131.671 114V116H133.671V114H131.671ZM128.628 114H126.628V116H128.628V114ZM131.671 92.7141H133.671V90.7141H131.671V92.7141ZM128.628 92.7141V90.7141H126.628V92.7141H128.628ZM180.923 99.2305L179.04 99.9059L179.042 99.9105L180.923 99.2305ZM178.934 95.8461L177.43 97.1653L177.437 97.1734L177.445 97.1815L178.934 95.8461ZM175.861 93.5602L175.009 95.3695L175.021 95.3752L175.861 93.5602ZM160.765 93.5602L161.599 95.3779L161.611 95.3721L160.765 93.5602ZM157.663 95.8461L156.167 94.5183L156.166 94.5193L157.663 95.8461ZM155.688 99.2305L157.569 99.9105L157.571 99.9059L155.688 99.2305ZM157.663 110.898L156.166 112.224L156.174 112.233L157.663 110.898ZM178.934 110.898L177.445 109.562L177.437 109.571L178.934 110.898ZM178.117 100.403L176.22 101.036L176.22 101.036L178.117 100.403ZM178.117 106.326L180.015 106.958L180.017 106.952L178.117 106.326ZM176.781 108.745L175.252 107.456L175.25 107.458L176.781 108.745ZM174.673 110.363L173.814 108.558L173.805 108.562L174.673 110.363ZM161.952 110.363L161.092 112.169L161.101 112.173L161.952 110.363ZM159.83 108.745L158.29 110.021L158.3 110.033L158.31 110.045L159.83 108.745ZM158.494 106.326L156.594 106.952L156.598 106.964L156.603 106.977L158.494 106.326ZM158.494 100.403L156.603 99.7524L156.599 99.7615L156.596 99.7707L158.494 100.403ZM159.83 97.9984L158.3 96.7095L158.299 96.7115L159.83 97.9984ZM161.952 96.3656L162.812 98.1714L162.821 98.167L161.952 96.3656ZM174.673 96.3656L173.788 98.1588L173.801 98.1652L173.814 98.1713L174.673 96.3656ZM176.781 97.9984L175.241 99.2745L175.251 99.2864L175.261 99.2982L176.781 97.9984ZM209.467 103.283L207.634 102.483L207.63 102.493L209.467 103.283ZM207.834 105.702L209.249 107.117L209.249 107.117L207.834 105.702ZM209.467 97.3602L207.63 98.1504L207.633 98.1587L207.637 98.167L209.467 97.3602ZM207.834 94.9555L206.41 96.3595L206.42 96.3697L206.43 96.3798L207.834 94.9555ZM205.43 93.3227L204.623 95.1527L204.631 95.1564L204.639 95.1599L205.43 93.3227ZM185.509 92.7141V90.7141H183.509V92.7141H185.509ZM185.509 114H183.509V116H185.509V114ZM188.552 114V116H190.552V114H188.552ZM188.552 95.757V93.757H186.552V95.757H188.552ZM205.697 97.093L204.266 98.49L204.283 98.5073L204.3 98.5241L205.697 97.093ZM206.677 98.5328L204.838 99.3207L204.838 99.3207L206.677 98.5328ZM206.677 102.11L208.515 102.898L208.52 102.886L206.677 102.11ZM205.697 103.565L204.283 102.151L204.274 102.159L204.266 102.168L205.697 103.565ZM204.257 104.559L205.045 106.398L205.059 106.392L205.072 106.386L204.257 104.559ZM190.259 104.916V102.916H188.259V104.916H190.259ZM190.259 107.914H188.259V109.914H190.259V107.914ZM205.43 107.32L206.22 109.158L206.22 109.158L205.43 107.32ZM87 104C87 94.6112 94.6112 87 104 87V83C92.402 83 83 92.402 83 104H87ZM104 121C94.6112 121 87 113.389 87 104H83C83 115.598 92.402 125 104 125V121ZM206 121H104V125H206V121ZM223 104C223 113.389 215.389 121 206 121V125C217.598 125 227 115.598 227 104H223ZM206 87C215.389 87 223 94.6112 223 104H227C227 92.402 217.598 83 206 83V87ZM104 87H206V83H104V87ZM123.051 107.914C123.051 108.51 122.941 109.038 122.736 109.519L126.415 111.089C126.844 110.085 127.051 109.02 127.051 107.914H123.051ZM122.74 106.363C122.944 106.834 123.051 107.344 123.051 107.914H127.051C127.051 106.821 126.841 105.768 126.411 104.775L122.74 106.363ZM121.868 105.066C122.228 105.42 122.518 105.843 122.736 106.354L126.415 104.784C126 103.811 125.419 102.947 124.671 102.212L121.868 105.066ZM120.555 104.172C121.066 104.39 121.489 104.68 121.843 105.04L124.696 102.238C123.962 101.49 123.098 100.909 122.125 100.493L120.555 104.172ZM118.98 103.843C119.554 103.843 120.062 103.953 120.525 104.159L122.154 100.506C121.153 100.06 120.087 99.843 118.98 99.843V103.843ZM106.57 103.843H118.98V99.843H106.57V103.843ZM104.607 103.449C105.233 103.712 105.893 103.843 106.57 103.843V99.843C106.416 99.843 106.285 99.8151 106.159 99.7622L104.607 103.449ZM103.004 102.367C103.462 102.825 103.996 103.185 104.589 103.441L106.177 99.7698C106.038 99.7097 105.928 99.6336 105.832 99.5381L103.004 102.367ZM101.929 100.781C102.186 101.375 102.545 101.908 103.004 102.367L105.832 99.5381C105.737 99.4427 105.661 99.3326 105.601 99.1937L101.929 100.781ZM101.527 98.8C101.527 99.4771 101.658 100.137 101.922 100.764L105.608 99.2114C105.555 99.0857 105.527 98.9542 105.527 98.8H101.527ZM101.929 96.8335C101.658 97.4608 101.527 98.123 101.527 98.8H105.527C105.527 98.6457 105.555 98.5262 105.601 98.4212L101.929 96.8335ZM103.004 95.2334C102.536 95.701 102.176 96.2467 101.922 96.8512L105.608 98.4035C105.67 98.2559 105.746 98.1485 105.832 98.0619L103.004 95.2334ZM104.589 94.1588C103.996 94.4154 103.462 94.7747 103.004 95.2334L105.832 98.0619C105.928 97.9664 106.038 97.8903 106.177 97.8302L104.589 94.1588ZM106.57 93.757C105.893 93.757 105.233 93.8875 104.607 94.1513L106.159 97.8378C106.285 97.7849 106.416 97.757 106.57 97.757V93.757ZM123.537 93.757H106.57V97.757H123.537V93.757ZM121.537 92.7141V95.757H125.537V92.7141H121.537ZM106.57 94.7141H123.537V90.7141H106.57V94.7141ZM105.016 95.0345C105.498 94.8225 106.009 94.7141 106.57 94.7141V90.7141C105.469 90.7141 104.407 90.9322 103.405 91.3733L105.016 95.0345ZM103.68 95.9244C104.048 95.5563 104.481 95.2629 104.995 95.0435L103.425 91.3643C102.455 91.7783 101.592 92.3557 100.851 93.0959L103.68 95.9244ZM102.79 97.2453C103.022 96.7178 103.32 96.2841 103.68 95.9244L100.851 93.0959C100.123 93.8248 99.5498 94.6775 99.1287 95.6344L102.79 97.2453ZM102.484 98.8C102.484 98.2302 102.591 97.7112 102.799 97.2247L99.1198 95.655C98.6941 96.6528 98.4844 97.7073 98.4844 98.8H102.484ZM102.799 100.39C102.593 99.9066 102.484 99.383 102.484 98.8H98.4844C98.4844 99.8992 98.6928 100.959 99.1198 101.96L102.799 100.39ZM103.693 101.718C103.325 101.344 103.023 100.9 102.79 100.37L99.1287 101.98C99.5484 102.934 100.118 103.787 100.839 104.521L103.693 101.718ZM104.995 102.571C104.473 102.349 104.036 102.055 103.667 101.693L100.864 104.546C101.603 105.272 102.463 105.84 103.425 106.25L104.995 102.571ZM106.57 102.886C106.001 102.886 105.482 102.779 104.995 102.571L103.425 106.25C104.423 106.676 105.478 106.886 106.57 106.886V102.886ZM118.98 102.886H106.57V106.886H118.98V102.886ZM120.961 103.288C120.328 103.014 119.66 102.886 118.98 102.886V106.886C119.151 106.886 119.274 106.916 119.373 106.959L120.961 103.288ZM122.557 104.388C122.099 103.914 121.561 103.547 120.961 103.288L119.373 106.959C119.506 107.016 119.601 107.085 119.677 107.165L122.557 104.388ZM123.606 105.948C123.349 105.354 122.99 104.821 122.531 104.362L119.703 107.191C119.798 107.286 119.875 107.396 119.935 107.535L123.606 105.948ZM124.008 107.914C124.008 107.237 123.877 106.575 123.606 105.948L119.935 107.535C119.98 107.64 120.008 107.76 120.008 107.914H124.008ZM123.614 109.878C123.877 109.251 124.008 108.591 124.008 107.914H120.008C120.008 108.068 119.98 108.2 119.927 108.325L123.614 109.878ZM122.531 111.481C122.99 111.022 123.349 110.489 123.606 109.895L119.935 108.308C119.875 108.447 119.798 108.557 119.703 108.652L122.531 111.481ZM120.961 112.555C121.561 112.296 122.099 111.929 122.557 111.455L119.677 108.678C119.601 108.758 119.506 108.827 119.373 108.884L120.961 112.555ZM118.98 112.957C119.66 112.957 120.328 112.829 120.961 112.555L119.373 108.884C119.274 108.927 119.151 108.957 118.98 108.957V112.957ZM100.484 112.957H118.98V108.957H100.484V112.957ZM102.484 114V110.957H98.4844V114H102.484ZM118.98 112H100.484V116H118.98V112ZM120.546 111.689C120.078 111.892 119.563 112 118.98 112V116C120.079 116 121.137 115.792 122.134 115.361L120.546 111.689ZM121.855 110.819C121.5 111.174 121.074 111.464 120.555 111.685L122.125 115.365C123.09 114.953 123.95 114.381 124.684 113.648L121.855 110.819ZM122.74 109.51C122.522 110.015 122.228 110.447 121.855 110.819L124.684 113.648C125.42 112.912 125.997 112.057 126.411 111.098L122.74 109.51ZM151.102 112H148.059V116H151.102V112ZM149.102 92.7141V114H153.102V92.7141H149.102ZM148.059 94.7141H151.102V90.7141H148.059V94.7141ZM150.059 101.843V92.7141H146.059V101.843H150.059ZM133.185 103.843H148.059V99.843H133.185V103.843ZM135.185 104.886V101.843H131.185V104.886H135.185ZM148.059 102.886H133.185V106.886H148.059V102.886ZM150.059 114V104.886H146.059V114H150.059ZM131.671 112H128.628V116H131.671V112ZM129.671 92.7141V114H133.671V92.7141H129.671ZM128.628 94.7141H131.671V90.7141H128.628V94.7141ZM130.628 114V92.7141H126.628V114H130.628ZM179.62 103.357C179.62 104.618 179.422 105.773 179.04 106.838L182.805 108.189C183.353 106.661 183.62 105.045 183.62 103.357H179.62ZM179.042 99.9105C179.423 100.964 179.62 102.108 179.62 103.357H183.62C183.62 101.677 183.353 100.07 182.804 98.5505L179.042 99.9105ZM177.445 97.1815C178.122 97.9361 178.656 98.8361 179.04 99.9059L182.805 98.5551C182.259 97.0321 181.468 95.6759 180.422 94.5107L177.445 97.1815ZM175.021 95.3752C175.971 95.8149 176.768 96.41 177.43 97.1653L180.437 94.5269C179.398 93.3426 178.146 92.4138 176.701 91.7451L175.021 95.3752ZM171.868 94.7141C173.07 94.7141 174.105 94.9438 175.009 95.3695L176.713 91.7509C175.222 91.0484 173.596 90.7141 171.868 90.7141V94.7141ZM164.788 94.7141H171.868V90.7141H164.788V94.7141ZM161.611 95.3721C162.527 94.9446 163.574 94.7141 164.788 94.7141V90.7141C163.052 90.7141 161.418 91.0476 159.918 91.7482L161.611 95.3721ZM159.158 97.1739C159.83 96.4166 160.638 95.8192 161.599 95.3778L159.931 91.7425C158.478 92.4094 157.216 93.336 156.167 94.5183L159.158 97.1739ZM157.571 99.9059C157.956 98.8314 158.489 97.9286 159.159 97.1729L156.166 94.5193C155.134 95.6834 154.351 97.0368 153.806 98.5551L157.571 99.9059ZM156.991 103.357C156.991 102.108 157.188 100.964 157.569 99.9105L153.807 98.5505C153.258 100.07 152.991 101.677 152.991 103.357H156.991ZM157.571 106.838C157.189 105.773 156.991 104.618 156.991 103.357H152.991C152.991 105.045 153.258 106.661 153.806 108.189L157.571 106.838ZM159.159 109.571C158.489 108.815 157.956 107.912 157.571 106.838L153.806 108.189C154.351 109.707 155.134 111.06 156.166 112.224L159.159 109.571ZM161.599 111.351C160.633 110.908 159.824 110.312 159.151 109.562L156.174 112.233C157.223 113.403 158.482 114.322 159.931 114.986L161.599 111.351ZM164.788 112C163.569 112 162.517 111.772 161.599 111.351L159.931 114.986C161.427 115.673 163.057 116 164.788 116V112ZM171.868 112H164.788V116H171.868V112ZM175.021 111.354C174.115 111.773 173.075 112 171.868 112V116C173.59 116 175.213 115.673 176.701 114.984L175.021 111.354ZM177.437 109.571C176.774 110.319 175.975 110.912 175.021 111.354L176.701 114.984C178.141 114.317 179.391 113.397 180.43 112.224L177.437 109.571ZM179.04 106.838C178.656 107.908 178.122 108.808 177.445 109.562L180.422 112.233C181.468 111.068 182.259 109.712 182.805 108.189L179.04 106.838ZM180.577 103.357C180.577 102.111 180.395 100.911 180.015 99.7707L176.22 101.036C176.453 101.736 176.577 102.506 176.577 103.357H180.577ZM180.017 106.952C180.395 105.806 180.577 104.604 180.577 103.357H176.577C176.577 104.208 176.453 104.985 176.218 105.699L180.017 106.952ZM178.311 110.034C179.069 109.135 179.633 108.102 180.015 106.958L176.22 105.693C175.987 106.391 175.661 106.971 175.252 107.456L178.311 110.034ZM175.533 112.169C176.614 111.654 177.548 110.941 178.312 110.032L175.25 107.458C174.866 107.915 174.395 108.281 173.814 108.558L175.533 112.169ZM171.868 112.957C173.172 112.957 174.412 112.71 175.542 112.165L173.805 108.562C173.293 108.809 172.662 108.957 171.868 108.957V112.957ZM164.788 112.957H171.868V108.957H164.788V112.957ZM161.101 112.173C162.241 112.709 163.482 112.957 164.788 112.957V108.957C163.995 108.957 163.346 108.809 162.804 108.554L161.101 112.173ZM158.31 110.045C159.08 110.946 160.015 111.656 161.092 112.169L162.812 108.558C162.228 108.279 161.747 107.91 161.35 107.446L158.31 110.045ZM156.603 106.977C156.991 108.106 157.55 109.128 158.29 110.021L161.37 107.469C160.962 106.977 160.63 106.386 160.385 105.675L156.603 106.977ZM156.034 103.357C156.034 104.604 156.216 105.806 156.594 106.952L160.393 105.699C160.158 104.985 160.034 104.208 160.034 103.357H156.034ZM156.596 99.7707C156.216 100.911 156.034 102.111 156.034 103.357H160.034C160.034 102.506 160.158 101.736 160.391 101.036L156.596 99.7707ZM158.299 96.7115C157.553 97.5989 156.992 98.6209 156.603 99.7524L160.385 101.054C160.629 100.345 160.959 99.7636 161.361 99.2853L158.299 96.7115ZM161.092 94.5599C160.008 95.0763 159.071 95.7952 158.3 96.7095L161.359 99.2874C161.756 98.8163 162.234 98.4467 162.812 98.1713L161.092 94.5599ZM164.788 93.757C163.475 93.757 162.227 94.0125 161.083 94.5642L162.821 98.167C163.36 97.9073 164.002 97.757 164.788 97.757V93.757ZM171.868 93.757H164.788V97.757H171.868V93.757ZM175.559 94.5725C174.425 94.0122 173.179 93.757 171.868 93.757V97.757C172.654 97.757 173.279 97.9076 173.788 98.1588L175.559 94.5725ZM178.321 96.7224C177.557 95.8004 176.621 95.0777 175.533 94.5599L173.814 98.1713C174.389 98.4452 174.857 98.811 175.241 99.2745L178.321 96.7224ZM180.015 99.7707C179.633 98.6254 179.066 97.5927 178.301 96.6987L175.261 99.2982C175.664 99.7698 175.988 100.34 176.22 101.036L180.015 99.7707ZM207.63 102.493C207.332 103.185 206.929 103.779 206.42 104.288L209.249 107.117C210.125 106.24 210.811 105.221 211.304 104.073L207.63 102.493ZM208.076 100.314C208.076 101.097 207.926 101.814 207.634 102.483L211.3 104.082C211.82 102.891 212.076 101.629 212.076 100.314H208.076ZM207.637 98.167C207.926 98.8221 208.076 99.5307 208.076 100.314H212.076C212.076 98.9995 211.82 97.7388 211.297 96.5534L207.637 98.167ZM206.43 96.3798C206.934 96.8758 207.333 97.4602 207.63 98.1504L211.304 96.5699C210.81 95.4195 210.121 94.4008 209.238 93.5311L206.43 96.3798ZM204.639 95.1599C205.33 95.4568 205.914 95.8563 206.41 96.3595L209.259 93.5515C208.389 92.6692 207.37 91.9802 206.22 91.4854L204.639 95.1599ZM202.476 94.7141C203.259 94.7141 203.968 94.8639 204.623 95.1527L206.236 91.4926C205.051 90.97 203.79 90.7141 202.476 90.7141V94.7141ZM185.509 94.7141H202.476V90.7141H185.509V94.7141ZM187.509 114V92.7141H183.509V114H187.509ZM188.552 112H185.509V116H188.552V112ZM186.552 95.757V114H190.552V95.757H186.552ZM202.476 93.757H188.552V97.757H202.476V93.757ZM205.045 94.275C204.229 93.9254 203.366 93.757 202.476 93.757V97.757C202.852 97.757 203.176 97.8261 203.469 97.9516L205.045 94.275ZM207.128 95.6959C206.532 95.0852 205.831 94.6119 205.045 94.275L203.469 97.9516C203.791 98.0897 204.05 98.2694 204.266 98.49L207.128 95.6959ZM208.515 97.745C208.178 96.9588 207.705 96.2579 207.094 95.6618L204.3 98.5241C204.52 98.7395 204.7 98.9984 204.838 99.3207L208.515 97.745ZM209.033 100.314C209.033 99.4238 208.864 98.5606 208.515 97.745L204.838 99.3207C204.964 99.6134 205.033 99.9377 205.033 100.314H209.033ZM208.52 102.886C208.864 102.068 209.033 101.204 209.033 100.314H205.033C205.033 100.69 204.964 101.024 204.833 101.334L208.52 102.886ZM207.111 104.979C207.711 104.379 208.18 103.68 208.515 102.898L204.838 101.322C204.698 101.649 204.514 101.92 204.283 102.151L207.111 104.979ZM205.072 106.386C205.847 106.04 206.538 105.566 207.128 104.962L204.266 102.168C204.044 102.395 203.776 102.584 203.442 102.733L205.072 106.386ZM202.476 106.916C203.366 106.916 204.229 106.747 205.045 106.398L203.469 102.721C203.176 102.847 202.852 102.916 202.476 102.916V106.916ZM190.259 106.916H202.476V102.916H190.259V106.916ZM192.259 107.914V104.916H188.259V107.914H192.259ZM202.476 105.914H190.259V109.914H202.476V105.914ZM204.639 105.483C203.98 105.766 203.266 105.914 202.476 105.914V109.914C203.783 109.914 205.038 109.666 206.22 109.158L204.639 105.483ZM206.42 104.288C205.923 104.785 205.336 105.184 204.639 105.483L206.22 109.158C207.364 108.665 208.38 107.985 209.249 107.117L206.42 104.288Z" fill="#F2D7B6" mask="url(#path-1-outside-1_114_43)"/>
</g>
<defs>
<filter id="filter0_dddddd_114_43" x="0.455048" y="0.455048" width="309.09" height="207.09" filterUnits="userSpaceOnUse" color-interpolation-filters="sRGB">
<feFlood flood-opacity="0" result="BackgroundImageFix"/>
<feColorMatrix in="SourceAlpha" type="matrix" values="0 0 0 0 0 0 0 0 0 0 0 0 0 0 0 0 0 0 127 0" result="hardAlpha"/>
<feOffset/>
<feGaussianBlur stdDeviation="0.982678"/>
<feColorMatrix type="matrix" values="0 0 0 0 0.45098 0 0 0 0 0.133333 0 0 0 0 0.133333 0 0 0 1 0"/>
<feBlend mode="normal" in2="BackgroundImageFix" result="effect1_dropShadow_114_43"/>
<feColorMatrix in="SourceAlpha" type="matrix" values="0 0 0 0 0 0 0 0 0 0 0 0 0 0 0 0 0 0 127 0" result="hardAlpha"/>
<feOffset/>
<feGaussianBlur stdDeviation="1.96536"/>
<feColorMatrix type="matrix" values="0 0 0 0 0.45098 0 0 0 0 0.133333 0 0 0 0 0.133333 0 0 0 1 0"/>
<feBlend mode="normal" in2="effect1_dropShadow_114_43" result="effect2_dropShadow_114_43"/>
<feColorMatrix in="SourceAlpha" type="matrix" values="0 0 0 0 0 0 0 0 0 0 0 0 0 0 0 0 0 0 127 0" result="hardAlpha"/>
<feOffset/>
<feGaussianBlur stdDeviation="6.87875"/>
<feColorMatrix type="matrix" values="0 0 0 0 0.45098 0 0 0 0 0.133333 0 0 0 0 0.133333 0 0 0 1 0"/>
<feBlend mode="normal" in2="effect2_dropShadow_114_43" result="effect3_dropShadow_114_43"/>
<feColorMatrix in="SourceAlpha" type="matrix" values="0 0 0 0 0 0 0 0 0 0 0 0 0 0 0 0 0 0 127 0" result="hardAlpha"/>
<feOffset/>
<feGaussianBlur stdDeviation="13.7575"/>
<feColorMatrix type="matrix" values="0 0 0 0 0.45098 0 0 0 0 0.133333 0 0 0 0 0.133333 0 0 0 1 0"/>
<feBlend mode="normal" in2="effect3_dropShadow_114_43" result="effect4_dropShadow_114_43"/>
<feColorMatrix in="SourceAlpha" type="matrix" values="0 0 0 0 0 0 0 0 0 0 0 0 0 0 0 0 0 0 127 0" result="hardAlpha"/>
<feOffset/>
<feGaussianBlur stdDeviation="23.5843"/>
<feColorMatrix type="matrix" values="0 0 0 0 0.45098 0 0 0 0 0.133333 0 0 0 0 0.133333 0 0 0 1 0"/>
<feBlend mode="normal" in2="effect4_dropShadow_114_43" result="effect5_dropShadow_114_43"/>
<feColorMatrix in="SourceAlpha" type="matrix" values="0 0 0 0 0 0 0 0 0 0 0 0 0 0 0 0 0 0 127 0" result="hardAlpha"/>
<feOffset/>
<feGaussianBlur stdDeviation="41.2725"/>
<feColorMatrix type="matrix" values="0 0 0 0 0.45098 0 0 0 0 0.133333 0 0 0 0 0.133333 0 0 0 1 0"/>
<feBlend mode="normal" in2="effect5_dropShadow_114_43" result="effect6_dropShadow_114_43"/>
<feBlend mode="normal" in="SourceGraphic" in2="effect6_dropShadow_114_43" result="shape"/>
</filter>
</defs>
</svg>
