<svg width="387" height="332" viewBox="0 0 387 332" fill="none" xmlns="http://www.w3.org/2000/svg">
<g filter="url(#filter0_dddddd_114_43)">
<mask id="path-1-outside-1_114_43" maskUnits="userSpaceOnUse" x="143" y="143" width="148" height="46" fill="black">
<rect fill="white" x="143" y="143" width="148" height="46"/>
<path fill-rule="evenodd" clip-rule="evenodd" d="M166 147C155.507 147 147 155.507 147 166C147 176.493 155.507 185 166 185H268C278.493 185 287 176.493 287 166C287 155.507 278.493 147 268 147H166ZM186.576 172.304C186.892 171.562 187.051 170.765 187.051 169.914C187.051 169.083 186.892 168.301 186.576 167.569C186.259 166.827 185.824 166.183 185.27 165.639C184.725 165.085 184.082 164.649 183.34 164.333C182.608 164.006 181.821 163.843 180.98 163.843H168.57C168.155 163.843 167.759 163.764 167.383 163.605C167.017 163.447 166.695 163.229 166.418 162.952C166.141 162.675 165.923 162.354 165.765 161.987C165.607 161.611 165.527 161.216 165.527 160.8C165.527 160.384 165.607 159.993 165.765 159.627C165.923 159.251 166.141 158.925 166.418 158.648C166.695 158.371 167.017 158.153 167.383 157.995C167.759 157.836 168.155 157.757 168.57 157.757H185.537V154.714H168.57C167.739 154.714 166.952 154.877 166.21 155.204C165.468 155.521 164.82 155.956 164.266 156.51C163.721 157.054 163.286 157.698 162.959 158.44C162.643 159.182 162.484 159.969 162.484 160.8C162.484 161.641 162.643 162.433 162.959 163.175C163.286 163.917 163.721 164.565 164.266 165.12C164.82 165.664 165.468 166.094 166.21 166.411C166.952 166.728 167.739 166.886 168.57 166.886H180.98C181.405 166.886 181.801 166.965 182.167 167.123C182.533 167.282 182.85 167.499 183.117 167.777C183.394 168.054 183.612 168.375 183.77 168.741C183.929 169.108 184.008 169.498 184.008 169.914C184.008 170.33 183.929 170.726 183.77 171.102C183.612 171.468 183.394 171.789 183.117 172.066C182.85 172.343 182.533 172.561 182.167 172.72C181.801 172.878 181.405 172.957 180.98 172.957H162.484V176H180.98C181.821 176 182.608 175.842 183.34 175.525C184.082 175.208 184.725 174.778 185.27 174.234C185.824 173.679 186.259 173.036 186.576 172.304ZM210.059 176H213.102V154.714H210.059V163.843H195.185V166.886H210.059V176ZM190.628 176H193.671V154.714H190.628V176ZM242.923 169.513C243.388 168.217 243.62 166.832 243.62 165.357C243.62 163.892 243.388 162.517 242.923 161.23C242.458 159.934 241.795 158.806 240.934 157.846C240.083 156.876 239.058 156.114 237.861 155.56C236.664 154.996 235.333 154.714 233.868 154.714H226.788C225.313 154.714 223.972 154.996 222.765 155.56C221.558 156.114 220.523 156.876 219.663 157.846C218.811 158.806 218.153 159.934 217.688 161.23C217.223 162.517 216.991 163.892 216.991 165.357C216.991 166.832 217.223 168.217 217.688 169.513C218.153 170.81 218.811 171.938 219.663 172.898C220.523 173.858 221.558 174.615 222.765 175.169C223.972 175.723 225.313 176 226.788 176H233.868C235.333 176 236.664 175.723 237.861 175.169C239.058 174.615 240.083 173.858 240.934 172.898C241.795 171.938 242.458 170.81 242.923 169.513ZM240.117 162.403C240.424 163.323 240.577 164.308 240.577 165.357C240.577 166.406 240.424 167.396 240.117 168.326C239.81 169.246 239.365 170.053 238.781 170.745C238.207 171.428 237.505 171.967 236.673 172.363C235.852 172.759 234.917 172.957 233.868 172.957H226.788C225.739 172.957 224.793 172.759 223.952 172.363C223.121 171.967 222.414 171.428 221.83 170.745C221.256 170.053 220.81 169.246 220.494 168.326C220.187 167.396 220.034 166.406 220.034 165.357C220.034 164.308 220.187 163.323 220.494 162.403C220.81 161.483 221.256 160.681 221.83 159.998C222.414 159.306 223.121 158.761 223.952 158.366C224.793 157.96 225.739 157.757 226.788 157.757H233.868C234.917 157.757 235.852 157.96 236.673 158.366C237.505 158.761 238.207 159.306 238.781 159.998C239.365 160.681 239.81 161.483 240.117 162.403ZM269.834 167.702C270.527 167.01 271.071 166.203 271.467 165.283C271.873 164.353 272.076 163.363 272.076 162.314C272.076 161.265 271.873 160.28 271.467 159.36C271.071 158.44 270.527 157.638 269.834 156.955C269.152 156.263 268.35 155.718 267.43 155.323C266.509 154.917 265.525 154.714 264.476 154.714H247.509V176H250.552V157.757H264.476C265.109 157.757 265.703 157.876 266.257 158.113C266.811 158.351 267.291 158.677 267.697 159.093C268.113 159.499 268.439 159.979 268.677 160.533C268.914 161.087 269.033 161.681 269.033 162.314C269.033 162.947 268.914 163.546 268.677 164.11C268.439 164.664 268.113 165.149 267.697 165.565C267.291 165.98 266.811 166.312 266.257 166.559C265.703 166.797 265.109 166.916 264.476 166.916H252.259V169.914H264.476C265.525 169.914 266.509 169.716 267.43 169.32C268.35 168.924 269.152 168.385 269.834 167.702Z"/>
</mask>
<path d="M186.576 172.304L190.247 173.892L190.251 173.883L190.255 173.874L186.576 172.304ZM186.576 167.569L182.897 169.139L182.9 169.147L182.904 169.156L186.576 167.569ZM185.27 165.639L182.416 168.442L182.441 168.468L182.467 168.493L185.27 165.639ZM183.34 164.333L181.711 167.986L181.74 167.999L181.77 168.012L183.34 164.333ZM167.383 163.605L165.795 167.277L165.813 167.285L165.831 167.292L167.383 163.605ZM166.418 162.952L163.59 165.781L163.59 165.781L166.418 162.952ZM165.765 161.987L162.078 163.54L162.086 163.557L162.093 163.575L165.765 161.987ZM165.765 159.627L169.436 161.215L169.444 161.197L169.451 161.18L165.765 159.627ZM166.418 158.648L163.59 155.819L163.59 155.819L166.418 158.648ZM167.383 157.995L165.831 154.308L165.813 154.315L165.795 154.323L167.383 157.995ZM185.537 157.757V161.757H189.537V157.757H185.537ZM185.537 154.714H189.537V150.714H185.537V154.714ZM166.21 155.204L167.78 158.883L167.801 158.874L167.821 158.865L166.21 155.204ZM164.266 156.51L167.094 159.339L167.094 159.339L164.266 156.51ZM162.959 158.44L159.298 156.829L159.289 156.849L159.28 156.87L162.959 158.44ZM162.959 163.175L159.28 164.745L159.289 164.765L159.298 164.786L162.959 163.175ZM164.266 165.12L161.412 167.922L161.437 167.948L161.463 167.973L164.266 165.12ZM166.21 166.411L167.78 162.732L167.78 162.732L166.21 166.411ZM182.167 167.123L180.58 170.795L180.58 170.795L182.167 167.123ZM183.117 167.777L180.238 170.553L180.263 170.579L180.289 170.605L183.117 167.777ZM183.77 171.102L187.442 172.689L187.449 172.672L187.457 172.654L183.77 171.102ZM183.117 172.066L180.289 169.238L180.263 169.264L180.238 169.29L183.117 172.066ZM182.167 172.72L183.755 176.391L183.755 176.391L182.167 172.72ZM162.484 172.957V168.957H158.484V172.957H162.484ZM162.484 176H158.484V180H162.484V176ZM183.34 175.525L181.77 171.846L181.761 171.85L181.752 171.854L183.34 175.525ZM185.27 174.234L182.441 171.405L182.441 171.405L185.27 174.234ZM213.102 176V180H217.102V176H213.102ZM210.059 176H206.059V180H210.059V176ZM213.102 154.714H217.102V150.714H213.102V154.714ZM210.059 154.714V150.714H206.059V154.714H210.059ZM210.059 163.843V167.843H214.059V163.843H210.059ZM195.185 163.843V159.843H191.185V163.843H195.185ZM195.185 166.886H191.185V170.886H195.185V166.886ZM210.059 166.886H214.059V162.886H210.059V166.886ZM193.671 176V180H197.671V176H193.671ZM190.628 176H186.628V180H190.628V176ZM193.671 154.714H197.671V150.714H193.671V154.714ZM190.628 154.714V150.714H186.628V154.714H190.628ZM242.923 161.23L239.158 162.581L239.161 162.59L242.923 161.23ZM240.934 157.846L237.927 160.484L237.941 160.501L237.956 160.517L240.934 157.846ZM237.861 155.56L236.156 159.179L236.169 159.185L236.181 159.19L237.861 155.56ZM222.765 155.56L224.434 159.195L224.446 159.19L224.458 159.184L222.765 155.56ZM219.663 157.846L216.671 155.191L216.669 155.192L219.663 157.846ZM217.688 161.23L221.45 162.59L221.453 162.581L217.688 161.23ZM219.663 172.898L216.669 175.551L216.677 175.56L216.685 175.568L219.663 172.898ZM240.934 172.898L237.956 170.227L237.948 170.235L237.941 170.244L240.934 172.898ZM240.117 162.403L236.322 163.668L236.322 163.668L240.117 162.403ZM240.117 168.326L243.912 169.591L243.916 169.579L240.117 168.326ZM238.781 170.745L235.723 168.167L235.719 168.172L238.781 170.745ZM236.673 172.363L234.954 168.752L234.945 168.756L234.937 168.76L236.673 172.363ZM223.952 172.363L222.233 175.975L222.241 175.979L222.249 175.983L223.952 172.363ZM221.83 170.745L218.75 173.297L218.769 173.321L218.79 173.345L221.83 170.745ZM220.494 168.326L216.695 169.579L216.703 169.603L216.711 169.627L220.494 168.326ZM220.494 162.403L216.711 161.102L216.705 161.12L216.699 161.138L220.494 162.403ZM221.83 159.998L218.771 157.421L218.768 157.425L221.83 159.998ZM223.952 158.366L225.672 161.977L225.681 161.973L225.69 161.968L223.952 158.366ZM236.673 158.366L234.902 161.952L234.928 161.965L234.954 161.977L236.673 158.366ZM238.781 159.998L235.701 162.55L235.721 162.574L235.741 162.598L238.781 159.998ZM271.467 165.283L267.801 163.684L267.797 163.693L267.793 163.702L271.467 165.283ZM269.834 167.702L272.663 170.531L272.663 170.531L269.834 167.702ZM271.467 159.36L267.793 160.941L267.8 160.957L267.807 160.974L271.467 159.36ZM269.834 156.955L266.986 159.763L267.006 159.784L267.026 159.804L269.834 156.955ZM267.43 155.323L265.816 158.983L265.833 158.99L265.849 158.997L267.43 155.323ZM247.509 154.714V150.714H243.509V154.714H247.509ZM247.509 176H243.509V180H247.509V176ZM250.552 176V180H254.552V176H250.552ZM250.552 157.757V153.757H246.552V157.757H250.552ZM267.697 159.093L264.835 161.887L264.868 161.922L264.903 161.955L267.697 159.093ZM268.677 160.533L265 162.109L265 162.109L268.677 160.533ZM268.677 164.11L272.353 165.686L272.358 165.674L272.363 165.662L268.677 164.11ZM267.697 165.565L264.868 162.736L264.851 162.753L264.835 162.771L267.697 165.565ZM266.257 166.559L267.833 170.236L267.86 170.224L267.888 170.212L266.257 166.559ZM252.259 166.916V162.916H248.259V166.916H252.259ZM252.259 169.914H248.259V173.914H252.259V169.914ZM267.43 169.32L269.01 172.995L269.01 172.995L267.43 169.32ZM151 166C151 157.716 157.716 151 166 151V143C153.297 143 143 153.297 143 166H151ZM166 181C157.716 181 151 174.284 151 166H143C143 178.703 153.297 189 166 189V181ZM268 181H166V189H268V181ZM283 166C283 174.284 276.284 181 268 181V189C280.703 189 291 178.703 291 166H283ZM268 151C276.284 151 283 157.716 283 166H291C291 153.297 280.703 143 268 143V151ZM166 151H268V143H166V151ZM183.051 169.914C183.051 170.256 182.99 170.515 182.897 170.734L190.255 173.874C190.795 172.608 191.051 171.275 191.051 169.914H183.051ZM182.904 169.156C182.995 169.366 183.051 169.606 183.051 169.914H191.051C191.051 168.56 190.79 167.236 190.247 165.981L182.904 169.156ZM182.467 168.493C182.633 168.656 182.777 168.858 182.897 169.139L190.255 165.999C189.741 164.795 189.014 163.71 188.072 162.785L182.467 168.493ZM181.77 168.012C182.05 168.131 182.252 168.275 182.416 168.442L188.123 162.836C187.198 161.894 186.114 161.168 184.91 160.654L181.77 168.012ZM180.98 167.843C181.288 167.843 181.516 167.899 181.711 167.986L184.969 160.68C183.699 160.113 182.354 159.843 180.98 159.843V167.843ZM168.57 167.843H180.98V159.843H168.57V167.843ZM165.831 167.292C166.707 167.661 167.632 167.843 168.57 167.843V159.843C168.618 159.843 168.678 159.848 168.746 159.861C168.814 159.875 168.878 159.895 168.935 159.919L165.831 167.292ZM163.59 165.781C164.23 166.421 164.974 166.922 165.795 167.277L168.97 159.934C169.01 159.951 169.058 159.976 169.109 160.011C169.161 160.046 169.207 160.084 169.246 160.124L163.59 165.781ZM162.093 163.575C162.448 164.396 162.949 165.14 163.59 165.781L169.246 160.124C169.286 160.163 169.325 160.21 169.359 160.261C169.394 160.312 169.419 160.36 169.436 160.4L162.093 163.575ZM161.527 160.8C161.527 161.739 161.709 162.663 162.078 163.54L169.451 160.435C169.475 160.492 169.495 160.556 169.509 160.624C169.523 160.692 169.527 160.752 169.527 160.8H161.527ZM162.093 158.04C161.709 158.928 161.527 159.862 161.527 160.8H169.527C169.527 160.907 169.504 161.059 169.436 161.215L162.093 158.04ZM163.59 155.819C162.932 156.477 162.429 157.242 162.078 158.075L169.451 161.18C169.417 161.26 169.35 161.372 169.246 161.476L163.59 155.819ZM165.795 154.323C164.974 154.678 164.23 155.179 163.59 155.819L169.246 161.476C169.207 161.516 169.161 161.554 169.109 161.589C169.058 161.624 169.01 161.649 168.97 161.666L165.795 154.323ZM168.57 153.757C167.632 153.757 166.707 153.939 165.831 154.308L168.935 161.681C168.878 161.705 168.814 161.725 168.746 161.739C168.678 161.752 168.618 161.757 168.57 161.757V153.757ZM185.537 153.757H168.57V161.757H185.537V153.757ZM181.537 154.714V157.757H189.537V154.714H181.537ZM168.57 158.714H185.537V150.714H168.57V158.714ZM167.821 158.865C168.043 158.768 168.279 158.714 168.57 158.714V150.714C167.199 150.714 165.862 150.987 164.599 151.543L167.821 158.865ZM167.094 159.339C167.276 159.157 167.494 159.005 167.78 158.883L164.64 151.525C163.442 152.036 162.363 152.755 161.437 153.682L167.094 159.339ZM166.621 160.051C166.758 159.738 166.919 159.514 167.094 159.339L161.437 153.682C160.524 154.595 159.814 155.657 159.298 156.829L166.621 160.051ZM166.484 160.8C166.484 160.492 166.54 160.24 166.638 160.01L159.28 156.87C158.745 158.124 158.484 159.446 158.484 160.8H166.484ZM166.638 161.605C166.543 161.38 166.484 161.125 166.484 160.8H158.484C158.484 162.157 158.743 163.485 159.28 164.745L166.638 161.605ZM167.119 162.317C166.929 162.123 166.761 161.883 166.621 161.564L159.298 164.786C159.811 165.951 160.514 167.008 161.412 167.922L167.119 162.317ZM167.78 162.732C167.478 162.603 167.253 162.447 167.068 162.266L161.463 167.973C162.387 168.881 163.457 169.585 164.64 170.09L167.78 162.732ZM168.57 162.886C168.262 162.886 168.011 162.83 167.78 162.732L164.64 170.09C165.894 170.625 167.216 170.886 168.57 170.886V162.886ZM180.98 162.886H168.57V170.886H180.98V162.886ZM183.755 163.452C182.855 163.063 181.914 162.886 180.98 162.886V170.886C180.896 170.886 180.747 170.867 180.58 170.795L183.755 163.452ZM185.997 165C185.349 164.328 184.588 163.812 183.755 163.452L180.58 170.795C180.478 170.751 180.351 170.671 180.238 170.553L185.997 165ZM187.442 167.154C187.087 166.333 186.586 165.588 185.946 164.948L180.289 170.605C180.249 170.566 180.211 170.519 180.176 170.468C180.141 170.417 180.116 170.369 180.099 170.329L187.442 167.154ZM188.008 169.914C188.008 168.976 187.826 168.042 187.442 167.154L180.099 170.329C180.031 170.173 180.008 170.021 180.008 169.914H188.008ZM187.457 172.654C187.826 171.777 188.008 170.853 188.008 169.914H180.008C180.008 169.866 180.013 169.806 180.026 169.738C180.04 169.67 180.06 169.606 180.084 169.549L187.457 172.654ZM185.946 174.895C186.586 174.255 187.087 173.51 187.442 172.689L180.099 169.514C180.116 169.474 180.141 169.426 180.176 169.375C180.211 169.324 180.249 169.277 180.289 169.238L185.946 174.895ZM183.755 176.391C184.588 176.03 185.349 175.515 185.997 174.843L180.238 169.29C180.351 169.172 180.478 169.092 180.58 169.048L183.755 176.391ZM180.98 176.957C181.914 176.957 182.855 176.78 183.755 176.391L180.58 169.048C180.747 168.975 180.896 168.957 180.98 168.957V176.957ZM162.484 176.957H180.98V168.957H162.484V176.957ZM166.484 176V172.957H158.484V176H166.484ZM180.98 172H162.484V180H180.98V172ZM181.752 171.854C181.548 171.942 181.305 172 180.98 172V180C182.337 180 183.667 179.742 184.927 179.196L181.752 171.854ZM182.441 171.405C182.276 171.571 182.065 171.72 181.77 171.846L184.91 179.204C186.099 178.697 187.175 177.985 188.098 177.062L182.441 171.405ZM182.904 170.716C182.784 170.994 182.632 171.214 182.441 171.405L188.098 177.062C189.015 176.145 189.734 175.078 190.247 173.892L182.904 170.716ZM213.102 172H210.059V180H213.102V172ZM209.102 154.714V176H217.102V154.714H209.102ZM210.059 158.714H213.102V150.714H210.059V158.714ZM214.059 163.843V154.714H206.059V163.843H214.059ZM195.185 167.843H210.059V159.843H195.185V167.843ZM199.185 166.886V163.843H191.185V166.886H199.185ZM210.059 162.886H195.185V170.886H210.059V162.886ZM214.059 176V166.886H206.059V176H214.059ZM193.671 172H190.628V180H193.671V172ZM189.671 154.714V176H197.671V154.714H189.671ZM190.628 158.714H193.671V150.714H190.628V158.714ZM194.628 176V154.714H186.628V176H194.628ZM239.62 165.357C239.62 166.404 239.457 167.329 239.158 168.162L246.688 170.864C247.319 169.105 247.62 167.259 247.62 165.357H239.62ZM239.161 162.59C239.458 163.411 239.62 164.323 239.62 165.357H247.62C247.62 163.462 247.318 161.623 246.684 159.87L239.161 162.59ZM237.956 160.517C238.448 161.066 238.855 161.738 239.158 162.581L246.688 159.88C246.06 158.13 245.141 156.546 243.911 155.175L237.956 160.517ZM236.181 159.19C236.884 159.515 237.453 159.944 237.927 160.484L243.94 155.208C242.712 153.809 241.233 152.713 239.541 151.93L236.181 159.19ZM233.868 158.714C234.807 158.714 235.547 158.892 236.156 159.179L239.566 151.942C237.78 151.101 235.859 150.714 233.868 150.714V158.714ZM226.788 158.714H233.868V150.714H226.788V158.714ZM224.458 159.184C225.081 158.893 225.835 158.714 226.788 158.714V150.714C224.791 150.714 222.863 151.099 221.072 151.936L224.458 159.184ZM222.654 160.502C223.137 159.957 223.718 159.524 224.434 159.195L221.096 151.925C219.397 152.705 217.909 153.796 216.671 155.191L222.654 160.502ZM221.453 162.581C221.759 161.729 222.167 161.051 222.656 160.5L216.669 155.192C215.456 156.561 214.548 158.139 213.923 159.88L221.453 162.581ZM220.991 165.357C220.991 164.323 221.153 163.411 221.45 162.59L213.927 159.87C213.293 161.623 212.991 163.462 212.991 165.357H220.991ZM221.453 168.162C221.154 167.329 220.991 166.404 220.991 165.357H212.991C212.991 167.259 213.292 169.105 213.923 170.864L221.453 168.162ZM222.656 170.244C222.167 169.693 221.759 169.015 221.453 168.162L213.923 170.864C214.548 172.604 215.456 174.183 216.669 175.551L222.656 170.244ZM224.434 171.533C223.709 171.201 223.124 170.767 222.64 170.227L216.685 175.568C217.923 176.949 219.407 178.028 221.096 178.804L224.434 171.533ZM226.788 172C225.825 172 225.062 171.822 224.434 171.533L221.096 178.804C222.882 179.624 224.801 180 226.788 180V172ZM233.868 172H226.788V180H233.868V172ZM236.181 171.539C235.565 171.823 234.817 172 233.868 172V180C235.848 180 237.762 179.622 239.541 178.799L236.181 171.539ZM237.941 170.244C237.466 170.78 236.893 171.209 236.181 171.539L239.541 178.799C241.224 178.02 242.699 176.936 243.927 175.551L237.941 170.244ZM239.158 168.162C238.855 169.006 238.448 169.678 237.956 170.227L243.911 175.568C245.141 174.198 246.06 172.614 246.688 170.864L239.158 168.162ZM244.577 165.357C244.577 163.913 244.365 162.498 243.912 161.138L236.322 163.668C236.483 164.149 236.577 164.703 236.577 165.357H244.577ZM243.916 169.579C244.365 168.216 244.577 166.801 244.577 165.357H236.577C236.577 166.011 236.483 166.575 236.318 167.073L243.916 169.579ZM241.84 173.323C242.772 172.217 243.456 170.957 243.912 169.591L236.322 167.061C236.164 167.535 235.958 167.889 235.723 168.167L241.84 173.323ZM238.393 175.975C239.724 175.341 240.889 174.454 241.843 173.319L235.719 168.172C235.525 168.402 235.286 168.594 234.954 168.752L238.393 175.975ZM233.868 176.957C235.428 176.957 236.971 176.66 238.41 175.967L234.937 168.76C234.733 168.858 234.406 168.957 233.868 168.957V176.957ZM226.788 176.957H233.868V168.957H226.788V176.957ZM222.249 175.983C223.688 176.66 225.226 176.957 226.788 176.957V168.957C226.251 168.957 225.899 168.859 225.656 168.744L222.249 175.983ZM218.79 173.345C219.747 174.464 220.908 175.344 222.233 175.975L225.672 168.752C225.334 168.591 225.08 168.392 224.87 168.146L218.79 173.345ZM216.711 169.627C217.172 170.966 217.844 172.204 218.75 173.297L224.91 168.193C224.668 167.901 224.449 167.526 224.276 167.024L216.711 169.627ZM216.034 165.357C216.034 166.801 216.246 168.216 216.695 169.579L224.293 167.073C224.128 166.575 224.034 166.011 224.034 165.357H216.034ZM216.699 161.138C216.246 162.498 216.034 163.913 216.034 165.357H224.034C224.034 164.703 224.128 164.149 224.288 163.668L216.699 161.138ZM218.768 157.425C217.85 158.517 217.173 159.759 216.711 161.102L224.276 163.705C224.447 163.207 224.662 162.846 224.892 162.572L218.768 157.425ZM222.233 154.754C220.895 155.391 219.729 156.285 218.771 157.421L224.888 162.576C225.098 162.327 225.347 162.132 225.672 161.977L222.233 154.754ZM226.788 153.757C225.211 153.757 223.661 154.065 222.215 154.763L225.69 161.968C225.926 161.855 226.266 161.757 226.788 161.757V153.757ZM233.868 153.757H226.788V161.757H233.868V153.757ZM238.445 154.779C236.998 154.064 235.442 153.757 233.868 153.757V161.757C234.392 161.757 234.706 161.855 234.902 161.952L238.445 154.779ZM241.861 157.446C240.907 156.295 239.737 155.394 238.393 154.754L234.954 161.977C235.273 162.129 235.507 162.316 235.701 162.55L241.861 157.446ZM243.912 161.138C243.455 159.768 242.766 158.504 241.821 157.399L235.741 162.598C235.964 162.858 236.166 163.198 236.322 163.668L243.912 161.138ZM267.793 163.702C267.593 164.168 267.332 164.548 267.006 164.874L272.663 170.531C273.722 169.471 274.55 168.239 275.142 166.863L267.793 163.702ZM268.076 162.314C268.076 162.832 267.979 163.275 267.801 163.684L275.134 166.882C275.767 165.43 276.076 163.894 276.076 162.314H268.076ZM267.807 160.974C267.979 161.364 268.076 161.796 268.076 162.314H276.076C276.076 160.734 275.767 159.197 275.127 157.747L267.807 160.974ZM267.026 159.804C267.34 160.113 267.595 160.481 267.793 160.941L275.142 157.78C274.548 156.399 273.714 155.163 272.642 154.107L267.026 159.804ZM265.849 158.997C266.309 159.195 266.677 159.45 266.986 159.763L272.683 154.147C271.627 153.076 270.391 152.242 269.01 151.648L265.849 158.997ZM264.476 158.714C264.993 158.714 265.426 158.811 265.816 158.983L269.043 151.663C267.593 151.023 266.056 150.714 264.476 150.714V158.714ZM247.509 158.714H264.476V150.714H247.509V158.714ZM251.509 176V154.714H243.509V176H251.509ZM250.552 172H247.509V180H250.552V172ZM246.552 157.757V176H254.552V157.757H246.552ZM264.476 153.757H250.552V161.757H264.476V153.757ZM267.833 154.437C266.756 153.975 265.623 153.757 264.476 153.757V161.757C264.595 161.757 264.65 161.776 264.681 161.79L267.833 154.437ZM270.559 156.299C269.773 155.493 268.851 154.873 267.833 154.437L264.681 161.79C264.772 161.829 264.81 161.862 264.835 161.887L270.559 156.299ZM272.353 158.957C271.917 157.939 271.297 157.017 270.491 156.231L264.903 161.955C264.928 161.98 264.961 162.018 265 162.109L272.353 158.957ZM273.033 162.314C273.033 161.167 272.815 160.034 272.353 158.957L265 162.109C265.013 162.14 265.033 162.195 265.033 162.314H273.033ZM272.363 165.662C272.815 164.59 273.033 163.462 273.033 162.314H265.033C265.033 162.433 265.013 162.502 264.99 162.558L272.363 165.662ZM270.525 168.393C271.31 167.608 271.92 166.695 272.353 165.686L265 162.534C264.958 162.633 264.915 162.69 264.868 162.736L270.525 168.393ZM267.888 170.212C268.882 169.768 269.785 169.152 270.559 168.359L264.835 162.771C264.797 162.809 264.741 162.856 264.626 162.907L267.888 170.212ZM264.476 170.916C265.623 170.916 266.756 170.698 267.833 170.236L264.681 162.883C264.65 162.896 264.595 162.916 264.476 162.916V170.916ZM252.259 170.916H264.476V162.916H252.259V170.916ZM256.259 169.914V166.916H248.259V169.914H256.259ZM264.476 165.914H252.259V173.914H264.476V165.914ZM265.849 165.646C265.452 165.817 265.007 165.914 264.476 165.914V173.914C266.042 173.914 267.567 173.615 269.01 172.995L265.849 165.646ZM267.006 164.874C266.695 165.185 266.321 165.443 265.849 165.646L269.01 172.995C270.379 172.406 271.608 171.586 272.663 170.531L267.006 164.874Z" fill="#F2D7B6" mask="url(#path-1-outside-1_114_43)"/>
</g>
<defs>
<filter id="filter0_dddddd_114_43" x="0.826385" y="0.826385" width="432.347" height="330.347" filterUnits="userSpaceOnUse" color-interpolation-filters="sRGB">
<feFlood flood-opacity="0" result="BackgroundImageFix"/>
<feColorMatrix in="SourceAlpha" type="matrix" values="0 0 0 0 0 0 0 0 0 0 0 0 0 0 0 0 0 0 127 0" result="hardAlpha"/>
<feOffset/>
<feGaussianBlur stdDeviation="1.69254"/>
<feColorMatrix type="matrix" values="0 0 0 0 0.45098 0 0 0 0 0.133333 0 0 0 0 0.133333 0 0 0 1 0"/>
<feBlend mode="normal" in2="BackgroundImageFix" result="effect1_dropShadow_114_43"/>
<feColorMatrix in="SourceAlpha" type="matrix" values="0 0 0 0 0 0 0 0 0 0 0 0 0 0 0 0 0 0 127 0" result="hardAlpha"/>
<feOffset/>
<feGaussianBlur stdDeviation="3.38509"/>
<feColorMatrix type="matrix" values="0 0 0 0 0.45098 0 0 0 0 0.133333 0 0 0 0 0.133333 0 0 0 1 0"/>
<feBlend mode="normal" in2="effect1_dropShadow_114_43" result="effect2_dropShadow_114_43"/>
<feColorMatrix in="SourceAlpha" type="matrix" values="0 0 0 0 0 0 0 0 0 0 0 0 0 0 0 0 0 0 127 0" result="hardAlpha"/>
<feOffset/>
<feGaussianBlur stdDeviation="11.8478"/>
<feColorMatrix type="matrix" values="0 0 0 0 0.45098 0 0 0 0 0.133333 0 0 0 0 0.133333 0 0 0 1 0"/>
<feBlend mode="normal" in2="effect2_dropShadow_114_43" result="effect3_dropShadow_114_43"/>
<feColorMatrix in="SourceAlpha" type="matrix" values="0 0 0 0 0 0 0 0 0 0 0 0 0 0 0 0 0 0 127 0" result="hardAlpha"/>
<feOffset/>
<feGaussianBlur stdDeviation="23.6956"/>
<feColorMatrix type="matrix" values="0 0 0 0 0.45098 0 0 0 0 0.133333 0 0 0 0 0.133333 0 0 0 1 0"/>
<feBlend mode="normal" in2="effect3_dropShadow_114_43" result="effect4_dropShadow_114_43"/>
<feColorMatrix in="SourceAlpha" type="matrix" values="0 0 0 0 0 0 0 0 0 0 0 0 0 0 0 0 0 0 127 0" result="hardAlpha"/>
<feOffset/>
<feGaussianBlur stdDeviation="40.621"/>
<feColorMatrix type="matrix" values="0 0 0 0 0.45098 0 0 0 0 0.133333 0 0 0 0 0.133333 0 0 0 1 0"/>
<feBlend mode="normal" in2="effect4_dropShadow_114_43" result="effect5_dropShadow_114_43"/>
<feColorMatrix in="SourceAlpha" type="matrix" values="0 0 0 0 0 0 0 0 0 0 0 0 0 0 0 0 0 0 127 0" result="hardAlpha"/>
<feOffset/>
<feGaussianBlur stdDeviation="71.0868"/>
<feColorMatrix type="matrix" values="0 0 0 0 0.45098 0 0 0 0 0.133333 0 0 0 0 0.133333 0 0 0 1 0"/>
<feBlend mode="normal" in2="effect5_dropShadow_114_43" result="effect6_dropShadow_114_43"/>
<feBlend mode="normal" in="SourceGraphic" in2="effect6_dropShadow_114_43" result="shape"/>
</filter>
</defs>
</svg>
