<svg width="138" height="75" viewBox="0 0 138 75" fill="none" xmlns="http://www.w3.org/2000/svg">
<path fill-rule="evenodd" clip-rule="evenodd" d="M122.599 30.4085C119.175 28.9668 111.083 25.9211 106.109 25.2723C105.99 25.2567 105.868 25.2408 105.745 25.2248C99.5064 24.4101 89.7076 23.1306 80.4288 24.191C72.8598 25.0561 63.3985 27.6151 59.6139 28.7865V46.8982C63.3985 48.5201 72.8598 51.9262 80.4288 52.575C89.8901 53.3859 106.168 51.318 106.168 51.318C106.793 51.2037 107.677 51.0585 108.724 50.8863C112.698 50.2331 119.034 49.1916 122.599 47.9795V30.4085ZM116.111 38.7885C116.111 34.9068 112.965 31.7601 109.083 31.7601C105.201 31.7601 102.055 34.9068 102.055 38.7885C102.055 42.6701 105.201 45.8169 109.083 45.8169C112.965 45.8169 116.111 42.6701 116.111 38.7885Z" fill="#732222"/>
<path d="M106.109 25.2723L106.144 25.0043L106.144 25.0043L106.109 25.2723ZM122.599 30.4085H122.87V30.229L122.704 30.1593L122.599 30.4085ZM105.745 25.2248L105.78 24.9568L105.78 24.9568L105.745 25.2248ZM80.4288 24.191L80.3981 23.9225L80.3981 23.9225L80.4288 24.191ZM59.6139 28.7865L59.534 28.5283L59.3436 28.5872V28.7865H59.6139ZM59.6139 46.8982H59.3436V47.0764L59.5074 47.1466L59.6139 46.8982ZM80.4288 52.575L80.4057 52.8443L80.4057 52.8443L80.4288 52.575ZM106.168 51.318L106.202 51.5861L106.209 51.5852L106.217 51.5839L106.168 51.318ZM108.724 50.8863L108.768 51.153L108.768 51.153L108.724 50.8863ZM122.599 47.9795L122.686 48.2354L122.87 48.1731V47.9795H122.599ZM106.075 25.5404C111.008 26.1839 119.069 29.2155 122.494 30.6576L122.704 30.1593C119.281 28.718 111.159 25.6583 106.144 25.0043L106.075 25.5404ZM105.71 25.4929C105.833 25.5089 105.955 25.5247 106.075 25.5404L106.144 25.0043C106.025 24.9886 105.903 24.9728 105.78 24.9568L105.71 25.4929ZM80.4595 24.4596C89.7005 23.4035 99.4675 24.6777 105.71 25.4929L105.78 24.9568C99.5453 24.1426 89.7146 22.8577 80.3981 23.9225L80.4595 24.4596ZM59.6939 29.0448C63.4722 27.8753 72.915 25.3219 80.4595 24.4596L80.3981 23.9225C72.8046 24.7903 63.3248 27.355 59.534 28.5283L59.6939 29.0448ZM59.8843 46.8982V28.7865H59.3436V46.8982H59.8843ZM80.4519 52.3056C72.926 51.6605 63.4962 48.2679 59.7204 46.6497L59.5074 47.1466C63.3007 48.7723 72.7935 52.1918 80.4057 52.8443L80.4519 52.3056ZM106.168 51.318C106.134 51.0498 106.134 51.0498 106.134 51.0498C106.134 51.0498 106.134 51.0498 106.133 51.0499C106.133 51.0499 106.132 51.05 106.131 51.0501C106.129 51.0504 106.126 51.0508 106.122 51.0513C106.115 51.0522 106.103 51.0537 106.088 51.0556C106.057 51.0595 106.011 51.0652 105.95 51.0727C105.829 51.0876 105.65 51.1094 105.418 51.1368C104.956 51.1917 104.284 51.2692 103.448 51.3597C101.776 51.5406 99.448 51.7735 96.8251 51.9811C91.5743 52.3966 85.1587 52.7091 80.4519 52.3056L80.4057 52.8443C85.1603 53.2518 91.6142 52.9358 96.8677 52.5201C99.497 52.312 101.83 52.0786 103.506 51.8972C104.344 51.8064 105.018 51.7287 105.482 51.6737C105.714 51.6461 105.894 51.6243 106.016 51.6093C106.077 51.6018 106.123 51.596 106.155 51.5921C106.17 51.5901 106.182 51.5887 106.19 51.5877C106.194 51.5872 106.197 51.5868 106.199 51.5865C106.2 51.5864 106.201 51.5863 106.201 51.5862C106.202 51.5862 106.202 51.5862 106.202 51.5862C106.202 51.5861 106.202 51.5861 106.168 51.318ZM108.681 50.6195C107.634 50.7916 106.747 50.9373 106.119 51.052L106.217 51.5839C106.839 51.4702 107.719 51.3254 108.768 51.153L108.681 50.6195ZM122.512 47.7235C118.973 48.9268 112.664 49.9648 108.681 50.6195L108.768 51.153C112.732 50.5015 119.095 49.4565 122.686 48.2354L122.512 47.7235ZM122.329 30.4085V47.9795H122.87V30.4085H122.329ZM109.083 32.0304C112.815 32.0304 115.841 35.0561 115.841 38.7885H116.382C116.382 34.7575 113.114 31.4897 109.083 31.4897V32.0304ZM102.325 38.7885C102.325 35.0561 105.351 32.0304 109.083 32.0304V31.4897C105.052 31.4897 101.784 34.7575 101.784 38.7885H102.325ZM109.083 45.5465C105.351 45.5465 102.325 42.5208 102.325 38.7885H101.784C101.784 42.8194 105.052 46.0872 109.083 46.0872V45.5465ZM115.841 38.7885C115.841 42.5208 112.815 45.5465 109.083 45.5465V46.0872C113.114 46.0872 116.382 42.8194 116.382 38.7885H115.841Z" fill="#D98236"/>
<g filter="url(#filter0_dddddd_116_19)">
<path d="M55.5592 30.9491C55.4771 30.9491 55.4013 30.9055 55.3137 30.8287C54.3319 30.3555 52.5681 29.5975 51.7747 29.5975C50.6934 29.5975 49.6121 29.5975 48.2605 30.1381C46.9089 30.6787 45.8276 30.9491 46.9089 31.2194C47.9902 31.4897 51.7747 35.5446 50.4231 35.0039C49.0715 34.4633 45.2869 34.7336 43.9353 35.0039C42.5837 35.2742 40.6914 36.8962 40.1508 37.7071C45.5573 39.3291 44.476 38.5181 45.2869 39.0588C46.5593 39.907 48.8011 41.8521 49.6121 43.1136C48.4407 43.2037 45.7735 43.3839 44.476 43.3839C45.0166 45.8168 53.3966 45.0059 53.3966 45.5465C52.3153 46.3575 48.5308 46.3575 46.0979 46.3575C43.665 46.3575 40.9618 44.4652 39.6102 43.9246C38.5289 43.4921 36.2762 43.2037 35.285 43.1136C35.8256 42.3927 37.1232 40.951 37.9882 40.951H42.854C42.5837 40.6807 41.5024 40.14 39.3398 40.14L33.3927 40.14C31.2301 40.14 26.905 35.8149 28.2566 36.0852C29.6082 36.3555 34.7443 33.6523 36.096 32.8413C37.1772 32.1926 41.7727 32.3908 43.9353 32.571C43.0342 32.3007 40.8536 31.6519 39.3398 31.2194C37.826 30.7869 37.4476 29.9579 37.4476 29.5975C39.7904 28.8766 45.5032 27.5971 49.6121 28.2459C53.9687 28.9337 54.8244 30.3996 55.3137 30.8287C55.4024 30.8714 55.4846 30.9118 55.5592 30.9491Z" fill="#D98236"/>
<path d="M55.5592 30.9491C55.0186 30.9491 54.7482 29.0568 49.6121 28.2459C45.5032 27.5971 39.7904 28.8766 37.4476 29.5975C37.4476 29.9579 37.826 30.7869 39.3398 31.2194C40.8536 31.6519 43.0342 32.3007 43.9353 32.571C41.7727 32.3908 37.1772 32.1926 36.096 32.8413C34.7443 33.6523 29.6082 36.3555 28.2566 36.0852C26.905 35.8149 31.2301 40.14 33.3927 40.14C35.5553 40.14 36.6366 40.14 39.3398 40.14C41.5024 40.14 42.5837 40.6807 42.854 40.951C41.5925 40.951 38.8532 40.951 37.9882 40.951C37.1232 40.951 35.8256 42.3927 35.285 43.1136C36.2762 43.2037 38.5289 43.4921 39.6102 43.9246C40.9618 44.4652 43.665 46.3575 46.0979 46.3575C48.5308 46.3575 52.3153 46.3575 53.3966 45.5465C53.3966 45.0059 45.0166 45.8168 44.476 43.3839C45.7735 43.3839 48.4407 43.2037 49.6121 43.1136C48.8011 41.8521 46.5593 39.907 45.2869 39.0588C44.476 38.5181 45.5573 39.3291 40.1508 37.7071C40.6914 36.8962 42.5837 35.2742 43.9353 35.0039C45.2869 34.7336 49.0715 34.4633 50.4231 35.0039C51.7747 35.5446 47.9902 31.4897 46.9089 31.2194C45.8276 30.9491 46.9089 30.6787 48.2605 30.1381C49.6121 29.5975 50.6934 29.5975 51.7747 29.5975C52.6397 29.5975 54.6581 30.4985 55.5592 30.9491Z" stroke="#F2C36B" stroke-width="0.540646"/>
</g>
<path d="M45.8275 56.9001L60.6953 49.6013C61.344 50.2501 73.2202 53.2958 79.0772 54.7375L73.9411 61.2252L45.8275 56.9001Z" fill="#D98236" stroke="#F2D7B6" stroke-width="0.540646"/>
<path d="M74.752 15L79.6178 22.2987C74.6439 22.2987 65.1105 24.8217 60.9655 26.0832L46.3681 18.2439L74.752 15Z" fill="#D98236" stroke="#F2D7B6" stroke-width="0.540646"/>
<path d="M124.565 46.8982V31.2194C128.71 33.5622 137 38.4641 137 39.3291C137 40.1941 128.71 44.7356 124.565 46.8982Z" fill="#732222" stroke="#D98236" stroke-width="0.780678"/>
<defs>
<filter id="filter0_dddddd_116_19" x="0.145086" y="0.212835" width="83.1197" height="73.9996" filterUnits="userSpaceOnUse" color-interpolation-filters="sRGB">
<feFlood flood-opacity="0" result="BackgroundImageFix"/>
<feColorMatrix in="SourceAlpha" type="matrix" values="0 0 0 0 0 0 0 0 0 0 0 0 0 0 0 0 0 0 127 0" result="hardAlpha"/>
<feOffset/>
<feGaussianBlur stdDeviation="0.328389"/>
<feColorMatrix type="matrix" values="0 0 0 0 0.85098 0 0 0 0 0.509804 0 0 0 0 0.211765 0 0 0 1 0"/>
<feBlend mode="normal" in2="BackgroundImageFix" result="effect1_dropShadow_116_19"/>
<feColorMatrix in="SourceAlpha" type="matrix" values="0 0 0 0 0 0 0 0 0 0 0 0 0 0 0 0 0 0 127 0" result="hardAlpha"/>
<feOffset/>
<feGaussianBlur stdDeviation="0.656777"/>
<feColorMatrix type="matrix" values="0 0 0 0 0.85098 0 0 0 0 0.509804 0 0 0 0 0.211765 0 0 0 1 0"/>
<feBlend mode="normal" in2="effect1_dropShadow_116_19" result="effect2_dropShadow_116_19"/>
<feColorMatrix in="SourceAlpha" type="matrix" values="0 0 0 0 0 0 0 0 0 0 0 0 0 0 0 0 0 0 127 0" result="hardAlpha"/>
<feOffset/>
<feGaussianBlur stdDeviation="2.29872"/>
<feColorMatrix type="matrix" values="0 0 0 0 0.85098 0 0 0 0 0.509804 0 0 0 0 0.211765 0 0 0 1 0"/>
<feBlend mode="normal" in2="effect2_dropShadow_116_19" result="effect3_dropShadow_116_19"/>
<feColorMatrix in="SourceAlpha" type="matrix" values="0 0 0 0 0 0 0 0 0 0 0 0 0 0 0 0 0 0 127 0" result="hardAlpha"/>
<feOffset/>
<feGaussianBlur stdDeviation="4.59744"/>
<feColorMatrix type="matrix" values="0 0 0 0 0.85098 0 0 0 0 0.509804 0 0 0 0 0.211765 0 0 0 1 0"/>
<feBlend mode="normal" in2="effect3_dropShadow_116_19" result="effect4_dropShadow_116_19"/>
<feColorMatrix in="SourceAlpha" type="matrix" values="0 0 0 0 0 0 0 0 0 0 0 0 0 0 0 0 0 0 127 0" result="hardAlpha"/>
<feOffset/>
<feGaussianBlur stdDeviation="7.88133"/>
<feColorMatrix type="matrix" values="0 0 0 0 0.85098 0 0 0 0 0.509804 0 0 0 0 0.211765 0 0 0 1 0"/>
<feBlend mode="normal" in2="effect4_dropShadow_116_19" result="effect5_dropShadow_116_19"/>
<feColorMatrix in="SourceAlpha" type="matrix" values="0 0 0 0 0 0 0 0 0 0 0 0 0 0 0 0 0 0 127 0" result="hardAlpha"/>
<feOffset/>
<feGaussianBlur stdDeviation="13.7923"/>
<feColorMatrix type="matrix" values="0 0 0 0 0.85098 0 0 0 0 0.509804 0 0 0 0 0.211765 0 0 0 1 0"/>
<feBlend mode="normal" in2="effect5_dropShadow_116_19" result="effect6_dropShadow_116_19"/>
<feBlend mode="normal" in="SourceGraphic" in2="effect6_dropShadow_116_19" result="shape"/>
</filter>
</defs>
</svg>
