<svg width="210" height="90" viewBox="0 0 210 90" fill="none" xmlns="http://www.w3.org/2000/svg">
<path d="M149.699 20.5556L149.765 20.0453L149.765 20.0453L149.699 20.5556ZM181.091 30.3334H181.605V29.9917L181.29 29.8591L181.091 30.3334ZM149.006 20.4651L149.072 19.9548L149.072 19.9548L149.006 20.4651ZM100.81 18.4971L100.751 17.9858L100.81 18.4971ZM61.1842 27.2456L61.032 26.754L60.6696 26.8662V27.2456H61.1842ZM61.1842 61.7252H60.6696V62.0645L60.9815 62.1982L61.1842 61.7252ZM100.81 72.5322L100.854 72.0195L100.854 72.0195L100.81 72.5322ZM149.81 70.1392L149.875 70.6497L149.889 70.648L149.903 70.6454L149.81 70.1392ZM154.677 69.3174L154.76 69.8252L154.76 69.8252L154.677 69.3174ZM181.091 63.7837L181.256 64.2709L181.605 64.1522V63.7837H181.091ZM149.632 21.0659C159.025 22.2909 174.371 28.0623 180.891 30.8076L181.29 29.8591C174.773 27.1151 159.311 21.2904 149.765 20.0453L149.632 21.0659ZM148.939 20.9754C149.173 21.0059 149.404 21.0361 149.632 21.0659L149.765 20.0453C149.537 20.0155 149.306 19.9853 149.072 19.9548L148.939 20.9754ZM100.868 19.0084C118.461 16.9978 137.054 19.4235 148.939 20.9754L149.072 19.9548C137.202 18.4048 118.488 15.9588 100.751 17.9858L100.868 19.0084ZM61.3364 27.7373C68.5292 25.5109 86.5057 20.6498 100.868 19.0084L100.751 17.9858C86.2955 19.6379 68.2486 24.5203 61.032 26.754L61.3364 27.7373ZM61.6988 61.7252V27.2456H60.6696V61.7252H61.6988ZM100.854 72.0195C86.5266 70.7914 68.5749 64.3327 61.3869 61.2522L60.9815 62.1982C68.2028 65.2931 86.2745 71.8028 100.766 73.0449L100.854 72.0195ZM149.81 70.1392C149.745 69.6287 149.745 69.6287 149.745 69.6287C149.745 69.6288 149.745 69.6288 149.744 69.6289C149.743 69.629 149.742 69.6291 149.74 69.6294C149.736 69.6298 149.731 69.6305 149.723 69.6315C149.709 69.6333 149.686 69.6361 149.657 69.6398C149.598 69.6472 149.51 69.6581 149.395 69.6723C149.164 69.7006 148.824 69.7421 148.383 69.7943C147.502 69.8988 146.223 70.0463 144.632 70.2186C141.449 70.5631 137.017 71.0065 132.024 71.4016C122.028 72.1927 109.814 72.7875 100.854 72.0195L100.766 73.0449C109.817 73.8208 122.104 73.2191 132.105 72.4277C137.111 72.0316 141.552 71.5872 144.742 71.2418C146.338 71.0692 147.62 70.9212 148.504 70.8164C148.946 70.764 149.289 70.7224 149.521 70.6938C149.637 70.6795 149.725 70.6685 149.785 70.6611C149.815 70.6574 149.837 70.6545 149.852 70.6526C149.86 70.6517 149.865 70.651 149.869 70.6505C149.871 70.6502 149.873 70.65 149.874 70.6499C149.874 70.6499 149.875 70.6498 149.875 70.6498C149.875 70.6497 149.875 70.6497 149.81 70.1392ZM154.593 68.8096C152.601 69.1371 150.913 69.4145 149.718 69.633L149.903 70.6454C151.087 70.429 152.764 70.1534 154.76 69.8252L154.593 68.8096ZM180.925 63.2964C174.188 65.587 162.177 67.5631 154.593 68.8096L154.76 69.8252C162.306 68.585 174.419 66.5956 181.256 64.2709L180.925 63.2964ZM180.576 30.3334V63.7837H181.605V30.3334H180.576ZM155.36 33.421C162.465 33.421 168.225 39.1811 168.225 46.2865H169.254C169.254 38.6127 163.033 32.3918 155.36 32.3918V33.421ZM142.494 46.2865C142.494 39.1811 148.254 33.421 155.36 33.421V32.3918C147.686 32.3918 141.465 38.6127 141.465 46.2865L142.494 46.2865ZM155.36 59.152C148.254 59.152 142.494 53.3919 142.494 46.2865L141.465 46.2865C141.465 53.9604 147.686 60.1813 155.36 60.1813V59.152ZM168.225 46.2865C168.225 53.3919 162.465 59.152 155.36 59.152V60.1813C163.033 60.1813 169.254 53.9604 169.254 46.2865H168.225Z" fill="#F2D7B6"/>
<path d="M53.465 31.3626C52.4357 31.3626 51.9211 27.7603 42.1433 26.2164C34.3211 24.9814 23.4455 27.4172 18.9854 28.7895C18.9854 29.4757 19.7059 31.0538 22.5878 31.8772C25.4696 32.7006 29.6209 33.9357 31.3363 34.4503C27.2194 34.1073 18.4708 33.7299 16.4123 34.965C13.8392 36.5088 4.06146 41.655 1.48836 41.1404C-1.08474 40.6258 7.14918 48.8597 11.2661 48.8597C15.3831 48.8597 17.4416 48.8597 22.5878 48.8597C26.7047 48.8597 28.7632 49.8889 29.2778 50.4036C26.8763 50.4036 21.6615 50.4036 20.0147 50.4036C18.3679 50.4036 15.8977 53.1482 14.8685 54.5205C16.7554 54.6921 21.0439 55.241 23.1024 56.0644C25.6755 57.0936 30.8217 60.696 35.4533 60.696C40.0848 60.696 47.2895 60.696 49.348 59.1521C49.348 58.1229 33.3948 59.6667 32.3656 55.0351C34.8357 55.0351 39.9133 54.6921 42.1433 54.5205C40.5995 52.119 36.3316 48.416 33.9094 46.8012C32.3656 45.772 34.424 47.3158 24.1316 44.2281C25.1609 42.6843 28.7632 39.5965 31.3363 39.0819C33.9094 38.5673 41.1141 38.0527 43.6872 39.0819C46.2603 40.1112 39.0556 32.3919 36.9971 31.8772C34.9386 31.3626 36.9971 30.848 39.5702 29.8188C42.1433 28.7895 44.2018 28.7895 46.2603 28.7895C47.9071 28.7895 51.7496 30.5049 53.465 31.3626Z" stroke="#F2D7B6"/>
<path d="M34.9386 80.7661L63.2427 66.8713C64.4778 68.1064 87.0867 73.9045 98.2368 76.6491L88.459 89L34.9386 80.7661Z" stroke="#F2D7B6" stroke-width="1.02924"/>
<path d="M90.0028 1L99.266 14.8947C89.797 14.8947 71.6481 19.6979 63.7572 22.0994L35.9677 7.17544L90.0028 1Z" stroke="#F2D7B6" stroke-width="1.02924"/>
<path d="M184.833 61.7252V31.8772C192.724 36.3372 208.506 45.669 208.506 47.3158C208.506 48.9626 192.724 57.6082 184.833 61.7252Z" stroke="#F2D7B6" stroke-width="1.48619"/>
</svg>
