<svg width="491" height="427" viewBox="0 0 491 427" fill="none" xmlns="http://www.w3.org/2000/svg">
<g filter="url(#filter0_dddddd_120_38)">
<rect x="303" y="303" width="120" height="38" rx="19" fill="#732222"/>
<rect x="303.5" y="303.5" width="119" height="37" rx="18.5" stroke="#F2D7B6"/>
</g>
<g filter="url(#filter1_dddddd_120_38)">
<path d="M336.815 325.67C336.815 326.415 336.676 327.113 336.399 327.763C336.121 328.404 335.74 328.968 335.255 329.453C334.778 329.93 334.215 330.307 333.565 330.584C332.923 330.861 332.234 331 331.498 331H315.3V328.335H331.498C331.87 328.335 332.217 328.266 332.538 328.127C332.858 327.988 333.136 327.798 333.37 327.555C333.612 327.312 333.803 327.031 333.942 326.71C334.08 326.381 334.15 326.034 334.15 325.67C334.15 325.306 334.08 324.964 333.942 324.643C333.803 324.322 333.612 324.041 333.37 323.798C333.136 323.555 332.858 323.365 332.538 323.226C332.217 323.087 331.87 323.018 331.498 323.018H320.63C319.902 323.018 319.213 322.879 318.563 322.602C317.913 322.325 317.345 321.948 316.86 321.471C316.383 320.986 316.002 320.418 315.716 319.768C315.439 319.118 315.3 318.425 315.3 317.688C315.3 316.96 315.439 316.271 315.716 315.621C316.002 314.971 316.383 314.408 316.86 313.931C317.345 313.446 317.913 313.065 318.563 312.787C319.213 312.501 319.902 312.358 320.63 312.358H335.489V315.023H320.63C320.266 315.023 319.919 315.093 319.59 315.231C319.269 315.37 318.988 315.561 318.745 315.803C318.502 316.046 318.312 316.332 318.173 316.661C318.034 316.982 317.965 317.324 317.965 317.688C317.965 318.052 318.034 318.399 318.173 318.728C318.312 319.049 318.502 319.331 318.745 319.573C318.988 319.816 319.269 320.006 319.59 320.145C319.919 320.284 320.266 320.353 320.63 320.353H331.498C332.234 320.353 332.923 320.496 333.565 320.782C334.215 321.059 334.778 321.441 335.255 321.926C335.74 322.403 336.121 322.966 336.399 323.616C336.676 324.257 336.815 324.942 336.815 325.67ZM359.629 331H356.964V323.018H343.939V320.353H356.964V312.358H359.629V331ZM342.613 331H339.948V312.358H342.613V331ZM386.357 321.679C386.357 322.97 386.153 324.184 385.746 325.319C385.339 326.454 384.758 327.442 384.004 328.283C383.259 329.124 382.362 329.787 381.313 330.272C380.264 330.757 379.099 331 377.816 331H371.615C370.324 331 369.15 330.757 368.092 330.272C367.035 329.787 366.129 329.124 365.375 328.283C364.63 327.442 364.054 326.454 363.646 325.319C363.239 324.184 363.035 322.97 363.035 321.679C363.035 320.396 363.239 319.192 363.646 318.065C364.054 316.93 364.63 315.942 365.375 315.101C366.129 314.252 367.035 313.585 368.092 313.099C369.15 312.605 370.324 312.358 371.615 312.358H377.816C379.099 312.358 380.264 312.605 381.313 313.099C382.362 313.585 383.259 314.252 384.004 315.101C384.758 315.942 385.339 316.93 385.746 318.065C386.153 319.192 386.357 320.396 386.357 321.679ZM383.692 321.679C383.692 320.76 383.558 319.898 383.289 319.092C383.02 318.286 382.63 317.584 382.119 316.986C381.616 316.38 381.001 315.903 380.273 315.556C379.554 315.201 378.735 315.023 377.816 315.023H371.615C370.696 315.023 369.869 315.201 369.132 315.556C368.404 315.903 367.785 316.38 367.273 316.986C366.771 317.584 366.381 318.286 366.103 319.092C365.835 319.898 365.7 320.76 365.7 321.679C365.7 322.598 365.835 323.464 366.103 324.279C366.381 325.085 366.771 325.791 367.273 326.398C367.785 326.996 368.404 327.468 369.132 327.815C369.869 328.162 370.696 328.335 371.615 328.335H377.816C378.735 328.335 379.554 328.162 380.273 327.815C381.001 327.468 381.616 326.996 382.119 326.398C382.63 325.791 383.02 325.085 383.289 324.279C383.558 323.464 383.692 322.598 383.692 321.679ZM411.278 319.014C411.278 319.933 411.1 320.799 410.745 321.614C410.398 322.42 409.921 323.126 409.315 323.733C408.717 324.331 408.015 324.803 407.209 325.15C406.403 325.497 405.54 325.67 404.622 325.67H393.923V323.044H404.622C405.176 323.044 405.696 322.94 406.182 322.732C406.667 322.515 407.087 322.225 407.443 321.861C407.807 321.497 408.093 321.072 408.301 320.587C408.509 320.093 408.613 319.569 408.613 319.014C408.613 318.46 408.509 317.94 408.301 317.454C408.093 316.969 407.807 316.549 407.443 316.193C407.087 315.829 406.667 315.543 406.182 315.335C405.696 315.127 405.176 315.023 404.622 315.023H392.428V331H389.763V312.358H404.622C405.54 312.358 406.403 312.536 407.209 312.891C408.015 313.238 408.717 313.715 409.315 314.321C409.921 314.919 410.398 315.621 410.745 316.427C411.1 317.233 411.278 318.096 411.278 319.014Z" fill="#F2D7B6"/>
</g>
<defs>
<filter id="filter0_dddddd_120_38" x="0.497925" y="0.497925" width="725.004" height="643.004" filterUnits="userSpaceOnUse" color-interpolation-filters="sRGB">
<feFlood flood-opacity="0" result="BackgroundImageFix"/>
<feColorMatrix in="SourceAlpha" type="matrix" values="0 0 0 0 0 0 0 0 0 0 0 0 0 0 0 0 0 0 127 0" result="hardAlpha"/>
<feOffset/>
<feGaussianBlur stdDeviation="3.60122"/>
<feColorMatrix type="matrix" values="0 0 0 0 0.45098 0 0 0 0 0.133333 0 0 0 0 0.133333 0 0 0 1 0"/>
<feBlend mode="normal" in2="BackgroundImageFix" result="effect1_dropShadow_120_38"/>
<feColorMatrix in="SourceAlpha" type="matrix" values="0 0 0 0 0 0 0 0 0 0 0 0 0 0 0 0 0 0 127 0" result="hardAlpha"/>
<feOffset/>
<feGaussianBlur stdDeviation="7.20243"/>
<feColorMatrix type="matrix" values="0 0 0 0 0.45098 0 0 0 0 0.133333 0 0 0 0 0.133333 0 0 0 1 0"/>
<feBlend mode="normal" in2="effect1_dropShadow_120_38" result="effect2_dropShadow_120_38"/>
<feColorMatrix in="SourceAlpha" type="matrix" values="0 0 0 0 0 0 0 0 0 0 0 0 0 0 0 0 0 0 127 0" result="hardAlpha"/>
<feOffset/>
<feGaussianBlur stdDeviation="25.2085"/>
<feColorMatrix type="matrix" values="0 0 0 0 0.45098 0 0 0 0 0.133333 0 0 0 0 0.133333 0 0 0 1 0"/>
<feBlend mode="normal" in2="effect2_dropShadow_120_38" result="effect3_dropShadow_120_38"/>
<feColorMatrix in="SourceAlpha" type="matrix" values="0 0 0 0 0 0 0 0 0 0 0 0 0 0 0 0 0 0 127 0" result="hardAlpha"/>
<feOffset/>
<feGaussianBlur stdDeviation="50.417"/>
<feColorMatrix type="matrix" values="0 0 0 0 0.45098 0 0 0 0 0.133333 0 0 0 0 0.133333 0 0 0 1 0"/>
<feBlend mode="normal" in2="effect3_dropShadow_120_38" result="effect4_dropShadow_120_38"/>
<feColorMatrix in="SourceAlpha" type="matrix" values="0 0 0 0 0 0 0 0 0 0 0 0 0 0 0 0 0 0 127 0" result="hardAlpha"/>
<feOffset/>
<feGaussianBlur stdDeviation="86.4292"/>
<feColorMatrix type="matrix" values="0 0 0 0 0.45098 0 0 0 0 0.133333 0 0 0 0 0.133333 0 0 0 1 0"/>
<feBlend mode="normal" in2="effect4_dropShadow_120_38" result="effect5_dropShadow_120_38"/>
<feColorMatrix in="SourceAlpha" type="matrix" values="0 0 0 0 0 0 0 0 0 0 0 0 0 0 0 0 0 0 127 0" result="hardAlpha"/>
<feOffset/>
<feGaussianBlur stdDeviation="151.251"/>
<feColorMatrix type="matrix" values="0 0 0 0 0.45098 0 0 0 0 0.133333 0 0 0 0 0.133333 0 0 0 1 0"/>
<feBlend mode="normal" in2="effect5_dropShadow_120_38" result="effect6_dropShadow_120_38"/>
<feBlend mode="normal" in="SourceGraphic" in2="effect6_dropShadow_120_38" result="shape"/>
</filter>
<filter id="filter1_dddddd_120_38" x="68.2566" y="65.3149" width="590.064" height="512.728" filterUnits="userSpaceOnUse" color-interpolation-filters="sRGB">
<feFlood flood-opacity="0" result="BackgroundImageFix"/>
<feColorMatrix in="SourceAlpha" type="matrix" values="0 0 0 0 0 0 0 0 0 0 0 0 0 0 0 0 0 0 127 0" result="hardAlpha"/>
<feOffset/>
<feGaussianBlur stdDeviation="2.94099"/>
<feColorMatrix type="matrix" values="0 0 0 0 0.45098 0 0 0 0 0.133333 0 0 0 0 0.133333 0 0 0 1 0"/>
<feBlend mode="normal" in2="BackgroundImageFix" result="effect1_dropShadow_120_38"/>
<feColorMatrix in="SourceAlpha" type="matrix" values="0 0 0 0 0 0 0 0 0 0 0 0 0 0 0 0 0 0 127 0" result="hardAlpha"/>
<feOffset/>
<feGaussianBlur stdDeviation="5.88198"/>
<feColorMatrix type="matrix" values="0 0 0 0 0.45098 0 0 0 0 0.133333 0 0 0 0 0.133333 0 0 0 1 0"/>
<feBlend mode="normal" in2="effect1_dropShadow_120_38" result="effect2_dropShadow_120_38"/>
<feColorMatrix in="SourceAlpha" type="matrix" values="0 0 0 0 0 0 0 0 0 0 0 0 0 0 0 0 0 0 127 0" result="hardAlpha"/>
<feOffset/>
<feGaussianBlur stdDeviation="20.5869"/>
<feColorMatrix type="matrix" values="0 0 0 0 0.45098 0 0 0 0 0.133333 0 0 0 0 0.133333 0 0 0 1 0"/>
<feBlend mode="normal" in2="effect2_dropShadow_120_38" result="effect3_dropShadow_120_38"/>
<feColorMatrix in="SourceAlpha" type="matrix" values="0 0 0 0 0 0 0 0 0 0 0 0 0 0 0 0 0 0 127 0" result="hardAlpha"/>
<feOffset/>
<feGaussianBlur stdDeviation="41.1739"/>
<feColorMatrix type="matrix" values="0 0 0 0 0.45098 0 0 0 0 0.133333 0 0 0 0 0.133333 0 0 0 1 0"/>
<feBlend mode="normal" in2="effect3_dropShadow_120_38" result="effect4_dropShadow_120_38"/>
<feColorMatrix in="SourceAlpha" type="matrix" values="0 0 0 0 0 0 0 0 0 0 0 0 0 0 0 0 0 0 127 0" result="hardAlpha"/>
<feOffset/>
<feGaussianBlur stdDeviation="70.5838"/>
<feColorMatrix type="matrix" values="0 0 0 0 0.45098 0 0 0 0 0.133333 0 0 0 0 0.133333 0 0 0 1 0"/>
<feBlend mode="normal" in2="effect4_dropShadow_120_38" result="effect5_dropShadow_120_38"/>
<feColorMatrix in="SourceAlpha" type="matrix" values="0 0 0 0 0 0 0 0 0 0 0 0 0 0 0 0 0 0 127 0" result="hardAlpha"/>
<feOffset/>
<feGaussianBlur stdDeviation="123.522"/>
<feColorMatrix type="matrix" values="0 0 0 0 0.45098 0 0 0 0 0.133333 0 0 0 0 0.133333 0 0 0 1 0"/>
<feBlend mode="normal" in2="effect5_dropShadow_120_38" result="effect6_dropShadow_120_38"/>
<feBlend mode="normal" in="SourceGraphic" in2="effect6_dropShadow_120_38" result="shape"/>
</filter>
</defs>
</svg>
