<svg width="154" height="58" viewBox="0 0 154 58" fill="none" xmlns="http://www.w3.org/2000/svg">
<g filter="url(#filter0_dddddd_15_398)">
<path fill-rule="evenodd" clip-rule="evenodd" d="M36.0869 27.5029C34.9834 27.376 33.6602 27.3125 32.1172 27.3125H28.25C27 27.3125 25.9209 27.2881 25.0127 27.2393C24.1143 27.1807 23.3525 27.0879 22.7275 26.9609C22.1025 26.834 21.5996 26.6729 21.2188 26.4775C20.8379 26.2822 20.54 26.043 20.3252 25.7598C20.1201 25.4668 19.9834 25.1299 19.915 24.749C19.8467 24.3682 19.8125 23.9336 19.8125 23.4453C19.8125 22.6543 19.9492 21.9951 20.2227 21.4678C20.4961 20.9404 20.9844 20.5205 21.6875 20.208C22.3906 19.8955 23.3477 19.6758 24.5586 19.5488C25.7695 19.4121 27.3125 19.3438 29.1875 19.3438H32C33.4062 19.3438 34.5879 19.3779 35.5449 19.4463C36.502 19.5049 37.2734 19.6611 37.8594 19.915C38.4453 20.1592 38.8652 20.5303 39.1191 21.0283C39.373 21.5264 39.5 22.2148 39.5 23.0938H42.3125C42.3125 22.3906 42.2539 21.751 42.1367 21.1748C42.0195 20.5986 41.8096 20.0859 41.5068 19.6367C41.2139 19.1777 40.8135 18.7871 40.3057 18.4648C39.8076 18.1328 39.1777 17.8594 38.416 17.6445C37.6543 17.4199 36.7461 17.2588 35.6914 17.1611C34.6367 17.0537 33.4062 17 32 17H29.1875C27.4688 17 25.9746 17.0635 24.7051 17.1904C23.4355 17.3174 22.3467 17.5078 21.4385 17.7617C20.54 18.0059 19.8027 18.3135 19.2266 18.6846C18.6504 19.0557 18.1963 19.4805 17.8643 19.959C17.5322 20.4277 17.3027 20.9551 17.1758 21.541C17.0586 22.127 17 22.7617 17 23.4453C17 24.0996 17.0391 24.71 17.1172 25.2764C17.1953 25.833 17.3613 26.3408 17.6152 26.7998C17.8789 27.2588 18.2598 27.6689 18.7578 28.0303C19.2559 28.3818 19.9199 28.6797 20.75 28.9238C21.5801 29.1582 22.6055 29.3389 23.8262 29.4658C25.0566 29.5928 26.5312 29.6562 28.25 29.6562H32.1172C33.6797 29.6562 34.9443 29.7246 35.9111 29.8613C36.8779 29.9883 37.625 30.208 38.1523 30.5205C38.6895 30.833 39.0459 31.2529 39.2217 31.7803C39.4072 32.3076 39.5 32.9668 39.5 33.7578C39.5 34.5488 39.3682 35.2227 39.1045 35.7793C38.8408 36.3262 38.3867 36.7705 37.7422 37.1123C37.0977 37.4541 36.2334 37.7031 35.1494 37.8594C34.0654 38.0156 32.7031 38.0938 31.0625 38.0938H27.3125C25.9062 38.0938 24.7246 38.0645 23.7676 38.0059C22.8203 37.9375 22.0537 37.7812 21.4678 37.5371C20.8818 37.2832 20.4619 36.9072 20.208 36.4092C19.9541 35.9111 19.8271 35.2227 19.8271 34.3438H17.0146C17.0146 35.0469 17.0732 35.6914 17.1904 36.2773C17.3076 36.8535 17.5127 37.3711 17.8057 37.8301C18.1084 38.2793 18.5088 38.6748 19.0068 39.0166C19.5049 39.3486 20.1348 39.627 20.8965 39.8516C21.6582 40.0664 22.5664 40.2275 23.6211 40.335C24.6758 40.4424 25.9062 40.4961 27.3125 40.4961H31.0625C32.625 40.4961 33.9873 40.4229 35.1494 40.2764C36.3213 40.1396 37.3223 39.9346 38.1523 39.6611C38.9824 39.3877 39.666 39.0557 40.2031 38.665C40.7402 38.2744 41.165 37.8301 41.4775 37.332C41.79 36.834 42.0049 36.2871 42.1221 35.6914C42.249 35.0859 42.3125 34.4414 42.3125 33.7578C42.3125 33.0742 42.2734 32.4395 42.1953 31.8535C42.127 31.2676 41.9707 30.7402 41.7266 30.2715C41.4824 29.793 41.1357 29.3682 40.6865 28.9971C40.2373 28.626 39.6318 28.3184 38.8701 28.0742C38.1182 27.8203 37.1904 27.6299 36.0869 27.5029ZM73.25 17.4688H70.4375V27.3125H49.8125V17.4688H47V39.9688H49.8125V29.6562H70.4375V39.9688H73.25V17.4688ZM96.7021 17C98.4209 17 99.8662 17.1074 101.038 17.3223C102.22 17.5273 103.191 17.8447 103.953 18.2744C104.715 18.6943 105.301 19.2266 105.711 19.8711C106.121 20.5156 106.419 21.2725 106.604 22.1416C106.8 23.0107 106.912 23.9922 106.941 25.0859C106.98 26.1797 107 27.3906 107 28.7188C107 30.0469 106.98 31.2578 106.941 32.3516C106.912 33.4453 106.8 34.4268 106.604 35.2959C106.419 36.165 106.121 36.9219 105.711 37.5664C105.301 38.2109 104.715 38.748 103.953 39.1777C103.191 39.5977 102.22 39.9102 101.038 40.1152C99.8662 40.3301 98.4209 40.4375 96.7021 40.4375H88.2354C86.5166 40.4375 85.0664 40.3301 83.8848 40.1152C82.7129 39.9102 81.7461 39.5977 80.9844 39.1777C80.2227 38.748 79.6318 38.2109 79.2119 37.5664C78.8018 36.9219 78.499 36.165 78.3037 35.2959C78.1182 34.4268 78.0107 33.4453 77.9814 32.3516C77.9521 31.2578 77.9375 30.0469 77.9375 28.7188C77.9375 27.3906 77.9521 26.1797 77.9814 25.0859C78.0107 23.9922 78.1182 23.0107 78.3037 22.1416C78.499 21.2725 78.8018 20.5156 79.2119 19.8711C79.6318 19.2266 80.2227 18.6943 80.9844 18.2744C81.7461 17.8447 82.7129 17.5273 83.8848 17.3223C85.0664 17.1074 86.5166 17 88.2354 17H96.7021ZM96.7021 38.0938C97.9424 38.0938 98.9873 38.0596 99.8369 37.9912C100.696 37.9131 101.404 37.7617 101.961 37.5371C102.518 37.3125 102.947 36.9902 103.25 36.5703C103.553 36.1504 103.772 35.5938 103.909 34.9004C104.046 34.207 104.124 33.3574 104.144 32.3516C104.173 31.3359 104.188 30.125 104.188 28.7188C104.188 27.3125 104.173 26.1064 104.144 25.1006C104.124 24.085 104.046 23.2305 103.909 22.5371C103.772 21.8438 103.553 21.2871 103.25 20.8672C102.947 20.4473 102.518 20.125 101.961 19.9004C101.414 19.6758 100.711 19.5293 99.8516 19.4609C99.002 19.3828 97.9521 19.3438 96.7021 19.3438H88.2354C86.9854 19.3438 85.9307 19.3828 85.0713 19.4609C84.2217 19.5293 83.5186 19.6758 82.9619 19.9004C82.4053 20.125 81.9756 20.4473 81.6729 20.8672C81.3701 21.2871 81.1504 21.8438 81.0137 22.5371C80.877 23.2305 80.7988 24.085 80.7793 25.1006C80.7598 26.1064 80.75 27.3125 80.75 28.7188C80.75 30.125 80.7598 31.3359 80.7793 32.3516C80.8086 33.3574 80.8916 34.207 81.0283 34.9004C81.165 35.5938 81.3799 36.1504 81.6729 36.5703C81.9756 36.9902 82.4053 37.3125 82.9619 37.5371C83.5186 37.7617 84.2217 37.9131 85.0713 37.9912C85.9307 38.0596 86.9854 38.0938 88.2354 38.0938H96.7021ZM128.592 17.4688H111.688V39.9688H114.5V31.0625H126.673C128.392 31.0625 129.837 30.9941 131.009 30.8574C132.19 30.7207 133.162 30.5205 133.924 30.2568C134.695 29.9932 135.286 29.666 135.696 29.2754C136.116 28.875 136.419 28.416 136.604 27.8984C136.8 27.3711 136.912 26.7852 136.941 26.1406C136.98 25.4961 137 24.793 137 24.0312C137 23.2988 136.985 22.6299 136.956 22.0244C136.937 21.4189 136.849 20.8721 136.692 20.3838C136.536 19.8955 136.287 19.4707 135.945 19.1094C135.613 18.748 135.135 18.4453 134.51 18.2012C133.885 17.957 133.089 17.7764 132.122 17.6592C131.165 17.5322 129.988 17.4688 128.592 17.4688ZM126.673 28.7188H114.5V19.8125H126.673C127.923 19.8125 128.973 19.8271 129.822 19.8564C130.682 19.8857 131.39 19.9541 131.946 20.0615C132.503 20.1592 132.933 20.3008 133.235 20.4863C133.538 20.6719 133.758 20.9209 133.895 21.2334C134.041 21.5459 134.124 21.9316 134.144 22.3906C134.173 22.8496 134.188 23.3965 134.188 24.0312C134.188 24.7148 134.173 25.3057 134.144 25.8037C134.124 26.292 134.041 26.7119 133.895 27.0635C133.758 27.415 133.538 27.6982 133.235 27.9131C132.933 28.1279 132.503 28.2939 131.946 28.4111C131.39 28.5283 130.682 28.6113 129.822 28.6602C128.973 28.6992 127.923 28.7188 126.673 28.7188Z" fill="#D98236"/>
</g>
<defs>
<filter id="filter0_dddddd_15_398" x="0.154961" y="0.154961" width="153.69" height="57.1862" filterUnits="userSpaceOnUse" color-interpolation-filters="sRGB">
<feFlood flood-opacity="0" result="BackgroundImageFix"/>
<feColorMatrix in="SourceAlpha" type="matrix" values="0 0 0 0 0 0 0 0 0 0 0 0 0 0 0 0 0 0 127 0" result="hardAlpha"/>
<feOffset/>
<feGaussianBlur stdDeviation="0.200536"/>
<feColorMatrix type="matrix" values="0 0 0 0 0.85098 0 0 0 0 0.509804 0 0 0 0 0.211765 0 0 0 1 0"/>
<feBlend mode="normal" in2="BackgroundImageFix" result="effect1_dropShadow_15_398"/>
<feColorMatrix in="SourceAlpha" type="matrix" values="0 0 0 0 0 0 0 0 0 0 0 0 0 0 0 0 0 0 127 0" result="hardAlpha"/>
<feOffset/>
<feGaussianBlur stdDeviation="0.401072"/>
<feColorMatrix type="matrix" values="0 0 0 0 0.85098 0 0 0 0 0.509804 0 0 0 0 0.211765 0 0 0 1 0"/>
<feBlend mode="normal" in2="effect1_dropShadow_15_398" result="effect2_dropShadow_15_398"/>
<feColorMatrix in="SourceAlpha" type="matrix" values="0 0 0 0 0 0 0 0 0 0 0 0 0 0 0 0 0 0 127 0" result="hardAlpha"/>
<feOffset/>
<feGaussianBlur stdDeviation="1.40375"/>
<feColorMatrix type="matrix" values="0 0 0 0 0.85098 0 0 0 0 0.509804 0 0 0 0 0.211765 0 0 0 1 0"/>
<feBlend mode="normal" in2="effect2_dropShadow_15_398" result="effect3_dropShadow_15_398"/>
<feColorMatrix in="SourceAlpha" type="matrix" values="0 0 0 0 0 0 0 0 0 0 0 0 0 0 0 0 0 0 127 0" result="hardAlpha"/>
<feOffset/>
<feGaussianBlur stdDeviation="2.80751"/>
<feColorMatrix type="matrix" values="0 0 0 0 0.85098 0 0 0 0 0.509804 0 0 0 0 0.211765 0 0 0 1 0"/>
<feBlend mode="normal" in2="effect3_dropShadow_15_398" result="effect4_dropShadow_15_398"/>
<feColorMatrix in="SourceAlpha" type="matrix" values="0 0 0 0 0 0 0 0 0 0 0 0 0 0 0 0 0 0 127 0" result="hardAlpha"/>
<feOffset/>
<feGaussianBlur stdDeviation="4.81287"/>
<feColorMatrix type="matrix" values="0 0 0 0 0.85098 0 0 0 0 0.509804 0 0 0 0 0.211765 0 0 0 1 0"/>
<feBlend mode="normal" in2="effect4_dropShadow_15_398" result="effect5_dropShadow_15_398"/>
<feColorMatrix in="SourceAlpha" type="matrix" values="0 0 0 0 0 0 0 0 0 0 0 0 0 0 0 0 0 0 127 0" result="hardAlpha"/>
<feOffset/>
<feGaussianBlur stdDeviation="8.42252"/>
<feColorMatrix type="matrix" values="0 0 0 0 0.85098 0 0 0 0 0.509804 0 0 0 0 0.211765 0 0 0 1 0"/>
<feBlend mode="normal" in2="effect5_dropShadow_15_398" result="effect6_dropShadow_15_398"/>
<feBlend mode="normal" in="SourceGraphic" in2="effect6_dropShadow_15_398" result="shape"/>
</filter>
</defs>
</svg>
