<svg width="1440" height="1024" viewBox="0 0 1440 1024" fill="none" xmlns="http://www.w3.org/2000/svg">
<g filter="url(#filter0_dddddd_135_129)">
<rect x="765" y="353" width="530" height="37.4118" rx="18.7059" fill="#732222" fill-opacity="0.3"/>
</g>
<path d="M793.048 380.338H790.359V364.22H780.851V361.531H802.556V364.22H793.048V380.338ZM823.519 380.338H820.831V372.954C820.831 372.307 820.708 371.7 820.463 371.131C820.219 370.563 819.886 370.069 819.467 369.649C819.047 369.221 818.553 368.884 817.985 368.64C817.425 368.386 816.822 368.255 816.175 368.246H808.791V380.338H806.102V360.193H808.791V365.571H816.175C817.189 365.571 818.142 365.767 819.034 366.161C819.926 366.546 820.704 367.074 821.368 367.748C822.033 368.412 822.557 369.195 822.942 370.095C823.327 370.987 823.519 371.94 823.519 372.954V380.338ZM845.676 370.266C845.676 370.922 845.553 371.534 845.309 372.102C845.064 372.67 844.727 373.169 844.299 373.597C843.879 374.017 843.381 374.349 842.804 374.594C842.235 374.839 841.628 374.961 840.981 374.961H830.685C830.878 375.354 831.118 375.717 831.407 376.05C831.695 376.382 832.019 376.666 832.377 376.902C832.736 377.138 833.125 377.322 833.544 377.453C833.973 377.584 834.419 377.65 834.882 377.65H843.669V380.338H834.882C833.868 380.329 832.915 380.133 832.023 379.748C831.131 379.355 830.353 378.826 829.689 378.161C829.033 377.488 828.513 376.705 828.128 375.814C827.743 374.922 827.551 373.969 827.551 372.954C827.551 371.94 827.743 370.987 828.128 370.095C828.513 369.204 829.033 368.425 829.689 367.761C830.353 367.088 831.131 366.559 832.023 366.174C832.915 365.78 833.868 365.579 834.882 365.571H840.981C841.628 365.571 842.235 365.693 842.804 365.938C843.381 366.183 843.879 366.519 844.299 366.948C844.727 367.367 845.064 367.861 845.309 368.43C845.553 368.998 845.676 369.61 845.676 370.266ZM840.981 372.286C841.252 372.286 841.51 372.233 841.754 372.128C841.999 372.023 842.213 371.879 842.397 371.695C842.581 371.512 842.725 371.298 842.83 371.053C842.935 370.808 842.987 370.546 842.987 370.266C842.987 369.995 842.935 369.737 842.83 369.492C842.725 369.247 842.581 369.033 842.397 368.849C842.213 368.666 841.999 368.522 841.754 368.417C841.51 368.303 841.252 368.246 840.981 368.246H834.882C834.288 368.246 833.728 368.351 833.203 368.561C832.688 368.771 832.224 369.059 831.813 369.426C831.411 369.785 831.074 370.213 830.803 370.712C830.541 371.201 830.371 371.726 830.292 372.286H840.981ZM883.537 374.961C883.537 375.713 883.392 376.417 883.104 377.073C882.824 377.72 882.439 378.288 881.95 378.778C881.469 379.258 880.9 379.639 880.245 379.919C879.589 380.198 878.894 380.338 878.159 380.338H865.425V377.65H878.159C878.527 377.65 878.872 377.58 879.195 377.44C879.528 377.3 879.816 377.108 880.061 376.863C880.306 376.618 880.498 376.334 880.638 376.01C880.778 375.678 880.848 375.328 880.848 374.961C880.848 374.594 880.778 374.248 880.638 373.925C880.498 373.601 880.306 373.317 880.061 373.072C879.816 372.828 879.528 372.635 879.195 372.495C878.872 372.356 878.527 372.286 878.159 372.286H865.425V369.597H875.471C875.838 369.597 876.183 369.527 876.507 369.387C876.839 369.247 877.128 369.055 877.372 368.81C877.617 368.565 877.81 368.281 877.95 367.958C878.089 367.625 878.159 367.276 878.159 366.908C878.159 366.541 878.089 366.196 877.95 365.872C877.81 365.54 877.617 365.251 877.372 365.007C877.128 364.762 876.839 364.57 876.507 364.43C876.183 364.29 875.838 364.22 875.471 364.22H864.087V380.338H861.398V361.531H875.471C876.205 361.531 876.9 361.675 877.556 361.964C878.212 362.244 878.78 362.628 879.261 363.118C879.751 363.599 880.135 364.167 880.415 364.823C880.704 365.479 880.848 366.174 880.848 366.908C880.848 367.477 880.765 368.014 880.599 368.522C880.433 369.02 880.21 369.483 879.93 369.912C880.455 370.095 880.935 370.353 881.373 370.686C881.818 371.018 882.199 371.402 882.514 371.84C882.837 372.277 883.086 372.762 883.261 373.295C883.445 373.82 883.537 374.375 883.537 374.961ZM904.893 370.266C904.893 370.922 904.771 371.534 904.526 372.102C904.281 372.67 903.945 373.169 903.516 373.597C903.096 374.017 902.598 374.349 902.021 374.594C901.453 374.839 900.845 374.961 900.198 374.961H889.903C890.095 375.354 890.335 375.717 890.624 376.05C890.912 376.382 891.236 376.666 891.594 376.902C891.953 377.138 892.342 377.322 892.762 377.453C893.19 377.584 893.636 377.65 894.099 377.65H902.887V380.338H894.099C893.085 380.329 892.132 380.133 891.24 379.748C890.349 379.355 889.57 378.826 888.906 378.161C888.25 377.488 887.73 376.705 887.345 375.814C886.96 374.922 886.768 373.969 886.768 372.954C886.768 371.94 886.96 370.987 887.345 370.095C887.73 369.204 888.25 368.425 888.906 367.761C889.57 367.088 890.349 366.559 891.24 366.174C892.132 365.78 893.085 365.579 894.099 365.571H900.198C900.845 365.571 901.453 365.693 902.021 365.938C902.598 366.183 903.096 366.519 903.516 366.948C903.945 367.367 904.281 367.861 904.526 368.43C904.771 368.998 904.893 369.61 904.893 370.266ZM900.198 372.286C900.469 372.286 900.727 372.233 900.972 372.128C901.217 372.023 901.431 371.879 901.614 371.695C901.798 371.512 901.942 371.298 902.047 371.053C902.152 370.808 902.205 370.546 902.205 370.266C902.205 369.995 902.152 369.737 902.047 369.492C901.942 369.247 901.798 369.033 901.614 368.849C901.431 368.666 901.217 368.522 900.972 368.417C900.727 368.303 900.469 368.246 900.198 368.246H894.099C893.505 368.246 892.945 368.351 892.421 368.561C891.905 368.771 891.441 369.059 891.031 369.426C890.628 369.785 890.292 370.213 890.021 370.712C889.758 371.201 889.588 371.726 889.509 372.286H900.198ZM926.368 365.571L918.21 380.338H915.141L907.036 365.571H910.171L916.676 377.545L923.233 365.571H926.368ZM946.715 370.266C946.715 370.922 946.592 371.534 946.347 372.102C946.103 372.67 945.766 373.169 945.338 373.597C944.918 374.017 944.419 374.349 943.842 374.594C943.274 374.839 942.666 374.961 942.019 374.961H931.724C931.916 375.354 932.157 375.717 932.445 376.05C932.734 376.382 933.057 376.666 933.416 376.902C933.774 377.138 934.163 377.322 934.583 377.453C935.012 377.584 935.457 377.65 935.921 377.65H944.708V380.338H935.921C934.907 380.329 933.954 380.133 933.062 379.748C932.17 379.355 931.392 378.826 930.727 378.161C930.072 377.488 929.551 376.705 929.167 375.814C928.782 374.922 928.59 373.969 928.59 372.954C928.59 371.94 928.782 370.987 929.167 370.095C929.551 369.204 930.072 368.425 930.727 367.761C931.392 367.088 932.17 366.559 933.062 366.174C933.954 365.78 934.907 365.579 935.921 365.571H942.019C942.666 365.571 943.274 365.693 943.842 365.938C944.419 366.183 944.918 366.519 945.338 366.948C945.766 367.367 946.103 367.861 946.347 368.43C946.592 368.998 946.715 369.61 946.715 370.266ZM942.019 372.286C942.29 372.286 942.548 372.233 942.793 372.128C943.038 372.023 943.252 371.879 943.436 371.695C943.619 371.512 943.764 371.298 943.869 371.053C943.974 370.808 944.026 370.546 944.026 370.266C944.026 369.995 943.974 369.737 943.869 369.492C943.764 369.247 943.619 369.033 943.436 368.849C943.252 368.666 943.038 368.522 942.793 368.417C942.548 368.303 942.29 368.246 942.019 368.246H935.921C935.326 368.246 934.767 368.351 934.242 368.561C933.726 368.771 933.263 369.059 932.852 369.426C932.45 369.785 932.113 370.213 931.842 370.712C931.58 371.201 931.409 371.726 931.331 372.286H942.019ZM965.37 368.246H955.297C955.017 368.246 954.755 368.303 954.51 368.417C954.265 368.522 954.051 368.666 953.868 368.849C953.684 369.033 953.54 369.247 953.435 369.492C953.33 369.737 953.277 369.995 953.277 370.266V380.338H950.589V370.266C950.589 369.61 950.711 368.998 950.956 368.43C951.201 367.861 951.537 367.367 951.966 366.948C952.394 366.519 952.893 366.183 953.461 365.938C954.029 365.693 954.641 365.571 955.297 365.571H965.37V368.246ZM985.257 380.338H971.827C971.172 380.338 970.56 380.216 969.991 379.971C969.423 379.726 968.925 379.394 968.496 378.974C968.068 378.546 967.731 378.047 967.486 377.479C967.242 376.902 967.119 376.29 967.119 375.643C967.119 374.987 967.242 374.375 967.486 373.807C967.731 373.239 968.068 372.74 968.496 372.312C968.925 371.883 969.423 371.547 969.991 371.302C970.56 371.057 971.172 370.935 971.827 370.935H981.218V373.623H971.827C971.548 373.623 971.285 373.68 971.041 373.794C970.796 373.899 970.581 374.043 970.398 374.227C970.214 374.41 970.07 374.624 969.965 374.869C969.86 375.114 969.808 375.372 969.808 375.643C969.808 375.923 969.86 376.185 969.965 376.43C970.07 376.666 970.214 376.876 970.398 377.059C970.581 377.243 970.796 377.387 971.041 377.492C971.285 377.597 971.548 377.65 971.827 377.65H982.569V370.266C982.569 369.995 982.512 369.737 982.398 369.492C982.293 369.247 982.149 369.033 981.965 368.849C981.782 368.666 981.568 368.522 981.323 368.417C981.078 368.303 980.82 368.246 980.549 368.246H969.808V365.571H980.549C981.205 365.571 981.817 365.693 982.385 365.938C982.953 366.183 983.452 366.519 983.88 366.948C984.309 367.367 984.645 367.861 984.89 368.43C985.135 368.998 985.257 369.61 985.257 370.266V380.338ZM1006.84 381.007C1006.84 381.663 1006.71 382.275 1006.46 382.843C1006.21 383.412 1005.88 383.91 1005.45 384.338C1005.03 384.767 1004.53 385.103 1003.95 385.348C1003.38 385.593 1002.78 385.715 1002.13 385.715H991.387V383.027H1002.13C1002.4 383.027 1002.66 382.974 1002.9 382.869C1003.15 382.765 1003.36 382.62 1003.54 382.437C1003.73 382.253 1003.87 382.039 1003.98 381.794C1004.09 381.549 1004.15 381.287 1004.15 381.007V368.246H996.764C996.117 368.255 995.51 368.386 994.941 368.64C994.382 368.884 993.892 369.221 993.473 369.649C993.053 370.069 992.721 370.563 992.476 371.131C992.24 371.7 992.122 372.307 992.122 372.954C992.122 373.601 992.24 374.209 992.476 374.777C992.721 375.337 993.053 375.831 993.473 376.259C993.892 376.679 994.382 377.016 994.941 377.269C995.51 377.514 996.117 377.641 996.764 377.65H1002.81V380.338H996.764C995.75 380.329 994.797 380.133 993.905 379.748C993.014 379.355 992.235 378.826 991.571 378.161C990.915 377.488 990.395 376.705 990.01 375.814C989.625 374.922 989.433 373.969 989.433 372.954C989.433 371.94 989.625 370.987 990.01 370.095C990.395 369.204 990.915 368.425 991.571 367.761C992.235 367.088 993.014 366.559 993.905 366.174C994.797 365.78 995.75 365.579 996.764 365.571H1006.84V381.007ZM1029.23 370.266C1029.23 370.922 1029.11 371.534 1028.86 372.102C1028.62 372.67 1028.28 373.169 1027.85 373.597C1027.43 374.017 1026.93 374.349 1026.36 374.594C1025.79 374.839 1025.18 374.961 1024.53 374.961H1014.24C1014.43 375.354 1014.67 375.717 1014.96 376.05C1015.25 376.382 1015.57 376.666 1015.93 376.902C1016.29 377.138 1016.68 377.322 1017.1 377.453C1017.53 377.584 1017.97 377.65 1018.44 377.65H1027.22V380.338H1018.44C1017.42 380.329 1016.47 380.133 1015.58 379.748C1014.68 379.355 1013.91 378.826 1013.24 378.161C1012.59 377.488 1012.07 376.705 1011.68 375.814C1011.3 374.922 1011.1 373.969 1011.1 372.954C1011.1 371.94 1011.3 370.987 1011.68 370.095C1012.07 369.204 1012.59 368.425 1013.24 367.761C1013.91 367.088 1014.68 366.559 1015.58 366.174C1016.47 365.78 1017.42 365.579 1018.44 365.571H1024.53C1025.18 365.571 1025.79 365.693 1026.36 365.938C1026.93 366.183 1027.43 366.519 1027.85 366.948C1028.28 367.367 1028.62 367.861 1028.86 368.43C1029.11 368.998 1029.23 369.61 1029.23 370.266ZM1024.53 372.286C1024.81 372.286 1025.06 372.233 1025.31 372.128C1025.55 372.023 1025.77 371.879 1025.95 371.695C1026.13 371.512 1026.28 371.298 1026.38 371.053C1026.49 370.808 1026.54 370.546 1026.54 370.266C1026.54 369.995 1026.49 369.737 1026.38 369.492C1026.28 369.247 1026.13 369.033 1025.95 368.849C1025.77 368.666 1025.55 368.522 1025.31 368.417C1025.06 368.303 1024.81 368.246 1024.53 368.246H1018.44C1017.84 368.246 1017.28 368.351 1016.76 368.561C1016.24 368.771 1015.78 369.059 1015.37 369.426C1014.96 369.785 1014.63 370.213 1014.36 370.712C1014.09 371.201 1013.92 371.726 1013.85 372.286H1024.53ZM1062.49 372.954C1062.49 373.969 1062.29 374.922 1061.91 375.814C1061.53 376.705 1061 377.488 1060.34 378.161C1059.68 378.826 1058.91 379.355 1058.01 379.748C1057.12 380.133 1056.17 380.329 1055.16 380.338H1051.02C1050.01 380.329 1049.06 380.133 1048.17 379.748C1047.27 379.355 1046.5 378.826 1045.83 378.161C1045.17 377.488 1044.65 376.705 1044.27 375.814C1043.89 374.922 1043.69 373.969 1043.69 372.954C1043.69 371.94 1043.89 370.987 1044.27 370.095C1044.65 369.195 1045.17 368.412 1045.83 367.748C1046.5 367.074 1047.27 366.546 1048.17 366.161C1049.06 365.767 1050.01 365.571 1051.02 365.571H1055.16C1055.83 365.571 1056.48 365.658 1057.11 365.833C1057.74 366.008 1058.33 366.257 1058.87 366.58C1059.41 366.904 1059.9 367.293 1060.35 367.748C1060.8 368.194 1061.18 368.692 1061.49 369.243C1061.8 369.785 1062.05 370.371 1062.22 371C1062.4 371.63 1062.49 372.281 1062.49 372.954ZM1059.81 372.954C1059.81 372.307 1059.69 371.7 1059.44 371.131C1059.2 370.563 1058.87 370.069 1058.45 369.649C1058.03 369.221 1057.53 368.884 1056.97 368.64C1056.41 368.386 1055.8 368.255 1055.16 368.246H1051.02C1050.38 368.255 1049.77 368.386 1049.2 368.64C1048.64 368.884 1048.15 369.221 1047.73 369.649C1047.31 370.069 1046.98 370.563 1046.74 371.131C1046.5 371.7 1046.38 372.307 1046.38 372.954C1046.38 373.601 1046.5 374.209 1046.74 374.777C1046.98 375.346 1047.31 375.844 1047.73 376.273C1048.15 376.692 1048.64 377.029 1049.2 377.282C1049.77 377.527 1050.38 377.65 1051.02 377.65H1055.16C1055.8 377.65 1056.41 377.527 1056.97 377.282C1057.53 377.029 1058.03 376.692 1058.45 376.273C1058.87 375.844 1059.2 375.346 1059.44 374.777C1059.69 374.209 1059.81 373.601 1059.81 372.954ZM1081.55 362.882H1074.11C1073.47 362.891 1072.86 363.022 1072.29 363.275C1071.73 363.52 1071.24 363.857 1070.82 364.285C1070.4 364.705 1070.07 365.199 1069.82 365.767C1069.58 366.336 1069.46 366.939 1069.46 367.577V380.338H1066.77V366.908C1066.77 365.964 1066.97 365.085 1067.37 364.272C1067.78 363.45 1068.32 362.742 1069 362.148C1069.68 361.544 1070.46 361.072 1071.34 360.731C1072.23 360.381 1073.15 360.202 1074.11 360.193H1081.55V362.882ZM1081.55 369.597H1070.81V366.908H1081.55V369.597ZM1106.48 380.338H1103.79V364.22H1094.28V361.531H1115.99V364.22H1106.48V380.338ZM1135.85 372.954C1135.85 373.969 1135.66 374.922 1135.27 375.814C1134.89 376.705 1134.36 377.488 1133.7 378.161C1133.04 378.826 1132.27 379.355 1131.38 379.748C1130.48 380.133 1129.53 380.329 1128.52 380.338H1124.38C1123.37 380.329 1122.42 380.133 1121.53 379.748C1120.63 379.355 1119.86 378.826 1119.19 378.161C1118.54 377.488 1118.02 376.705 1117.63 375.814C1117.25 374.922 1117.05 373.969 1117.05 372.954C1117.05 371.94 1117.25 370.987 1117.63 370.095C1118.02 369.195 1118.54 368.412 1119.19 367.748C1119.86 367.074 1120.63 366.546 1121.53 366.161C1122.42 365.767 1123.37 365.571 1124.38 365.571H1128.52C1129.19 365.571 1129.84 365.658 1130.47 365.833C1131.1 366.008 1131.69 366.257 1132.23 366.58C1132.77 366.904 1133.26 367.293 1133.71 367.748C1134.16 368.194 1134.54 368.692 1134.85 369.243C1135.17 369.785 1135.41 370.371 1135.59 371C1135.76 371.63 1135.85 372.281 1135.85 372.954ZM1133.17 372.954C1133.17 372.307 1133.05 371.7 1132.8 371.131C1132.56 370.563 1132.23 370.069 1131.81 369.649C1131.39 369.221 1130.89 368.884 1130.33 368.64C1129.77 368.386 1129.16 368.255 1128.52 368.246H1124.38C1123.74 368.255 1123.13 368.386 1122.56 368.64C1122 368.884 1121.51 369.221 1121.09 369.649C1120.67 370.069 1120.34 370.563 1120.1 371.131C1119.86 371.7 1119.74 372.307 1119.74 372.954C1119.74 373.601 1119.86 374.209 1120.1 374.777C1120.34 375.346 1120.67 375.844 1121.09 376.273C1121.51 376.692 1122 377.029 1122.56 377.282C1123.13 377.527 1123.74 377.65 1124.38 377.65H1128.52C1129.16 377.65 1129.77 377.527 1130.33 377.282C1130.89 377.029 1131.39 376.692 1131.81 376.273C1132.23 375.844 1132.56 375.346 1132.8 374.777C1133.05 374.209 1133.17 373.601 1133.17 372.954ZM1142.82 380.338H1140.13V365.571H1154.29C1155.31 365.571 1156.26 365.767 1157.15 366.161C1158.04 366.546 1158.82 367.074 1159.47 367.748C1160.14 368.412 1160.66 369.195 1161.05 370.095C1161.43 370.987 1161.62 371.94 1161.62 372.954V380.338H1158.94V372.954C1158.94 372.307 1158.81 371.7 1158.57 371.131C1158.32 370.563 1157.99 370.069 1157.57 369.649C1157.15 369.221 1156.66 368.884 1156.09 368.64C1155.53 368.386 1154.93 368.255 1154.29 368.246H1152.22V380.338H1149.53V368.246H1142.82V380.338ZM1184.46 372.954C1184.46 373.969 1184.27 374.922 1183.89 375.814C1183.5 376.705 1182.98 377.488 1182.31 378.161C1181.66 378.826 1180.88 379.355 1179.99 379.748C1179.1 380.133 1178.15 380.329 1177.13 380.338H1173C1171.99 380.329 1171.03 380.133 1170.14 379.748C1169.25 379.355 1168.47 378.826 1167.81 378.161C1167.15 377.488 1166.63 376.705 1166.25 375.814C1165.86 374.922 1165.67 373.969 1165.67 372.954C1165.67 371.94 1165.86 370.987 1166.25 370.095C1166.63 369.195 1167.15 368.412 1167.81 367.748C1168.47 367.074 1169.25 366.546 1170.14 366.161C1171.03 365.767 1171.99 365.571 1173 365.571H1177.13C1177.8 365.571 1178.46 365.658 1179.09 365.833C1179.71 366.008 1180.3 366.257 1180.84 366.58C1181.38 366.904 1181.88 367.293 1182.32 367.748C1182.77 368.194 1183.15 368.692 1183.47 369.243C1183.78 369.785 1184.03 370.371 1184.2 371C1184.38 371.63 1184.46 372.281 1184.46 372.954ZM1181.79 372.954C1181.79 372.307 1181.66 371.7 1181.42 371.131C1181.18 370.563 1180.84 370.069 1180.42 369.649C1180 369.221 1179.51 368.884 1178.94 368.64C1178.38 368.386 1177.78 368.255 1177.13 368.246H1173C1172.35 368.255 1171.75 368.386 1171.18 368.64C1170.62 368.884 1170.13 369.221 1169.71 369.649C1169.29 370.069 1168.96 370.563 1168.71 371.131C1168.48 371.7 1168.36 372.307 1168.36 372.954C1168.36 373.601 1168.48 374.209 1168.71 374.777C1168.96 375.346 1169.29 375.844 1169.71 376.273C1170.13 376.692 1170.62 377.029 1171.18 377.282C1171.75 377.527 1172.35 377.65 1173 377.65H1177.13C1177.78 377.65 1178.38 377.527 1178.94 377.282C1179.51 377.029 1180 376.692 1180.42 376.273C1180.84 375.844 1181.18 375.346 1181.42 374.777C1181.66 374.209 1181.79 373.601 1181.79 372.954ZM1203.42 368.246H1193.35C1193.07 368.246 1192.8 368.303 1192.56 368.417C1192.31 368.522 1192.1 368.666 1191.92 368.849C1191.73 369.033 1191.59 369.247 1191.48 369.492C1191.38 369.737 1191.33 369.995 1191.33 370.266V380.338H1188.64V370.266C1188.64 369.61 1188.76 368.998 1189.01 368.43C1189.25 367.861 1189.59 367.367 1190.02 366.948C1190.44 366.519 1190.94 366.183 1191.51 365.938C1192.08 365.693 1192.69 365.571 1193.35 365.571H1203.42V368.246ZM1221.52 368.246H1211.45C1211.17 368.246 1210.91 368.303 1210.66 368.417C1210.42 368.522 1210.2 368.666 1210.02 368.849C1209.84 369.033 1209.69 369.247 1209.59 369.492C1209.48 369.737 1209.43 369.995 1209.43 370.266V380.338H1206.74V370.266C1206.74 369.61 1206.86 368.998 1207.11 368.43C1207.35 367.861 1207.69 367.367 1208.12 366.948C1208.55 366.519 1209.05 366.183 1209.61 365.938C1210.18 365.693 1210.8 365.571 1211.45 365.571H1221.52V368.246ZM1242.71 372.954C1242.71 373.969 1242.52 374.922 1242.13 375.814C1241.75 376.705 1241.22 377.488 1240.56 378.161C1239.9 378.826 1239.13 379.355 1238.24 379.748C1237.35 380.133 1236.39 380.329 1235.38 380.338H1231.25C1230.23 380.329 1229.28 380.133 1228.39 379.748C1227.5 379.355 1226.72 378.826 1226.05 378.161C1225.4 377.488 1224.88 376.705 1224.49 375.814C1224.11 374.922 1223.92 373.969 1223.92 372.954C1223.92 371.94 1224.11 370.987 1224.49 370.095C1224.88 369.195 1225.4 368.412 1226.05 367.748C1226.72 367.074 1227.5 366.546 1228.39 366.161C1229.28 365.767 1230.23 365.571 1231.25 365.571H1235.38C1236.05 365.571 1236.7 365.658 1237.33 365.833C1237.96 366.008 1238.55 366.257 1239.09 366.58C1239.63 366.904 1240.13 367.293 1240.57 367.748C1241.02 368.194 1241.4 368.692 1241.71 369.243C1242.03 369.785 1242.27 370.371 1242.45 371C1242.62 371.63 1242.71 372.281 1242.71 372.954ZM1240.03 372.954C1240.03 372.307 1239.91 371.7 1239.67 371.131C1239.42 370.563 1239.09 370.069 1238.67 369.649C1238.25 369.221 1237.76 368.884 1237.19 368.64C1236.63 368.386 1236.03 368.255 1235.38 368.246H1231.25C1230.6 368.255 1229.99 368.386 1229.42 368.64C1228.86 368.884 1228.37 369.221 1227.95 369.649C1227.54 370.069 1227.2 370.563 1226.96 371.131C1226.72 371.7 1226.6 372.307 1226.6 372.954C1226.6 373.601 1226.72 374.209 1226.96 374.777C1227.2 375.346 1227.54 375.844 1227.95 376.273C1228.37 376.692 1228.86 377.029 1229.42 377.282C1229.99 377.527 1230.6 377.65 1231.25 377.65H1235.38C1236.03 377.65 1236.63 377.527 1237.19 377.282C1237.76 377.029 1238.25 376.692 1238.67 376.273C1239.09 375.844 1239.42 375.346 1239.67 374.777C1239.91 374.209 1240.03 373.601 1240.03 372.954ZM1268.87 372.954C1268.87 373.969 1268.67 374.926 1268.29 375.827C1267.9 376.718 1267.38 377.501 1266.72 378.174C1266.05 378.839 1265.27 379.368 1264.38 379.761C1263.49 380.146 1262.54 380.338 1261.52 380.338H1254.09C1253.07 380.338 1252.12 380.146 1251.23 379.761C1250.33 379.368 1249.56 378.839 1248.89 378.174C1248.24 377.501 1247.72 376.718 1247.33 375.827C1246.95 374.926 1246.75 373.969 1246.75 372.954V365.571H1249.44V372.954C1249.44 373.601 1249.56 374.209 1249.8 374.777C1250.04 375.337 1250.37 375.831 1250.79 376.259C1251.21 376.679 1251.7 377.016 1252.26 377.269C1252.83 377.514 1253.44 377.641 1254.09 377.65H1256.47V365.571H1259.13V377.65H1261.52C1262.17 377.641 1262.77 377.514 1263.33 377.269C1263.9 377.016 1264.39 376.679 1264.81 376.259C1265.23 375.831 1265.57 375.337 1265.81 374.777C1266.06 374.209 1266.18 373.601 1266.18 372.954V365.571H1268.87V372.954ZM1277.41 378.319C1277.41 378.598 1277.35 378.861 1277.24 379.105C1277.13 379.35 1276.99 379.564 1276.81 379.748C1276.62 379.932 1276.41 380.076 1276.16 380.181C1275.92 380.286 1275.66 380.338 1275.39 380.338C1275.11 380.338 1274.85 380.286 1274.6 380.181C1274.37 380.076 1274.16 379.932 1273.97 379.748C1273.79 379.564 1273.65 379.35 1273.54 379.105C1273.44 378.861 1273.38 378.598 1273.38 378.319C1273.38 378.047 1273.44 377.79 1273.54 377.545C1273.65 377.3 1273.79 377.086 1273.97 376.902C1274.16 376.718 1274.37 376.574 1274.6 376.469C1274.85 376.364 1275.11 376.312 1275.39 376.312C1275.66 376.312 1275.92 376.364 1276.16 376.469C1276.41 376.574 1276.62 376.718 1276.81 376.902C1276.99 377.086 1277.13 377.3 1277.24 377.545C1277.35 377.79 1277.41 378.047 1277.41 378.319Z" fill="#F2D7B6"/>
<defs>
<filter id="filter0_dddddd_135_129" x="-559.117" y="-971.117" width="3178.23" height="2685.65" filterUnits="userSpaceOnUse" color-interpolation-filters="sRGB">
<feFlood flood-opacity="0" result="BackgroundImageFix"/>
<feColorMatrix in="SourceAlpha" type="matrix" values="0 0 0 0 0 0 0 0 0 0 0 0 0 0 0 0 0 0 127 0" result="hardAlpha"/>
<feOffset/>
<feGaussianBlur stdDeviation="15.7633"/>
<feColorMatrix type="matrix" values="0 0 0 0 0.45098 0 0 0 0 0.133333 0 0 0 0 0.133333 0 0 0 1 0"/>
<feBlend mode="normal" in2="BackgroundImageFix" result="effect1_dropShadow_135_129"/>
<feColorMatrix in="SourceAlpha" type="matrix" values="0 0 0 0 0 0 0 0 0 0 0 0 0 0 0 0 0 0 127 0" result="hardAlpha"/>
<feOffset/>
<feGaussianBlur stdDeviation="31.5266"/>
<feColorMatrix type="matrix" values="0 0 0 0 0.45098 0 0 0 0 0.133333 0 0 0 0 0.133333 0 0 0 1 0"/>
<feBlend mode="normal" in2="effect1_dropShadow_135_129" result="effect2_dropShadow_135_129"/>
<feColorMatrix in="SourceAlpha" type="matrix" values="0 0 0 0 0 0 0 0 0 0 0 0 0 0 0 0 0 0 127 0" result="hardAlpha"/>
<feOffset/>
<feGaussianBlur stdDeviation="110.343"/>
<feColorMatrix type="matrix" values="0 0 0 0 0.45098 0 0 0 0 0.133333 0 0 0 0 0.133333 0 0 0 1 0"/>
<feBlend mode="normal" in2="effect2_dropShadow_135_129" result="effect3_dropShadow_135_129"/>
<feColorMatrix in="SourceAlpha" type="matrix" values="0 0 0 0 0 0 0 0 0 0 0 0 0 0 0 0 0 0 127 0" result="hardAlpha"/>
<feOffset/>
<feGaussianBlur stdDeviation="220.686"/>
<feColorMatrix type="matrix" values="0 0 0 0 0.45098 0 0 0 0 0.133333 0 0 0 0 0.133333 0 0 0 1 0"/>
<feBlend mode="normal" in2="effect3_dropShadow_135_129" result="effect4_dropShadow_135_129"/>
<feColorMatrix in="SourceAlpha" type="matrix" values="0 0 0 0 0 0 0 0 0 0 0 0 0 0 0 0 0 0 127 0" result="hardAlpha"/>
<feOffset/>
<feGaussianBlur stdDeviation="378.319"/>
<feColorMatrix type="matrix" values="0 0 0 0 0.45098 0 0 0 0 0.133333 0 0 0 0 0.133333 0 0 0 1 0"/>
<feBlend mode="normal" in2="effect4_dropShadow_135_129" result="effect5_dropShadow_135_129"/>
<feColorMatrix in="SourceAlpha" type="matrix" values="0 0 0 0 0 0 0 0 0 0 0 0 0 0 0 0 0 0 127 0" result="hardAlpha"/>
<feOffset/>
<feGaussianBlur stdDeviation="662.059"/>
<feColorMatrix type="matrix" values="0 0 0 0 0.45098 0 0 0 0 0.133333 0 0 0 0 0.133333 0 0 0 1 0"/>
<feBlend mode="normal" in2="effect5_dropShadow_135_129" result="effect6_dropShadow_135_129"/>
<feBlend mode="normal" in="SourceGraphic" in2="effect6_dropShadow_135_129" result="shape"/>
</filter>
</defs>
</svg>
