<svg width="40" height="40" viewBox="0 0 40 40" fill="none" xmlns="http://www.w3.org/2000/svg">
<path d="M30.0119 0C31.3819 0 32.6722 0.262843 33.8829 0.78853C35.0936 1.31422 36.1529 2.03106 37.0609 2.93907C37.9689 3.84707 38.6858 4.90641 39.2115 6.11708C39.7372 7.32776 40 8.61808 40 9.98805V29.9642C40 31.3341 39.7372 32.6324 39.2115 33.859C38.6858 35.0856 37.9689 36.1529 37.0609 37.0609C36.1529 37.9689 35.0936 38.6858 33.8829 39.2115C32.6722 39.7372 31.3819 40 30.0119 40H9.98805C8.61808 40 7.32776 39.7372 6.11708 39.2115C4.90641 38.6858 3.84707 37.9689 2.93907 37.0609C2.03106 36.1529 1.31422 35.0856 0.78853 33.859C0.262843 32.6324 0 31.3341 0 29.9642V9.98805C0 8.61808 0.262843 7.32776 0.78853 6.11708C1.31422 4.90641 2.03106 3.84707 2.93907 2.93907C3.84707 2.03106 4.90641 1.31422 6.11708 0.78853C7.32776 0.262843 8.61808 0 9.98805 0H30.0119ZM16.9654 18.1601C16.9654 18.8929 17.2043 19.4663 17.6822 19.8805C18.1282 20.2947 18.7654 20.5018 19.5938 20.5018C20.454 20.5018 21.1071 20.2947 21.5532 19.8805C22.0311 19.4982 22.27 18.9247 22.27 18.1601V13.7634C22.27 13.1581 22.0311 12.6324 21.5532 12.1864C21.1071 11.7722 20.4859 11.5651 19.6894 11.5651C18.861 11.5651 18.2079 11.7563 17.73 12.1386C17.2202 12.5209 16.9654 13.0466 16.9654 13.7157V18.1601ZM14.3847 20.5018H8.74552V22.0311H10.6571V31.0155H12.4731V22.0311H14.3847V20.5018ZM14.4325 15.5317L16.822 8.74552H14.7192L13.4767 13.3811H13.3333L11.9952 8.74552H9.94026L12.3775 15.7228V20.3106H14.4325V15.5317ZM19.7372 23.2736H18.1123V29.1517C18.0486 29.2473 17.9689 29.327 17.8734 29.3907L17.5866 29.5818C17.3955 29.6774 17.2521 29.7252 17.1565 29.7252C16.9972 29.7252 16.8857 29.6934 16.822 29.6296C16.7583 29.5659 16.7264 29.4225 16.7264 29.1995V23.2736H15.1016V29.773C15.1016 30.219 15.1971 30.5536 15.3883 30.7766C15.5795 31.0315 15.8503 31.1589 16.2007 31.1589C16.4875 31.1589 16.8061 31.0633 17.1565 30.8722C17.4433 30.7447 17.7618 30.5058 18.1123 30.1553V31.0155H19.7372V23.2736ZM25.6153 25.1374C25.6153 24.5002 25.4719 24.0064 25.1852 23.6559C24.9622 23.3373 24.5798 23.178 24.0382 23.178C23.7515 23.178 23.4966 23.2417 23.2736 23.3692C23.0187 23.4648 22.7957 23.64 22.6045 23.8949V20.5018H20.9319V31.0155H22.6045V30.4421C22.7001 30.5695 22.8037 30.673 22.9152 30.7527C23.0267 30.8323 23.1462 30.904 23.2736 30.9677C23.4966 31.0633 23.7834 31.1111 24.1338 31.1111C24.6117 31.1111 24.9781 30.9677 25.233 30.681C25.4879 30.3624 25.6153 29.9482 25.6153 29.4385V25.1374ZM25.0418 20.4062C25.4241 20.4062 25.7746 20.3266 26.0932 20.1673C26.4118 20.008 26.7622 19.7372 27.1446 19.3548V20.3106H28.9606V11.7563H27.1446V18.2557C27.0171 18.415 26.826 18.5743 26.5711 18.7336C26.3799 18.8292 26.2206 18.8769 26.0932 18.8769C25.8702 18.8769 25.7427 18.8292 25.7109 18.7336C25.6153 18.638 25.5675 18.4946 25.5675 18.3035V11.7563H23.7515V18.9247C23.7515 19.4345 23.863 19.8009 24.086 20.0239C24.2453 20.2788 24.5639 20.4062 25.0418 20.4062ZM31.2545 25.3763C31.2545 24.6117 31.0474 24.0382 30.6332 23.6559C30.2509 23.2736 29.6774 23.0824 28.9128 23.0824C28.18 23.0824 27.5906 23.2895 27.1446 23.7037C26.6985 24.1497 26.4755 24.7073 26.4755 25.3763V28.8172C26.4755 29.5818 26.6826 30.1712 27.0968 30.5854C27.5428 31.0315 28.1163 31.2545 28.8172 31.2545C29.6137 31.2545 30.219 31.0474 30.6332 30.6332C31.0474 30.2509 31.2545 29.6456 31.2545 28.8172V28.4349H29.5818V28.7694C29.5818 29.2473 29.5341 29.55 29.4385 29.6774C29.311 29.8049 29.1199 29.8686 28.865 29.8686C28.5464 29.8686 28.3552 29.7889 28.2915 29.6296C28.1959 29.5022 28.1481 29.2155 28.1481 28.7694V27.3357H31.2545V25.3763ZM28.865 24.4206C29.1199 24.4206 29.2951 24.5002 29.3907 24.6595C29.5181 24.7869 29.5818 25.01 29.5818 25.3286V26.141H28.1481V25.3286C28.1481 25.0418 28.1959 24.8188 28.2915 24.6595C28.4508 24.5002 28.642 24.4206 28.865 24.4206ZM23.2736 24.4206C23.4966 24.4206 23.6559 24.4843 23.7515 24.6117C23.8789 24.7391 23.9427 24.9303 23.9427 25.1852V29.1995C23.9427 29.4544 23.8949 29.6296 23.7993 29.7252C23.7037 29.8526 23.5603 29.9164 23.3692 29.9164C23.2417 29.9164 23.1143 29.8845 22.9869 29.8208C22.8276 29.7571 22.7001 29.6615 22.6045 29.5341V24.7073C22.732 24.5798 22.8435 24.5002 22.9391 24.4683C23.0028 24.4365 23.1143 24.4206 23.2736 24.4206ZM19.5938 19.0203C19.3389 19.0203 19.1637 18.9566 19.0681 18.8292C18.9088 18.7336 18.8292 18.5583 18.8292 18.3035V13.6679C18.8292 13.5086 18.9088 13.3493 19.0681 13.19C19.1955 13.0944 19.3708 13.0466 19.5938 13.0466C19.8168 13.0466 20.0239 13.0944 20.2151 13.19C20.3425 13.3174 20.4062 13.4767 20.4062 13.6679V18.3035C20.4062 18.5583 20.3425 18.7336 20.2151 18.8292C20.0876 18.9566 19.8805 19.0203 19.5938 19.0203Z" fill="#D98236"/>
</svg>
