<svg width="40" height="40" viewBox="0 0 40 40" fill="none" xmlns="http://www.w3.org/2000/svg">
<path d="M35.1333 11.6667C34.8453 11.1677 34.4329 10.7519 33.9364 10.4598C33.4398 10.1677 32.876 10.0093 32.3 10H10.9666L9.99998 6.23333C9.90231 5.86973 9.68441 5.54991 9.38177 5.32595C9.07913 5.102 8.70958 4.98711 8.33331 5H4.99998C4.55795 5 4.13403 5.1756 3.82147 5.48816C3.50891 5.80072 3.33331 6.22464 3.33331 6.66667C3.33331 7.1087 3.50891 7.53262 3.82147 7.84518C4.13403 8.15774 4.55795 8.33333 4.99998 8.33333H7.06665L11.6666 25.4333C11.7643 25.7969 11.9822 26.1168 12.2849 26.3407C12.5875 26.5647 12.957 26.6796 13.3333 26.6667H28.3333C28.6411 26.6657 28.9426 26.5796 29.2044 26.4178C29.4662 26.256 29.6781 26.0249 29.8166 25.75L35.2833 14.8167C35.5203 14.32 35.6306 13.7725 35.6044 13.2228C35.5782 12.6732 35.4164 12.1385 35.1333 11.6667ZM27.3 23.3333H14.6L11.8833 13.3333H32.3L27.3 23.3333Z" fill="#D98236"/>
<path d="M12.5 34.9999C13.8807 34.9999 15 33.8807 15 32.4999C15 31.1192 13.8807 29.9999 12.5 29.9999C11.1193 29.9999 10 31.1192 10 32.4999C10 33.8807 11.1193 34.9999 12.5 34.9999Z" fill="#D98236"/>
<path d="M29.1666 34.9999C30.5473 34.9999 31.6666 33.8807 31.6666 32.4999C31.6666 31.1192 30.5473 29.9999 29.1666 29.9999C27.7859 29.9999 26.6666 31.1192 26.6666 32.4999C26.6666 33.8807 27.7859 34.9999 29.1666 34.9999Z" fill="#D98236"/>
</svg>
