<svg width="283" height="64" viewBox="0 0 283 64" fill="none" xmlns="http://www.w3.org/2000/svg">
<path fill-rule="evenodd" clip-rule="evenodd" d="M268.196 26.0623C265.293 24.8401 258.433 22.2582 254.217 21.7082C254.115 21.695 254.012 21.6815 253.908 21.668C248.619 20.9773 240.312 19.8926 232.446 20.7916C226.029 21.5249 218.009 23.6943 214.8 24.6874V40.0413C218.009 41.4163 226.029 44.3038 232.446 44.8538C240.467 45.5413 254.266 43.7882 254.266 43.7882C254.796 43.6913 255.545 43.5682 256.433 43.4222C259.802 42.8685 265.173 41.9856 268.196 40.958V26.0623ZM262.696 33.1664C262.696 29.8757 260.028 27.2081 256.737 27.2081C253.447 27.2081 250.779 29.8757 250.779 33.1664C250.779 36.457 253.447 39.1246 256.737 39.1246C260.028 39.1246 262.696 36.457 262.696 33.1664Z" fill="#732222"/>
<path d="M254.217 21.7082L254.187 21.9355L254.217 21.7082ZM268.196 26.0623H268.425V25.9102L268.285 25.8511L268.196 26.0623ZM253.908 21.668L253.938 21.4407L253.908 21.668ZM232.446 20.7916L232.472 21.0193L232.446 20.7916ZM214.8 24.6874L214.733 24.4684L214.571 24.5184V24.6874H214.8ZM214.8 40.0413H214.571V40.1924L214.71 40.252L214.8 40.0413ZM232.446 44.8538L232.466 44.6254L232.446 44.8538ZM254.266 43.7882L254.295 44.0158L254.307 44.0136L254.266 43.7882ZM256.433 43.4222L256.396 43.1961H256.396L256.433 43.4222ZM268.196 40.958L268.269 41.175L268.425 41.1221V40.958H268.196ZM254.187 21.9355C258.369 22.481 265.203 25.051 268.107 26.2736L268.285 25.8511C265.383 24.6292 258.497 22.0354 254.246 21.481L254.187 21.9355ZM253.878 21.8952C253.982 21.9088 254.085 21.9222 254.187 21.9355L254.246 21.481C254.145 21.4677 254.042 21.4543 253.938 21.4407L253.878 21.8952ZM232.472 21.0193C240.306 20.1239 248.586 21.2041 253.878 21.8952L253.938 21.4407C248.652 20.7505 240.318 19.6613 232.42 20.5639L232.472 21.0193ZM214.868 24.9063C218.071 23.9149 226.076 21.7502 232.472 21.0193L232.42 20.5639C225.983 21.2996 217.946 23.4738 214.733 24.4684L214.868 24.9063ZM215.03 40.0413V24.6874H214.571V40.0413H215.03ZM232.466 44.6254C226.086 44.0786 218.092 41.2025 214.891 39.8307L214.71 40.252C217.926 41.6301 225.973 44.529 232.427 45.0821L232.466 44.6254ZM254.266 43.7882C254.237 43.5608 254.237 43.5608 254.237 43.5608C254.237 43.5608 254.237 43.5609 254.237 43.5609C254.236 43.5609 254.236 43.561 254.235 43.5611C254.233 43.5613 254.231 43.5616 254.228 43.5621C254.221 43.5629 254.211 43.5641 254.198 43.5658C254.172 43.5691 254.133 43.5739 254.081 43.5802C253.979 43.5929 253.827 43.6113 253.631 43.6346C253.238 43.6811 252.669 43.7468 251.96 43.8235C250.543 43.9769 248.569 44.1744 246.346 44.3503C241.895 44.7026 236.456 44.9675 232.466 44.6254L232.427 45.0821C236.457 45.4276 241.928 45.1597 246.382 44.8072C248.611 44.6308 250.589 44.433 252.009 44.2792C252.72 44.2023 253.291 44.1364 253.685 44.0897C253.882 44.0664 254.034 44.0478 254.137 44.0351C254.189 44.0288 254.228 44.0239 254.255 44.0206C254.268 44.0189 254.278 44.0176 254.285 44.0168C254.288 44.0164 254.291 44.016 254.293 44.0158C254.293 44.0157 254.294 44.0156 254.294 44.0156C254.295 44.0156 254.295 44.0155 254.295 44.0155C254.295 44.0155 254.295 44.0155 254.266 43.7882ZM256.396 43.1961C255.509 43.3419 254.757 43.4654 254.225 43.5627L254.307 44.0136C254.835 43.9172 255.581 43.7945 256.471 43.6483L256.396 43.1961ZM268.122 40.741C265.122 41.761 259.773 42.641 256.396 43.1961L256.471 43.6483C259.831 43.096 265.225 42.2101 268.269 41.175L268.122 40.741ZM267.966 26.0623V40.958H268.425V26.0623H267.966ZM256.737 27.4373C259.902 27.4373 262.467 30.0023 262.467 33.1664H262.925C262.925 29.7492 260.155 26.979 256.737 26.979V27.4373ZM251.008 33.1664C251.008 30.0023 253.573 27.4373 256.737 27.4373V26.979C253.32 26.979 250.55 29.7492 250.55 33.1664H251.008ZM256.737 38.8955C253.573 38.8955 251.008 36.3305 251.008 33.1664H250.55C250.55 36.5836 253.32 39.3538 256.737 39.3538V38.8955ZM262.467 33.1664C262.467 36.3305 259.902 38.8955 256.737 38.8955V39.3538C260.155 39.3538 262.925 36.5836 262.925 33.1664H262.467Z" fill="#F2C36B" fill-opacity="0.8"/>
<g filter="url(#filter0_dddddd_68_18)">
<path d="M211.363 26.5207C211.294 26.5207 211.229 26.4837 211.155 26.4186C210.323 26.0175 208.827 25.3749 208.155 25.3749C207.238 25.3749 206.321 25.3749 205.176 25.8332C204.03 26.2915 203.113 26.5207 204.03 26.7498C204.946 26.979 208.155 30.4165 207.009 29.9581C205.863 29.4998 202.655 29.729 201.509 29.9581C200.363 30.1873 198.759 31.5623 198.301 32.2498C202.884 33.6248 201.967 32.9373 202.655 33.3956C203.733 34.1147 205.634 35.7636 206.321 36.833C205.328 36.9094 203.067 37.0622 201.967 37.0622C202.426 39.1247 209.53 38.4372 209.53 38.8955C208.613 39.583 205.405 39.583 203.342 39.583C201.28 39.583 198.988 37.9789 197.842 37.5205C196.926 37.1539 195.016 36.9094 194.176 36.833C194.634 36.2219 195.734 34.9997 196.467 34.9997H200.592C200.363 34.7706 199.447 34.3122 197.613 34.3122H192.572C190.738 34.3122 187.072 30.6456 188.218 30.8748C189.363 31.104 193.717 28.8123 194.863 28.1248C195.78 27.5748 199.676 27.7429 201.509 27.8957C200.745 27.6665 198.897 27.1165 197.613 26.7498C196.33 26.3832 196.009 25.6804 196.009 25.3749C197.995 24.7638 202.838 23.6791 206.321 24.2291C210.015 24.8122 210.74 26.0549 211.155 26.4186C211.23 26.4548 211.3 26.4891 211.363 26.5207Z" fill="#D98236"/>
<path d="M211.363 26.5207C211.294 26.5207 211.229 26.4837 211.155 26.4186C210.323 26.0175 208.827 25.3749 208.155 25.3749C207.238 25.3749 206.321 25.3749 205.176 25.8332C204.03 26.2915 203.113 26.5207 204.03 26.7498C204.946 26.979 208.155 30.4165 207.009 29.9581C205.863 29.4998 202.655 29.729 201.509 29.9581C200.363 30.1873 198.759 31.5623 198.301 32.2498C202.884 33.6248 201.967 32.9373 202.655 33.3956C203.733 34.1147 205.634 35.7636 206.321 36.833C205.328 36.9094 203.067 37.0622 201.967 37.0622C202.426 39.1247 209.53 38.4372 209.53 38.8955C208.613 39.583 205.405 39.583 203.342 39.583C201.28 39.583 198.988 37.9789 197.842 37.5205C196.926 37.1539 195.016 36.9094 194.176 36.833C194.634 36.2219 195.734 34.9997 196.467 34.9997H200.592C200.363 34.7706 199.447 34.3122 197.613 34.3122H192.572C190.738 34.3122 187.072 30.6456 188.218 30.8748C189.363 31.104 193.717 28.8123 194.863 28.1248C195.78 27.5748 199.676 27.7429 201.509 27.8957C200.745 27.6665 198.897 27.1165 197.613 26.7498C196.33 26.3832 196.009 25.6804 196.009 25.3749C197.995 24.7638 202.838 23.6791 206.321 24.2291C210.015 24.8122 210.74 26.0549 211.155 26.4186C211.23 26.4548 211.3 26.4891 211.363 26.5207Z" stroke="#F2C36B" stroke-opacity="0.8" stroke-width="0.458327"/>
</g>
<path d="M203.113 48.5204L215.717 42.3329C216.267 42.8829 226.335 45.4649 231.3 46.6871L226.946 52.187L203.113 48.5204Z" fill="#732222" stroke="#F2C36B" stroke-opacity="0.8" stroke-width="0.458327"/>
<path d="M227.634 13L231.759 19.1874C227.542 19.1874 219.46 21.3263 215.946 22.3957L203.571 15.75L227.634 13Z" fill="#732222" stroke="#F2C36B" stroke-opacity="0.8" stroke-width="0.458327"/>
<path d="M271.862 40.0413V26.7498C275.376 28.7359 282.404 32.8914 282.404 33.6247C282.404 34.3581 275.376 38.208 271.862 40.0413Z" fill="#732222" stroke="#F2C36B" stroke-opacity="0.8" stroke-width="0.661812"/>
<g filter="url(#filter1_dddddd_68_18)">
<path d="M33.1172 50H6.35938V21.9922H10.3633V45.9961H33.1172V50ZM41.618 23.0078C41.618 23.4245 41.5398 23.8151 41.3836 24.1797C41.2273 24.5312 41.0125 24.8438 40.7391 25.1172C40.4656 25.3906 40.1466 25.6055 39.782 25.7617C39.4174 25.918 39.0333 25.9961 38.6297 25.9961C38.213 25.9961 37.8224 25.918 37.4578 25.7617C37.0932 25.6055 36.7742 25.3906 36.5008 25.1172C36.2273 24.8438 36.0125 24.5312 35.8563 24.1797C35.7 23.8151 35.6219 23.4245 35.6219 23.0078C35.6219 22.6042 35.7 22.2201 35.8563 21.8555C36.0125 21.4909 36.2273 21.1719 36.5008 20.8984C36.7742 20.625 37.0932 20.4102 37.4578 20.2539C37.8224 20.0846 38.213 20 38.6297 20C39.0333 20 39.4174 20.0846 39.782 20.2539C40.1466 20.4102 40.4656 20.625 40.7391 20.8984C41.0125 21.1719 41.2273 21.4909 41.3836 21.8555C41.5398 22.2201 41.618 22.6042 41.618 23.0078ZM40.6219 50H36.618V28.0078H40.6219V50ZM68.5953 24.0039H57.5211C56.5576 24.0169 55.6526 24.2122 54.8063 24.5898C53.9729 24.9544 53.2438 25.4557 52.6188 26.0938C51.9938 26.7188 51.499 27.4544 51.1344 28.3008C50.7698 29.1471 50.5875 30.0456 50.5875 30.9961V50H46.5836V30C46.5836 28.5938 46.8831 27.2852 47.482 26.0742C48.094 24.8503 48.9013 23.7956 49.9039 22.9102C50.9195 22.0117 52.0849 21.3086 53.4 20.8008C54.7151 20.2799 56.0888 20.013 57.5211 20H68.5953V24.0039ZM68.5953 34.0039H52.5992V30H68.5953V34.0039ZM80.0648 50H76.0609V31.9922H70.0648V28.0078H76.0609V20H80.0648V28.0078H94.0687V31.9922H80.0648V50ZM131.339 35.9961C131.339 37.9362 131.033 39.7591 130.421 41.4648C129.809 43.1706 128.937 44.6549 127.804 45.918C126.684 47.181 125.336 48.1771 123.761 48.9062C122.185 49.6354 120.434 50 118.507 50H109.191C107.251 50 105.486 49.6354 103.898 48.9062C102.309 48.1771 100.948 47.181 99.8156 45.918C98.6958 44.6549 97.83 43.1706 97.218 41.4648C96.606 39.7591 96.3 37.9362 96.3 35.9961C96.3 34.069 96.606 32.2591 97.218 30.5664C97.83 28.8607 98.6958 27.3763 99.8156 26.1133C100.948 24.8372 102.309 23.8346 103.898 23.1055C105.486 22.3633 107.251 21.9922 109.191 21.9922H118.507C120.434 21.9922 122.185 22.3633 123.761 23.1055C125.336 23.8346 126.684 24.8372 127.804 26.1133C128.937 27.3763 129.809 28.8607 130.421 30.5664C131.033 32.2591 131.339 34.069 131.339 35.9961ZM127.335 35.9961C127.335 34.6159 127.133 33.3203 126.73 32.1094C126.326 30.8984 125.74 29.8438 124.972 28.9453C124.217 28.0339 123.292 27.3177 122.198 26.7969C121.118 26.263 119.887 25.9961 118.507 25.9961H109.191C107.81 25.9961 106.567 26.263 105.46 26.7969C104.366 27.3177 103.435 28.0339 102.667 28.9453C101.912 29.8438 101.326 30.8984 100.909 32.1094C100.506 33.3203 100.304 34.6159 100.304 35.9961C100.304 37.3763 100.506 38.6784 100.909 39.9023C101.326 41.1133 101.912 42.1745 102.667 43.0859C103.435 43.9844 104.366 44.694 105.46 45.2148C106.567 45.7357 107.81 45.9961 109.191 45.9961H118.507C119.887 45.9961 121.118 45.7357 122.198 45.2148C123.292 44.694 124.217 43.9844 124.972 43.0859C125.74 42.1745 126.326 41.1133 126.73 39.9023C127.133 38.6784 127.335 37.3763 127.335 35.9961ZM158.18 24.0039H147.105C146.142 24.0169 145.237 24.2122 144.391 24.5898C143.557 24.9544 142.828 25.4557 142.203 26.0938C141.578 26.7188 141.083 27.4544 140.719 28.3008C140.354 29.1471 140.172 30.0456 140.172 30.9961V50H136.168V30C136.168 28.5938 136.467 27.2852 137.066 26.0742C137.678 24.8503 138.486 23.7956 139.488 22.9102C140.504 22.0117 141.669 21.3086 142.984 20.8008C144.299 20.2799 145.673 20.013 147.105 20H158.18V24.0039ZM158.18 34.0039H142.184V30H158.18V34.0039ZM183.927 24.0039H172.852C171.889 24.0169 170.984 24.2122 170.137 24.5898C169.304 24.9544 168.575 25.4557 167.95 26.0938C167.325 26.7188 166.83 27.4544 166.466 28.3008C166.101 29.1471 165.919 30.0456 165.919 30.9961V50H161.915V30C161.915 28.5938 162.214 27.2852 162.813 26.0742C163.425 24.8503 164.233 23.7956 165.235 22.9102C166.251 22.0117 167.416 21.3086 168.731 20.8008C170.046 20.2799 171.42 20.013 172.852 20H183.927V24.0039ZM183.927 34.0039H167.93V30H183.927V34.0039ZM191.041 50H187.291V46.25H191.041V50Z" fill="#D98236"/>
</g>
<defs>
<filter id="filter0_dddddd_68_18" x="164.386" y="0.464378" width="70.4639" height="62.7324" filterUnits="userSpaceOnUse" color-interpolation-filters="sRGB">
<feFlood flood-opacity="0" result="BackgroundImageFix"/>
<feColorMatrix in="SourceAlpha" type="matrix" values="0 0 0 0 0 0 0 0 0 0 0 0 0 0 0 0 0 0 127 0" result="hardAlpha"/>
<feOffset/>
<feGaussianBlur stdDeviation="0.278388"/>
<feColorMatrix type="matrix" values="0 0 0 0 0.85098 0 0 0 0 0.509804 0 0 0 0 0.211765 0 0 0 1 0"/>
<feBlend mode="normal" in2="BackgroundImageFix" result="effect1_dropShadow_68_18"/>
<feColorMatrix in="SourceAlpha" type="matrix" values="0 0 0 0 0 0 0 0 0 0 0 0 0 0 0 0 0 0 127 0" result="hardAlpha"/>
<feOffset/>
<feGaussianBlur stdDeviation="0.556777"/>
<feColorMatrix type="matrix" values="0 0 0 0 0.85098 0 0 0 0 0.509804 0 0 0 0 0.211765 0 0 0 1 0"/>
<feBlend mode="normal" in2="effect1_dropShadow_68_18" result="effect2_dropShadow_68_18"/>
<feColorMatrix in="SourceAlpha" type="matrix" values="0 0 0 0 0 0 0 0 0 0 0 0 0 0 0 0 0 0 127 0" result="hardAlpha"/>
<feOffset/>
<feGaussianBlur stdDeviation="1.94872"/>
<feColorMatrix type="matrix" values="0 0 0 0 0.85098 0 0 0 0 0.509804 0 0 0 0 0.211765 0 0 0 1 0"/>
<feBlend mode="normal" in2="effect2_dropShadow_68_18" result="effect3_dropShadow_68_18"/>
<feColorMatrix in="SourceAlpha" type="matrix" values="0 0 0 0 0 0 0 0 0 0 0 0 0 0 0 0 0 0 127 0" result="hardAlpha"/>
<feOffset/>
<feGaussianBlur stdDeviation="3.89744"/>
<feColorMatrix type="matrix" values="0 0 0 0 0.85098 0 0 0 0 0.509804 0 0 0 0 0.211765 0 0 0 1 0"/>
<feBlend mode="normal" in2="effect3_dropShadow_68_18" result="effect4_dropShadow_68_18"/>
<feColorMatrix in="SourceAlpha" type="matrix" values="0 0 0 0 0 0 0 0 0 0 0 0 0 0 0 0 0 0 127 0" result="hardAlpha"/>
<feOffset/>
<feGaussianBlur stdDeviation="6.68132"/>
<feColorMatrix type="matrix" values="0 0 0 0 0.85098 0 0 0 0 0.509804 0 0 0 0 0.211765 0 0 0 1 0"/>
<feBlend mode="normal" in2="effect4_dropShadow_68_18" result="effect5_dropShadow_68_18"/>
<feColorMatrix in="SourceAlpha" type="matrix" values="0 0 0 0 0 0 0 0 0 0 0 0 0 0 0 0 0 0 127 0" result="hardAlpha"/>
<feOffset/>
<feGaussianBlur stdDeviation="11.6923"/>
<feColorMatrix type="matrix" values="0 0 0 0 0.85098 0 0 0 0 0.509804 0 0 0 0 0.211765 0 0 0 1 0"/>
<feBlend mode="normal" in2="effect5_dropShadow_68_18" result="effect6_dropShadow_68_18"/>
<feBlend mode="normal" in="SourceGraphic" in2="effect6_dropShadow_68_18" result="shape"/>
</filter>
<filter id="filter1_dddddd_68_18" x="0.723659" y="14.3643" width="195.953" height="41.2714" filterUnits="userSpaceOnUse" color-interpolation-filters="sRGB">
<feFlood flood-opacity="0" result="BackgroundImageFix"/>
<feColorMatrix in="SourceAlpha" type="matrix" values="0 0 0 0 0 0 0 0 0 0 0 0 0 0 0 0 0 0 127 0" result="hardAlpha"/>
<feOffset/>
<feGaussianBlur stdDeviation="0.0670919"/>
<feColorMatrix type="matrix" values="0 0 0 0 0.85098 0 0 0 0 0.509804 0 0 0 0 0.211765 0 0 0 1 0"/>
<feBlend mode="normal" in2="BackgroundImageFix" result="effect1_dropShadow_68_18"/>
<feColorMatrix in="SourceAlpha" type="matrix" values="0 0 0 0 0 0 0 0 0 0 0 0 0 0 0 0 0 0 127 0" result="hardAlpha"/>
<feOffset/>
<feGaussianBlur stdDeviation="0.134184"/>
<feColorMatrix type="matrix" values="0 0 0 0 0.85098 0 0 0 0 0.509804 0 0 0 0 0.211765 0 0 0 1 0"/>
<feBlend mode="normal" in2="effect1_dropShadow_68_18" result="effect2_dropShadow_68_18"/>
<feColorMatrix in="SourceAlpha" type="matrix" values="0 0 0 0 0 0 0 0 0 0 0 0 0 0 0 0 0 0 127 0" result="hardAlpha"/>
<feOffset/>
<feGaussianBlur stdDeviation="0.469643"/>
<feColorMatrix type="matrix" values="0 0 0 0 0.85098 0 0 0 0 0.509804 0 0 0 0 0.211765 0 0 0 1 0"/>
<feBlend mode="normal" in2="effect2_dropShadow_68_18" result="effect3_dropShadow_68_18"/>
<feColorMatrix in="SourceAlpha" type="matrix" values="0 0 0 0 0 0 0 0 0 0 0 0 0 0 0 0 0 0 127 0" result="hardAlpha"/>
<feOffset/>
<feGaussianBlur stdDeviation="0.939286"/>
<feColorMatrix type="matrix" values="0 0 0 0 0.85098 0 0 0 0 0.509804 0 0 0 0 0.211765 0 0 0 1 0"/>
<feBlend mode="normal" in2="effect3_dropShadow_68_18" result="effect4_dropShadow_68_18"/>
<feColorMatrix in="SourceAlpha" type="matrix" values="0 0 0 0 0 0 0 0 0 0 0 0 0 0 0 0 0 0 127 0" result="hardAlpha"/>
<feOffset/>
<feGaussianBlur stdDeviation="1.6102"/>
<feColorMatrix type="matrix" values="0 0 0 0 0.85098 0 0 0 0 0.509804 0 0 0 0 0.211765 0 0 0 1 0"/>
<feBlend mode="normal" in2="effect4_dropShadow_68_18" result="effect5_dropShadow_68_18"/>
<feColorMatrix in="SourceAlpha" type="matrix" values="0 0 0 0 0 0 0 0 0 0 0 0 0 0 0 0 0 0 127 0" result="hardAlpha"/>
<feOffset/>
<feGaussianBlur stdDeviation="2.81786"/>
<feColorMatrix type="matrix" values="0 0 0 0 0.85098 0 0 0 0 0.509804 0 0 0 0 0.211765 0 0 0 1 0"/>
<feBlend mode="normal" in2="effect5_dropShadow_68_18" result="effect6_dropShadow_68_18"/>
<feBlend mode="normal" in="SourceGraphic" in2="effect6_dropShadow_68_18" result="shape"/>
</filter>
</defs>
</svg>
