<svg width="288" height="64" viewBox="0 0 288 64" fill="none" xmlns="http://www.w3.org/2000/svg">
<path fill-rule="evenodd" clip-rule="evenodd" d="M275.196 26.0623C272.293 24.8401 265.433 22.2582 261.217 21.7082C261.115 21.695 261.012 21.6815 260.908 21.668C255.619 20.9773 247.312 19.8926 239.446 20.7916C233.03 21.5249 225.009 23.6943 221.8 24.6874V40.0413C225.009 41.4163 233.03 44.3038 239.446 44.8538C247.467 45.5413 261.266 43.7882 261.266 43.7882C261.796 43.6913 262.545 43.5682 263.433 43.4222C266.802 42.8685 272.173 41.9856 275.196 40.958V26.0623ZM269.696 33.1664C269.696 29.8757 267.028 27.2081 263.737 27.2081C260.447 27.2081 257.779 29.8757 257.779 33.1664C257.779 36.457 260.447 39.1246 263.737 39.1246C267.028 39.1246 269.696 36.457 269.696 33.1664Z" fill="#732222"/>
<path d="M261.217 21.7082L261.187 21.9355L261.217 21.7082ZM275.196 26.0623H275.425V25.9102L275.285 25.8511L275.196 26.0623ZM260.908 21.668L260.938 21.4407L260.908 21.668ZM239.446 20.7916L239.472 21.0193L239.446 20.7916ZM221.8 24.6874L221.733 24.4684L221.571 24.5184V24.6874H221.8ZM221.8 40.0413H221.571V40.1924L221.71 40.252L221.8 40.0413ZM239.446 44.8538L239.466 44.6254L239.446 44.8538ZM261.266 43.7882L261.295 44.0158L261.307 44.0136L261.266 43.7882ZM263.433 43.4222L263.396 43.1961H263.396L263.433 43.4222ZM275.196 40.958L275.269 41.175L275.425 41.1221V40.958H275.196ZM261.187 21.9355C265.369 22.481 272.203 25.051 275.107 26.2736L275.285 25.8511C272.383 24.6292 265.497 22.0354 261.246 21.481L261.187 21.9355ZM260.878 21.8952C260.982 21.9088 261.085 21.9222 261.187 21.9355L261.246 21.481C261.145 21.4677 261.042 21.4543 260.938 21.4407L260.878 21.8952ZM239.472 21.0193C247.306 20.1239 255.586 21.2041 260.878 21.8952L260.938 21.4407C255.652 20.7505 247.318 19.6613 239.42 20.5639L239.472 21.0193ZM221.868 24.9063C225.071 23.9149 233.076 21.7502 239.472 21.0193L239.42 20.5639C232.983 21.2996 224.946 23.4738 221.733 24.4684L221.868 24.9063ZM222.03 40.0413V24.6874H221.571V40.0413H222.03ZM239.466 44.6254C233.086 44.0786 225.092 41.2025 221.891 39.8307L221.71 40.252C224.926 41.6301 232.973 44.529 239.427 45.0821L239.466 44.6254ZM261.266 43.7882C261.237 43.5608 261.237 43.5608 261.237 43.5608C261.237 43.5608 261.237 43.5609 261.237 43.5609C261.236 43.5609 261.236 43.561 261.235 43.5611C261.233 43.5613 261.231 43.5616 261.228 43.5621C261.221 43.5629 261.211 43.5641 261.198 43.5658C261.172 43.5691 261.133 43.5739 261.081 43.5802C260.979 43.5929 260.827 43.6113 260.631 43.6346C260.238 43.6811 259.669 43.7468 258.96 43.8235C257.543 43.9769 255.569 44.1744 253.346 44.3503C248.895 44.7026 243.456 44.9675 239.466 44.6254L239.427 45.0821C243.457 45.4276 248.928 45.1597 253.382 44.8072C255.611 44.6308 257.589 44.433 259.009 44.2792C259.72 44.2023 260.291 44.1364 260.685 44.0897C260.882 44.0664 261.034 44.0478 261.137 44.0351C261.189 44.0288 261.228 44.0239 261.255 44.0206C261.268 44.0189 261.278 44.0176 261.285 44.0168C261.288 44.0164 261.291 44.016 261.293 44.0158C261.293 44.0157 261.294 44.0156 261.294 44.0156C261.295 44.0156 261.295 44.0155 261.295 44.0155C261.295 44.0155 261.295 44.0155 261.266 43.7882ZM263.396 43.1961C262.509 43.3419 261.757 43.4654 261.225 43.5627L261.307 44.0136C261.835 43.9172 262.581 43.7945 263.471 43.6483L263.396 43.1961ZM275.122 40.741C272.122 41.761 266.773 42.641 263.396 43.1961L263.471 43.6483C266.831 43.096 272.225 42.2101 275.269 41.175L275.122 40.741ZM274.966 26.0623V40.958H275.425V26.0623H274.966ZM263.737 27.4373C266.902 27.4373 269.467 30.0023 269.467 33.1664H269.925C269.925 29.7492 267.155 26.979 263.737 26.979V27.4373ZM258.008 33.1664C258.008 30.0023 260.573 27.4373 263.737 27.4373V26.979C260.32 26.979 257.55 29.7492 257.55 33.1664H258.008ZM263.737 38.8955C260.573 38.8955 258.008 36.3305 258.008 33.1664H257.55C257.55 36.5836 260.32 39.3538 263.737 39.3538V38.8955ZM269.467 33.1664C269.467 36.3305 266.902 38.8955 263.737 38.8955V39.3538C267.155 39.3538 269.925 36.5836 269.925 33.1664H269.467Z" fill="#D98236"/>
<g filter="url(#filter0_dddddd_68_18)">
<path d="M218.363 26.5207C218.294 26.5207 218.229 26.4837 218.155 26.4186C217.323 26.0175 215.827 25.3749 215.155 25.3749C214.238 25.3749 213.321 25.3749 212.176 25.8332C211.03 26.2915 210.113 26.5207 211.03 26.7498C211.946 26.979 215.155 30.4165 214.009 29.9581C212.863 29.4998 209.655 29.729 208.509 29.9581C207.363 30.1873 205.759 31.5623 205.301 32.2498C209.884 33.6248 208.967 32.9373 209.655 33.3956C210.733 34.1147 212.634 35.7636 213.321 36.833C212.328 36.9094 210.067 37.0622 208.967 37.0622C209.426 39.1247 216.53 38.4372 216.53 38.8955C215.613 39.583 212.405 39.583 210.342 39.583C208.28 39.583 205.988 37.9789 204.842 37.5205C203.926 37.1539 202.016 36.9094 201.176 36.833C201.634 36.2219 202.734 34.9997 203.467 34.9997H207.592C207.363 34.7706 206.447 34.3122 204.613 34.3122H199.572C197.738 34.3122 194.072 30.6456 195.218 30.8748C196.363 31.104 200.717 28.8123 201.863 28.1248C202.78 27.5748 206.676 27.7429 208.509 27.8957C207.745 27.6665 205.897 27.1165 204.613 26.7498C203.33 26.3832 203.009 25.6804 203.009 25.3749C204.995 24.7638 209.838 23.6791 213.321 24.2291C217.015 24.8122 217.74 26.0549 218.155 26.4186C218.23 26.4548 218.3 26.4891 218.363 26.5207Z" fill="#D98236"/>
<path d="M218.363 26.5207C218.294 26.5207 218.229 26.4837 218.155 26.4186C217.323 26.0175 215.827 25.3749 215.155 25.3749C214.238 25.3749 213.321 25.3749 212.176 25.8332C211.03 26.2915 210.113 26.5207 211.03 26.7498C211.946 26.979 215.155 30.4165 214.009 29.9581C212.863 29.4998 209.655 29.729 208.509 29.9581C207.363 30.1873 205.759 31.5623 205.301 32.2498C209.884 33.6248 208.967 32.9373 209.655 33.3956C210.733 34.1147 212.634 35.7636 213.321 36.833C212.328 36.9094 210.067 37.0622 208.967 37.0622C209.426 39.1247 216.53 38.4372 216.53 38.8955C215.613 39.583 212.405 39.583 210.342 39.583C208.28 39.583 205.988 37.9789 204.842 37.5205C203.926 37.1539 202.016 36.9094 201.176 36.833C201.634 36.2219 202.734 34.9997 203.467 34.9997H207.592C207.363 34.7706 206.447 34.3122 204.613 34.3122H199.572C197.738 34.3122 194.072 30.6456 195.218 30.8748C196.363 31.104 200.717 28.8123 201.863 28.1248C202.78 27.5748 206.676 27.7429 208.509 27.8957C207.745 27.6665 205.897 27.1165 204.613 26.7498C203.33 26.3832 203.009 25.6804 203.009 25.3749C204.995 24.7638 209.838 23.6791 213.321 24.2291C217.015 24.8122 217.74 26.0549 218.155 26.4186C218.23 26.4548 218.3 26.4891 218.363 26.5207Z" stroke="#F2C36B" stroke-width="0.458327"/>
</g>
<path d="M210.113 48.5204L222.717 42.3329C223.267 42.8829 233.335 45.4649 238.3 46.6871L233.946 52.187L210.113 48.5204Z" fill="#D98236" stroke="#F2D7B6" stroke-width="0.458327"/>
<path d="M234.634 13L238.759 19.1874C234.542 19.1874 226.46 21.3263 222.946 22.3957L210.571 15.75L234.634 13Z" fill="#D98236" stroke="#F2D7B6" stroke-width="0.458327"/>
<path d="M276.862 40.0413V26.7498C280.376 28.7359 287.404 32.8914 287.404 33.6247C287.404 34.3581 280.376 38.208 276.862 40.0413Z" fill="#732222" stroke="#D98236" stroke-width="0.661812"/>
<path d="M30.1172 50H3.35938V21.9922H7.36328V45.9961H30.1172V50ZM38.618 23.0078C38.618 23.4245 38.5398 23.8151 38.3836 24.1797C38.2273 24.5312 38.0125 24.8438 37.7391 25.1172C37.4656 25.3906 37.1466 25.6055 36.782 25.7617C36.4174 25.918 36.0333 25.9961 35.6297 25.9961C35.213 25.9961 34.8224 25.918 34.4578 25.7617C34.0932 25.6055 33.7742 25.3906 33.5008 25.1172C33.2273 24.8438 33.0125 24.5312 32.8563 24.1797C32.7 23.8151 32.6219 23.4245 32.6219 23.0078C32.6219 22.6042 32.7 22.2201 32.8563 21.8555C33.0125 21.4909 33.2273 21.1719 33.5008 20.8984C33.7742 20.625 34.0932 20.4102 34.4578 20.2539C34.8224 20.0846 35.213 20 35.6297 20C36.0333 20 36.4174 20.0846 36.782 20.2539C37.1466 20.4102 37.4656 20.625 37.7391 20.8984C38.0125 21.1719 38.2273 21.4909 38.3836 21.8555C38.5398 22.2201 38.618 22.6042 38.618 23.0078ZM37.6219 50H33.618V28.0078H37.6219V50ZM65.5953 24.0039H54.5211C53.5576 24.0169 52.6526 24.2122 51.8063 24.5898C50.9729 24.9544 50.2438 25.4557 49.6188 26.0938C48.9938 26.7188 48.499 27.4544 48.1344 28.3008C47.7698 29.1471 47.5875 30.0456 47.5875 30.9961V50H43.5836V30C43.5836 28.5938 43.8831 27.2852 44.482 26.0742C45.094 24.8503 45.9013 23.7956 46.9039 22.9102C47.9195 22.0117 49.0849 21.3086 50.4 20.8008C51.7151 20.2799 53.0888 20.013 54.5211 20H65.5953V24.0039ZM65.5953 34.0039H49.5992V30H65.5953V34.0039ZM77.0648 50H73.0609V31.9922H67.0648V28.0078H73.0609V20H77.0648V28.0078H91.0687V31.9922H77.0648V50ZM128.339 35.9961C128.339 37.9362 128.033 39.7591 127.421 41.4648C126.809 43.1706 125.937 44.6549 124.804 45.918C123.684 47.181 122.336 48.1771 120.761 48.9062C119.185 49.6354 117.434 50 115.507 50H106.191C104.251 50 102.486 49.6354 100.898 48.9062C99.3091 48.1771 97.9484 47.181 96.8156 45.918C95.6958 44.6549 94.83 43.1706 94.218 41.4648C93.606 39.7591 93.3 37.9362 93.3 35.9961C93.3 34.069 93.606 32.2591 94.218 30.5664C94.83 28.8607 95.6958 27.3763 96.8156 26.1133C97.9484 24.8372 99.3091 23.8346 100.898 23.1055C102.486 22.3633 104.251 21.9922 106.191 21.9922H115.507C117.434 21.9922 119.185 22.3633 120.761 23.1055C122.336 23.8346 123.684 24.8372 124.804 26.1133C125.937 27.3763 126.809 28.8607 127.421 30.5664C128.033 32.2591 128.339 34.069 128.339 35.9961ZM124.335 35.9961C124.335 34.6159 124.133 33.3203 123.73 32.1094C123.326 30.8984 122.74 29.8438 121.972 28.9453C121.217 28.0339 120.292 27.3177 119.198 26.7969C118.118 26.263 116.887 25.9961 115.507 25.9961H106.191C104.81 25.9961 103.567 26.263 102.46 26.7969C101.366 27.3177 100.435 28.0339 99.6672 28.9453C98.912 29.8438 98.326 30.8984 97.9094 32.1094C97.5057 33.3203 97.3039 34.6159 97.3039 35.9961C97.3039 37.3763 97.5057 38.6784 97.9094 39.9023C98.326 41.1133 98.912 42.1745 99.6672 43.0859C100.435 43.9844 101.366 44.694 102.46 45.2148C103.567 45.7357 104.81 45.9961 106.191 45.9961H115.507C116.887 45.9961 118.118 45.7357 119.198 45.2148C120.292 44.694 121.217 43.9844 121.972 43.0859C122.74 42.1745 123.326 41.1133 123.73 39.9023C124.133 38.6784 124.335 37.3763 124.335 35.9961ZM155.18 24.0039H144.105C143.142 24.0169 142.237 24.2122 141.391 24.5898C140.557 24.9544 139.828 25.4557 139.203 26.0938C138.578 26.7188 138.083 27.4544 137.719 28.3008C137.354 29.1471 137.172 30.0456 137.172 30.9961V50H133.168V30C133.168 28.5938 133.467 27.2852 134.066 26.0742C134.678 24.8503 135.486 23.7956 136.488 22.9102C137.504 22.0117 138.669 21.3086 139.984 20.8008C141.299 20.2799 142.673 20.013 144.105 20H155.18V24.0039ZM155.18 34.0039H139.184V30H155.18V34.0039ZM180.927 24.0039H169.852C168.889 24.0169 167.984 24.2122 167.137 24.5898C166.304 24.9544 165.575 25.4557 164.95 26.0938C164.325 26.7188 163.83 27.4544 163.466 28.3008C163.101 29.1471 162.919 30.0456 162.919 30.9961V50H158.915V30C158.915 28.5938 159.214 27.2852 159.813 26.0742C160.425 24.8503 161.233 23.7956 162.235 22.9102C163.251 22.0117 164.416 21.3086 165.731 20.8008C167.046 20.2799 168.42 20.013 169.852 20H180.927V24.0039ZM180.927 34.0039H164.93V30H180.927V34.0039ZM188.041 50H184.291V46.25H188.041V50Z" fill="#D98236"/>
<path d="M30.1172 50V50.25H30.3672V50H30.1172ZM3.35938 50H3.10938V50.25H3.35938V50ZM3.35938 21.9922V21.7422H3.10938V21.9922H3.35938ZM7.36328 21.9922H7.61328V21.7422H7.36328V21.9922ZM7.36328 45.9961H7.11328V46.2461H7.36328V45.9961ZM30.1172 45.9961H30.3672V45.7461H30.1172V45.9961ZM30.1172 49.75H3.35938V50.25H30.1172V49.75ZM3.60938 50V21.9922H3.10938V50H3.60938ZM3.35938 22.2422H7.36328V21.7422H3.35938V22.2422ZM7.11328 21.9922V45.9961H7.61328V21.9922H7.11328ZM7.36328 46.2461H30.1172V45.7461H7.36328V46.2461ZM29.8672 45.9961V50H30.3672V45.9961H29.8672ZM38.3836 24.1797L38.6121 24.2812L38.6134 24.2782L38.3836 24.1797ZM32.8563 24.1797L32.6264 24.2782L32.6278 24.2812L32.8563 24.1797ZM34.4578 20.2539L34.5563 20.4838L34.5631 20.4807L34.4578 20.2539ZM36.782 20.2539L36.6767 20.4808L36.6836 20.4837L36.782 20.2539ZM37.6219 50V50.25H37.8719V50H37.6219ZM33.618 50H33.368V50.25H33.618V50ZM33.618 28.0078V27.7578H33.368V28.0078H33.618ZM37.6219 28.0078H37.8719V27.7578H37.6219V28.0078ZM38.368 23.0078C38.368 23.3924 38.2961 23.7493 38.1538 24.0812L38.6134 24.2782C38.7836 23.8809 38.868 23.4566 38.868 23.0078H38.368ZM38.1551 24.0782C38.0114 24.4015 37.8141 24.6886 37.5623 24.9404L37.9158 25.294C38.2109 24.9989 38.4433 24.661 38.612 24.2812L38.1551 24.0782ZM37.5623 24.9404C37.3119 25.1908 37.0197 25.3879 36.6836 25.5319L36.8805 25.9915C37.2736 25.8231 37.6193 25.5905 37.9158 25.294L37.5623 24.9404ZM36.6836 25.5319C36.3506 25.6746 36.0001 25.7461 35.6297 25.7461V26.2461C36.0666 26.2461 36.4843 26.1613 36.8805 25.9915L36.6836 25.5319ZM35.6297 25.7461C35.2451 25.7461 34.8882 25.6742 34.5563 25.5319L34.3593 25.9915C34.7566 26.1618 35.1809 26.2461 35.6297 26.2461V25.7461ZM34.5563 25.5319C34.2202 25.3879 33.9279 25.1908 33.6776 24.9404L33.324 25.294C33.6205 25.5905 33.9663 25.8231 34.3593 25.9915L34.5563 25.5319ZM33.6776 24.9404C33.4257 24.6886 33.2284 24.4015 33.0847 24.0782L32.6278 24.2812C32.7966 24.661 33.029 24.9989 33.324 25.294L33.6776 24.9404ZM33.086 24.0812C32.9438 23.7493 32.8719 23.3924 32.8719 23.0078H32.3719C32.3719 23.4566 32.4562 23.8809 32.6265 24.2782L33.086 24.0812ZM32.8719 23.0078C32.8719 22.6374 32.9434 22.2869 33.086 21.9539L32.6265 21.757C32.4566 22.1532 32.3719 22.5709 32.3719 23.0078H32.8719ZM33.086 21.9539C33.2301 21.6178 33.4272 21.3256 33.6776 21.0752L33.324 20.7217C33.0275 21.0182 32.7949 21.3639 32.6265 21.757L33.086 21.9539ZM33.6776 21.0752C33.9279 20.8248 34.2202 20.6277 34.5563 20.4837L34.3593 20.0241C33.9663 20.1926 33.6205 20.4252 33.324 20.7217L33.6776 21.0752ZM34.5631 20.4807C34.8935 20.3273 35.248 20.25 35.6297 20.25V19.75C35.178 19.75 34.7513 19.842 34.3525 20.0272L34.5631 20.4807ZM35.6297 20.25C35.9971 20.25 36.3453 20.3268 36.6768 20.4807L36.8873 20.0272C36.4896 19.8425 36.0695 19.75 35.6297 19.75V20.25ZM36.6836 20.4837C37.0197 20.6277 37.3119 20.8248 37.5623 21.0752L37.9158 20.7217C37.6193 20.4252 37.2736 20.1926 36.8805 20.0241L36.6836 20.4837ZM37.5623 21.0752C37.8127 21.3256 38.0098 21.6178 38.1538 21.9539L38.6134 21.757C38.4449 21.3639 38.2124 21.0182 37.9158 20.7217L37.5623 21.0752ZM38.1538 21.9539C38.2965 22.2869 38.368 22.6374 38.368 23.0078H38.868C38.868 22.5709 38.7832 22.1532 38.6134 21.757L38.1538 21.9539ZM37.6219 49.75H33.618V50.25H37.6219V49.75ZM33.868 50V28.0078H33.368V50H33.868ZM33.618 28.2578H37.6219V27.7578H33.618V28.2578ZM37.3719 28.0078V50H37.8719V28.0078H37.3719ZM65.5953 24.0039V24.2539H65.8453V24.0039H65.5953ZM54.5211 24.0039V23.7539L54.5177 23.7539L54.5211 24.0039ZM51.8063 24.5898L51.9065 24.8189L51.9081 24.8182L51.8063 24.5898ZM49.6188 26.0938L49.7955 26.2705L49.7973 26.2687L49.6188 26.0938ZM47.5875 50V50.25H47.8375V50H47.5875ZM43.5836 50H43.3336V50.25H43.5836V50ZM44.482 26.0742L44.2584 25.9624L44.2579 25.9634L44.482 26.0742ZM46.9039 22.9102L47.0694 23.0975L47.0696 23.0974L46.9039 22.9102ZM50.4 20.8008L50.4901 21.034L50.4921 21.0332L50.4 20.8008ZM54.5211 20V19.75L54.5188 19.75L54.5211 20ZM65.5953 20H65.8453V19.75H65.5953V20ZM65.5953 34.0039V34.2539H65.8453V34.0039H65.5953ZM49.5992 34.0039H49.3492V34.2539H49.5992V34.0039ZM49.5992 30V29.75H49.3492V30H49.5992ZM65.5953 30H65.8453V29.75H65.5953V30ZM65.5953 23.7539H54.5211V24.2539H65.5953V23.7539ZM54.5177 23.7539C53.5216 23.7674 52.583 23.9695 51.7044 24.3615L51.9081 24.8182C52.7222 24.4549 53.5935 24.2665 54.5245 24.2539L54.5177 23.7539ZM51.706 24.3608C50.8439 24.738 50.088 25.2575 49.4402 25.9188L49.7973 26.2687C50.3995 25.654 51.1019 25.1709 51.9065 24.8189L51.706 24.3608ZM49.442 25.917C48.7936 26.5653 48.2813 27.3277 47.9048 28.2019L48.364 28.3997C48.7166 27.5811 49.1939 26.8722 49.7955 26.2705L49.442 25.917ZM47.9048 28.2019C47.5263 29.0805 47.3375 30.0127 47.3375 30.9961H47.8375C47.8375 30.0785 48.0133 29.2138 48.364 28.3997L47.9048 28.2019ZM47.3375 30.9961V50H47.8375V30.9961H47.3375ZM47.5875 49.75H43.5836V50.25H47.5875V49.75ZM43.8336 50V30H43.3336V50H43.8336ZM43.8336 30C43.8336 28.6306 44.1249 27.3601 44.7061 26.1851L44.2579 25.9634C43.6412 27.2102 43.3336 28.5569 43.3336 30H43.8336ZM44.7056 26.186C45.3036 24.9901 46.0914 23.9612 47.0694 23.0975L46.7384 22.7228C45.7112 23.6299 44.8844 24.7104 44.2584 25.9624L44.7056 26.186ZM47.0696 23.0974C48.062 22.2194 49.2016 21.5315 50.4901 21.034L50.3099 20.5676C48.9682 21.0857 47.777 21.804 46.7383 22.7229L47.0696 23.0974ZM50.4921 21.0332C51.7782 20.5239 53.1214 20.2627 54.5234 20.25L54.5188 19.75C53.0562 19.7633 51.652 20.036 50.3079 20.5683L50.4921 21.0332ZM54.5211 20.25H65.5953V19.75H54.5211V20.25ZM65.3453 20V24.0039H65.8453V20H65.3453ZM65.5953 33.7539H49.5992V34.2539H65.5953V33.7539ZM49.8492 34.0039V30H49.3492V34.0039H49.8492ZM49.5992 30.25H65.5953V29.75H49.5992V30.25ZM65.3453 30V34.0039H65.8453V30H65.3453ZM77.0648 50V50.25H77.3148V50H77.0648ZM73.0609 50H72.8109V50.25H73.0609V50ZM73.0609 31.9922H73.3109V31.7422H73.0609V31.9922ZM67.0648 31.9922H66.8148V32.2422H67.0648V31.9922ZM67.0648 28.0078V27.7578H66.8148V28.0078H67.0648ZM73.0609 28.0078V28.2578H73.3109V28.0078H73.0609ZM73.0609 20V19.75H72.8109V20H73.0609ZM77.0648 20H77.3148V19.75H77.0648V20ZM77.0648 28.0078H76.8148V28.2578H77.0648V28.0078ZM91.0687 28.0078H91.3187V27.7578H91.0687V28.0078ZM91.0687 31.9922V32.2422H91.3187V31.9922H91.0687ZM77.0648 31.9922V31.7422H76.8148V31.9922H77.0648ZM77.0648 49.75H73.0609V50.25H77.0648V49.75ZM73.3109 50V31.9922H72.8109V50H73.3109ZM73.0609 31.7422H67.0648V32.2422H73.0609V31.7422ZM67.3148 31.9922V28.0078H66.8148V31.9922H67.3148ZM67.0648 28.2578H73.0609V27.7578H67.0648V28.2578ZM73.3109 28.0078V20H72.8109V28.0078H73.3109ZM73.0609 20.25H77.0648V19.75H73.0609V20.25ZM76.8148 20V28.0078H77.3148V20H76.8148ZM77.0648 28.2578H91.0687V27.7578H77.0648V28.2578ZM90.8187 28.0078V31.9922H91.3187V28.0078H90.8187ZM91.0687 31.7422H77.0648V32.2422H91.0687V31.7422ZM76.8148 31.9922V50H77.3148V31.9922H76.8148ZM124.804 45.918L124.618 45.751L124.617 45.7521L124.804 45.918ZM100.898 48.9062L100.793 49.1335L100.898 48.9062ZM96.8156 45.918L96.6286 46.0838L96.6295 46.0849L96.8156 45.918ZM94.218 41.4648L93.9827 41.5493L94.218 41.4648ZM94.218 30.5664L94.4531 30.6514L94.4533 30.6508L94.218 30.5664ZM96.8156 26.1133L96.6287 25.9473L96.6286 25.9474L96.8156 26.1133ZM100.898 23.1055L101.002 23.3327L101.003 23.332L100.898 23.1055ZM120.761 23.1055L120.654 23.3316L120.656 23.3323L120.761 23.1055ZM124.804 26.1133L124.616 26.2782L124.618 26.2802L124.804 26.1133ZM127.421 30.5664L127.186 30.6508L127.186 30.6514L127.421 30.5664ZM121.972 28.9453L121.779 29.1048L121.782 29.1078L121.972 28.9453ZM119.198 26.7969L119.088 27.021L119.091 27.0226L119.198 26.7969ZM102.46 26.7969L102.568 27.0226L102.569 27.022L102.46 26.7969ZM99.6672 28.9453L99.476 28.7842L99.4758 28.7844L99.6672 28.9453ZM97.9094 32.1094L97.673 32.028L97.6722 32.0303L97.9094 32.1094ZM97.9094 39.9023L97.6719 39.9806L97.673 39.9837L97.9094 39.9023ZM99.6672 43.0859L99.4747 43.2455L99.4772 43.2484L99.6672 43.0859ZM102.46 45.2148L102.353 45.4406L102.354 45.441L102.46 45.2148ZM119.198 45.2148L119.091 44.9891L119.09 44.9896L119.198 45.2148ZM121.972 43.0859L121.781 42.9248L121.781 42.9251L121.972 43.0859ZM123.73 39.9023L123.967 39.9814L123.967 39.9806L123.73 39.9023ZM128.089 35.9961C128.089 37.9095 127.787 39.7036 127.186 41.3804L127.656 41.5493C128.279 39.8146 128.589 37.9629 128.589 35.9961H128.089ZM127.186 41.3804C126.584 43.0578 125.728 44.5137 124.618 45.751L124.99 46.0849C126.146 44.7962 127.034 43.2833 127.656 41.5493L127.186 41.3804ZM124.617 45.7521C123.521 46.9886 122.201 47.9643 120.656 48.6794L120.866 49.1331C122.472 48.3899 123.848 47.3734 124.991 46.0838L124.617 45.7521ZM120.656 48.6794C119.117 49.3917 117.402 49.75 115.507 49.75V50.25C117.466 50.25 119.254 49.8791 120.866 49.1331L120.656 48.6794ZM115.507 49.75H106.191V50.25H115.507V49.75ZM106.191 49.75C104.283 49.75 102.554 49.3916 101.002 48.679L100.793 49.1335C102.418 49.8792 104.219 50.25 106.191 50.25V49.75ZM101.002 48.679C99.4436 47.9637 98.111 46.9878 97.0017 45.751L96.6295 46.0849C97.7859 47.3742 99.1747 48.3905 100.793 49.1335L101.002 48.679ZM97.0027 45.7521C95.9055 44.5146 95.0553 43.0584 94.4533 41.3804L93.9827 41.5493C94.6046 43.2827 95.4861 44.7953 96.6286 46.0838L97.0027 45.7521ZM94.4533 41.3804C93.8517 39.7036 93.55 37.9095 93.55 35.9961H93.05C93.05 37.9629 93.3603 39.8146 93.9827 41.5493L94.4533 41.3804ZM93.55 35.9961C93.55 34.0959 93.8516 32.315 94.4531 30.6514L93.9829 30.4814C93.3604 32.2032 93.05 34.0421 93.05 35.9961H93.55ZM94.4533 30.6508C95.0553 28.9728 95.9055 27.5166 97.0027 26.2791L96.6286 25.9474C95.4861 27.236 94.6046 28.7485 93.9827 30.482L94.4533 30.6508ZM97.0026 26.2793C98.1118 25.0298 99.4441 24.0477 101.002 23.3327L100.793 22.8783C99.1741 23.6215 97.7851 24.6447 96.6287 25.9473L97.0026 26.2793ZM101.003 23.332C102.556 22.6068 104.283 22.2422 106.191 22.2422V21.7422C104.218 21.7422 102.417 22.1197 100.792 22.879L101.003 23.332ZM106.191 22.2422H115.507V21.7422H106.191V22.2422ZM115.507 22.2422C117.401 22.2422 119.116 22.6067 120.654 23.3316L120.867 22.8793C119.255 22.1198 117.467 21.7422 115.507 21.7422V22.2422ZM120.656 23.3323C122.201 24.0472 123.52 25.029 124.616 26.2782L124.992 25.9484C123.848 24.6455 122.472 23.6221 120.866 22.8786L120.656 23.3323ZM124.618 26.2802C125.728 27.5176 126.584 28.9734 127.186 30.6508L127.656 30.482C127.034 28.7479 126.146 27.235 124.99 25.9464L124.618 26.2802ZM127.186 30.6514C127.787 32.315 128.089 34.0959 128.089 35.9961H128.589C128.589 34.0421 128.279 32.2032 127.656 30.4814L127.186 30.6514ZM124.585 35.9961C124.585 34.5912 124.38 33.2687 123.967 32.0303L123.493 32.1884C123.887 33.3719 124.085 34.6406 124.085 35.9961H124.585ZM123.967 32.0303C123.554 30.7913 122.953 29.7077 122.162 28.7828L121.782 29.1078C122.528 29.9798 123.098 31.0056 123.493 32.1884L123.967 32.0303ZM122.164 28.7858C121.385 27.8457 120.432 27.1072 119.306 26.5712L119.091 27.0226C120.153 27.5282 121.048 28.222 121.779 29.1048L122.164 28.7858ZM119.309 26.5727C118.189 26.0196 116.92 25.7461 115.507 25.7461V26.2461C116.854 26.2461 118.046 26.5065 119.088 27.021L119.309 26.5727ZM115.507 25.7461H106.191V26.2461H115.507V25.7461ZM106.191 25.7461C104.777 25.7461 103.496 26.0196 102.352 26.5717L102.569 27.022C103.638 26.5064 104.843 26.2461 106.191 26.2461V25.7461ZM102.353 26.5712C101.227 27.1071 100.268 27.845 99.476 28.7842L99.8583 29.1064C100.603 28.2227 101.506 27.5284 102.568 27.0226L102.353 26.5712ZM99.4758 28.7844C98.6991 29.7085 98.0987 30.7907 97.673 32.028L98.1458 32.1907C98.5534 31.0062 99.1248 29.979 99.8586 29.1062L99.4758 28.7844ZM97.6722 32.0303C97.2594 33.2687 97.0539 34.5912 97.0539 35.9961H97.5539C97.5539 34.6406 97.7521 33.3719 98.1465 32.1884L97.6722 32.0303ZM97.0539 35.9961C97.0539 37.401 97.2594 38.7297 97.672 39.9806L98.1468 39.824C97.7521 38.6271 97.5539 37.3516 97.5539 35.9961H97.0539ZM97.673 39.9837C98.0986 41.2208 98.6987 42.309 99.4747 43.2454L99.8597 42.9264C99.1252 42.04 98.5534 41.0058 98.1458 39.821L97.673 39.9837ZM99.4772 43.2484C100.269 44.1741 101.228 44.905 102.353 45.4406L102.568 44.9891C101.505 44.483 100.602 43.7946 99.8572 42.9235L99.4772 43.2484ZM102.354 45.441C103.498 45.9795 104.778 46.2461 106.191 46.2461V45.7461C104.842 45.7461 103.636 45.4919 102.567 44.9886L102.354 45.441ZM106.191 46.2461H115.507V45.7461H106.191V46.2461ZM115.507 46.2461C116.919 46.2461 118.188 45.9795 119.307 45.4401L119.09 44.9896C118.048 45.4919 116.855 45.7461 115.507 45.7461V46.2461ZM119.306 45.4406C120.431 44.9049 121.384 44.1735 122.163 43.2468L121.781 42.9251C121.049 43.7953 120.153 44.4832 119.091 44.9891L119.306 45.4406ZM122.163 43.2471C122.953 42.3097 123.554 41.2202 123.967 39.9814L123.493 39.8233C123.098 41.0064 122.527 42.0392 121.781 42.9248L122.163 43.2471ZM123.967 39.9806C124.38 38.7297 124.585 37.401 124.585 35.9961H124.085C124.085 37.3516 123.887 38.6271 123.492 39.824L123.967 39.9806ZM155.18 24.0039V24.2539H155.43V24.0039H155.18ZM144.105 24.0039V23.7539L144.102 23.7539L144.105 24.0039ZM141.391 24.5898L141.491 24.8189L141.492 24.8182L141.391 24.5898ZM139.203 26.0938L139.38 26.2705L139.382 26.2687L139.203 26.0938ZM137.172 50V50.25H137.422V50H137.172ZM133.168 50H132.918V50.25H133.168V50ZM134.066 26.0742L133.843 25.9624L133.842 25.9634L134.066 26.0742ZM136.488 22.9102L136.654 23.0975L136.654 23.0974L136.488 22.9102ZM139.984 20.8008L140.074 21.034L140.076 21.0332L139.984 20.8008ZM144.105 20V19.75L144.103 19.75L144.105 20ZM155.18 20H155.43V19.75H155.18V20ZM155.18 34.0039V34.2539H155.43V34.0039H155.18ZM139.184 34.0039H138.934V34.2539H139.184V34.0039ZM139.184 30V29.75H138.934V30H139.184ZM155.18 30H155.43V29.75H155.18V30ZM155.18 23.7539H144.105V24.2539H155.18V23.7539ZM144.102 23.7539C143.106 23.7674 142.167 23.9695 141.289 24.3615L141.492 24.8182C142.307 24.4549 143.178 24.2665 144.109 24.2539L144.102 23.7539ZM141.29 24.3608C140.428 24.738 139.672 25.2575 139.025 25.9188L139.382 26.2687C139.984 25.654 140.686 25.1709 141.491 24.8189L141.29 24.3608ZM139.026 25.917C138.378 26.5653 137.866 27.3277 137.489 28.2019L137.948 28.3997C138.301 27.5811 138.778 26.8722 139.38 26.2705L139.026 25.917ZM137.489 28.2019C137.111 29.0805 136.922 30.0127 136.922 30.9961H137.422C137.422 30.0785 137.598 29.2138 137.948 28.3997L137.489 28.2019ZM136.922 30.9961V50H137.422V30.9961H136.922ZM137.172 49.75H133.168V50.25H137.172V49.75ZM133.418 50V30H132.918V50H133.418ZM133.418 30C133.418 28.6306 133.709 27.3601 134.29 26.1851L133.842 25.9634C133.226 27.2102 132.918 28.5569 132.918 30H133.418ZM134.29 26.186C134.888 24.9901 135.676 23.9612 136.654 23.0975L136.323 22.7228C135.296 23.6299 134.469 24.7104 133.843 25.9624L134.29 26.186ZM136.654 23.0974C137.646 22.2194 138.786 21.5315 140.074 21.034L139.894 20.5676C138.553 21.0857 137.361 21.804 136.323 22.7229L136.654 23.0974ZM140.076 21.0332C141.363 20.5239 142.706 20.2627 144.108 20.25L144.103 19.75C142.641 19.7633 141.236 20.036 139.892 20.5683L140.076 21.0332ZM144.105 20.25H155.18V19.75H144.105V20.25ZM154.93 20V24.0039H155.43V20H154.93ZM155.18 33.7539H139.184V34.2539H155.18V33.7539ZM139.434 34.0039V30H138.934V34.0039H139.434ZM139.184 30.25H155.18V29.75H139.184V30.25ZM154.93 30V34.0039H155.43V30H154.93ZM180.927 24.0039V24.2539H181.177V24.0039H180.927ZM169.852 24.0039V23.7539L169.849 23.7539L169.852 24.0039ZM167.137 24.5898L167.238 24.8189L167.239 24.8182L167.137 24.5898ZM164.95 26.0938L165.127 26.2705L165.129 26.2687L164.95 26.0938ZM162.919 50V50.25H163.169V50H162.919ZM158.915 50H158.665V50.25H158.915V50ZM159.813 26.0742L159.59 25.9624L159.589 25.9634L159.813 26.0742ZM162.235 22.9102L162.401 23.0975L162.401 23.0974L162.235 22.9102ZM165.731 20.8008L165.821 21.034L165.823 21.0332L165.731 20.8008ZM169.852 20V19.75L169.85 19.75L169.852 20ZM180.927 20H181.177V19.75H180.927V20ZM180.927 34.0039V34.2539H181.177V34.0039H180.927ZM164.93 34.0039H164.68V34.2539H164.93V34.0039ZM164.93 30V29.75H164.68V30H164.93ZM180.927 30H181.177V29.75H180.927V30ZM180.927 23.7539H169.852V24.2539H180.927V23.7539ZM169.849 23.7539C168.853 23.7674 167.914 23.9695 167.036 24.3615L167.239 24.8182C168.053 24.4549 168.925 24.2665 169.856 24.2539L169.849 23.7539ZM167.037 24.3608C166.175 24.738 165.419 25.2575 164.771 25.9188L165.129 26.2687C165.731 25.654 166.433 25.1709 167.238 24.8189L167.037 24.3608ZM164.773 25.917C164.125 26.5653 163.613 27.3277 163.236 28.2019L163.695 28.3997C164.048 27.5811 164.525 26.8722 165.127 26.2705L164.773 25.917ZM163.236 28.2019C162.858 29.0805 162.669 30.0127 162.669 30.9961H163.169C163.169 30.0785 163.345 29.2138 163.695 28.3997L163.236 28.2019ZM162.669 30.9961V50H163.169V30.9961H162.669ZM162.919 49.75H158.915V50.25H162.919V49.75ZM159.165 50V30H158.665V50H159.165ZM159.165 30C159.165 28.6306 159.456 27.3601 160.037 26.1851L159.589 25.9634C158.972 27.2102 158.665 28.5569 158.665 30H159.165ZM160.037 26.186C160.635 24.9901 161.423 23.9612 162.401 23.0975L162.07 22.7228C161.042 23.6299 160.216 24.7104 159.59 25.9624L160.037 26.186ZM162.401 23.0974C163.393 22.2194 164.533 21.5315 165.821 21.034L165.641 20.5676C164.299 21.0857 163.108 21.804 162.07 22.7229L162.401 23.0974ZM165.823 21.0332C167.109 20.5239 168.453 20.2627 169.855 20.25L169.85 19.75C168.387 19.7633 166.983 20.036 165.639 20.5683L165.823 21.0332ZM169.852 20.25H180.927V19.75H169.852V20.25ZM180.677 20V24.0039H181.177V20H180.677ZM180.927 33.7539H164.93V34.2539H180.927V33.7539ZM165.18 34.0039V30H164.68V34.0039H165.18ZM164.93 30.25H180.927V29.75H164.93V30.25ZM180.677 30V34.0039H181.177V30H180.677ZM188.041 50V50.25H188.291V50H188.041ZM184.291 50H184.041V50.25H184.291V50ZM184.291 46.25V46H184.041V46.25H184.291ZM188.041 46.25H188.291V46H188.041V46.25ZM188.041 49.75H184.291V50.25H188.041V49.75ZM184.541 50V46.25H184.041V50H184.541ZM184.291 46.5H188.041V46H184.291V46.5ZM187.791 46.25V50H188.291V46.25H187.791Z" fill="#F2D7B6"/>
<defs>
<filter id="filter0_dddddd_68_18" x="171.386" y="0.464378" width="70.4639" height="62.7324" filterUnits="userSpaceOnUse" color-interpolation-filters="sRGB">
<feFlood flood-opacity="0" result="BackgroundImageFix"/>
<feColorMatrix in="SourceAlpha" type="matrix" values="0 0 0 0 0 0 0 0 0 0 0 0 0 0 0 0 0 0 127 0" result="hardAlpha"/>
<feOffset/>
<feGaussianBlur stdDeviation="0.278388"/>
<feColorMatrix type="matrix" values="0 0 0 0 0.85098 0 0 0 0 0.509804 0 0 0 0 0.211765 0 0 0 1 0"/>
<feBlend mode="normal" in2="BackgroundImageFix" result="effect1_dropShadow_68_18"/>
<feColorMatrix in="SourceAlpha" type="matrix" values="0 0 0 0 0 0 0 0 0 0 0 0 0 0 0 0 0 0 127 0" result="hardAlpha"/>
<feOffset/>
<feGaussianBlur stdDeviation="0.556777"/>
<feColorMatrix type="matrix" values="0 0 0 0 0.85098 0 0 0 0 0.509804 0 0 0 0 0.211765 0 0 0 1 0"/>
<feBlend mode="normal" in2="effect1_dropShadow_68_18" result="effect2_dropShadow_68_18"/>
<feColorMatrix in="SourceAlpha" type="matrix" values="0 0 0 0 0 0 0 0 0 0 0 0 0 0 0 0 0 0 127 0" result="hardAlpha"/>
<feOffset/>
<feGaussianBlur stdDeviation="1.94872"/>
<feColorMatrix type="matrix" values="0 0 0 0 0.85098 0 0 0 0 0.509804 0 0 0 0 0.211765 0 0 0 1 0"/>
<feBlend mode="normal" in2="effect2_dropShadow_68_18" result="effect3_dropShadow_68_18"/>
<feColorMatrix in="SourceAlpha" type="matrix" values="0 0 0 0 0 0 0 0 0 0 0 0 0 0 0 0 0 0 127 0" result="hardAlpha"/>
<feOffset/>
<feGaussianBlur stdDeviation="3.89744"/>
<feColorMatrix type="matrix" values="0 0 0 0 0.85098 0 0 0 0 0.509804 0 0 0 0 0.211765 0 0 0 1 0"/>
<feBlend mode="normal" in2="effect3_dropShadow_68_18" result="effect4_dropShadow_68_18"/>
<feColorMatrix in="SourceAlpha" type="matrix" values="0 0 0 0 0 0 0 0 0 0 0 0 0 0 0 0 0 0 127 0" result="hardAlpha"/>
<feOffset/>
<feGaussianBlur stdDeviation="6.68132"/>
<feColorMatrix type="matrix" values="0 0 0 0 0.85098 0 0 0 0 0.509804 0 0 0 0 0.211765 0 0 0 1 0"/>
<feBlend mode="normal" in2="effect4_dropShadow_68_18" result="effect5_dropShadow_68_18"/>
<feColorMatrix in="SourceAlpha" type="matrix" values="0 0 0 0 0 0 0 0 0 0 0 0 0 0 0 0 0 0 127 0" result="hardAlpha"/>
<feOffset/>
<feGaussianBlur stdDeviation="11.6923"/>
<feColorMatrix type="matrix" values="0 0 0 0 0.85098 0 0 0 0 0.509804 0 0 0 0 0.211765 0 0 0 1 0"/>
<feBlend mode="normal" in2="effect5_dropShadow_68_18" result="effect6_dropShadow_68_18"/>
<feBlend mode="normal" in="SourceGraphic" in2="effect6_dropShadow_68_18" result="shape"/>
</filter>
</defs>
</svg>
